<svg xmlns="http://www.w3.org/2000/svg" viewBox="0 0 197.14 39.42"><defs><style>.cls-1{fill:#000546;}.cls-2{fill:#e41c38;}.cls-3{fill:#00c569;}</style></defs><g id="Layer_2" data-name="Layer 2"><g id="Layer_1-2" data-name="Layer 1"><path class="cls-1" d="M0,38.18Q.51,32.86,1.11,19.7T1.75,0C3.4,0,4.84.06,6.05.06S8.55,0,9.93,0q-.48,3.95-.75,10c1.82-.36,3.28-.6,4.36-.72a29.09,29.09,0,0,1,3.22-.18,17.5,17.5,0,0,1,7.39,1.39A10.58,10.58,0,0,1,29,15a15.41,15.41,0,0,1,1.82,7.76,21.2,21.2,0,0,1-.91,6.2,16.22,16.22,0,0,1-2.71,5.34,10.81,10.81,0,0,1-4.37,3.43,14.29,14.29,0,0,1-5.59,1.09,12.74,12.74,0,0,1-2.7-.27,10.28,10.28,0,0,1-2.29-.77,9.41,9.41,0,0,1-1.87-1.17A9.76,9.76,0,0,1,9,35.29a16.32,16.32,0,0,1-1.27-1.87l-.12,4.76c-1.53,0-2.74-.06-3.61-.06C3.3,38.12,2,38.14,0,38.18ZM8.66,15.66l-.22,4.78q-.09,1.54-.09,3a16.91,16.91,0,0,0,.71,5.46A6,6,0,0,0,11.47,32a7,7,0,0,0,3.82,1.09,6.63,6.63,0,0,0,4-1.25,7.85,7.85,0,0,0,2.61-3.65,14.3,14.3,0,0,0,.9-5.06,9,9,0,0,0-2-6.15,7.55,7.55,0,0,0-6-2.32,19.34,19.34,0,0,0-2.67.2A29.27,29.27,0,0,0,8.66,15.66Z"/><path class="cls-1" d="M64.47,38.18q-2.46-.06-3.78-.06-1.65,0-3.75.06L57,33.53a21.76,21.76,0,0,1-1.37,1.89,7.9,7.9,0,0,1-1.54,1.4A8.29,8.29,0,0,1,52,37.91a17,17,0,0,1-5.62.94,15.08,15.08,0,0,1-5.46-.91,8.15,8.15,0,0,1-3.67-2.76,8.76,8.76,0,0,1-1.36-5.28v-.59l.45-7.22.43-9.5c0-.77,0-1.72,0-2.86,1.76,0,3.15.06,4.16.06s2.34,0,3.85-.06L43.9,22.49c0,1-.1,1.82-.13,2.5s0,1.17,0,1.47a8.15,8.15,0,0,0,.6,3.34,4.09,4.09,0,0,0,2.1,2,7.55,7.55,0,0,0,3.2.7,7.8,7.8,0,0,0,3.07-.62A6.3,6.3,0,0,0,55,30.34a8.21,8.21,0,0,0,1.58-2.71,14.38,14.38,0,0,0,.73-3.41c.13-1,.25-2.79.36-5.29.15-3,.26-6.08.32-9.2q2.78.06,4.23.06,1.65,0,3.72-.06-.33,4-.7,10c-.24,4-.4,7.3-.5,9.9S64.53,35.08,64.47,38.18Z"/><path class="cls-1" d="M70.65,37.64,70,31.49A30.9,30.9,0,0,0,74.67,33a15.87,15.87,0,0,0,3.5.44,8.27,8.27,0,0,0,2.68-.38A3.2,3.2,0,0,0,82.48,32,2.64,2.64,0,0,0,83,30.43a3.45,3.45,0,0,0-.07-.67,2.78,2.78,0,0,0-.25-.65,6.9,6.9,0,0,0-.42-.63,8,8,0,0,0-.66-.67q-.42-.37-1.2-1l-1.51-1.2Q76.71,23.94,75.57,23a12.84,12.84,0,0,1-1.93-2,8,8,0,0,1-1.19-2.15,6.69,6.69,0,0,1,.84-6.2,7.13,7.13,0,0,1,3.62-2.7,16.81,16.81,0,0,1,5.59-.85A47.85,47.85,0,0,1,91,9.93l.36,5.84a16.67,16.67,0,0,0-6.23-1.31,11.39,11.39,0,0,0-2.84.32,3.26,3.26,0,0,0-1.75,1A2.31,2.31,0,0,0,80,17.23a2.79,2.79,0,0,0,.17.94,3.36,3.36,0,0,0,.58,1,7.28,7.28,0,0,0,1,.95c.36.3,1.12.89,2.28,1.76s2.17,1.67,3,2.38a13.5,13.5,0,0,1,2.14,2.14,8.51,8.51,0,0,1,1.29,2.31,7.2,7.2,0,0,1,.45,2.49A6.5,6.5,0,0,1,89.58,35a8.26,8.26,0,0,1-3.89,2.8,16,16,0,0,1-5.81,1,37.72,37.72,0,0,1-4.09-.27A40.25,40.25,0,0,1,70.65,37.64Z"/><path class="cls-1" d="M96.52,38.18l.55-7.28L97.71,17,98,5q.06-3.25.06-5c2,0,3.33.06,4.15.06s2.24,0,3.82-.06l-.58,9.09-.67,14.49-.28,10.82,0,3.78q-2.47-.06-3.9-.06C99.51,38.12,98.15,38.14,96.52,38.18Zm8.89-15.93,5.7-6.93c.49-.6,1.07-1.33,1.74-2.21s1.53-2,2.56-3.38c1.93,0,3.35.06,4.24.06,1.23,0,2.79,0,4.67-.06L115.1,20.29l-1.65,2q2,3.25,11.34,15.88c-1.68,0-3.12-.06-4.31-.06s-2.68,0-4.45.06q-1.64-2.67-2.65-4.27c-.68-1.08-1.31-2-1.89-2.82l-4.76-6.8C106.6,24.11,106.16,23.42,105.41,22.25Z"/><path class="cls-1" d="M174,9.77a17.63,17.63,0,0,1,5,.72A10.65,10.65,0,0,1,183.36,13a11.1,11.1,0,0,1,2.84,4.57,18,18,0,0,1,1,6,20.72,20.72,0,0,1-1,6.54,14.4,14.4,0,0,1-2.94,5.24,10.35,10.35,0,0,1-4.46,3,16.81,16.81,0,0,1-5.44.87,17,17,0,0,1-4-.46,11.89,11.89,0,0,1-3.63-1.55,11.21,11.21,0,0,1-3-2.83,12.4,12.4,0,0,1-1.93-4.11,18.36,18.36,0,0,1-.65-4.95A20,20,0,0,1,161.84,17a11.15,11.15,0,0,1,5-5.49A15.1,15.1,0,0,1,174,9.77ZM174,11.33A12.3,12.3,0,0,0,167.8,13a9.58,9.58,0,0,0-4.19,4.95,19.15,19.15,0,0,0-1.35,7.29,17.59,17.59,0,0,0,.77,5.25,10,10,0,0,0,2.48,4.15,9.41,9.41,0,0,0,3.68,2.35,12.93,12.93,0,0,0,4.15.65,13.33,13.33,0,0,0,4.67-.81,9.44,9.44,0,0,0,3.84-2.71,11.8,11.8,0,0,0,2.45-4.66,21.56,21.56,0,0,0,.78-5.87,18.5,18.5,0,0,0-.76-5.4,9.05,9.05,0,0,0-2.4-4.06A9.16,9.16,0,0,0,178.23,12,14.81,14.81,0,0,0,174,11.33Z"/><path class="cls-1" d="M193.34,38.6q1.28-23.33,1.5-38.18l1.15,0,1.15,0L196.43,14l-.8,24.56-1.15,0Z"/><g id="buskool-icon"><path id="Subtraction_1" data-name="Subtraction 1" class="cls-2" d="M141.64,39.42A14.69,14.69,0,0,1,128.57,18a14.77,14.77,0,0,1,4.32-5.1l3.74,3.73A9.41,9.41,0,1,0,151,26l2.57-2.53,2.76,2.7a14.71,14.71,0,0,1-14.64,13.29Zm14.66-15.8h0l-2.77-2.74L151,23.39a9.43,9.43,0,0,0-4.77-7L150,12.61a14.62,14.62,0,0,1,6.33,11Z"/><g id="Group_24" data-name="Group 24"><path id="Rectangle_12" data-name="Rectangle 12" class="cls-3" d="M140.36,8.87l5.41,5.41h0l-4.58,4.57h0l-7.9-7.9h0l2.08-2.08A3.52,3.52,0,0,1,140.36,8.87Z"/><path id="Rectangle_13" data-name="Rectangle 13" class="cls-3" d="M152.62,7.62,141.4,18.85h0l-4.16-4.16h0l7.9-7.9a4.71,4.71,0,0,1,6.65,0l.83.83Z"/></g></g></g></g></svg>