<svg xmlns="http://www.w3.org/2000/svg" xmlns:xlink="http://www.w3.org/1999/xlink" viewBox="0 0 2929.61 2800"><defs><linearGradient id="linear-gradient-11" x1="-3044.3" y1="-157.91" x2="-1956.24" y2="-850.9" gradientTransform="rotate(176.07 -190.256 399.705)" xlink:href="#linear-gradient-4"/><linearGradient id="linear-gradient" x1="3038.54" y1="3164.04" x2="980.95" y2="943.15" gradientUnits="userSpaceOnUse"><stop offset="0" stop-color="#dae3fe"/><stop offset="1" stop-color="#e9effd"/></linearGradient><linearGradient id="linear-gradient-2" x1="1328.88" y1="-255.31" x2="326.86" y2="1358.47" xlink:href="#linear-gradient"/><linearGradient id="linear-gradient-3" x1="435.98" y1="1550.15" x2="829.72" y2="2696.2" gradientUnits="userSpaceOnUse"><stop offset="0" stop-color="#09005d"/><stop offset="1" stop-color="#1a0f91"/></linearGradient><linearGradient id="linear-gradient-4" x1="-1163.64" y1="3166.71" x2="1494.08" y2="1676.14" gradientUnits="userSpaceOnUse"><stop offset="0" stop-color="#e1473d"/><stop offset="1" stop-color="#e9605a"/></linearGradient><linearGradient id="linear-gradient-5" x1="4691.87" y1="565.37" x2="3499.99" y2="987.27" gradientUnits="userSpaceOnUse"><stop offset="0" stop-color="#febbba"/><stop offset="1" stop-color="#ff928e"/></linearGradient><linearGradient id="linear-gradient-6" x1="2385.92" y1="1400.84" x2="3707.75" y2="1386.78" xlink:href="#linear-gradient-4"/><linearGradient id="linear-gradient-10" x1="-2466.98" y1="2948.56" x2="-1581.13" y2="2384.35" gradientTransform="rotate(-90.89 -265.328 103.173)" xlink:href="#linear-gradient-4"/><linearGradient id="linear-gradient-7" x1="2710.27" y1="1164.26" x2="1831.4" y2="1677.52" xlink:href="#linear-gradient-3"/><linearGradient id="linear-gradient-8" x1="1525.45" y1="616.55" x2="984.06" y2="1080.6" xlink:href="#linear-gradient-3"/><linearGradient id="linear-gradient-9" x1="-3323.01" y1="2049.26" x2="-2437.17" y2="1485.07" gradientTransform="rotate(-119.3 -328.695 119.936)" xlink:href="#linear-gradient-4"/><clipPath id="clip-path"><path d="M2329.57 2165.24c-15-15.27-47.7-74.15-75.72-226.4-27.09-147.14-42-338-42-537.4s14.92-390.25 42-537.39c28-152.26 60.72-211.14 75.72-226.4 15 15.26 47.7 74.14 75.73 226.4 27.09 147.14 240.85 338 240.85 537.39s-213.76 390.26-240.85 537.4c-28.03 152.25-60.72 211.16-75.73 226.4z" fill="none"/></clipPath><style>.cls-3{fill:#91b3fa}.cls-4{fill:#bdd0fb}</style></defs><g id="Layer_2" data-name="Layer 2"><g id="Illustration"><path d="M2751.8 1898.44c-282.72 660.84-1029 944.69-1613.78 896.29-159.66-13.21-480.9-39.8-731.72-277C-75.39 2062.21-1.21 1110 459.91 549.46 519.29 477.27 930.33-6.41 1570.85.06 2039.81 4.8 2369 269.71 2409 302.71c50.56 41.7 162.08 140.77 262.58 297.94 236.14 369.29 256.9 884.83 80.22 1297.79z" fill="url(#linear-gradient)"/><path class="cls-3" d="M826.06 1832.39a3.52 3.52 0 01-3-5.36q3.7-6 7.6-12a3.51 3.51 0 115.87 3.86q-3.84 5.83-7.48 11.77a3.52 3.52 0 01-2.99 1.73zm847.67 127.24a3.51 3.51 0 01-3.4-2.64 463.14 463.14 0 00-7.54-26 3.52 3.52 0 116.7-2.16c2.79 8.67 5.36 17.56 7.65 26.4a3.53 3.53 0 01-2.53 4.29 3.79 3.79 0 01-.88.11zm-23.19-67.69a3.53 3.53 0 01-3.23-2.12c-3.57-8.27-7.42-16.52-11.46-24.53a3.52 3.52 0 016.28-3.16c4.1 8.13 8 16.51 11.63 24.9a3.52 3.52 0 01-1.83 4.62 3.61 3.61 0 01-1.39.29zm-33.36-63.31a3.49 3.49 0 01-3-1.64c-4.79-7.6-9.87-15.17-15.1-22.49a3.51 3.51 0 115.72-4.08c5.31 7.43 10.46 15.1 15.32 22.82a3.52 3.52 0 01-1.1 4.85 3.46 3.46 0 01-1.84.54zm-757.49-43.92A3.52 3.52 0 01857 1779c5.72-7.12 11.73-14.15 17.86-20.91a3.52 3.52 0 015.21 4.73c-6 6.65-11.95 13.58-17.59 20.58a3.48 3.48 0 01-2.79 1.31zm714.86-13.56a3.49 3.49 0 01-2.66-1.22 475.719 475.719 0 00-18.31-19.94 3.51 3.51 0 015-4.9c6.33 6.51 12.59 13.32 18.58 20.24a3.52 3.52 0 01-.35 5 3.56 3.56 0 01-2.26.82zm-665.85-38.57a3.52 3.52 0 01-2.36-6.12 472.68 472.68 0 0120.83-17.92 3.52 3.52 0 114.43 5.46c-7 5.66-13.88 11.6-20.53 17.66a3.52 3.52 0 01-2.37.92zm615-11.77a3.44 3.44 0 01-2.27-.84c-6.89-5.83-14-11.51-21.16-16.89a3.51 3.51 0 114.22-5.62c7.27 5.46 14.49 11.23 21.48 17.15a3.52 3.52 0 01-2.27 6.2zm-558.61-32.31a3.51 3.51 0 01-2-6.44c7.6-5.07 15.45-10 23.32-14.58a3.52 3.52 0 013.55 6.07c-7.75 4.53-15.49 9.37-23 14.36a3.51 3.51 0 01-1.87.59zm500.65-9.6a3.52 3.52 0 01-1.83-.51c-7.68-4.69-15.58-9.21-23.5-13.43a3.52 3.52 0 013.3-6.21c8 4.29 16.07 8.87 23.87 13.64a3.51 3.51 0 01-1.84 6.51zm-438.21-25.4a3.51 3.51 0 01-1.48-6.7 462.97 462.97 0 0125.29-10.82 3.52 3.52 0 012.57 6.55c-8.38 3.29-16.76 6.87-24.91 10.64a3.32 3.32 0 01-1.47.33zm374.47-7.06a3.32 3.32 0 01-1.34-.28c-8.27-3.44-16.78-6.69-25.3-9.65a3.52 3.52 0 012.32-6.64c8.64 3 17.28 6.31 25.67 9.8a3.52 3.52 0 01-1.35 6.77zm-307.4-17.89a3.52 3.52 0 01-1-6.9c8.77-2.5 17.74-4.78 26.65-6.77a3.51 3.51 0 111.53 6.86c-8.78 2-17.61 4.2-26.24 6.67a3.32 3.32 0 01-.94.14zm239.43-4.43a3.44 3.44 0 01-.84-.1c-8.72-2.14-17.62-4-26.47-5.68a3.51 3.51 0 111.27-6.91c9 1.65 18 3.59 26.87 5.76a3.52 3.52 0 01-.83 6.93zm-169.31-9.88a3.51 3.51 0 01-.43-7c9-1.13 18.26-2 27.37-2.61a3.52 3.52 0 01.46 7c-9 .59-18 1.45-27 2.57zm98.72-1.8h-.31c-8.94-.78-18-1.32-27-1.58a3.52 3.52 0 01.1-7h.11c9.13.27 18.36.81 27.44 1.61a3.51 3.51 0 01-.31 7zm421.32 404.66a3.52 3.52 0 01-3.49-3.07q-.88-6.91-2-13.81a3.51 3.51 0 116.94-1.09q1.11 7 2 14a3.53 3.53 0 01-3 3.93 3.31 3.31 0 01-.45.04zm-95.7 346.9a3.51 3.51 0 01-2.76-5.69q4.32-5.49 8.46-11.09a3.51 3.51 0 115.65 4.17q-4.2 5.7-8.59 11.27a3.5 3.5 0 01-2.76 1.34zM1221 2541.93c-9.58 0-19.3-.38-28.88-1a3.52 3.52 0 11.46-7c9.44.62 19 1 28.45 1a3.52 3.52 0 010 7zm46.55-2.1a3.52 3.52 0 01-.33-7c9.4-.9 18.91-2.1 28.24-3.58a3.52 3.52 0 011.1 6.95c-9.48 1.5-19.13 2.72-28.67 3.63zm-121.49-4.28a3.79 3.79 0 01-.58-.05c-9.48-1.59-19-3.48-28.34-5.63a3.51 3.51 0 111.57-6.85c9.2 2.12 18.59 4 27.93 5.54a3.52 3.52 0 01-.58 7zm195.56-8.91a3.52 3.52 0 01-.9-6.92c9.15-2.4 18.33-5.13 27.3-8.09a3.51 3.51 0 112.21 6.67c-9.11 3-18.43 5.78-27.71 8.22a3.6 3.6 0 01-.91.12zm-268.52-9.4a3.38 3.38 0 01-1.12-.19c-9.08-3.07-18.19-6.47-27.07-10.1a3.51 3.51 0 112.65-6.51c8.75 3.58 17.73 6.92 26.67 9.95a3.52 3.52 0 01-1.13 6.85zm339.48-15.6a3.52 3.52 0 01-1.44-6.73c8.63-3.86 17.25-8 25.63-12.42a3.52 3.52 0 013.26 6.23c-8.5 4.45-17.26 8.69-26 12.61a3.45 3.45 0 01-1.46.31zm-408.58-14.2a3.51 3.51 0 01-1.65-.41c-8.46-4.5-16.9-9.33-25.08-14.34a3.52 3.52 0 013.68-6c8.06 4.95 16.37 9.7 24.7 14.13a3.51 3.51 0 01-1.65 6.62zm474.51-22a3.52 3.52 0 01-1.94-6.45c7.89-5.2 15.73-10.71 23.3-16.39a3.51 3.51 0 114.22 5.62 481.412 481.412 0 01-23.65 16.64 3.54 3.54 0 01-1.89.6zm-537.82-18.59a3.49 3.49 0 01-2.13-.72c-7.62-5.82-15.17-12-22.42-18.22a3.51 3.51 0 014.6-5.31c7.14 6.17 14.57 12.21 22.09 17.94a3.52 3.52 0 01-2.14 6.31zm597.17-27.7a3.51 3.51 0 01-2.37-6.1c7-6.39 13.82-13.08 20.38-19.88a3.51 3.51 0 115.06 4.88 468.78 468.78 0 01-20.69 20.18 3.51 3.51 0 01-2.34.94zm-653.08-22.6a3.46 3.46 0 01-2.55-1.1c-6.56-6.93-13-14.2-19.2-21.58a3.52 3.52 0 115.39-4.52c6.1 7.29 12.46 14.44 18.92 21.27a3.52 3.52 0 01-.14 5 3.48 3.48 0 01-2.38.95zm-47.1-58.55a3.48 3.48 0 01-2.91-1.54 475.172 475.172 0 01-15.53-24.37 3.52 3.52 0 016-3.59c4.82 8.1 10 16.18 15.29 24a3.51 3.51 0 01-.93 4.88 3.42 3.42 0 01-1.92.62zm-37.18-65.39a3.5 3.5 0 01-3.19-2c-4.06-8.71-7.89-17.65-11.39-26.57a3.52 3.52 0 016.55-2.57c3.44 8.79 7.22 17.59 11.21 26.17a3.51 3.51 0 01-1.7 4.67 3.57 3.57 0 01-1.48.26zM774.38 2202a3.53 3.53 0 01-3.38-2.57c-2.59-9.24-4.92-18.69-6.92-28.06a3.51 3.51 0 016.87-1.47c2 9.23 4.27 18.53 6.82 27.64a3.52 3.52 0 01-2.44 4.33 3.4 3.4 0 01-.95.13zM760 2128a3.52 3.52 0 01-3.49-3.13q-.78-7-1.35-14.09a3.52 3.52 0 013.23-3.79 3.47 3.47 0 013.78 3.22q.56 6.95 1.33 13.89a3.52 3.52 0 01-3.11 3.88zm105.51-71.42a5.6 5.6 0 002.92 5.8l60.2 31.66a296.09 296.09 0 0022.84 93.24l-38.69 55.89a5.57 5.57 0 00.09 6.48l48.28 65.77a5.59 5.59 0 006.16 2l64.92-20.16a296.41 296.41 0 0082.11 49.72l12.17 66.92a5.61 5.61 0 004.65 4.53l80.65 12.36a5.59 5.59 0 005.79-2.92l31.66-60.2a296.09 296.09 0 0093.24-22.84l55.89 38.69a5.59 5.59 0 006.49-.09l65.77-48.28a5.6 5.6 0 002-6.16l-20.17-64.92a296.2 296.2 0 0049.73-82.11l66.92-12.17a5.6 5.6 0 004.52-4.65l12.37-80.65a5.59 5.59 0 00-2.93-5.79l-60.2-31.66a296.34 296.34 0 00-22.83-93.24l38.68-55.89a5.59 5.59 0 00-.09-6.49l-48.28-65.77a5.58 5.58 0 00-6.16-2l-64.91 20.17a296.25 296.25 0 00-82.12-49.73l-12.18-66.92a5.58 5.58 0 00-4.65-4.52l-80.64-12.37a5.6 5.6 0 00-5.8 2.93l-31.66 60.19a296.63 296.63 0 00-93.24 22.84l-55.89-38.69a5.59 5.59 0 00-6.49.1l-65.76 48.28a5.57 5.57 0 00-2 6.16L999 1877a296.55 296.55 0 00-49.72 82.11l-66.92 12.18a5.58 5.58 0 00-4.53 4.65z"/><path class="cls-4" d="M1225.71 2148.24a77.67 77.67 0 1160-28.2 77.37 77.37 0 01-60 28.2zm.12-144.83a67.15 67.15 0 00-42.83 118.94 67.17 67.17 0 1042.82-118.94z"/><path class="cls-4" d="M1227.94 2272.86a205.15 205.15 0 01-31.07-2.38 200.82 200.82 0 01-132.31-80.19 203.21 203.21 0 01-17.4-28.25l-.34-.67c-.09-.18-.18-.35-.26-.53l-.32-.64a201.722 201.722 0 01-3.35-7.09l9.63-4.31a193 193 0 0020.54 35.25 191.5 191.5 0 10-22.17-187.72l-9.72-4.08a202.13 202.13 0 11186.77 280.61z"/><path class="cls-3" d="M1683.92 2312.4a3.51 3.51 0 01-3-5.36c2.5-4.08 5.24-8.08 8.12-11.88a3.51 3.51 0 115.6 4.24c-2.74 3.63-5.35 7.44-7.73 11.32a3.53 3.53 0 01-2.99 1.68zm251.98 2.88a3.52 3.52 0 01-3-1.74 143.89 143.89 0 00-11-16.19c-1.49-1.92-3-3.78-4.6-5.59a3.51 3.51 0 115.3-4.61q2.49 2.85 4.84 5.86a153.41 153.41 0 0111.56 17 3.51 3.51 0 01-1.26 4.81 3.47 3.47 0 01-1.84.46zm-212.11-45.52a3.51 3.51 0 01-2-6.37 149.9 149.9 0 0124.3-14.15 3.52 3.52 0 013 6.38 144.32 144.32 0 00-23.18 13.48 3.45 3.45 0 01-2.12.66zm162.15-5.6a3.52 3.52 0 01-1.84-.52 142.63 142.63 0 00-24-11.81 3.51 3.51 0 112.49-6.57 149.51 149.51 0 0125.24 12.39 3.51 3.51 0 01-1.84 6.51zm-95.63-20.51a3.51 3.51 0 01-.44-7 151.92 151.92 0 0128.11-.94 3.52 3.52 0 01-.43 7 144.7 144.7 0 00-26.79.9zm164.42 127a3.51 3.51 0 01-3.48-3.07c-.58-4.51-1.38-9.06-2.39-13.5a3.52 3.52 0 016.86-1.56c1.06 4.67 1.9 9.44 2.5 14.17a3.52 3.52 0 01-3 3.94 3.39 3.39 0 01-.49.02zm-36.38 116.78a3.51 3.51 0 01-2.61-5.87c3-3.38 6-6.95 8.67-10.62a3.52 3.52 0 015.66 4.18c-2.85 3.85-5.91 7.6-9.11 11.15a3.5 3.5 0 01-2.61 1.16zm-109.19 48.74a152.61 152.61 0 01-19.22-1.22 3.51 3.51 0 01.89-7 145 145 0 0026.34.94 3.55 3.55 0 013.7 3.31 3.51 3.51 0 01-3.31 3.71c-2.8.19-5.56.26-8.4.26zm51.06-9.16a3.52 3.52 0 01-1.22-6.81 143.61 143.61 0 0023.74-11.43 3.51 3.51 0 113.62 6 150.23 150.23 0 01-24.91 12 3.55 3.55 0 01-1.23.23zm-112-4a3.54 3.54 0 01-1.45-.31 149.46 149.46 0 01-24-13.7 3.52 3.52 0 014-5.76 142.33 142.33 0 0022.87 13 3.52 3.52 0 01-1.45 6.72zm-55.14-43.57a3.5 3.5 0 01-2.77-1.35 151.31 151.31 0 01-14.92-23.28 3.52 3.52 0 016.24-3.24 144.44 144.44 0 0014.22 22.2 3.51 3.51 0 01-2.77 5.67zm-28.61-64.28a3.51 3.51 0 01-3.46-2.9c-.84-4.7-1.45-9.5-1.84-14.27a3.52 3.52 0 117-.57c.37 4.55 1 9.13 1.75 13.61a3.51 3.51 0 01-2.85 4.07 3.23 3.23 0 01-.6.06zm31.89-34.46a1.76 1.76 0 00.92 1.82l19 10a93.63 93.63 0 007.2 29.41l-12.2 17.62a1.76 1.76 0 000 2.05l15.22 20.74a1.77 1.77 0 002 .64l20.47-6.36a93.3 93.3 0 0025.9 15.68l3.83 21.11a1.76 1.76 0 001.47 1.42l25.44 3.9a1.74 1.74 0 001.82-.92l10-19a93.25 93.25 0 0029.4-7.21l17.63 12.21a1.79 1.79 0 002 0l20.74-15.23a1.77 1.77 0 00.64-1.94l-6.36-20.47a93.68 93.68 0 0015.68-25.9l21.1-3.84a1.75 1.75 0 001.43-1.47l3.9-25.43a1.75 1.75 0 00-.92-1.83l-19-10a93.29 93.29 0 00-7.2-29.41l12.2-17.63a1.76 1.76 0 000-2l-15.23-20.74a1.76 1.76 0 00-2-.64l-20.44 6.32a93.52 93.52 0 00-25.89-15.69l-3.84-21.1a1.79 1.79 0 00-1.47-1.43l-25.43-3.9a1.77 1.77 0 00-1.83.93l-10 19a93.57 93.57 0 00-29.4 7.2l-17.63-12.2a1.74 1.74 0 00-2 0l-20.75 15.23a1.77 1.77 0 00-.64 1.94l6.36 20.47a93.54 93.54 0 00-15.68 25.9l-21.1 3.84a1.75 1.75 0 00-1.43 1.46z"/><path class="cls-3" d="M1810 2413.21a28 28 0 01-17.89-6.42 28.16 28.16 0 1117.89 6.42zm-11.17-14.56a17.57 17.57 0 10-2.36-24.74 17.47 17.47 0 002.36 24.74z"/><path class="cls-4" d="M1810.61 2452.48a67.3 67.3 0 01-54.38-27.48c-.18-.23-.35-.47-.52-.7a69.14 69.14 0 01-6.22-10.63 2.56 2.56 0 00-.11-.24l-.08-.17v-.06c-.09-.19-.17-.39-.26-.58l9.63-4.31a57.33 57.33 0 006.09 10.45c.22.31.45.61.67.9a56.91 56.91 0 0057.27 21 56.29 56.29 0 0021.21-9.51l.27-.19a56.41 56.41 0 0022.53-37.19 57.1 57.1 0 00.67-8.72 56.82 56.82 0 00-109.19-21.94l-9.73-4.08a67.38 67.38 0 01129.47 26 68.22 68.22 0 01-.79 10.34 67.31 67.31 0 01-66.5 57.13zM807.36 1695.92s7.88-331.13-144.64-419.75-442.49-144-453.36-619.51C203 378.3 196.11 256.6 191.49 203.53a31.34 31.34 0 0137-33.56C373 197.18 842.18 309.18 940.56 629.45c116.63 379.69-133.2 1066.47-133.2 1066.47z"/><path d="M340.21 302.26c158.56 141.41 341.9 391.67 439.62 641.94 12.54 41.24 49.24 129 65.17 284.8 14.23 130 7.16 267.32-10.1 358.23a10.59 10.59 0 01-12.38 8.44c-9.89-1.88-8.57-12.51-8.48-12.17 19.71-155.33 11.53-348.67-33.63-523.11-57.7-214.2-186.38-421.87-319.47-598L447.24 445C344.12 312.61 322.41 311.63 332.05 302.4a6 6 0 018.16-.14z" fill="url(#linear-gradient-2)"/><path class="cls-3" d="M659.86 1279.5c-14.92-100.57-32.59-228.39-115.25-298.45C448.28 899.4 120.49 951 13.23 970.54a16.09 16.09 0 00-7.48 28.14c51.44 43.19 161.46 145.08 190.13 247.77 26.26 94 98.75 168.12 184.74 211 46.9 23.42 82.35 20 130.72 28.25 58.48 10 110 44.83 170.27 47.7.83-85.54-9.12-169.14-21.75-253.9z"/><path class="cls-4" d="M164.08 1027.72c136.84 5.74 283.73 68.16 358.27 185.25l7 11.17c16.25 26.2 108.34 212.44 159.49 366.82a3.67 3.67 0 01-2.33 4.64 3.75 3.75 0 01-4.6-2.19c-35.63-87.22-86.81-197.79-127.58-280.48-43.71-90.23-74.3-151.34-174-209.87-111-63-217-69.53-216.69-69.46a2.95 2.95 0 01.42-5.88z"/><path d="M257.9 1716.94s271.91 717.14 357.82 866.32c99.73 173.18 391 62.83 376.48-82.1s-354.77-744-354.77-744z" fill="url(#linear-gradient-3)"/><path fill="url(#linear-gradient-4)" d="M625.31 1194.55l1690.07-585.98-17.75 1585.74-1718.51-383.44 46.19-616.32z"/><ellipse cx="2316.97" cy="1406.04" rx="166.04" ry="814.92" fill="url(#linear-gradient-5)"/><path d="M2329.57 2165.24c-15-15.27-47.7-74.15-75.72-226.4-27.09-147.14-42-338-42-537.4s14.92-390.25 42-537.39c28-152.26 60.72-211.14 75.72-226.4 15 15.26 47.7 74.14 75.73 226.4 27.09 147.14 42 338 42 537.39s-14.92 390.26-42 537.4c-28.03 152.25-60.72 211.16-75.73 226.4z" fill="url(#linear-gradient-6)"/><g clip-path="url(#clip-path)"><path d="M2542.4 1395.37c0 138.47-74.59 250.72-222.23 250.72s-267.31-112.25-267.31-250.72 119.68-250.71 267.31-250.71 222.23 112.25 222.23 250.71z" fill="url(#linear-gradient-7)"/></g><path d="M352.73 1160.46c79.5-9.23 193.51-12.56 316.77 15.67-40.61 212.15-34.5 433.27 12.5 662.23H334.31a112.68 112.68 0 01-111.34-95c-17.33-109.75-38.51-294.21-15.92-442.37a166.73 166.73 0 01145.68-140.53z" fill="url(#linear-gradient-8)"/><path class="cls-3" d="M561.38 1322.94H290.5a24.71 24.71 0 01-20.74-38.13 7 7 0 0111.7 7.58 10.77 10.77 0 009 16.62h270.92a10.78 10.78 0 0010.77-10.78V1279a10.78 10.78 0 00-10.77-10.77H288.49a7 7 0 010-13.93h272.89a24.73 24.73 0 0124.71 24.7v19.27a24.74 24.74 0 01-24.71 24.67zm-24.15 119.96H266.35a24.7 24.7 0 01-20.74-38.12 7 7 0 1111.69 7.57 10.77 10.77 0 009.05 16.62h270.88A10.78 10.78 0 00548 1418.2v-19.27a10.78 10.78 0 00-10.77-10.77H264.34a7 7 0 110-13.94h272.89a24.74 24.74 0 0124.7 24.71v19.27a24.73 24.73 0 01-24.7 24.7z"/><path d="M870.89 1151.63a7 7 0 01-2.11-13.61l1280-407.33A7 7 0 012153 744L873 1151.3a7 7 0 01-2.11.33zm-173.1 70.76a7 7 0 01-2.64-13.42L761 1182a7 7 0 015.27 12.9l-65.88 26.93a7 7 0 01-2.6.56z" fill="#fff" opacity=".69"/><path class="cls-3" d="M561.38 1583.4H290.5a24.7 24.7 0 01-20.74-38.12 7 7 0 0111.7 7.56 10.77 10.77 0 009 16.63h270.92a10.78 10.78 0 0010.77-10.77v-19.27a10.78 10.78 0 00-10.77-10.77H288.49a7 7 0 010-13.93h272.89a24.73 24.73 0 0124.71 24.7v19.27a24.73 24.73 0 01-24.71 24.7zm25.37 155.96H315.86a24.72 24.72 0 01-20.74-38.13 7 7 0 1111.7 7.57 10.78 10.78 0 009 16.63h270.93a10.78 10.78 0 0010.77-10.78v-19.27a10.78 10.78 0 00-10.77-10.77H313.86a7 7 0 110-13.93h272.89a24.73 24.73 0 0124.7 24.7v19.27a24.74 24.74 0 01-24.7 24.71zm241.93 847.9a177.07 177.07 0 01-37.69-4.09c-55.07-12-99.91-48.31-123-99.63l-216.41-480.8a7 7 0 1112.7-5.71l216.42 480.79a160.51 160.51 0 00113.3 91.74c49.84 10.87 100.28-2 138.38-35.38q3.07-2.68 6.16-5.51a7 7 0 019.4 10.29q-3.21 2.92-6.38 5.7a170.54 170.54 0 01-112.88 42.6zm-402.76-651.5a7 7 0 01-6.35-4.11L395.42 1878a7 7 0 0112.71-5.72l24.14 53.63a7 7 0 01-3.49 9.22 7.07 7.07 0 01-2.86.63zm2076.9-547.6a7 7 0 01-6.94-6.48c-4.81-67.84-28.33-118.42-69.89-150.33-71.88-55.19-174.44-36.22-175.47-36a7 7 0 01-2.63-13.68c4.44-.85 109.79-20.31 186.58 38.65 44.87 34.44 70.2 88.41 75.31 160.4a7 7 0 01-6.46 7.44z"/><path fill="url(#linear-gradient-9)" d="M2870.56 1849.98l-207.57-25.91 26.91-105.63-229.45-70.18 336.83 16.52-44.56 109.05 117.84 76.15z"/><path fill="url(#linear-gradient-10)" d="M2719.86 2460.84l-139.84-99.64 60.63-65.8-138.38-140.16 236.86 143.25-74.7 61.4 55.43 100.95z"/><path fill="url(#linear-gradient-11)" d="M2929.61 570.76l-164.43 258.81-80.23-66.4-154.34 169.5 151.85-284.15 75.98 83.03 171.17-160.79z"/></g></g></svg>