<svg xmlns="http://www.w3.org/2000/svg" width="27.772" height="24.734"><path d="M.542 20.612a.542.542 0 000 1.085h26.687a.542.542 0 000-1.085H24.3v-2.031a4.04 4.04 0 002.65-1.151 4.308 4.308 0 00.774-3.232.541.541 0 00-.446-.505 4.714 4.714 0 00.446-2.777.541.541 0 00-.448-.506 4.712 4.712 0 00.448-2.779.542.542 0 00-.512-.514 4.926 4.926 0 00-.742.028V5.409a.542.542 0 10-1.085 0v1.969a3.2 3.2 0 00-1.378.866 2.6 2.6 0 00-.251.332 2.635 2.635 0 00-.251-.332 3.193 3.193 0 00-1.374-.865v-1.97a.542.542 0 00-1.085 0v1.737a4.975 4.975 0 00-.745-.029.543.543 0 00-.511.51 4.715 4.715 0 00.448 2.783.541.541 0 00-.447.5 4.716 4.716 0 00.446 2.781.541.541 0 00-.406.327.536.536 0 00-.04.175 4.309 4.309 0 00.774 3.236 4.04 4.04 0 002.65 1.151v2.031h-8.784V18.02a4.04 4.04 0 002.65-1.151 4.307 4.307 0 00.775-3.232.542.542 0 00-.446-.505 4.716 4.716 0 00.446-2.777.542.542 0 00-.448-.509 4.713 4.713 0 00.448-2.779.542.542 0 00-.447-.505 4.713 4.713 0 00.447-2.778.543.543 0 00-.512-.514 5 5 0 00-.743.029V1.584a.542.542 0 00-1.085 0v1.951a3.2 3.2 0 00-1.376.866 2.615 2.615 0 00-.251.332 2.634 2.634 0 00-.251-.332 3.2 3.2 0 00-1.376-.866V1.584a.542.542 0 00-1.085 0v1.718a4.932 4.932 0 00-.743-.029.542.542 0 00-.511.51 4.716 4.716 0 00.446 2.782.541.541 0 00-.446.5 4.713 4.713 0 00.447 2.781.541.541 0 00-.447.5 4.716 4.716 0 00.446 2.781.541.541 0 00-.406.327.535.535 0 00-.04.175 4.309 4.309 0 00.774 3.236 4.04 4.04 0 002.65 1.151v2.592H4.559v-2.027a4.04 4.04 0 002.65-1.151 4.307 4.307 0 00.775-3.232.542.542 0 00-.446-.505 4.716 4.716 0 00.446-2.777.542.542 0 00-.448-.506 4.711 4.711 0 00.448-2.779.542.542 0 00-.512-.514 4.939 4.939 0 00-.745.029V5.409a.542.542 0 10-1.085 0V7.38a3.193 3.193 0 00-1.374.865 2.615 2.615 0 00-.251.332 2.633 2.633 0 00-.251-.332 3.2 3.2 0 00-1.378-.866v-1.97a.542.542 0 10-1.085 0v1.737a4.976 4.976 0 00-.742-.029.542.542 0 00-.511.51A4.713 4.713 0 00.5 10.41a.542.542 0 00-.407.327.535.535 0 00-.04.175A4.716 4.716 0 00.5 13.693a.541.541 0 00-.446.5 4.31 4.31 0 00.774 3.236 4.04 4.04 0 002.65 1.151v2.031zm21.733-6.615a2.2 2.2 0 01-.9-.572 2.907 2.907 0 01-.545-1.925 4.071 4.071 0 01.982.2l.125.047a2.012 2.012 0 01.762.508 2.85 2.85 0 01.512 1.953 4.1 4.1 0 01-.923-.2l-.014-.005zm2.959 0a4.089 4.089 0 01-.926.205 2.851 2.851 0 01.512-1.953 2.015 2.015 0 01.763-.508l.123-.046a4.061 4.061 0 01.983-.2 2.906 2.906 0 01-.545 1.925 2.2 2.2 0 01-.9.574zm.91 2.706a2.928 2.928 0 01-1.836.782 2.852 2.852 0 01.512-1.954 1.99 1.99 0 01.727-.493c.068-.024.136-.049.2-.077a4.1 4.1 0 01.938-.183 2.9 2.9 0 01-.545 1.925zM24.82 8.964a2.882 2.882 0 011.869-.753 2.906 2.906 0 01-.545 1.925 2.928 2.928 0 01-1.836.782 2.852 2.852 0 01.512-1.954zm-3.989-.753a2.882 2.882 0 011.869.753 2.852 2.852 0 01.512 1.954 2.929 2.929 0 01-1.836-.782 2.907 2.907 0 01-.545-1.925zm2.381 9.274a2.928 2.928 0 01-1.836-.782 2.906 2.906 0 01-.545-1.925 4.107 4.107 0 01.937.183c.069.028.139.054.208.078a1.986 1.986 0 01.725.492 2.852 2.852 0 01.512 1.954zm-10.855-4.07a2.168 2.168 0 01-.853-.555 2.907 2.907 0 01-.545-1.925 4.064 4.064 0 01.981.2l.126.047a2.013 2.013 0 01.762.508 2.851 2.851 0 01.512 1.954 4.082 4.082 0 01-.906-.2l-.077-.029zm2.986.028a4.081 4.081 0 01-.907.2 2.852 2.852 0 01.512-1.954 2.015 2.015 0 01.763-.508l.124-.047a4.067 4.067 0 01.983-.2 2.906 2.906 0 01-.545 1.925 2.166 2.166 0 01-.853.556l-.076.028zm-2.515-5.04a2.852 2.852 0 01.512 1.954 2.928 2.928 0 01-1.836-.782 2.905 2.905 0 01-.545-1.925 4.1 4.1 0 01.941.184c.066.027.132.052.2.075a1.991 1.991 0 01.73.494zm3.047-.568a4.1 4.1 0 01.942-.185 2.906 2.906 0 01-.545 1.925 2.928 2.928 0 01-1.836.782 2.852 2.852 0 01.512-1.954 1.99 1.99 0 01.73-.495q.1-.034.2-.074zm.4 8.307a2.928 2.928 0 01-1.836.782 2.852 2.852 0 01.512-1.954 1.984 1.984 0 01.716-.488q.113-.039.226-.085a4.124 4.124 0 01.928-.18 2.9 2.9 0 01-.545 1.925zM14.949 5.124a2.881 2.881 0 011.869-.753 2.906 2.906 0 01-.545 1.925 2.928 2.928 0 01-1.836.782 2.852 2.852 0 01.512-1.954zm-3.989-.753a2.881 2.881 0 011.869.753 2.852 2.852 0 01.512 1.954 2.929 2.929 0 01-1.836-.782 2.907 2.907 0 01-.545-1.925zm2.381 12.557a2.928 2.928 0 01-1.841-.782 2.906 2.906 0 01-.545-1.925 4.125 4.125 0 01.927.18q.114.046.227.085a1.981 1.981 0 01.715.488 2.852 2.852 0 01.512 1.954zm-10.81-2.931a2.2 2.2 0 01-.9-.572 2.906 2.906 0 01-.545-1.925 4.069 4.069 0 01.982.2l.125.047a2.013 2.013 0 01.762.508 2.852 2.852 0 01.512 1.953 4.1 4.1 0 01-.922-.2l-.015-.006zm2.96 0a4.089 4.089 0 01-.926.205 2.851 2.851 0 01.512-1.953 2.015 2.015 0 01.763-.503l.123-.046a4.061 4.061 0 01.983-.2 2.906 2.906 0 01-.546 1.924 2.2 2.2 0 01-.9.574h-.007zm.91 2.706a2.928 2.928 0 01-1.836.782 2.852 2.852 0 01.512-1.954 1.99 1.99 0 01.723-.485c.068-.024.136-.049.2-.077a4.1 4.1 0 01.938-.183 2.9 2.9 0 01-.538 1.921zM5.077 8.968a2.882 2.882 0 011.869-.753 2.906 2.906 0 01-.546 1.924 2.928 2.928 0 01-1.836.782 2.852 2.852 0 01.512-1.954zm-3.989-.753a2.882 2.882 0 011.869.753 2.852 2.852 0 01.512 1.954 2.929 2.929 0 01-1.836-.782 2.907 2.907 0 01-.545-1.925zm2.381 9.274a2.928 2.928 0 01-1.836-.782 2.906 2.906 0 01-.545-1.925 4.107 4.107 0 01.937.183c.069.028.139.054.208.078a1.986 1.986 0 01.725.492 2.852 2.852 0 01.512 1.954zm23.76 6.16H16.055a.542.542 0 100 1.085h11.174a.542.542 0 000-1.085zM.542 24.734h11.174a.542.542 0 100-1.085H.542a.542.542 0 100 1.085zm0 0" fill="#38485f"/><path d="M13.888 3a.543.543 0 00.542-.542V.542a.542.542 0 10-1.085 0v1.92a.543.543 0 00.543.538zM4.015 6.83a.543.543 0 00.542-.542v-1.92a.542.542 0 00-1.085 0v1.919a.542.542 0 00.543.543zm19.747 0a.543.543 0 00.542-.542v-1.92a.542.542 0 00-1.085 0v1.919a.542.542 0 00.543.543zm-10.25 16.978a.542.542 0 10.383-.159.545.545 0 00-.383.159zm0 0" fill="#38485f"/></svg>