<svg xmlns="http://www.w3.org/2000/svg" width="70.101" height="58.362"><g fill="#fff"><path d="M34.594 56.194a51.32 51.32 0 01-4.86-6.548c-1.69-2.705-3.033-5.436-3.994-8.119-1.186-3.312-1.788-6.556-1.788-9.642 0-2.567.881-6.345 2.547-10.927a82.328 82.328 0 012.584-6.287l.186-.394-.054-.432c-.004-.033-.419-3.747 1.486-5.891.938-1.056 2.293-1.568 4.145-1.568 2.13 0 3.743.595 4.794 1.77 1.93 2.156 1.564 5.668 1.56 5.703l-.052.416.173.369c.048.106 4.792 10.772 4.792 17.24 0 3.087-.653 6.332-1.94 9.647-1.042 2.687-2.5 5.423-4.334 8.132a51.689 51.689 0 01-5.245 6.531z"/><path d="M34.846 7.886c-2.072 0-2.784.795-3.017 1.057-1.2 1.342-1.22 3.853-1.124 4.723l.115.841-.381.805c-1.387 2.934-4.987 11.629-4.987 16.573 0 2.901.568 5.962 1.686 9.098.919 2.574 2.208 5.2 3.83 7.807a50.307 50.307 0 003.672 5.136 50.624 50.624 0 003.957-5.103c1.77-2.617 3.176-5.252 4.178-7.834 1.22-3.142 1.838-6.205 1.838-9.104 0-5.098-3.365-13.732-4.66-16.628l-.34-.756.098-.823c.07-.593.075-3.1-1.181-4.513-.766-.86-1.97-1.28-3.684-1.28m0-3c8.923 0 7.844 9.145 7.844 9.145s4.923 10.983 4.923 17.855c0 14.346-13.062 26.478-13.062 26.478S22.452 46.231 22.452 31.885c0-6.7 5.275-17.855 5.275-17.855s-1.137-9.144 7.12-9.144z" fill="#38485f"/></g><g fill="none" stroke="#38485f" stroke-linecap="round" stroke-width="3"><path data-name="Line 33" d="M39.551 31.601h-9"/><path data-name="Line 34" d="M44.551 40.601h-19"/><path data-name="Line 35" d="M40.551 48.601h-11"/></g><g fill="none" stroke="#38485f" stroke-linecap="round" stroke-width="3"><path data-name="Path 342" d="M35.208 5.091s.01-4.575 7.88-3.394"/><path data-name="Path 343" d="M35.088 5.091s-.01-4.575-7.88-3.394"/></g><g fill="#fff"><g data-name="Path 340"><path d="M60.705 39.283c-.657.68-1.826 1.276-3.208 1.634-1.16.301-3.023.578-5.317.187-2.412-.41-4.667-1.446-6.703-3.077-2.446-1.96-4.507-4.742-6.128-8.267l-.007-.015-.007-.016-.102-.211-.001-.003-.002-.004c-2.48-5.108-2.76-11.156-2.743-13.888 1.449.1 3.807.308 6.436.723 5.58.882 9.842 2.285 12.328 4.056l.07.05.073.04c5.454 3.023 7.107 7.065 7.534 9.923a12.608 12.608 0 01-.354 5.33c-.422 1.456-1.103 2.746-1.869 3.538z"/><path d="M38.009 17.25c.108 2.95.622 7.593 2.57 11.606l.003.007.004.006.097.202.015.031.014.032c1.522 3.311 3.44 5.91 5.703 7.722 1.835 1.47 3.86 2.402 6.017 2.77 2.031.346 3.67.103 4.688-.16 1.302-.339 2.148-.855 2.507-1.225.989-1.024 2.357-3.993 1.817-7.605a10.636 10.636 0 00-1.833-4.569c-1.157-1.652-2.82-3.086-4.944-4.263l-.148-.082-.139-.099c-2.292-1.633-6.323-2.944-11.657-3.79-1.76-.279-3.4-.463-4.714-.583m-2.972-3.21s14.532.47 21.084 5.14c11.297 6.26 9.117 17.572 5.663 21.146-3.455 3.573-16.748 5.398-23.798-9.94a77.336 77.336 0 01-.105-.22c-3.519-7.245-2.844-16.126-2.844-16.126z" fill="#38485f"/></g><g data-name="Path 341"><path d="M33.6 15.612c.014 2.736-.27 8.795-2.742 13.888l-.001.003-.002.003-.102.213-.007.015-.007.015c-1.62 3.525-3.682 6.306-6.128 8.266-2.036 1.631-4.291 2.667-6.703 3.078-2.294.39-4.157.114-5.317-.187-1.382-.359-2.551-.954-3.208-1.634-1.527-1.58-2.78-5.133-2.223-8.868.427-2.859 2.08-6.9 7.534-9.923l.074-.041.069-.05c2.491-1.775 6.766-3.179 12.363-4.06a75.184 75.184 0 016.4-.718z"/><path d="M32.074 17.238a72.61 72.61 0 00-4.64.573c-5.37.846-9.424 2.16-11.726 3.801l-.139.099-.148.082c-2.124 1.177-3.787 2.61-4.945 4.263a10.636 10.636 0 00-1.833 4.57c-.539 3.61.83 6.58 1.818 7.603.358.37 1.205.887 2.507 1.225 1.017.264 2.657.506 4.688.16 2.158-.368 4.182-1.3 6.017-2.77 2.262-1.812 4.18-4.41 5.703-7.722l.013-.028.014-.029.1-.208.003-.006.003-.006c1.937-3.99 2.453-8.647 2.565-11.607m2.977-3.209s.675 8.88-2.844 16.126l-.105.22c-7.05 15.337-20.343 13.513-23.798 9.94C4.85 36.74 2.67 25.428 13.966 19.168c6.553-4.67 21.085-5.14 21.085-5.14z" fill="#38485f"/></g></g></svg>