<svg xmlns="http://www.w3.org/2000/svg" width="70.101" height="58.362" viewBox="0 0 70.101 58.362">
  <g id="bee" transform="translate(-106.949 -121.899)">
    <g id="body" transform="translate(131 127.807)" fill="#fff">
      <path d="M 10.54303646087646 50.28597259521484 C 9.426139831542969 49.01484298706055 7.545078754425049 46.71823120117188 5.683365345001221 43.73790740966797 C 3.993815422058105 41.03321838378906 2.649965286254883 38.30168914794922 1.689125299453735 35.61920928955078 C 0.5028553009033203 32.30735015869141 -0.09863469004631042 29.06308937072754 -0.09863469004631042 25.97655868530273 C -0.09863469004631042 23.41004943847656 0.7820653319358826 19.63154792785645 2.448265314102173 15.04951858520508 C 3.728235244750977 11.52961826324463 5.018945217132568 8.790518760681152 5.031835079193115 8.76326847076416 L 5.218075275421143 8.369388580322266 L 5.16432523727417 7.937028408050537 C 5.160415172576904 7.9038987159729 4.745025157928467 4.189938545227051 6.650095462799072 2.045638561248779 C 7.587545394897461 0.9904686212539673 8.943485260009766 0.4775385856628418 10.79540538787842 0.4775385856628418 C 12.92469501495361 0.4775385856628418 14.53760528564453 1.073428630828857 15.58932495117188 2.248648643493652 C 17.51846504211426 4.404318809509277 17.15285491943359 7.915928363800049 17.14893531799316 7.951148509979248 L 17.09702491760254 8.367438316345215 L 17.27036476135254 8.735569000244141 C 17.31818580627441 8.842349052429199 22.06152534484863 19.50834846496582 22.06152534484863 25.97655868530273 C 22.06152534484863 29.06253814697266 21.4090747833252 32.3082389831543 20.12229537963867 35.62348937988281 C 19.07953453063965 38.31005859375 17.62140464782715 41.04595947265625 15.78839492797852 43.75518798828125 C 13.76364040374756 46.74783706665039 11.73409366607666 49.03463363647461 10.54303646087646 50.28597259521484 Z" stroke="none"/>
      <path d="M 10.79540538787842 1.9775390625 C 8.723114967346191 1.9775390625 8.011425018310547 2.77349853515625 7.777565002441406 3.035057067871094 C 6.577414512634277 4.3773193359375 6.558672904968262 6.887973785400391 6.653714179992676 7.758129119873047 L 6.76856517791748 8.599357604980469 L 6.387885093688965 9.404457092285156 C 5.00091552734375 12.33771896362305 1.401365280151367 21.03293800354004 1.401365280151367 25.97655868530273 C 1.401365280151367 28.87823867797852 1.968654632568359 31.93931770324707 3.087465286254883 35.07477951049805 C 4.00584602355957 37.64850997924805 5.294515609741211 40.27539825439453 6.917675018310547 42.88247680664062 C 8.226839065551758 44.98522186279297 9.548197746276855 46.74003219604492 10.58916568756104 48.01761627197266 C 11.69948387145996 46.76119232177734 13.12075233459473 45.02124404907227 14.54603576660156 42.91463851928711 C 16.3161449432373 40.29837036132812 17.72179412841797 37.66265869140625 18.72393608093262 35.08072662353516 C 19.94327545166016 31.93923950195312 20.56152534484863 28.87614822387695 20.56152534484863 25.97655868530273 C 20.56152534484863 20.87857818603516 17.19743537902832 12.24482727050781 15.90155601501465 9.349067687988281 L 15.56274509429932 8.593147277832031 L 15.65982532501221 7.770477294921875 C 15.72991561889648 7.176597595214844 15.73488521575928 4.670097351074219 14.47888565063477 3.257167816162109 C 13.71346569061279 2.396106719970703 12.50858497619629 1.9775390625 10.79540538787842 1.9775390625 M 10.79540538787842 -1.0224609375 C 19.71828460693359 -1.0224609375 18.63915634155273 8.1220703125 18.63915634155273 8.1220703125 C 18.63915634155273 8.1220703125 23.56152534484863 19.10456848144531 23.56152534484863 25.97655868530273 C 23.56152534484863 40.32302856445312 10.49999523162842 52.455078125 10.49999523162842 52.455078125 C 10.49999523162842 52.455078125 -1.598634719848633 40.32302856445312 -1.598634719848633 25.97655868530273 C -1.598634719848633 19.27679824829102 3.675785064697266 8.1220703125 3.675785064697266 8.1220703125 C 3.675785064697266 8.1220703125 2.539035797119141 -1.0224609375 10.79540538787842 -1.0224609375 Z" stroke="none" fill="#38485f"/>
    </g>
    <g id="lines">
      <line id="Line_33" data-name="Line 33" x1="9" transform="translate(137.5 153.5)" fill="none" stroke="#38485f" stroke-linecap="round" stroke-width="3"/>
      <line id="Line_34" data-name="Line 34" x1="19" transform="translate(132.5 162.5)" fill="none" stroke="#38485f" stroke-linecap="round" stroke-width="3"/>
      <line id="Line_35" data-name="Line 35" x1="11" transform="translate(136.5 170.5)" fill="none" stroke="#38485f" stroke-linecap="round" stroke-width="3"/>
    </g>
    <g id="head">
      <path id="Path_342" data-name="Path 342" d="M5170.157,13919.99s.01-4.575,7.88-3.394" transform="translate(-5028 -13793)" fill="none" stroke="#38485f" stroke-linecap="round" stroke-width="3"/>
      <path id="Path_343" data-name="Path 343" d="M5178.037,13919.99s-.01-4.575-7.88-3.394" transform="translate(-5036 -13793)" fill="none" stroke="#38485f" stroke-linecap="round" stroke-width="3"/>
    </g>
    <g id="bal">
      <g id="Path_340" data-name="Path 340" transform="matrix(0.695, -0.719, 0.719, 0.695, 135.653, 143.45)" fill="#fff">
        <path d="M 9.491514205932617 35.33308410644531 C 8.545873641967773 35.33308410644531 7.305033683776855 34.9063720703125 6.087133884429932 34.162353515625 C 5.064563751220703 33.53766250610352 3.570053815841675 32.3899040222168 2.257293939590454 30.4694938659668 C 0.8762738108634949 28.4492244720459 0.05336382985115051 26.10799407958984 -0.1885761618614197 23.51085472106934 C -0.4792961776256561 20.38995361328125 0.08752383291721344 16.97451400756836 1.496153831481934 13.35939407348633 L 1.502323865890503 13.34354400634766 L 1.508143782615662 13.32756423950195 C 1.511563777923584 13.31820392608643 1.521253824234009 13.29199409484863 1.58967387676239 13.10747337341309 L 1.590903878211975 13.10415363311768 L 1.592123866081238 13.10082340240479 C 3.541064977645874 7.767243385314941 7.695042133331299 3.362409591674805 9.671317100524902 1.475876688957214 C 10.6069803237915 2.587080001831055 12.09621810913086 4.427366733551025 13.62455368041992 6.606303691864014 C 16.86829376220703 11.23088359832764 18.82272338867188 15.27066421508789 19.27653312683105 18.28889465332031 L 19.28916358947754 18.37290382385254 L 19.31120300292969 18.4549446105957 C 20.92851448059082 24.47663307189941 19.17146301269531 28.47454452514648 17.41270446777344 30.76800346374512 C 16.32253456115723 32.18960571289062 14.91239356994629 33.38229370117188 13.33471393585205 34.21715545654297 C 11.99450397491455 34.92634201049805 10.59371376037598 35.33308410644531 9.491514205932617 35.33308410644531 Z" stroke="none"/>
        <path d="M 9.559604644775391 3.700927734375 C 7.51368522644043 5.829584121704102 4.532096862792969 9.425590515136719 3.001004219055176 13.61564445495605 L 2.998574256896973 13.6223030090332 L 2.996113777160645 13.62894439697266 C 2.935033798217773 13.79366302490234 2.921143531799316 13.83117294311523 2.918204307556152 13.83916473388672 L 2.906373977661133 13.87171363830566 L 2.893803596496582 13.90398406982422 C 1.570632934570312 17.29978370666504 1.036073684692383 20.48519515991211 1.304964065551758 23.37172317504883 C 1.522993087768555 25.71225357055664 2.26003360748291 27.81549453735352 3.495614051818848 29.62300491333008 C 4.658233642578125 31.32377433776855 5.971854209899902 32.33417510986328 6.869113922119141 32.8823127746582 C 8.016603469848633 33.58331298828125 8.976143836975098 33.83308410644531 9.491514205932617 33.83308410644531 C 10.91446399688721 33.83308410644531 14.00010395050049 32.75313568115234 16.22240447998047 29.8552131652832 C 17.23569297790527 28.53386306762695 17.91242408752441 27.02196502685547 18.23381423950195 25.36151504516602 C 18.61710357666016 23.3812141418457 18.4921932220459 21.18841361999512 17.86253356933594 18.84403419494629 L 17.8184642791748 18.6799430847168 L 17.79320335388184 18.51192474365234 C 17.37470436096191 15.72859382629395 15.51545333862305 11.91938400268555 12.41645431518555 7.496103286743164 C 11.3935079574585 6.036027908325195 10.3872594833374 4.729890823364258 9.559604644775391 3.700927734375 M 9.801444053649902 -0.666656494140625 C 9.801444053649902 -0.666656494140625 19.56340408325195 10.10849380493164 20.75985336303711 18.06586456298828 C 24.1099739074707 30.53926467895508 14.46207427978516 36.83308410644531 9.491514205932617 36.83308410644531 C 4.520954132080078 36.83308410644531 -6.029886245727539 28.54280471801758 0.09850311279296875 12.81480407714844 C 0.1013336181640625 12.80701446533203 0.1041736602783203 12.79923439025879 0.1832332611083984 12.58600425720215 C 2.947793960571289 5.020374298095703 9.801444053649902 -0.666656494140625 9.801444053649902 -0.666656494140625 Z" stroke="none" fill="#38485f"/>
      </g>
      <g id="Path_341" data-name="Path 341" transform="matrix(-0.695, -0.719, 0.719, -0.695, 123.075, 170.305)" fill="#fff">
        <path d="M 11.43515777587891 35.35627746582031 C 9.457228660583496 33.46483993530273 5.2977614402771 29.04982948303223 3.354752063751221 23.73241806030273 L 3.35354208946228 23.72909927368164 L 3.352312088012695 23.72577857971191 C 3.275691986083984 23.51913833618164 3.272932052612305 23.5116081237793 3.270172119140625 23.50406837463379 L 3.264642000198364 23.48889923095703 L 3.258772134780884 23.47383880615234 C 1.85017204284668 19.85873794555664 1.283362030982971 16.44330787658691 1.574092030525208 13.32240867614746 C 1.816042065620422 10.72525882720947 2.638952016830444 8.384028434753418 4.019981861114502 6.363738536834717 C 5.332762241363525 4.443308353424072 6.827281951904297 3.295518398284912 7.849862098693848 2.670818567276001 C 9.067771911621094 1.926788449287415 10.30864238739014 1.500068545341492 11.25428199768066 1.500058531761169 C 13.45094203948975 1.500048518180847 16.87717247009277 3.068098545074463 19.1754322052002 6.065088272094727 C 20.9341926574707 8.358548164367676 22.69122123718262 12.35645866394043 21.07387161254883 18.3781681060791 L 21.05184173583984 18.46021842956543 L 21.0392017364502 18.54421806335449 C 20.58438110351562 21.56909942626953 18.62297248840332 25.61880874633789 15.36701202392578 30.25556755065918 C 13.84338760375977 32.42533874511719 12.36559867858887 34.25143432617188 11.43515777587891 35.35627746582031 Z" stroke="none"/>
        <path d="M 11.32616519927979 33.12840270996094 C 12.14050769805908 32.11570739746094 13.12856960296631 30.83312225341797 14.13944244384766 29.39355850219727 C 17.26247215270996 24.94609832763672 19.13544273376465 21.11732864379883 19.55588150024414 18.32118797302246 L 19.58114242553711 18.15316772460938 L 19.62521171569824 17.98907852172852 C 20.25489234924316 15.64467811584473 20.37981224060059 13.45186805725098 19.99653244018555 11.47156810760498 C 19.67515182495117 9.811118125915527 18.99842262268066 8.299228668212891 17.98513221740723 6.977878570556641 C 15.76286220550537 4.079978466033936 12.67723178863525 3.000048398971558 11.25429248809814 3.00005841255188 C 10.73891162872314 3.00005841255188 9.779352188110352 3.249838590621948 8.631852149963379 3.950858592987061 C 7.734571933746338 4.499008655548096 6.420941829681396 5.509438514709473 5.258312225341797 7.210228443145752 C 4.022722244262695 9.017758369445801 3.285661935806274 11.12100887298584 3.067631959915161 13.46153831481934 C 2.798732042312622 16.34806823730469 3.333271980285645 19.53346824645996 4.656422138214111 22.92925834655762 L 4.667642116546631 22.95795822143555 L 4.678711891174316 22.98830795288086 C 4.682812213897705 22.99944877624512 4.695641994476318 23.03409767150879 4.75875186920166 23.2043285369873 L 4.76121187210083 23.21095848083496 L 4.763641834259033 23.21759796142578 C 6.285922050476074 27.38361167907715 9.275724411010742 30.99051666259766 11.32616519927979 33.12840270996094 M 11.5640115737915 37.49985885620117 C 11.5640115737915 37.49985885620117 4.710381984710693 31.81285858154297 1.945862054824829 24.24722862243652 C 1.866801977157593 24.03398895263672 1.863962054252625 24.02620887756348 1.861122012138367 24.01842880249023 C -4.267198085784912 8.290438652038574 6.28370189666748 8.850158337736502e-05 11.2542724609375 5.850158777320758e-05 C 16.2248420715332 3.850158827845007e-05 25.87272262573242 6.293818473815918 22.52253150939941 18.76725769042969 C 21.32604217529297 26.72463798522949 11.5640115737915 37.49985885620117 11.5640115737915 37.49985885620117 Z" stroke="none" fill="#38485f"/>
      </g>
    </g>
  </g>
</svg>
