<svg xmlns="http://www.w3.org/2000/svg" width="73.294" height="75.163"><g data-name="Path 333" fill="none" stroke-linecap="round" stroke-linejoin="round"><path d="M2 37.557c4.395-1.9 36.212-7.03 69.294.43-1.331 20.542-14.746 29.009-14.746 29.009H16.876S2.72 58.4 2 37.557z"/><path d="M34.424 34.065C17.42 34.065 4.666 36.407 2 37.557 2.72 58.4 16.876 66.995 16.876 66.995h39.672s13.416-8.467 14.746-29.009c-13.017-2.935-25.838-3.92-36.87-3.92m0-2c13.076 0 25.63 1.335 37.31 3.97a2 2 0 011.556 2.08c-.317 4.892-1.326 9.534-3 13.8a40.227 40.227 0 01-5.269 9.48c-3.698 4.921-7.255 7.196-7.405 7.29a2 2 0 01-1.068.309H16.876a2 2 0 01-1.038-.29c-.158-.096-3.906-2.402-7.72-7.4a38.553 38.553 0 01-5.358-9.641C1.101 47.324.173 42.601.001 37.626a2.001 2.001 0 011.207-1.906c1.747-.753 6.104-1.644 11.371-2.324 4.703-.607 12.31-1.33 21.845-1.33z" fill="#556080"/></g><path data-name="Path 334" d="M32.977 1.325s-1.269 2.771 3.318 5.76" fill="none" stroke="#556080" stroke-linecap="round" stroke-width="2"/><path data-name="Path 336" d="M27.674 10.234s-.962-2.892-6.355-1.95" fill="none" stroke="#556080" stroke-linecap="round" stroke-width="2"/><path data-name="Path 335" d="M32.836 15.354s5.32.337 9.655-5.897" fill="none" stroke="#556080" stroke-linecap="round" stroke-width="2"/><path data-name="Path 337" d="M62.099 30.652s8.75-16.264 8.933-16.971.7-3.183-1.27-4.51a3.925 3.925 0 00-4.67.441c-.591.557-17.488 19.61-17.488 19.61" fill="none" stroke="#556080" stroke-linecap="round" stroke-linejoin="round" stroke-width="2"/><g data-name="Rectangle 182" fill="none" stroke="#556080" stroke-linecap="round" stroke-linejoin="round" stroke-width="2"><path d="M17.434 70.163h39v3h-39z" stroke="none"/><path d="M16.434 69.163h41v5h-41z"/></g><g data-name="Ellipse 45" transform="translate(52.434 46.163)" fill="#556080" stroke="#556080"><circle cx="2" cy="2" r="2" stroke="none"/><circle cx="2" cy="2" r="1.5" fill="none"/></g><g data-name="Ellipse 46" transform="translate(59.434 50.163)" fill="#556080" stroke="#556080"><circle cx="2" cy="2" r="2" stroke="none"/><circle cx="2" cy="2" r="1.5" fill="none"/></g><g data-name="Ellipse 47" transform="translate(53.434 57.163)" fill="#556080" stroke="#556080"><circle cx="2" cy="2" r="2" stroke="none"/><circle cx="2" cy="2" r="1.5" fill="none"/></g><g data-name="Ellipse 48" transform="translate(45.434 51.163)" fill="#556080" stroke="#556080"><circle cx="2" cy="2" r="2" stroke="none"/><circle cx="2" cy="2" r="1.5" fill="none"/></g><g data-name="Ellipse 49" transform="translate(42.434 60.163)" fill="#556080" stroke="#556080"><circle cx="2" cy="2" r="2" stroke="none"/><circle cx="2" cy="2" r="1.5" fill="none"/></g><path data-name="Path 338" d="M19.423 15.977s7.54-1.746 10.552 4.391 5.218 6.729 5.218 6.729-22.191 4.157-18.331-9.054c5.487 3.615 8.543 5.19 8.543 5.19s-9.46-6.035-11.062-8.18" fill="none" stroke="#556080" stroke-linecap="round" stroke-linejoin="round" stroke-width="2"/></svg>