<svg xmlns="http://www.w3.org/2000/svg" width="75.294" height="76.826"><g data-name="Path 333" fill="none" stroke-linecap="round" stroke-linejoin="round"><path d="M3 38.22c4.395-1.9 36.212-7.03 69.294.43-1.331 20.542-14.746 29.009-14.746 29.009H17.876S3.72 59.063 3 38.22z"/><path d="M35.424 34.728C18.42 34.728 5.666 37.07 3 38.22c.72 20.843 14.876 29.438 14.876 29.438h39.672s13.416-8.467 14.746-29.009c-13.017-2.935-25.838-3.92-36.87-3.92m0-3c13.15 0 25.777 1.343 37.53 3.993a3.001 3.001 0 012.334 3.122c-.323 4.995-1.355 9.739-3.066 14.1a41.22 41.22 0 01-5.401 9.715c-3.808 5.067-7.515 7.438-7.672 7.536a2.996 2.996 0 01-1.6.463H17.875a3 3 0 01-1.557-.436c-.164-.1-4.069-2.501-7.996-7.647a39.565 39.565 0 01-5.497-9.892C1.128 48.241.178 43.41.002 38.323a3 3 0 011.81-2.858c1.854-.8 6.205-1.696 11.64-2.398 4.731-.61 12.384-1.339 21.972-1.339z" fill="#38485f"/></g><path data-name="Path 334" d="M33.977 1.988s-1.269 2.771 3.318 5.76" fill="none" stroke="#38485f" stroke-linecap="round" stroke-width="3"/><path data-name="Path 336" d="M28.674 10.897s-.962-2.892-6.355-1.95" fill="none" stroke="#38485f" stroke-linecap="round" stroke-width="3"/><path data-name="Path 335" d="M33.836 16.017s5.32.337 9.655-5.897" fill="none" stroke="#38485f" stroke-linecap="round" stroke-width="3"/><path data-name="Path 337" d="M63.099 31.315s8.75-16.264 8.933-16.971.7-3.183-1.27-4.51a3.925 3.925 0 00-4.67.441c-.591.557-17.488 19.61-17.488 19.61" fill="none" stroke="#38485f" stroke-linecap="round" stroke-linejoin="round" stroke-width="3"/><g data-name="Rectangle 182" fill="none" stroke="#38485f" stroke-linecap="round" stroke-linejoin="round" stroke-width="3"><path d="M18.434 70.826h39v3h-39z" stroke="none"/><path d="M16.934 69.326h42v6h-42z"/></g><g data-name="Ellipse 45" transform="translate(53.434 46.826)" fill="#38485f" stroke="#38485f"><circle cx="2" cy="2" r="2" stroke="none"/><circle cx="2" cy="2" r="1.5" fill="none"/></g><g data-name="Ellipse 46" transform="translate(60.434 50.826)" fill="#38485f" stroke="#38485f"><circle cx="2" cy="2" r="2" stroke="none"/><circle cx="2" cy="2" r="1.5" fill="none"/></g><g data-name="Ellipse 47" transform="translate(54.434 57.826)" fill="#38485f" stroke="#38485f"><circle cx="2" cy="2" r="2" stroke="none"/><circle cx="2" cy="2" r="1.5" fill="none"/></g><g data-name="Ellipse 48" transform="translate(46.434 51.826)" fill="#38485f" stroke="#38485f"><circle cx="2" cy="2" r="2" stroke="none"/><circle cx="2" cy="2" r="1.5" fill="none"/></g><g data-name="Ellipse 49" transform="translate(43.434 60.826)" fill="#38485f" stroke="#38485f"><circle cx="2" cy="2" r="2" stroke="none"/><circle cx="2" cy="2" r="1.5" fill="none"/></g><path data-name="Path 338" d="M20.423 16.64s7.54-1.746 10.552 4.391 5.218 6.729 5.218 6.729-22.191 4.157-18.331-9.054c5.487 3.615 8.543 5.19 8.543 5.19s-9.46-6.035-11.062-8.18" fill="none" stroke="#38485f" stroke-linecap="round" stroke-linejoin="round" stroke-width="3"/></svg>