<svg xmlns="http://www.w3.org/2000/svg" viewBox="0 0 963.46 537.92"><defs><style>.cls-6{fill:#3c8f7c}.cls-7{fill:#96d9c9}.cls-8{fill:#50bfa5}.cls-9{fill:#e59f39}.cls-10{fill:#eab054}.cls-11{fill:#f7cc7f}.cls-15{fill:#ffb27d}.cls-16{fill:#1b3766}.cls-19{fill:#093461}.cls-21{fill:#97c0f8}.cls-24{fill:#f47458}</style></defs><g style="isolation:isolate"><g id="Layer_2" data-name="Layer 2"><g id="Layer_1-2" data-name="Layer 1"><path d="M250.09 1C386.22-6.9 528.94 34.1 508 93.54s112.16-21.11 165.29.32c37.82 15.26 22.7 61.7 41 80.42 42 42.91 84.87-11.13 138.27 21.29S883.72 531.2 862 531.15l-823.51-1.5-9.85.32s-60.39-87.1-5.72-138S40 317.9 33.39 298.25c-7.63-22.57-25.43-62 52.13-90.91s57.53-91.87 55.62-104.9S114 8.84 250.09 1z" fill="#eafcfc"/><path d="M669.69 46.87h62.38v482.86h-62.38zm-87.12 147.29h62.38v335.57h-62.38zm175.49-42.67h62.38v378.24h-62.38zm-262.61-14.88h62.38v393.12h-62.38zm-87.12 116.56h62.38v276.56h-62.38z" opacity=".6" fill="#9bc1f9"/><path d="M669.69 158.16h62.38v371.57h-62.38zM582.57 271.5h62.38v258.23h-62.38zm175.49-32.84h62.38v291.07h-62.38zm-262.61-11.44h62.38v302.51h-62.38zm-87.12 89.69h62.38v212.82h-62.38z" style="mix-blend-mode:multiply" opacity=".3" fill="#9bc1f9"/><path fill="#5183bf" d="M850.77 50.57l-49.71 37.59 18.96 1.21-118.66 208.84-65.7-98.5-92.94 216.79-59.78-84.91-74.52 105.33 4.69 18.85 69.79-98.18 63.2 89.76 92.6-216 63.74 95.58L833.82 95.72l12.19 13.11 4.76-58.26z"/><path class="cls-6" d="M351.59 390.11c-71.33-56.8-131.27-130.27-176.65-216.54l-98.11 78.81c52.47 99.75 121.77 184.7 204.25 250.38z"/><path class="cls-7" d="M159.58 194.17l-61 49.74c4.84 9 3.08 21.18-4.12 27.36 46.12 81.56 103.93 152.42 171.25 209.92 5.5-8.26 15.88-9.86 23.33-3.81l44.47-69.95c-6.86-5.56-7.84-16.94-2.34-25.19-59.12-50.5-109.88-112.73-150.39-184.35-7.15 6.17-16.78 4.58-21.2-3.72z"/><path class="cls-8" d="M241.68 380.61c15.23-19.65 15.08-48.65.72-66s-39-18.11-56.05-.62-18.62 48.48-2.43 68 42.56 18.25 57.76-1.38z"/><path class="cls-6" d="M240.67 324.83l-5.74 6.38c4.58 8.39 3.61 17.06-1.33 22.73s-10.56 6.23-19.07 1.19c-6.18-3.49-9.15-4.52-11-2.48-1.59 1.72-2.12 4.85 1.25 9.12a23.52 23.52 0 005.29 5 5.71 5.71 0 011.52 7.26c-1.29 2.45-4 3.26-6.1 1.77a32.55 32.55 0 01-5.57-5.17q-2.47 2.75-5 5.48-2.59-3.26-5.17-6.56 2.72-2.92 5.41-5.86c-4.37-8.44-3.5-16.84 1.57-22.17 5.6-5.88 12.08-4.07 19.51.59 5.15 3.21 8.13 3.72 10.27 1.34s1.51-6.32-1.32-9.93a25.08 25.08 0 00-6.42-5.78c-2.19-1.37-2.78-4.74-1.31-7.26 0-.09.1-.18.16-.27 1.33-2.29 3.88-3.06 5.82-1.79a34.12 34.12 0 017.05 6.27l5.39-5.88c1.59 1.98 3.18 4.01 4.79 6.02z"/><path class="cls-8" d="M297.88 431.19q-24.39-20.88-47-44.21L243.19 397q22.88 23.63 47.61 44.82z"/><path class="cls-6" d="M337.05 367.21c-89.6-11.36-177.47-41.34-259-88.35L31.57 387.78c94.25 54.36 195.85 89 299.45 102.16z"/><path class="cls-7" d="M74.82 302.46l-28.5 68.29c8.61 4.87 13 15.35 9.81 23.66 79.87 42.92 164.61 71.84 251.07 85.65.73-9.15 8.93-15.33 18.35-14.05q2.18-38.26 4.34-76.53c-8.67-1.17-15.08-9.74-14.35-18.89-75.93-12.13-150.35-37.52-220.48-75.22-3.22 8.3-12.32 11.63-20.24 7.09z"/><path class="cls-8" d="M237.14 411.62c3.59-22.79-10.71-45.74-31.65-52.71s-42.67 4.06-48.87 26 7.56 47.28 31.12 55.09 45.83-5.62 49.4-28.38z"/><path class="cls-6" d="M209 367.83q-.92 3.9-1.86 7.78c8.08 4.49 11.48 11.83 10 18.66s-6.11 9.94-15.94 10c-7.06.15-10.14.73-10.78 3.24-.53 2.12.54 4.85 5.55 6.64a24.4 24.4 0 007 1.43 5.3 5.3 0 014.87 5.05 4 4 0 01-4.42 4.28 33.4 33.4 0 01-7.36-1.47l-1.62 6.7q-3.85-1.35-7.69-2.76c.61-2.4 1.21-4.8 1.82-7.21-7.92-4.63-11.27-11.71-9.48-18.33 2-7.32 8.48-8.95 17.19-8.76 6 .11 8.87-.89 9.56-3.79s-1.78-5.73-6-7.26a26.45 26.45 0 00-8.39-1.54 5 5 0 01-4.68-5.15V375a4.06 4.06 0 014.17-4.17 35.77 35.77 0 019.18 1.64c.6-2.4 1.2-4.81 1.79-7.21 2.33.88 4.71 1.74 7.09 2.57z"/><path class="cls-6" d="M313.83 387.33c-70.5 27.85-148.28 40.58-229.24 37.52q8.05 51.67 16.12 103.36c93.61 3.54 183.54-11.18 265.05-43.39z"/><path class="cls-7" d="M93.06 444.46q5.3 32.27 10.58 64.53c8.5.25 16.54 6.56 18 14.31 77.88.57 152.9-11.71 222.23-36.38-3.67-7.39-.52-15.53 6.93-18.39l-32-61c-6.85 2.64-15.46-1.37-19.12-8.76-60.86 21.63-126.68 32.42-195.13 31.92 1.45 7.74-3.66 14-11.49 13.77z"/><path class="cls-8" d="M261.43 462.58c-7.85-19.12-28.81-31-47.26-27.87s-29.23 20.6-23.68 40.12 27.21 33.52 48 29.92 30.77-23.08 22.94-42.17z"/><path class="cls-6" d="M220.82 440.19c.74 2.26 1.47 4.52 2.21 6.78 7.95.18 13.79 4.47 15.83 10.38s.11 10.19-7 14.23c-5.08 3-7 4.72-6.36 6.92.58 1.86 2.61 3.54 7.08 2.88a19.67 19.67 0 005.76-1.76 4.74 4.74 0 015.86 1.92 3.4 3.4 0 01-1.25 5.12 26.49 26.49 0 01-6 1.87l1.89 5.85q-3.44.53-6.87 1l-2-6.32c-7.9-.35-13.59-4.46-15.32-10.32-1.92-6.48 2.07-10.4 8.5-13.82 4.45-2.38 6.05-4.32 5.23-6.84s-3.93-3.71-7.71-3.17a21 21 0 00-6.82 2.24c-1.9 1-4.57 0-5.77-2.07l-.13-.23c-1.1-1.91-.6-4.06 1.12-4.94a28.5 28.5 0 017.44-2.47q-1-3.17-2-6.33z"/><path class="cls-8" d="M321.16 443.06Q296 452 269.85 458.56q2 4.88 4 9.74 26.5-6.68 52-15.73z"/><path class="cls-9" d="M197.52 501v25.24c0 4.08 45.52 7.39 101.67 7.39s101.66-3.31 101.66-7.39V501z"/><path class="cls-10" d="M271.09 533.29V501h-73.57v25.24c0 3.32 31.09 6.17 73.57 7.05zm3.43.07c7.9.14 16.16.22 24.67.22 12.67 0 24.81-.17 36-.48V501h-60.67zm64.74-.36c36.23-1.13 61.59-3.74 61.59-6.79V501h-61.59z"/><ellipse class="cls-9" cx="299.19" cy="500.68" rx="101.67" ry="7.39"/><path class="cls-11" d="M382.91 500.68c0 2.83-37.49 5.13-83.72 5.13s-83.72-2.3-83.72-5.13 37.48-5.12 83.72-5.12 83.72 2.29 83.72 5.12z"/><path class="cls-9" d="M180.13 474.24v25.24c0 4.08 45.51 7.39 101.66 7.39s101.67-3.31 101.67-7.39v-25.24z"/><path class="cls-10" d="M253.7 506.58v-32.34h-73.57v25.24c0 3.37 31.08 6.22 73.57 7.1zm3.42.07c7.9.14 16.17.22 24.67.22 12.68 0 24.81-.17 36-.48v-32.15h-60.67zm64.75-.38c36.22-1.13 61.59-3.74 61.59-6.79v-25.24h-61.59z"/><ellipse class="cls-9" cx="281.79" cy="473.98" rx="101.67" ry="7.39"/><path class="cls-11" d="M365.51 474c0 2.82-37.48 5.12-83.72 5.12s-83.72-2.3-83.72-5.12 37.48-5.13 83.72-5.13 83.72 2.28 83.72 5.13z"/><path class="cls-9" d="M191.71 446.83v25.24c0 4.08 45.52 7.38 101.67 7.38s101.67-3.3 101.67-7.38v-25.24z"/><path class="cls-10" d="M265.29 479.17v-32.34h-73.58v25.24c0 3.37 31.09 6.21 73.58 7.1zm3.42.06c7.9.15 16.16.22 24.67.22 12.68 0 24.81-.17 36-.47v-32.15h-60.67zm64.75-.37c36.22-1.13 61.59-3.75 61.59-6.79v-25.24h-61.59z"/><ellipse class="cls-9" cx="293.38" cy="446.56" rx="101.67" ry="7.39"/><path class="cls-11" d="M377.1 446.56c0 2.83-37.48 5.12-83.72 5.12s-83.72-2.29-83.72-5.12 37.48-5.12 83.72-5.12 83.72 2.29 83.72 5.12z"/><path class="cls-9" d="M180.13 419.78V445c0 4.08 45.51 7.39 101.66 7.39s101.67-3.29 101.67-7.39v-25.22z"/><path class="cls-10" d="M253.7 452.13v-32.35h-73.57V445c0 3.4 31.08 6.24 73.57 7.13zm3.42.06c7.9.15 16.17.22 24.67.22 12.68 0 24.81-.17 36-.48v-32.15h-60.67zm64.75-.37c36.22-1.13 61.59-3.75 61.59-6.8v-25.24h-61.59z"/><ellipse class="cls-9" cx="281.79" cy="419.52" rx="101.67" ry="7.39"/><path class="cls-11" d="M365.51 419.52c0 2.83-37.48 5.12-83.72 5.12s-83.72-2.29-83.72-5.12 37.48-5.13 83.72-5.13 83.72 2.3 83.72 5.13z"/><path class="cls-9" d="M892 498.79v24.28c0 3.92-43.78 7.1-97.77 7.1s-97.77-3.18-97.77-7.1v-24.28z"/><path class="cls-10" d="M821.19 529.9v-31.11H892v24.28c0 3.24-29.95 5.93-70.81 6.83zm-3.29.1c-7.59.14-15.54.21-23.72.21-12.19 0-23.86-.16-34.62-.46v-30.96h58.34zm-62.26-.4c-34.83-1.09-59.23-3.6-59.23-6.53v-24.28h59.23z"/><ellipse class="cls-9" cx="794.18" cy="498.54" rx="97.77" ry="7.1"/><path class="cls-11" d="M713.67 498.54c0 2.72 36 4.92 80.51 4.92s80.51-2.2 80.51-4.92-36.05-4.93-80.51-4.93-80.51 2.21-80.51 4.93z"/><path class="cls-9" d="M908.68 473.11v24.27c0 3.93-43.78 7.11-97.77 7.11s-97.77-3.18-97.77-7.11v-24.27z"/><path class="cls-10" d="M837.92 504.21v-31.1h70.76v24.27c0 3.25-29.9 5.98-70.76 6.83zm-3.29.07c-7.6.13-15.54.21-23.72.21-12.19 0-23.86-.17-34.63-.46v-30.92h58.35zm-62.26-.37c-34.84-1.08-59.23-3.6-59.23-6.53v-24.27h59.23z"/><ellipse class="cls-9" cx="810.91" cy="472.85" rx="97.77" ry="7.1"/><ellipse class="cls-11" cx="810.91" cy="472.85" rx="80.51" ry="4.93"/><path class="cls-9" d="M897.53 446.75V471c0 3.92-43.77 7.1-97.77 7.1S702 474.94 702 471v-24.25z"/><path class="cls-10" d="M826.78 477.85v-31.1h70.75V471c0 3.26-29.9 6-70.75 6.85zm-3.3.06c-7.59.14-15.54.21-23.72.21-12.19 0-23.86-.16-34.62-.46v-30.91h58.34zm-62.26-.36C726.39 476.46 702 474 702 471v-24.25h59.23z"/><ellipse class="cls-9" cx="799.76" cy="446.49" rx="97.77" ry="7.1"/><ellipse class="cls-11" cx="799.76" cy="446.49" rx="80.51" ry="4.93"/><path class="cls-9" d="M908.68 420.74V445c0 3.93-43.78 7.11-97.77 7.11s-97.77-3.18-97.77-7.11v-24.26z"/><path class="cls-10" d="M837.92 451.84v-31.1h70.76V445c0 3.25-29.9 6-70.76 6.84zm-3.29.07c-7.6.13-15.54.21-23.72.21-12.19 0-23.86-.17-34.63-.46v-30.92h58.35zm-62.26-.37c-34.84-1.08-59.23-3.6-59.23-6.53v-24.27h59.23z"/><ellipse class="cls-9" cx="810.91" cy="420.48" rx="97.77" ry="7.1"/><ellipse class="cls-11" cx="810.91" cy="420.48" rx="80.51" ry="4.93"/><path class="cls-9" d="M954.17 391.25l-5.88 20.5c-.95 3.32-38.7-4.59-84.31-17.66s-81.83-26.34-80.88-29.66l5.88-20.5z"/><path class="cls-10" d="M886.87 400.4l7.52-26.27 59.78 17.12-5.88 20.5c-.78 2.74-26.7-2.18-61.42-11.35zm-2.8-.74c-6.45-1.72-13.18-3.59-20.09-5.57-10.3-2.95-20.12-5.91-29.14-8.76l7.48-26.12 49.29 14.12zm-52.51-15.38c-29.16-9.34-49.16-17.37-48.46-19.85l5.88-20.5 50 14.33z"/><path class="cls-9" d="M789 343.71c-.95 3.32 35.26 16.6 80.87 29.66s83.37 21 84.32 17.66-35.19-16.59-80.84-29.66S790 340.4 789 343.71z"/><path class="cls-11" d="M803.62 347.89c-.66 2.3 29.26 12.88 66.82 23.64s68.55 17.62 69.21 15.32-29.26-12.85-66.82-23.64-68.55-17.62-69.21-15.32z"/><path class="cls-9" d="M900.75 250.13l6.25 20.39c1 3.3-35 17.25-80.31 31.16s-83 22.52-84 19.22l-6.25-20.39z"/><path class="cls-10" d="M849.32 294.49l-8-26.13 59.45-18.23 6.23 20.39c.83 2.72-23.58 12.72-57.68 23.97zm-2.75.9c-6.35 2.07-13 4.18-19.88 6.29-10.24 3.14-20.09 6-29.21 8.53l-8-26 49-15zm-52.41 15.74c-29.54 8.06-50.69 12.23-51.44 9.77l-6.25-20.39 49.76-15.26z"/><path class="cls-9" d="M736.4 300.29c1 3.3 38.61-5.31 84-19.22s81.32-27.86 80.31-31.16-38.61 5.31-84 19.22-81.32 27.87-80.31 31.16z"/><path class="cls-11" d="M750.9 295.84c.7 2.29 31.55-5.14 68.91-16.6s67.07-22.6 66.37-24.88-31.55 5.15-68.91 16.6-67.07 22.6-66.37 24.88z"/><path class="cls-8" transform="rotate(180 687.47 497.895)" d="M601.83 466.73h171.28v62.34H601.83z"/><path class="cls-7" transform="rotate(180 687.47 479.82)" d="M601.83 475.81h171.28v8.02H601.83z"/><path class="cls-7" transform="rotate(180 687.47 495.485)" d="M601.83 491.48h171.28v8.02H601.83z"/><path class="cls-7" transform="rotate(180 687.47 511.15)" d="M601.83 507.14h171.28v8.02H601.83z"/><path class="cls-7" transform="rotate(180 687.47 525.055)" d="M601.83 521.05h171.28v8.02H601.83z"/><path class="cls-11" transform="rotate(180 683.405 497.895)" d="M665.59 466.73h35.62v62.34h-35.62z"/><path class="cls-6" transform="rotate(180 783.965 497.895)" d="M771.03 466.73h25.87v62.34h-25.87z"/><path fill="#e0e0e0" d="M16.99 528.49h946.46v5.4H16.99z"/><path d="M419 60.13A17 17 0 00402.45 47a17.27 17.27 0 00-4.29.54A25 25 0 00368 34.19a30.86 30.86 0 00-55.43 5.39 21.16 21.16 0 00-31.45 18.5 19.82 19.82 0 00.1 2.05zm62.09 84.01a12.85 12.85 0 00-15.78-9.56 19 19 0 00-22.8-10.07 23.34 23.34 0 00-41.94 4.08 16 16 0 00-23.8 14c0 .52 0 1 .07 1.55zM190.8 132.33a11.22 11.22 0 0110.93-8.7 11.43 11.43 0 012.83.36 16.51 16.51 0 0115-9.52 16.69 16.69 0 014.92.74 20.36 20.36 0 0136.52 3.56A14 14 0 01281.77 131a12.08 12.08 0 01-.07 1.35z" fill="#fff" opacity=".8"/><path class="cls-8" d="M383.25 203.44l1.21 14.77 8.58-9.66 27.75-22.72-23.66 7.45s-11.65 5.66-12.19 6.41a30.68 30.68 0 00-1.69 3.75z"/><path class="cls-7" d="M370.67 197.1l50.12-11.28-37.54 17.62-12.58-6.34z"/><path class="cls-7" d="M402.52 214.38l-15.45-7.71 33.72-20.85-18.27 28.56z"/><path class="cls-6" d="M377.4 211.64a18.28 18.28 0 014-1.06l-.11-1.07a19 19 0 00-4.3 1.12zm-24.74 87.3a43.22 43.22 0 005.44-5.94l.86.65a44.71 44.71 0 01-5.57 6.09zm9.61-12.81c.53-1.11 1-2.27 1.45-3.44a42.17 42.17 0 001.28-4.13l1.05.27a43.4 43.4 0 01-1.32 4.23c-.44 1.21-.94 2.39-1.48 3.54zm4.36-23.61h1.08a70.39 70.39 0 01-.26 8.22l-1.08-.1a68.15 68.15 0 00.26-8.12zm-1.53-16.19l1.06-.15c.46 3.16.78 5.74 1 8.12l-1.07.11c-.22-2.41-.54-4.93-.99-8.08zm-1.21-8.13a39.45 39.45 0 01-.41-8.2l1.08.07a37.91 37.91 0 00.4 8v.06l-1.07.15zm1.35-16.31a19.76 19.76 0 014.69-6.89l.74.79a18.64 18.64 0 00-4.43 6.51z"/><path d="M337 397.28c-8 14-18.09 19.33-18.09 19.33H277s66.11-29.97 60-19.33z" fill="#8f322a"/><path class="cls-15" d="M304.8 505.18a3.89 3.89 0 00-.69 4.15c1 2.76 4.3 5.85 8.14 8.93.49.39.93.75 1.31 1.09l.29.26.23.2c3.57 3.3 2.23 4.06 8.66 10.75 7.33 7.63 12.38 7.77 13.81 7.07 1.22-.59-1.25-4.63-4-9.18-.13-.22-.26-.44-.4-.66l-1.06-1.79c-3.21-5.47-2.38-8-1.62-16.18.61-6.62 10.29-37 10.29-37l-14.05-2.41s-4.23 24.17-8.89 27.89c-2.49 2-5.28 2-7.68 3.48l-.5.31a18.67 18.67 0 00-3.84 3.09z"/><path class="cls-16" d="M304.8 505.18a3.89 3.89 0 00-.69 4.15c1.22 2.76 4.44 5.83 8.15 8.9.49.4.92.77 1.3 1.12l.29.26.23.2c3.57 3.3 2.23 4.06 8.66 10.75 7.33 7.63 12.38 7.77 13.81 7.07 1.22-.59-1.25-4.63-4-9.18a31.28 31.28 0 01-13.06-9.63c-4.42-5.63-7.36-12.87-10.37-17.06l-.5.31a18.67 18.67 0 00-3.82 3.11z"/><path class="cls-15" d="M418.08 496.41c.86 4.33 7 3.61 13.95 1.92s5.27.32 15.09-.77 12.81-4.75 13.11-6.21c.27-1.3-4.59-1.75-9.8-2.35l-2-.24c-5.88-.74-10.19-4.53-15.53-7.65-5.06-2.95-12.61-15-12.61-15l-13.48 1.07s7.07 10.74 9.81 15.41c1.61 2.75 1.52 6.38 1.32 9.19a17.38 17.38 0 00.14 4.63z"/><path class="cls-16" d="M432 498.33c6.91-1.68 5.27.32 15.09-.77s12.81-4.75 13.11-6.21c.27-1.3-4.59-1.75-9.8-2.35l-.05.1a27.64 27.64 0 01-14.07 4.37c-6.67.16-13.73-1.75-18.34-1.67a17.38 17.38 0 00.11 4.61c.89 4.33 7.07 3.59 13.95 1.92z"/><path d="M366.42 410.22l-12.6 33.91-16.45 44.27a26.67 26.67 0 01-8.74-.8 38 38 0 01-8.45-4.12s4.57-47.53 13.09-74.82c2.18-7 4.63-12.67 7.33-15.85 13.21-15.62 25.82 17.41 25.82 17.41z" fill="#f5781b"/><path d="M251.52 378.59s83.48-28.22 102.09-22.22 74.51 117.21 74.51 117.21a10.77 10.77 0 01-4.7 3c-3.21 1.21-11 1.13-11 1.13S362 434.44 356 421.83s-8.4-24.62-14.41-23.42c-3.67.73-32 18.2-57.43 18.2h-36.77C231.5 399.49 236 372.36 236 372.36z" fill="#ff9231"/><path class="cls-19" d="M307.67 254.35c1.54-2.64 3.41-7.4 4.81-16-.18.86-2.53 11.7-7.22 17.57-18.2 10-54.32 45.38-54.22 52.62 0 0-10.15-20.73-10.34-20.86 0 0-19.42-29.09 7.35-42.8 13.6-7 14.33-17.22 14.48-26.15s7.21-46.92 32.44-34.88c0 0 4.32-1.53 6.17-1.1a5.12 5.12 0 00-2.39.91c3 .06 7.32.62 10.76 2.94 9.11 6.13 13.86 55.4-1.84 67.75z"/><path class="cls-15" d="M297.66 254.84c.08 0-9 3.13-15 .46-5.68-2.51-10-11.86-9.9-11.86 2.59-.12 5.42-2.38 7.61-17.2l1.1.39 18.5 6.66s-1.34 5.94-2.21 11.59c-.76 4.74-1.11 9.29-.1 9.96z"/><path d="M300 233.29s-1.34 5.94-2.21 11.59c-10.63-1.92-14.8-12.5-16.29-18.25z" fill="#ed975d"/><path class="cls-19" d="M277 222s-5.65-8.94-7-16.58c-1-5.46 1.81-25.68 22.13-22.77a27.58 27.58 0 0111.45 4.35c4.41 3 10.78 9.41 3.66 27.06l-1.85 6z"/><path class="cls-15" d="M302.73 239.18s-25.31-3.4-23-19.13.68-26.76 16.94-25.26 18.49 8 19 13.42-6.29 31.45-12.94 30.97z"/><path class="cls-19" d="M308.28 196.14s-9.7 17.41-20.72 18.54-15.2-2.41-15.2-2.41A30.39 30.39 0 00284.87 196s19.52-9.43 23.41.14z"/><path class="cls-19" d="M306.34 197.38s4.54 4.9 5.19 9.1 0 12.52 2.42 12.61c0 0 7.11-11.76 2.32-19.74-5.07-8.46-9.93-1.97-9.93-1.97z"/><path class="cls-21" d="M231.94 379c1.38 3.83 5.61 4.81 11.27 4.15 10.79-1.26 26.82-8.51 38.38-13.52 17.61-7.64 25.62-.46 31.23-5.32s-6.41-15.67 4-65.85c3.53-17-19.05-53.61-19.05-53.61s-1.72 10.68-23.13-2c-.75-.44-9.18 12-17.29 27.41-9 17-17.51 37.46-15 48 4.81 20.16-14.41 49.66-10.41 60.74z"/><path d="M231.94 379c1.38 3.83 5.61 4.81 11.27 4.15 7.47-3.26 39.74-15.76 39.38-24.23-.54-12.55-6.21-12.95-2.2-28.43C283.6 318.09 253.78 295 249 290c-8.95 17-9.19 17.77-6.68 28.33 4.84 20.09-14.38 49.59-10.38 60.67z" fill="#7ca8e7"/><path d="M353.82 444.13l-16.45 44.27a26.67 26.67 0 01-8.74-.8 38 38 0 01-8.45-4.12s4.57-47.53 13.09-74.82z" fill="#ff912f"/><path class="cls-21" d="M297.77 244.88s22 3.73 24.61 13.21 17.8 65.22 17.8 65.22-11.2 2-16.37-3.16-18-48-18-48zm-23.13-2.02s-20.81 1.28-28 11.33c-10.14 14.14-30.26 74.43-18.73 82.47 13 9.06 59.1 2.37 59.1 2.37s1.54-7.17-.6-10.64-36.83-9.08-38.43-10.68 20-31.23 20-36 6.66-38.85 6.66-38.85z"/><path class="cls-24" d="M275.5 356.86h88.88l16.03-55.87h-88.75l-16.16 55.87z"/><path class="cls-24" transform="rotate(180 305.98 355.775)" d="M247.88 354.69h116.2v2.18h-116.2z"/><path d="M336.16 328a2.59 2.59 0 00-2.54-3.56 5.08 5.08 0 00-4.57 3.56 2.58 2.58 0 002.53 3.55 5.09 5.09 0 004.58-3.55z" fill="#fff"/></g></g></g></svg>