<svg xmlns="http://www.w3.org/2000/svg" width="50" height="50" viewBox="0 0 50 50"><g transform="translate(-316 39.268)"><path d="M28.558,15.343v2.081a.365.365,0,0,1-.305.361,2.359,2.359,0,0,0-.5.088,7.954,7.954,0,0,0-.925.236,6.912,6.912,0,0,0-1.618.744,5.932,5.932,0,0,0-.68.495,5.47,5.47,0,0,0-.587.569,5.41,5.41,0,0,0-.509.657,5.678,5.678,0,0,0-.925,3.236,9.4,9.4,0,0,0,.051.985,7.4,7.4,0,0,0,.162.888,5.548,5.548,0,0,0,.268.781,4.35,4.35,0,0,0,.365.68l.028.042a6.265,6.265,0,0,0,1.026,1.17,7.892,7.892,0,0,0,.643.532,8.264,8.264,0,0,0,.717.462c.5.273,1.082.606,1.6.837l.883.416,1.313.578c.222.111.407.2.624.324l.273.18c.079.055.148.111.208.162a1.61,1.61,0,0,1,.176.18l.129.166a1.521,1.521,0,0,1,.134.24,1.206,1.206,0,0,1,.074.194h0a1.751,1.751,0,0,1,.065.245h0a2.116,2.116,0,0,1,.037.305v.555a3.025,3.025,0,0,1-.083.407,1.89,1.89,0,0,1-.157.356,1.387,1.387,0,0,1-.273.319l-.157.116a1.512,1.512,0,0,1-.425.166h0a2.219,2.219,0,0,1-.976.046,2.46,2.46,0,0,1-.832-.3,1.762,1.762,0,0,1-.171-.125l-.171-.153a1.489,1.489,0,0,1-.153-.176,1.883,1.883,0,0,1-.134-.2c-.042-.074-.088-.157-.125-.236a2.254,2.254,0,0,1-.1-.245h0a2.252,2.252,0,0,1-.083-.282h0a3.081,3.081,0,0,1-.06-.333c0-.111-.028-.236-.037-.365h0v-.407a.205.205,0,0,0-.208-.2h-5.22a.2.2,0,0,0-.143.06.194.194,0,0,0-.06.143,7.477,7.477,0,0,0,.042.989c.042.305.074.61.129.925a6.357,6.357,0,0,0,.217.814,6.08,6.08,0,0,0,.291.735l.028.055a6.158,6.158,0,0,0,.37.666,7.109,7.109,0,0,0,.435.6,5.961,5.961,0,0,0,.49.532,5.4,5.4,0,0,0,.527.462l.042.032a6.654,6.654,0,0,0,.583.384c.2.125.411.236.629.342s.43.19.657.277.462.153.68.217.365.092.546.129.379.079.555.106a.361.361,0,0,1,.305.356v1.988a1.262,1.262,0,0,0,.166.536c.037.069,0,.125.042.125h2.4a.2.2,0,0,0,.208-.208V39.958a.361.361,0,0,1,.3-.356l.305-.051a9.247,9.247,0,0,0,.925-.227,7.665,7.665,0,0,0,1.618-.712,5.087,5.087,0,0,0,.657-.462h0a5.371,5.371,0,0,0,.6-.564,5.085,5.085,0,0,0,.509-.657,4.59,4.59,0,0,0,.407-.726,5.826,5.826,0,0,0,.291-.8,6.427,6.427,0,0,0,.171-.869,7.491,7.491,0,0,0,.06-.925,8.157,8.157,0,0,0-.055-.976,7.123,7.123,0,0,0-.166-.883,5.085,5.085,0,0,0-.282-.8,4.462,4.462,0,0,0-.379-.684h0a6.326,6.326,0,0,0-.462-.62,6.58,6.58,0,0,0-.564-.573,7.35,7.35,0,0,0-.62-.5c-.222-.162-.462-.319-.7-.462h-.032c-.245-.143-.5-.291-.781-.462s-.509-.277-.814-.43-.559-.282-.841-.416c-.462-.2-.888-.4-1.327-.62l-.356-.194-.3-.176a5.689,5.689,0,0,1-.462-.342,2.349,2.349,0,0,1-.333-.374.98.98,0,0,1-.111-.185h0a1.887,1.887,0,0,1-.079-.194,1.984,1.984,0,0,1-.06-.2,2.007,2.007,0,0,1-.032-.24v-.481a3.5,3.5,0,0,1,.083-.439l.074-.213a1.077,1.077,0,0,1,.088-.18A1.114,1.114,0,0,1,28.5,22.8a1.387,1.387,0,0,1,.305-.282,1.5,1.5,0,0,1,.166-.092l.2-.065a1.433,1.433,0,0,1,.245-.046,2.6,2.6,0,0,1,.268,0,1.808,1.808,0,0,1,.351.032,1.655,1.655,0,0,1,.305.088h.023a1.563,1.563,0,0,1,.287.157,1.581,1.581,0,0,1,.259.213l.028.028a1.447,1.447,0,0,1,.231.324,2.344,2.344,0,0,1,.143.374v.046a3.791,3.791,0,0,1,.1.583c0,.2.032.435.037.684a.213.213,0,0,0,.046.134h0a.2.2,0,0,0,.143.06h5.187a.205.205,0,0,0,.2-.208,8.6,8.6,0,0,0-.06-1.05,7.938,7.938,0,0,0-.171-.976,6.631,6.631,0,0,0-.282-.888,6.011,6.011,0,0,0-.388-.8l-.032-.06a6.287,6.287,0,0,0-.509-.735,5.655,5.655,0,0,0-.6-.647,5.811,5.811,0,0,0-.689-.689,6.523,6.523,0,0,0-.777-.462,7.606,7.606,0,0,0-1.738-.624h-.1a.361.361,0,0,1-.3-.356V15.376a.222.222,0,0,0-.046-.134h0a.2.2,0,0,0-.148-.06H28.752a.213.213,0,0,0-.148.06.2.2,0,0,0-.06.143Z" transform="translate(311.936 -42.866)" fill="#fff" fill-rule="evenodd"/><g transform="translate(316 -39.268)" fill="none" stroke="#fff" stroke-width="2"><circle cx="25" cy="25" r="25" stroke="none"/><circle cx="25" cy="25" r="24" fill="none"/></g></g></svg>