<svg xmlns="http://www.w3.org/2000/svg" width="28.348" height="30.287"><defs><clipPath id="a"><path fill="none" d="M0 0h28.348v30.287H0z"/></clipPath></defs><g clip-path="url(#a)"><path d="M20.908 19.809c3.586-1.969 6.329-3.469 6.563-3.586.75-.4 1.524-1.453 0-2.274-.492-.258-3.141-1.711-6.563-3.586l-4.711 4.735z" fill="#fefefe"/><path d="M16.198 15.098L1.149 30.264a2 2 0 001.219-.3c.984-.539 11.439-6.259 18.541-10.15l-4.711-4.716z" fill="#eef5ff"/><path d="M16.197 15.098l4.711-4.735S3.422.823 2.367.263A1.833 1.833 0 001.125.029z" fill="#ecf3fe"/><path d="M16.2 15.098L1.125.026C.516.167 0 .706 0 1.807v26.675c0 1.008.4 1.735 1.149 1.8z" fill="#bad7fa"/></g></svg>