<svg width="30" height="38" fill="none" xmlns="http://www.w3.org/2000/svg"><path opacity=".3" d="M22.895 15c0-4.784-3.9-8.684-8.684-8.684-4.785 0-8.685 3.9-8.685 8.685 0 3.9 2.353 6.142 3.71 7.105h9.948c1.358-.963 3.71-3.205 3.71-7.105z" fill="#F60"/><path d="M11.053 31.58h6.316a3.167 3.167 0 01-3.158 3.157 3.167 3.167 0 01-3.158-3.158zM7.895 30h12.631v-3.158H7.895V30zm18.158-15c0 6.032-4.2 9.253-5.953 10.264H8.321C6.57 24.253 2.37 21.032 2.37 15c0-6.537 5.305-11.842 11.842-11.842 6.537 0 11.842 5.305 11.842 11.842zm-3.158 0c0-4.784-3.9-8.684-8.684-8.684-4.784 0-8.684 3.9-8.684 8.684 0 3.9 2.352 6.142 3.71 7.106h9.947c1.358-.964 3.711-3.206 3.711-7.106z" fill="#F60"/></svg>