<svg width="30" height="18" fill="none" xmlns="http://www.w3.org/2000/svg"><path d="M8.94.364L0 9.004l8.94 8.64a1.276 1.276 0 101.77-1.838L3.666 9.004l7.042-6.81A1.275 1.275 0 108.94.357v.007z" fill="#264653"/><path d="M17.94.364L9 9.004l8.94 8.64a1.276 1.276 0 001.77-1.838l-7.043-6.802 7.042-6.81A1.275 1.275 0 1017.94.357v.007z" fill="url(#paint0_linear_2292:2899)"/><path d="M26.94.364L18 9.004l8.94 8.64a1.276 1.276 0 001.77-1.838l-7.043-6.802 7.042-6.81A1.275 1.275 0 1026.94.357v.007z" fill="url(#paint1_linear_2292:2899)"/><defs><linearGradient id="paint0_linear_2292:2899" x1="9" y1="9" x2="20.1" y2="9" gradientUnits="userSpaceOnUse"><stop stop-color="#264653"/><stop offset="1" stop-color="#264653" stop-opacity=".53"/></linearGradient><linearGradient id="paint1_linear_2292:2899" x1="18" y1="9" x2="29.1" y2="9" gradientUnits="userSpaceOnUse"><stop stop-color="#264653" stop-opacity=".83"/><stop offset="1" stop-color="#264653" stop-opacity="0"/></linearGradient></defs></svg>