<svg xmlns="http://www.w3.org/2000/svg" viewBox="0 0 29.36 34.01"><defs><style>.cls-2{fill:#fff}</style></defs><g id="Layer_2" data-name="Layer 2"><g id="Layer_1-2" data-name="Layer 1"><g id="buskool-icon"><path id="Subtraction_1" data-name="Subtraction 1" d="M14.7 34A14.71 14.71 0 011.62 12.59 14.87 14.87 0 016 7.5l3.73 3.73A9.41 9.41 0 1024 20.54L26.58 18l2.75 2.71A14.71 14.71 0 0114.7 34zm14.66-15.8l-2.78-2.74L24 18a9.48 9.48 0 00-4.76-7L23 7.2a14.64 14.64 0 016.33 11z" fill="#fff"/><g id="Group_24" data-name="Group 24"><path id="Rectangle_12" data-name="Rectangle 12" class="cls-2" d="M13.42 3.46l5.4 5.4-4.57 4.57-7.9-7.9 2.08-2.07a3.52 3.52 0 014.99 0z"/><path id="Rectangle_13" data-name="Rectangle 13" class="cls-2" d="M25.68 2.21L14.45 13.43l-4.16-4.15 7.9-7.9a4.71 4.71 0 016.66 0l.83.83z"/></g></g></g></g></svg>