<svg width="126" height="108" fill="none" xmlns="http://www.w3.org/2000/svg"><path d="M85.052 5.115s-17.123 21.689-44.519 8.752C13.137.93-14.258 35.935 9.333 57.243c23.59 21.308.505 33.017 16.532 46.075 18.215 14.843 34.074-15.254 48.532-8.406 31.912 15.116 55.553 9.132 50.226-8.37-9.351-30.724-21.307-32.723-12.176-48.704 9.132-15.981-11.022-49.21-27.395-32.723z" fill="#DEE9FF"/><path d="M62.595 51.474v45.502l-35.329-15.26.169-45.337 35.16 15.095z" fill="#418DF9"/><path d="M62.596 51.5v45.503L97.753 82.27V36.523L62.596 51.5z" fill="#A2BDFF"/><path d="M62.595 51.473l35.329-14.797-35.052-15.537-35.606 15.167 35.329 15.167z" fill="#0E84E5"/><path d="M17.618 44.424L53.172 61.68a.484.484 0 00.576-.116l8.847-10.091-35.329-15.167-9.727 7.293a.486.486 0 00.08.824z" fill="#699CFF"/><path d="M97.924 36.676l9.811 8.87a.487.487 0 01.154.436.479.479 0 01-.281.367L72.493 62.021a.485.485 0 01-.56-.12l-9.338-10.428 35.329-14.797zM62.872 21.14l35.15 15.536 5.055-1.171a.487.487 0 00.307-.72.482.482 0 00-.224-.197L71.064 20.68a.483.483 0 00-.223-.04l-7.969.498z" fill="#699CFF"/><path d="M62.873 21.139L27.92 36.379l-4.419-.743a.485.485 0 01-.101-.922L56.29 20.54a.485.485 0 01.23-.037l6.352.636z" fill="#699CFF"/></svg>