<svg width="104" height="101" fill="none" xmlns="http://www.w3.org/2000/svg"><path d="M54.867 9.903s2.696 17.342 31.766 17.82c25.817.425 17.612 31.132 8.448 40.787-11.871 12.508-35.136 9.236-36.357 23.794-1.221 14.558-34.02 8.906-33.46-13.044.694-27.305-14.262-19.002-21.834-26.306-5.434-5.242-3.566-29.507 13.658-32.285 14.494-2.337 13.743-8.478 14.895-13.024 1.662-6.556 18.465-12.496 22.884 2.258z" fill="#DEE9FF"/><path d="M82.214 71.635a3.35 3.35 0 01-3.347 3.36l-53.692.109a3.351 3.351 0 01-3.36-3.348l-.076-37.752 29.72-18.658a.84.84 0 01.889-.004L81.442 33.45l.697.432v.605l.075 37.148z" fill="#208AF2"/><path d="M77.833 18.596H25.725c-.124 0-.225.1-.225.225v55.758c0 .125.1.225.225.225h52.108c.124 0 .225-.1.225-.225V18.821c0-.125-.1-.225-.225-.225z" fill="#699CFF"/><path d="M78.813 74.941l-26.65-20.319a.172.172 0 01-.046-.217.17.17 0 01.053-.06l29.7-20.299a.17.17 0 01.242.053.17.17 0 01.025.088l.075 37.43a3.356 3.356 0 01-3.287 3.361.18.18 0 01-.112-.037zm-53.593.108l26.568-20.426a.17.17 0 00-.008-.276L22 34.165a.17.17 0 00-.267.142l.075 37.43a3.356 3.356 0 003.3 3.348.18.18 0 00.112-.037z" fill="#A2BDFF"/><path d="M78.863 74.98l-53.692.107a3.364 3.364 0 01-3.33-2.905.843.843 0 01.278-.743L51.403 45.53a.84.84 0 011.11-.002l29.386 25.79a.841.841 0 01.282.742 3.364 3.364 0 01-3.318 2.918z" fill="#418DF9"/><path d="M38.838 32.438c1.043 0 1.888-1.127 1.888-2.517s-.845-2.517-1.888-2.517c-1.042 0-1.887 1.127-1.887 2.517s.845 2.517 1.887 2.517zm26.427 0c1.043 0 1.888-1.127 1.888-2.517s-.846-2.517-1.888-2.517c-1.043 0-1.888 1.127-1.888 2.517s.845 2.517 1.888 2.517zm-6.082 8.345a.375.375 0 01-.318-.176c-.02-.031-2.073-3.202-6.844-3.6-1.986-.165-3.871.388-5.6 1.644a9.625 9.625 0 00-2.032 1.973.375.375 0 01-.614-.43c.031-.046.785-1.112 2.183-2.133 1.858-1.358 3.976-1.98 6.125-1.801 5.161.43 7.328 3.806 7.417 3.95a.375.375 0 01-.317.573z" fill="#fff"/></svg>