<svg width="124" height="138" fill="none" xmlns="http://www.w3.org/2000/svg"><path d="M117.297 46.205S98.7 61.88 118.501 96.9c17.585 31.1-24.437 43.37-42.263 39.376-23.092-5.175-35.526-35.276-53.58-26.274-18.053 9.001-34.355-34.181-8.033-49.283 32.742-18.787 12.456-30.662 15.779-44.94C32.789 5.53 62.762-9.674 78.111 8.876c12.916 15.61 19.644 10.302 25.821 8.41 8.91-2.727 27.698 13.049 13.365 28.918z" fill="#DEE9FF"/><path d="M98.486 23.216L58.36 16.64a5.4 5.4 0 00-6.202 4.456l-13.88 84.701a5.4 5.4 0 004.456 6.202l40.127 6.576a5.4 5.4 0 006.203-4.456l13.879-84.701a5.4 5.4 0 00-4.456-6.202z" fill="#0E84E5"/><path d="M97.167 25.603l-38.32-6.28a3.6 3.6 0 00-4.134 2.971l-13.631 83.184a3.6 3.6 0 002.97 4.134l38.32 6.279a3.6 3.6 0 004.134-2.97l13.631-83.183a3.6 3.6 0 00-2.97-4.135z" fill="#699CFF"/><path d="M120.003 16.606c-2.915-1.218-4.975-.05-5.462 1.116-.352.842.198 1.529.781 1.772 1.166.487 1.386-1.374 3.588-.454 1.08.451 1.745 1.287 1.33 2.28-.488 1.167-1.976 1.331-2.942 1.638-.851.278-2.042.82-2.817 2.678-.47 1.123-.303 1.573.583 1.943 1.057.442 1.472.057 1.643-.353.469-1.123.762-1.762 2.337-2.194.773-.21 3.221-.912 4.069-2.942.848-2.03-.346-4.33-3.11-5.484zm-5.541 12.472a1.8 1.8 0 00-2.338.976 1.8 1.8 0 00.949 2.35 1.803 1.803 0 001.389-3.326z" fill="#0E84E5"/><path d="M65.178 55.32c.263-1.619-.205-3.042-1.044-3.179-.84-.136-1.734 1.066-1.997 2.685-.263 1.62.205 3.043 1.044 3.18.84.136 1.734-1.066 1.997-2.686zm17.509 2.874c.265-1.635-.2-3.071-1.04-3.208-.84-.136-1.735 1.08-2.001 2.715-.266 1.635.2 3.071 1.04 3.208.839.136 1.735-1.08 2-2.715zM75.54 72.292a.448.448 0 01-.327-.14l-.633-.666a6.72 6.72 0 00-8.05-1.283l-.81.437a.451.451 0 01-.428-.792l.81-.437a7.622 7.622 0 019.13 1.454l.634.667a.45.45 0 01-.326.76z" fill="#fff"/></svg>