<svg width="119" height="123" fill="none" xmlns="http://www.w3.org/2000/svg"><path d="M13.212 54.051s20.77-.831 25.259-34.973c3.986-30.321 39.01-16.52 49.134-4.433 13.115 15.657 6.123 42.59 23.089 45.993 16.966 3.403 5.887 41.233-19.866 37.612-32.036-4.504-24.285 14.216-33.902 22.139-6.902 5.687-35.202.212-36.145-20.43-.794-17.371-8.121-17.316-13.315-19.286-7.49-2.84-12.21-23.414 5.746-26.622z" fill="#DEE9FF"/><path d="M83.82 91.969L63.412 71.805l-4.04 4.089 20.405 20.164 4.041-4.09z" fill="#699CFF"/><path d="M91.614 97.386L75.738 81.698a.225.225 0 00-.318.002l-6.009 6.081a.225.225 0 00.002.318l15.876 15.688c.088.087.23.086.318-.002l6.009-6.081a.225.225 0 00-.002-.318zM45.327 81.945c14.039 0 25.42-11.38 25.42-25.42 0-14.038-11.381-25.419-25.42-25.419-14.039 0-25.42 11.381-25.42 25.42 0 14.038 11.381 25.42 25.42 25.42z" fill="#0E84E5"/><path d="M45.327 77.797c11.748 0 21.272-9.523 21.272-21.271 0-11.748-9.524-21.272-21.272-21.272s-21.272 9.524-21.272 21.272 9.524 21.271 21.272 21.271z" fill="#D4E5FF"/><path d="M88.301 33.547c-5.962-1.933-12.406 1.336-14.346 7.323-1.933 5.963 1.336 12.406 7.323 14.347 5.987 1.94 12.414-1.36 14.347-7.323 1.933-5.963-1.36-12.414-7.324-14.347zm-1.799 5.55a3.543 3.543 0 11-4.453 2.254c.597-1.843 2.61-2.85 4.453-2.253zm-4.501 13.89a8.972 8.972 0 01-4.802-3.7c2.102-1.193 4.299-1.526 6.286-.882 1.988.645 3.604 2.186 4.574 4.402a8.973 8.973 0 01-6.058.18zM38.673 87.88a5.88 5.88 0 107.91 2.563 5.886 5.886 0 00-7.91-2.563zm1.37 2.682a1.829 1.829 0 111.663 3.26 1.829 1.829 0 01-1.663-3.26zm3.426 6.713a4.631 4.631 0 01-3.102.402c.33-1.203 1.011-2.126 1.972-2.616.961-.49 2.113-.518 3.276-.063a4.631 4.631 0 01-2.146 2.277z" fill="#418DF9"/></svg>