<svg xmlns="http://www.w3.org/2000/svg" width="27.763" height="25.358"><path d="M23.29 4.751q.25-.091.488-.2a8.086 8.086 0 003.506-3.57.542.542 0 00-.351-.753 8.086 8.086 0 00-4.988.391 7.339 7.339 0 00-2.638 2.173 10.683 10.683 0 00-.819-2.077.542.542 0 00-.97.485 8.893 8.893 0 01.882 2.5 8.684 8.684 0 00-7.055 4.73 8.724 8.724 0 00-4.74-.171.542.542 0 00.258 1.053 7.592 7.592 0 11-5.779 7.374 7.535 7.535 0 012.276-5.422.542.542 0 10-.76-.774A8.676 8.676 0 1016.417 20.6 8.679 8.679 0 0023.29 4.751zM22.4 1.6a6.665 6.665 0 013.54-.45 6.635 6.635 0 01-2.62 2.417 5.587 5.587 0 01-1.728.469 8.665 8.665 0 00-1.618-.322A6.463 6.463 0 0122.4 1.6zm-3.313 18.336a7.581 7.581 0 01-2.239-.335 8.683 8.683 0 00-4.49-10.775 7.6 7.6 0 016.672-4.072h.057a7.591 7.591 0 110 15.183zm0 0" fill="#38485f"/><path d="M8.676 23.19a6.507 6.507 0 10-6.507-6.507 6.513 6.513 0 006.507 6.507zm-4.2-9.937l2.728 2.728a1.559 1.559 0 00-.066.159H3.28a5.37 5.37 0 011.2-2.888zm9.592 2.888H10.21a1.66 1.66 0 00-.066-.159l2.728-2.728a5.37 5.37 0 011.197 2.887zm-1.199 3.975l-2.728-2.729a1.559 1.559 0 00.066-.159h3.862a5.371 5.371 0 01-1.2 2.888zm-3.654-3.43a.542.542 0 11-.542-.542.542.542 0 01.545.539zm-1.244 1.468a1.61 1.61 0 00.159.066v3.861a5.37 5.37 0 01-2.888-1.2zm1.244.066a1.666 1.666 0 00.159-.066l2.728 2.728a5.369 5.369 0 01-2.888 1.2zm.159-3a1.6 1.6 0 00-.159-.066v-3.861a5.371 5.371 0 012.888 1.2zm-1.244-.066a1.6 1.6 0 00-.159.066l-2.728-2.728a5.371 5.371 0 012.888-1.2zm-.992 2.077a1.634 1.634 0 00.066.159l-2.725 2.726a5.367 5.367 0 01-1.2-2.887zM4.717 9.037a.542.542 0 10.542.542.542.542 0 00-.542-.542zm0 0" fill="#38485f"/></svg>