<svg xmlns="http://www.w3.org/2000/svg" width="50" height="50"><path d="M20.899 26.228a.83.83 0 010-1.635h9.086a.83.83 0 010 1.635zm14.986-.024v1.089a.191.191 0 01-.16.189 1.234 1.234 0 00-.261.046 4.161 4.161 0 00-.484.123 3.616 3.616 0 00-.847.389 3.1 3.1 0 00-.356.259 2.862 2.862 0 00-.307.3 2.831 2.831 0 00-.266.343 2.97 2.97 0 00-.484 1.693 4.92 4.92 0 00.027.515 3.87 3.87 0 00.085.464 2.9 2.9 0 00.14.409 2.276 2.276 0 00.191.356l.015.022a3.278 3.278 0 00.537.612 4.129 4.129 0 00.336.278 4.324 4.324 0 00.375.242c.264.143.566.317.837.438l.462.218.687.3c.116.058.213.106.327.169l.143.094c.041.029.077.058.109.085a.842.842 0 01.092.094l.068.087a.8.8 0 01.07.126.631.631 0 01.039.1.916.916 0 01.034.128 1.107 1.107 0 01.019.16v.29a1.583 1.583 0 01-.044.213.989.989 0 01-.082.186.726.726 0 01-.143.167l-.082.06a.791.791 0 01-.223.087 1.161 1.161 0 01-.51.024 1.287 1.287 0 01-.435-.155.922.922 0 01-.09-.065l-.09-.08a.779.779 0 01-.08-.092.985.985 0 01-.07-.1 1.8 1.8 0 01-.065-.123 1.179 1.179 0 01-.051-.128 1.178 1.178 0 01-.044-.148 1.612 1.612 0 01-.031-.174c0-.058-.015-.123-.019-.191v-.213a.107.107 0 00-.109-.106h-2.734a.106.106 0 00-.075.031.1.1 0 00-.031.075 3.912 3.912 0 00.022.518c.022.16.039.319.068.484a3.326 3.326 0 00.114.426 3.181 3.181 0 00.152.385l.015.029a3.222 3.222 0 00.194.348 3.719 3.719 0 00.227.314 3.119 3.119 0 00.256.278 2.826 2.826 0 00.276.242l.022.017a3.481 3.481 0 00.3.2 3.989 3.989 0 00.672.324c.118.045.242.08.356.114s.191.048.285.068.2.041.29.056a.189.189 0 01.16.186v1.04a.66.66 0 00.087.281c.019.036 0 .065.022.065h1.262a.106.106 0 00.109-.109v-1.273a.189.189 0 01.157-.186l.16-.027a4.838 4.838 0 00.484-.119 4.01 4.01 0 00.847-.373 2.661 2.661 0 00.343-.24 2.811 2.811 0 00.312-.3 2.661 2.661 0 00.266-.343 2.4 2.4 0 00.213-.38 3.048 3.048 0 00.152-.416 3.362 3.362 0 00.09-.455 3.919 3.919 0 00.031-.484 4.268 4.268 0 00-.029-.51 3.728 3.728 0 00-.087-.462 2.661 2.661 0 00-.148-.418 2.335 2.335 0 00-.2-.358 3.309 3.309 0 00-.242-.324 3.443 3.443 0 00-.3-.3 3.846 3.846 0 00-.324-.264 4.671 4.671 0 00-.368-.242h-.017c-.128-.075-.264-.152-.409-.242s-.266-.145-.426-.225-.293-.148-.44-.218c-.242-.106-.464-.21-.694-.324l-.186-.1-.157-.092a2.976 2.976 0 01-.242-.179 1.229 1.229 0 01-.174-.2.513.513 0 01-.058-.1.987.987 0 01-.041-.1 1.038 1.038 0 01-.031-.106 1.051 1.051 0 01-.017-.126v-.252a1.834 1.834 0 01.044-.23l.039-.111a.563.563 0 01.046-.094.583.583 0 01.06-.085.726.726 0 01.16-.148.783.783 0 01.087-.048l.1-.034a.75.75 0 01.128-.024 1.361 1.361 0 01.14 0 .946.946 0 01.184.017.866.866 0 01.16.046h.012a.818.818 0 01.15.082.827.827 0 01.135.111l.015.015a.757.757 0 01.121.169 1.226 1.226 0 01.075.2v.024a1.983 1.983 0 01.053.3c0 .106.017.227.019.358a.111.111 0 00.024.07.106.106 0 00.075.031H40.2a.107.107 0 00.106-.109 4.5 4.5 0 00-.031-.549 4.154 4.154 0 00-.09-.51 3.469 3.469 0 00-.148-.464 3.145 3.145 0 00-.2-.416l-.017-.031a3.29 3.29 0 00-.266-.385 2.959 2.959 0 00-.312-.339 3.041 3.041 0 00-.36-.36 3.413 3.413 0 00-.406-.242 3.979 3.979 0 00-.91-.327h-.053a.189.189 0 01-.157-.186v-1.128a.116.116 0 00-.024-.07.106.106 0 00-.077-.031h-1.27a.111.111 0 00-.077.031.106.106 0 00-.031.075zm-6.6 12.039a.82.82 0 110 1.64H12.494a1.909 1.909 0 01-1.909-1.908V12.847a1.909 1.909 0 011.909-1.909h23.437a1.909 1.909 0 011.909 1.909v9.054a.82.82 0 01-1.64 0v-9.054a.269.269 0 00-.08-.189.273.273 0 00-.189-.08H12.494a.288.288 0 00-.191.077.293.293 0 00-.077.191v25.126a.269.269 0 00.269.269h16.79zm-8.389-6a.847.847 0 010-1.662h7.143a.844.844 0 010 1.662zm0-12.017a.762.762 0 01-.687-.822.76.76 0 01.687-.818h9.089a.762.762 0 01.677.818.76.76 0 01-.677.822zM16.959 30.29a.968.968 0 11-.968.968.968.968 0 01.968-.968zm0-5.924a.968.968 0 11-.968.968.968.968 0 01.968-.968zm0-5.922a.968.968 0 11-.968.968.968.968 0 01.968-.968z" fill="#fff" fill-rule="evenodd"/><g fill="none" stroke="#fff" stroke-width="2"><circle cx="25" cy="25" r="25" stroke="none"/><circle cx="25" cy="25" r="24"/></g></svg>