<svg xmlns="http://www.w3.org/2000/svg" width="93.992" height="96.15"><g stroke="#38485f"><g data-name="mini pistacho"><path data-name="Path 320" d="M5.174 65.996s7.998 12.554 17.977 17.612 20.005 1.97 23.296-5.447.623-15.933-9.33-20.845-24.425-5.373-24.425-5.373l27.35 23.06z" fill="none" stroke-linecap="round" stroke-linejoin="round" stroke-width="2.501"/><path data-name="Path 321" d="M29.54 81.412a20.923 20.923 0 004.838-.008 14.707 14.707 0 002.615-1.101" fill="none" stroke-linecap="round" stroke-linejoin="round" stroke-width="2.001"/><g data-name="Ellipse 42" transform="matrix(-.07 .998 -.998 -.07 27.215 80.021)" fill="#fff"><circle cx="1" cy="1" r="1" stroke="none"/><circle cx="1" cy="1" r=".5" fill="none"/></g><g data-name="Ellipse 43" transform="matrix(-.07 .998 -.998 -.07 24.55 78.732)" fill="#fff"><circle cx="1" cy="1" r="1" stroke="none"/><circle cx="1" cy="1" r=".5" fill="none"/></g><path data-name="Path 322" d="M17.9 56.956s-6.54.53-7.654 3.622 1.984 6.899 1.984 6.899" fill="none" stroke-linecap="round" stroke-width="2.501"/></g><g data-name="big pistacho"><path data-name="Path 320" d="M49.784 7.719s21.758 16.108 29.662 34.857S80.474 79.118 66.6 84.141s-28.981-.895-36.627-19.575-6.637-44.995-6.637-44.995l38.351 52.546z" fill="#fff" stroke-linecap="round" stroke-linejoin="round" stroke-width="3.5"/><path data-name="Path 321" d="M74.652 53.89s.188 6.512-.63 8.774a26.756 26.756 0 01-2.331 4.6" fill="none" stroke-linecap="round" stroke-linejoin="round" stroke-width="3"/><g data-name="Ellipse 42" transform="translate(71.425 46.49)" fill="#fff" stroke-width="3"><circle cx="1.5" cy="1.5" r="1.5" stroke="none"/><circle cx="1.5" cy="1.5" fill="none"/></g><g data-name="Ellipse 43" transform="translate(69.425 40.49)" fill="#fff" stroke-width="3"><circle cx="1.5" cy="1.5" r="1.5" stroke="none"/><circle cx="1.5" cy="1.5" fill="none"/></g><path data-name="Path 322" d="M31.765 29.654s1.794-11.8 7.547-13.425 12.264 4.478 12.264 4.478" fill="none" stroke-linecap="round" stroke-width="3.5"/></g></g></svg>