<svg width="158" height="85" fill="none" xmlns="http://www.w3.org/2000/svg"><path fill-rule="evenodd" clip-rule="evenodd" d="M1 84.21l3.449-3.446c3.486-3.395 10.42-10.235 17.356-13.681 6.935-3.446 13.87-3.446 20.805-3.446 6.935 0 13.87 0 20.805-3.395 6.897-3.446 13.832-10.286 20.767-7.715 6.935 2.572 13.87 14.556 20.805 13.681 6.935-.822 13.87-14.555 17.356-21.396C125.83 37.972 125.792 27 125.792 27v57.21H1zM251 84l-3.454-3.416c-3.493-3.366-10.439-10.148-17.386-13.564-6.946-3.417-13.893-3.417-20.839-3.417-6.947 0-13.893 0-20.84-3.365-6.909-3.417-13.855-10.199-20.802-7.649-6.946 2.55-13.893 14.43-20.839 13.564-6.947-.816-13.893-14.43-17.385-21.213C125.962 38.158 126 30 126 30v54h125z" fill="#128C7E"/><path fill-rule="evenodd" clip-rule="evenodd" d="M.5 85l3.454-2.977c3.493-2.933 10.44-8.844 17.386-11.82 6.946-2.978 13.893-2.978 20.84-2.978 6.946 0 13.892 0 20.839-2.933 6.909-2.978 13.855-8.888 20.802-6.666 6.946 2.222 13.893 12.576 20.839 11.82 6.947-.71 13.893-12.575 17.385-18.486C125.538 45.05 126 38 126 38v47H.5z" fill="#fff"/><path fill-rule="evenodd" clip-rule="evenodd" d="M251 85l-3.454-2.977c-3.493-2.933-10.439-8.844-17.386-11.82-6.946-2.978-13.893-2.978-20.839-2.978-6.947 0-13.893 0-20.84-2.933-6.909-2.978-13.855-8.888-20.802-6.666-6.946 2.222-13.893 12.576-20.839 11.82-6.947-.71-13.893-12.575-17.385-18.486C125.962 45.05 125 38 125 38v47h126z" fill="#fff"/><g clip-path="url(#clip0_4046_7760)"><path d="M122.55 3.33c.442-.698.922-1.371 1.437-2.017A13.214 13.214 0 01125.539 0c0 1.394-.01 2.788-.031 4.18l-.416.121c-1.176.357-1.691 1.062-1.679 2.29 0 1.08.556 1.717 1.744 2.03.692.525.249 1.242.351 1.89-.405.013-.81.05-1.21.112-4.286.931-6.393 6.148-3.157 9.931l.342.36.351.35c.223.283.391.687.682.826.987.475 2.018.857 3.032 1.273v2.26a8.196 8.196 0 00-1.893 5.49c.044 2.401.484 4.794.754 7.193l-.8.05-2.809.496-2.638.748-.931.31c-.202-.62-.385-1.2-.571-1.775l-.639-2.532-.86-8.026c.044-1.114.084-2.225.127-3.339l.227-2.768c.577-2.537 1.156-5.071 1.738-7.604l.847-2.29.621-1.552.596-1.266c.507-.927 1.014-1.858 1.523-2.793l.274-.518 1.436-2.117zm-4.76 21.966v-7.01l-.103-.016-.62 7.73a2.842 2.842 0 00-.134.665c.106 2.12.155 4.248.37 6.356.161 1.607.533 3.19.831 4.881l1.62-.484c-.565-3.212-1.117-6.287-1.638-9.372-.149-.91-.218-1.831-.326-2.75z" fill="#FF9828"/><path d="M125.517 25.622v-2.26c2.43.054 4.391-.877 5.642-2.972.993-1.66 1.3-3.458.31-5.276-.987-2.827-2.821-4.562-5.952-4.603-.103-.62.341-1.365-.351-1.89 1.015.069 1.933-.124 2.405-1.145.391-.847.382-1.76-.31-2.414-.456-.425-1.148-.596-1.738-.882 0-1.392.01-2.786.031-4.18l.801.602.145.14 3.774 5.22 2.691 5.44 1.682 4.944.593 2.973.487 3.001.165 1.887.021 3.029c-.068 1.241-.08 2.501-.217 3.743-.168 1.551-.441 3.084-.667 4.627-.109.552-.221 1.108-.329 1.66-.227.795-.45 1.586-.677 2.378v.021l-.08.214-2.275-.682-2.269-.55-2.467-.36c.146-1.418.183-2.858.462-4.252a11.087 11.087 0 00-1.114-7.693 3.377 3.377 0 00-.763-.72zm7.758-1.204c-.183 1.862-.31 3.724-.568 5.555-.223 1.639-.62 3.25-.862 4.882-.093.602-.363 1.455.844 1.322.146 0 .31.26.509.422 1.086-4.795 1.086-9.62.701-14.478-.121-.813-.245-1.623-.366-2.436h-.258v4.733z" fill="#D35500"/><path d="M125.517 10.512c3.132.04 4.966 1.775 5.984 4.596v1.139c.086 2.172-.736 3.929-2.533 5.148-1.241.842-2.61 1.406-4.152.932-1.015-.31-2.002-.708-2.998-1.068a19.343 19.343 0 01-.351-.35l-.335-.367c-3.237-3.777-1.13-9 3.156-9.931a9.82 9.82 0 011.229-.1zm-1.598 9.745a4.18 4.18 0 004.965-1.205c1.093-1.3 1.167-3.286.187-4.813-.121-.161-.233-.335-.364-.487a4.158 4.158 0 00-4.515-1.223 4.064 4.064 0 00-2.731 3.79c-.075 1.833.81 3.249 2.445 3.938h.013z" fill="#184156"/><path d="M125.517 25.621c.293.201.551.448.767.73a11.087 11.087 0 011.114 7.693c-.279 1.393-.31 2.833-.462 4.252-.112.653-.222 1.31-.329 1.967-.239 1.394-.472 2.793-.726 4.184-.028.14-.215.251-.311.375a1.596 1.596 0 01-.22-.397c-.14-.68-.258-1.362-.382-2.045l-.143-.54-.419-3.535c-.279-2.4-.72-4.789-.751-7.194a8.193 8.193 0 011.862-5.49zm-10.356 1.955l.857 8.016-.168.1-.177.053-.884.462-4.215 1.943-.574.254a.123.123 0 00.05-.109v-6.827l1.073-.872 4.038-3.02z" fill="#699CFF"/><path d="M117.79 25.295c.108.931.177 1.84.332 2.75.521 3.084 1.074 6.16 1.638 9.372l-1.62.484c-.31-1.691-.67-3.274-.831-4.882-.214-2.107-.264-4.236-.37-6.355.019-.226.063-.45.134-.665l.127.177c.019 0 .053-.034.056-.05l.192-3.624h.156v3.479h.155l.031-.686z" fill="#E17C55"/><path d="M115.161 27.578l-4.035 3.007v-3.327l2.288-1.763 1.201-.875.661-.382a310.301 310.301 0 01-.115 3.34z" fill="#106D8A"/><path d="M121.824 21.266c.996.36 1.983.77 2.998 1.08 1.552.468 2.914-.097 4.153-.931 1.796-1.22 2.619-2.974 2.532-5.15v-1.138c.981 1.825.673 3.622-.31 5.276-1.242 2.095-3.212 3.026-5.642 2.973-1.015-.416-2.046-.798-3.033-1.273-.307-.152-.474-.555-.698-.837z" fill="#713E39"/><path d="M125.517 4.18c.59.285 1.282.456 1.738.881.698.655.708 1.567.31 2.415-.471 1.02-1.39 1.213-2.405 1.145-1.188-.31-1.732-.95-1.744-2.03 0-1.241.503-1.933 1.679-2.29l.422-.121zm1.412 2.259a1.511 1.511 0 00-1.412-1.316 1.327 1.327 0 00-1.241 1.418c.018.78.552 1.242 1.393 1.208a1.349 1.349 0 001.248-1.31h.012z" fill="#194257"/><path d="M117.789 25.296l-.031.683h-.13v-3.476h-.18l-.205 3.625-.056.05-.127-.178.621-7.73.102.015.006 7.01z" fill="#E39F82"/><path d="M121.138 20.547l.345.366-.345-.366z" fill="#713E39"/><path d="M135.029 35.613c.227-1.552.5-3.079.668-4.624.136-1.242.149-2.483.217-3.743l3.879 3.293c.124-.202.208-.345.31-.487l.056.518 1.204 1.067v6.775l-1.573-.62-.369-.165-2.623-1.226-1.769-.788z" fill="#699CFF"/><path d="M133.921 22.121c.385 4.85.385 9.683-.701 14.478-.189-.162-.363-.438-.509-.422-1.207.133-.931-.72-.844-1.322.251-1.633.639-3.243.863-4.882.251-1.844.384-3.703.568-5.555.105-.146.273-.283.31-.444.127-.611.211-1.235.313-1.853z" fill="#A05444"/><path d="M140.103 30.051c-.086.143-.17.286-.31.488l-3.879-3.293c0-1.009 0-2.02-.022-3.03l3.687 2.716.158.14c.169.248.293.523.366.813.032.72 0 1.443 0 2.166z" fill="#106F8B"/><path d="M133.921 22.12c-.102.62-.186 1.241-.31 1.862-.037.161-.205.31-.31.444v-4.742h.257c.118.813.242 1.623.363 2.436z" fill="#C06E54"/><path d="M123.907 20.257c-1.636-.69-2.52-2.104-2.461-3.939a4.06 4.06 0 012.731-3.789 4.16 4.16 0 014.878 1.71c-1.157 1.061-2.405 2.045-3.445 3.212-.713.804-1.145 1.862-1.703 2.806z" fill="#1E9FBD"/><path d="M123.906 20.257c.559-.93.987-2.002 1.704-2.793 1.04-1.167 2.287-2.15 3.445-3.212.981 1.527.906 3.513-.186 4.813a4.183 4.183 0 01-4.963 1.192z" fill="#83C8D8"/><path d="M126.917 6.44a1.343 1.343 0 01-1.241 1.31c-.841.035-1.375-.428-1.393-1.207a1.336 1.336 0 01.738-1.284c.157-.077.328-.123.503-.134a1.513 1.513 0 011.393 1.316z" fill="#1E9FBD"/></g><defs><clipPath id="clip0_4046_7760"><path fill="#fff" transform="translate(110)" d="M0 0h31.348v54.282H0z"/></clipPath></defs></svg>