<svg width="266" height="107" fill="none" xmlns="http://www.w3.org/2000/svg"><path fill-rule="evenodd" clip-rule="evenodd" d="M.53 107l4.401-4.397c4.449-4.332 13.298-13.06 22.147-17.457 8.849-4.397 17.698-4.397 26.547-4.397s17.698 0 26.547-4.332c8.801-4.397 17.65-13.126 26.499-9.844 8.849 3.281 17.698 18.573 26.547 17.457 8.849-1.05 17.698-18.573 22.147-27.301C159.813 48 159.765 34 159.765 34v73H.531z" fill="#128C7E"/><path fill-rule="evenodd" clip-rule="evenodd" d="M319 107l-4.401-4.397c-4.448-4.332-13.297-13.06-22.146-17.457s-17.698-4.397-26.547-4.397-17.698 0-26.547-4.332c-8.801-4.397-17.65-13.126-26.499-9.844-8.849 3.281-17.699 18.573-26.548 17.457-8.849-1.05-17.698-18.573-22.146-27.301C159.718 48 159.765 37.5 159.765 37.5V107H319z" fill="#128C7E"/><path fill-rule="evenodd" clip-rule="evenodd" d="M0 107l4.423-3.801c4.47-3.744 13.363-11.29 22.257-15.09 8.893-3.8 17.786-3.8 26.68-3.8 8.892 0 17.786 0 26.679-3.745 8.845-3.8 17.738-11.346 26.632-8.51 8.893 2.837 17.786 16.055 26.679 15.09 8.893-.907 17.787-16.054 22.257-23.599C160.078 56 160.03 47 160.03 47v60H0z" fill="#fff"/><path fill-rule="evenodd" clip-rule="evenodd" d="M319 107l-4.393-3.801c-4.441-3.744-13.276-11.29-22.11-15.09-8.834-3.8-17.669-3.8-26.503-3.8s-17.669 0-26.503-3.745c-8.787-3.8-17.621-11.346-26.455-8.51-8.834 2.837-17.669 16.055-26.503 15.09-8.834-.907-17.669-16.054-22.11-23.599C159.982 56 160.03 47 160.03 47v60H319z" fill="#fff"/><g clip-path="url(#clip0_3979_6263)"><path d="M156.014 4.25a28.94 28.94 0 011.834-2.575A16.735 16.735 0 01159.828 0c0 1.78-.013 3.557-.04 5.334l-.531.155c-1.5.455-2.158 1.354-2.142 2.922 0 1.378.709 2.19 2.226 2.59.883.67.316 1.584.447 2.412-.517.015-1.033.063-1.544.142-5.469 1.188-8.158 7.845-4.028 12.672l.436.46.447.447c.286.36.499.875.872 1.053 1.259.606 2.574 1.093 3.869 1.624v2.883a10.447 10.447 0 00-2.416 7.005c.055 3.065.618 6.118.962 9.18l-1.021.063-3.584.633-3.366.955-1.188.396c-.258-.792-.491-1.533-.729-2.266-.273-1.077-.542-2.154-.816-3.23l-1.097-10.241c.056-1.422.107-2.84.163-4.261l.289-3.533c.736-3.236 1.476-6.47 2.217-9.702l1.082-2.922.792-1.98.76-1.616c.647-1.183 1.295-2.37 1.944-3.564l.349-.661 1.833-2.7zm-6.074 28.028v-8.946l-.131-.02-.792 9.865c-.09.275-.147.56-.17.847.134 2.705.198 5.422.471 8.11.206 2.052.681 4.071 1.061 6.23l2.067-.618c-.72-4.099-1.425-8.023-2.091-11.96-.19-1.16-.277-2.336-.415-3.508z" fill="#FF9828"/><path d="M159.8 32.694V29.81c3.1.067 5.603-1.12 7.199-3.794 1.267-2.118 1.659-4.411.396-6.732-1.259-3.607-3.6-5.821-7.595-5.873-.131-.792.435-1.742-.448-2.411 1.295.087 2.467-.159 3.069-1.461.499-1.081.487-2.246-.396-3.081-.582-.543-1.465-.76-2.218-1.125 0-1.777.014-3.555.04-5.334l1.022.768.186.178 4.815 6.661 3.434 6.942 2.146 6.308.756 3.794.622 3.83.21 2.407.028 3.865c-.088 1.584-.103 3.192-.278 4.776-.213 1.98-.562 3.936-.851 5.904l-.42 2.119c-.289 1.014-.574 2.023-.863 3.033v.028l-.103.273-2.903-.871-2.895-.701-3.148-.46c.186-1.81.234-3.647.59-5.425a14.145 14.145 0 00-1.421-9.817 4.324 4.324 0 00-.974-.918zm9.9-1.537c-.234 2.376-.396 4.752-.725 7.089-.285 2.09-.792 4.146-1.101 6.229-.119.768-.463 1.857 1.077 1.687.186 0 .396.332.65.538 1.386-6.118 1.386-12.276.895-18.473-.155-1.038-.313-2.071-.468-3.109h-.328v6.04z" fill="#D35500"/><path d="M159.8 13.412c3.995.052 6.336 2.265 7.635 5.865v1.453c.111 2.772-.939 5.014-3.232 6.57-1.584 1.073-3.33 1.794-5.298 1.188-1.295-.396-2.554-.903-3.826-1.362-.15-.147-.301-.297-.447-.448l-.428-.467c-4.13-4.82-1.441-11.484 4.028-12.672a12.498 12.498 0 011.568-.127zm-2.04 12.434a5.334 5.334 0 006.336-1.536c1.394-1.66 1.489-4.194.238-6.142-.154-.206-.297-.428-.463-.622a5.309 5.309 0 00-5.762-1.56 5.182 5.182 0 00-3.485 4.835c-.095 2.34 1.034 4.146 3.121 5.025h.015z" fill="#184156"/><path d="M159.8 32.693c.373.257.703.571.978.931a14.15 14.15 0 011.422 9.817c-.356 1.778-.396 3.615-.59 5.425-.143.834-.282 1.671-.42 2.51-.305 1.779-.602 3.565-.926 5.339-.036.178-.274.32-.396.479a2.093 2.093 0 01-.282-.507c-.178-.867-.328-1.738-.487-2.61l-.182-.689-.534-4.51c-.357-3.061-.919-6.11-.959-9.18a10.456 10.456 0 012.376-7.005zm-13.215 2.495l1.093 10.228-.213.127-.226.067-1.129.59-5.377 2.48-.733.324a.151.151 0 00.063-.139v-8.712l1.371-1.112 5.151-3.853z" fill="#699CFF"/><path d="M149.94 32.277c.139 1.188.226 2.348.424 3.508.665 3.937 1.37 7.861 2.091 11.96l-2.067.617c-.396-2.158-.856-4.177-1.062-6.229-.273-2.689-.336-5.405-.471-8.11.023-.288.08-.572.17-.847l.163.225c.023 0 .067-.043.071-.063l.245-4.625h.198v4.44h.198l.04-.876z" fill="#E17C55"/><path d="M146.586 35.189l-5.148 3.837V34.78l2.918-2.25 1.533-1.116.843-.487a404.09 404.09 0 01-.146 4.26z" fill="#106D8A"/><path d="M155.088 27.136c1.271.459 2.53.982 3.825 1.378 1.98.598 3.719-.123 5.299-1.188 2.293-1.557 3.342-3.794 3.231-6.57v-1.453c1.251 2.328.859 4.621-.396 6.732-1.584 2.673-4.099 3.86-7.199 3.793-1.295-.53-2.61-1.017-3.869-1.623-.392-.194-.606-.709-.891-1.07z" fill="#713E39"/><path d="M159.8 5.334c.752.364 1.636.582 2.218 1.125.891.835.903 2 .396 3.08-.602 1.303-1.774 1.549-3.069 1.462-1.517-.396-2.21-1.212-2.226-2.59 0-1.584.642-2.467 2.143-2.923l.538-.154zm1.802 2.883a1.932 1.932 0 00-1.802-1.68 1.699 1.699 0 00-1.5 1.152c-.071.212-.1.436-.084.659.024.994.705 1.584 1.778 1.54a1.716 1.716 0 001.592-1.671h.016z" fill="#194257"/><path d="M149.939 32.278l-.039.871h-.167v-4.435h-.229l-.262 4.625s-.047.044-.071.064l-.162-.226.792-9.864.13.02.008 8.945z" fill="#E39F82"/><path d="M154.212 26.219l.44.467-.44-.467z" fill="#713E39"/><path d="M171.938 45.442c.289-1.98.637-3.928.851-5.9.174-1.585.19-3.169.277-4.776l4.95 4.201c.159-.257.265-.44.396-.621l.071.66 1.537 1.363v8.645l-2.008-.792-.471-.21-3.346-1.564-2.257-1.006z" fill="#699CFF"/><path d="M170.523 28.227c.491 6.19.491 12.355-.895 18.473-.241-.206-.463-.558-.649-.539-1.541.17-1.188-.918-1.077-1.687.321-2.082.816-4.138 1.101-6.229.32-2.352.491-4.724.724-7.088.135-.186.349-.36.396-.566.163-.78.27-1.576.4-2.364z" fill="#A05444"/><path d="M178.412 38.345c-.111.182-.218.364-.396.622l-4.95-4.202c0-1.287 0-2.578-.027-3.865l4.704 3.465.202.179c.215.316.373.667.467 1.037.04.919 0 1.841 0 2.764z" fill="#106F8B"/><path d="M170.524 28.226c-.131.792-.238 1.584-.396 2.376-.048.206-.261.396-.396.566v-6.05h.329c.15 1.037.308 2.07.463 3.108z" fill="#C06E54"/><path d="M157.745 25.847c-2.087-.879-3.216-2.685-3.14-5.025a5.188 5.188 0 013.484-4.835 5.309 5.309 0 015.762 1.56c.167.194.309.396.464.622-1.478 1.354-3.069 2.61-4.396 4.098-.911 1.026-1.461 2.376-2.174 3.58z" fill="#1E9FBD"/><path d="M157.745 25.848c.712-1.188 1.259-2.554 2.174-3.564 1.326-1.489 2.918-2.744 4.395-4.098 1.252 1.948 1.157 4.482-.237 6.142a5.337 5.337 0 01-6.332 1.52z" fill="#83C8D8"/><path d="M161.586 8.218a1.718 1.718 0 01-1.584 1.671c-1.073.044-1.754-.546-1.778-1.54a1.693 1.693 0 01.943-1.64 1.7 1.7 0 01.641-.17 1.925 1.925 0 011.778 1.679z" fill="#1E9FBD"/></g><defs><clipPath id="clip0_3979_6263"><path fill="#fff" transform="translate(140)" d="M0 0h40v69.264H0z"/></clipPath></defs></svg>