<svg xmlns="http://www.w3.org/2000/svg" viewBox="0 0 2363.47 1478.28"><defs><style>.cls-2{fill:#a8d29f}.cls-4{fill:#599dad}.cls-5{fill:#6bb7bf}.cls-6{fill:#86d1cd}.cls-7{fill:#efcbab}.cls-11{fill:#e9f3fe}.cls-13{fill:#bbd5fc}.cls-14{fill:#d2e4fd}.cls-15{fill:#c65447}.cls-16{fill:#ffb27d}.cls-17{fill:#e58638}.cls-18{fill:#233862}.cls-19{fill:#2b478b}.cls-20{fill:#ee9849}</style></defs><g id="Layer_2" data-name="Layer 2"><g id="_Layer_" data-name="&lt;Layer&gt;"><path d="M2039.28 1473.18s169.74 40.24 253.3-142.13c108.4-236.6-43.75-461.36-306.21-477.54-378.54-23.35-168.75-627.71-766.09-463.73-168 46.11-533.28-191.92-748.34 211.39-36.57 68.58-145.88 65.21-291.53 182.21-256.91 206.38-164.43 692 52 694.19s1806.87-4.39 1806.87-4.39z" fill="#fcecdb"/><path class="cls-2" d="M270.3 1476.69s7.89-51.7 108.57-65.61 194.3-125.43 360.34-109.25S1043 1419.58 1232 1388.46s307.34 8.55 349.74 39.84 217.84-7.35 230.8 50z"/><path d="M684.17 244.7s-113.64-5.56-53.36 340.77c0 0 40.56 117.56-10.64 193.33h753.6V244.7z" fill="#afcdfb"/><path class="cls-4" d="M761.57 1145.11s-52.65-61.42-3.25-100.43c0 0 36.08-21.85 65.51-20.08 0 0-41.69 69.92-28.2 76.87s40.84-81.25 40.84-81.25 82.11-8 108.53 4.74c0 0-70.2 57.44-55.42 60.86s90.61-53 90.61-53 76.43 13 72.36 59.63-30.41 61-42 59.78-79.28-27.09-80.75-17.6 39.28 40.47 67.82 41.92c0 0-53.89 59.43-89.7 42.28s-38.87-44.34-61.19-54.54-41.38-10.17-32.16.23 49.61 20.51 62.38 43.09 24.22 37.81-12.83 32.24-97.27-32.69-99.92-63.73z"/><path class="cls-4" d="M1015 1093.74s-207.58-8-253.42 51.37c0 0-10.14 30.37-41.34 58l-4.86 13.25s36-37.93 48.84-40.22c-.01.02-20.14-73.53 250.78-82.4z"/><path class="cls-4" d="M720.23 1203.13s-44.55 32.95-47.65 91.82l8.09.73s14.23-60.88 40-84.69-.44-7.86-.44-7.86z"/><path class="cls-5" d="M577.49 1067.87s83.75-46.9 44.67-110.55c0 0-31.27-39.09-64.77-49.14 0 0 17.87 94.92 0 97.15s-12.28-107.19-12.28-107.19-88.22-42.44-122.83-39.09c0 0 54.71 92.68 36.85 90.45s-79.29-96-79.29-96-90.45-16.75-105 36.85 8.93 80.4 22.33 83.75 99.38 2.23 97.15 13.4-60.3 29-92.68 19c0 0 35.73 88.22 82.63 83.75s61.42-33.5 90.45-35.73 50.25 5.58 35.73 13.4-63.65 2.56-87.1 22.49-42.43 32.22 1.12 41.16 121.71 3.35 137.35-30.15z"/><path class="cls-5" d="M316.19 907.07s234.5 75.93 261.3 160.8c0 0-1.12 38 22.33 81.51v16.75s-24.56-57-38-64.76c.04 0 52.52-73.7-245.63-194.3z"/><path class="cls-5" d="M599.82 1149.38s36.17 54.92 15.55 121.77l-9.3-2.5s9-73.63-9.89-110.66 3.64-8.61 3.64-8.61z"/><path class="cls-6" d="M710.73 1003.19s-110.4-61.83-58.88-145.73c0 0 41.22-51.52 85.38-64.76 0 0-23.56 125.11 0 128.06s16.19-141.31 16.19-141.31 116.28-55.94 161.91-51.52c0 0-72.12 122.17-48.57 119.23s104.51-126.59 104.51-126.59 119.23-22.08 138.36 48.57-11.77 106-29.44 110.4-131 3-128.06 17.67 79.49 38.27 122.18 25c0 0-47.11 116.28-108.93 110.4s-81-44.16-119.23-47.11-66.24 7.36-47.1 17.67 83.9 3.37 114.81 29.65 55.94 42.47-1.47 54.25-160.45 4.41-181-39.74z"/><path class="cls-5" d="M1055.17 791.22s-309.11 100.1-344.44 212c0 0 1.47 50-29.44 107.45v22.08s32.38-75.07 50.05-85.37c0-.03-69.19-97.18 323.83-256.16z"/><path class="cls-5" d="M681.29 1110.64s-47.67 72.36-20.49 160.51l12.26-3.3s-11.9-97 13-145.87-4.77-11.34-4.77-11.34z"/><path class="cls-7" d="M707 1462.24c119.43 0 216.25-96.82 216.25-216.25H490.76c0 119.43 96.82 216.25 216.24 216.25z"/><path d="M760.22 1460.58a216.31 216.31 0 01-26.86 1.66c-119.43 0-216.25-96.83-216.25-216.26h53.73c0 110.34 82.63 201.37 189.38 214.6z" fill="#ffebdc"/><path class="cls-7" d="M926.25 1473.24H487.77a26.69 26.69 0 0126.68-26.68h385.12a26.69 26.69 0 0126.68 26.68z"/><path fill="#efcdaf" d="M483.65 1245.98h444.53v6.63H483.65z"/><path class="cls-4" d="M1489.53 423.75s-37.88-71.48 18.88-98.7c0 0 40-13.39 68.31-5.21 0 0-56 59.06-44.38 68.8s57.68-70.3 57.68-70.3 81.86 10.25 104.84 28.44c0 0-81.09 40.64-67.42 47.22s100-31.78 100-31.78 71.71 29.46 57.5 74-43.06 52.86-54.08 49.11-71.4-43.83-74.92-34.9 29.44 48.12 57 55.79c0 0-65.61 46.15-96.78 21.56S1588 476 1568.41 461.2s-38.14-19-31.43-6.84 43.91 30.9 51.4 55.73 15.33 42.2-19.59 28.63-87.73-53.24-83.49-84.1z"/><path class="cls-4" d="M1748.05 429.26s-200.77-53.37-258.52-5.51c0 0-16.56 27.4-53.06 47.52l-7.66 11.87s43.42-29.11 56.49-28.52c0 0-3.5-76.18 262.75-25.36z"/><path class="cls-4" d="M1436.47 471.27s-50.7 22.37-66.65 79.13l7.74 2.48s27.24-56.27 57.56-73.85 1.35-7.76 1.35-7.76z"/><path class="cls-6" d="M1240.1 294.82s-112.19-58.51-63.19-143.91c0 0 39.66-52.72 83.4-67.28 0 0-19.81 125.77 3.82 128s12-141.73 12-141.73 114.57-59.37 160.32-56.32c0 0-68.46 124.27-45 120.63S1492.11 4.57 1492.11 4.57 1610.62-21 1631.86 49s-8.62 106.28-26.14 111.22-130.86 6.84-127.48 21.47 80.59 35.89 122.86 21.37c0 0-43.62 117.64-105.59 113.6s-82.24-41.73-120.58-43.54-66 9.33-46.55 19.06 84 .88 115.64 26.23 57.17 40.78.14 54.26-160.24 9.19-182.15-34.33z"/><path class="cls-5" d="M1578.07 72.7s-306 109.25-338 222.12c0 0 3 50-26.23 108.28l.66 22.07s30.13-76 47.48-86.82c.02 0-71.98-95.05 316.09-265.65z"/><path class="cls-5" d="M1213.87 403.1s-45.49 73.78-15.71 161l12.16-3.66s-14.79-96.66 8.69-146.19-5.14-11.15-5.14-11.15z"/><path fill="#9abcef" d="M731.95 449.69h786.78v1026.07H731.95z"/><path class="cls-11" d="M757.67 449.69h773.56v1026.07H757.67z"/><path class="cls-2" d="M2076.68 1473.25H1920.8c-8.35-7.09 5.78-23.18 20.55-24.26 6.41-.48 14.52.86 23.79 2.82 2.14-28.5 14.39-156.57 60.56-151.43 51.91 5.76 0 56.41-14.67 86.39-10.87 22.21-22.34 54-27.58 69.08 4.21.92 8.58 1.81 13 2.63 6.88-21.12 32.49-92.18 65-88 38.22 4.84 22.86 33.33-4.23 50.25-19.88 12.43-44.29 30.11-55.88 38.65a166.07 166.07 0 0030.48 2.44c26.77-.67 39.81 7.18 44.86 11.43z"/><path class="cls-11" d="M1531.24 449.68H757.67c4.28-58.5-2.17-101-12.5-131.52-19.84-58.74-54-73.47-54-73.47h729.54c62.27 0 110.55 37.51 123.69 87.3.49 1.87 1 3.74 1.34 5.6 12.45 56.98-13.99 111.05-14.5 112.09z"/><path d="M1531.24 449.68H757.67c4.28-58.5-2.17-101-12.5-131.52 79.06 14.47 274.85 45.32 484.43 40.12 135.58-3.36 242.72-12.43 316.11-20.69 12.48 56.98-13.96 111.05-14.47 112.09z" fill="#d8e8fd"/><rect class="cls-13" x="909" y="667.05" width="425.54" height="19.24" rx="7.66"/><rect class="cls-13" x="909" y="699.42" width="265.16" height="19.24" rx="6.04"/><path class="cls-13" d="M869.49 715.55v-39.31h-5.19c-3.14 0-4.71-1.3-4.71-3.93 0-1.88 1.23-3.22 3.69-4a27.25 27.25 0 016-.95q4.13-.32 6.64-.31c1.62 0 2.64.33 3.06 1s.63 2.32.63 5v42.53H885q5.19 0 5.19 4.48c0 3.14-1.73 4.72-5.19 4.72h-21.56a5.94 5.94 0 01-3.81-1.22 4.12 4.12 0 01-1.54-3.42q0-4.56 5.27-4.56z"/><rect class="cls-14" x="909" y="869.69" width="425.54" height="19.24" rx="7.66"/><rect class="cls-14" x="909" y="902.07" width="265.16" height="19.24" rx="6.04"/><path class="cls-14" d="M891 917.39q0 3.92-5.49 3.92H862.7q-4.94 0-4.93-4a5 5 0 011.32-2.92q1.95-2.22 5.7-6.67 5.69-7.15 9.52-12.36 1.31-1.74 3.75-5.28a12.76 12.76 0 002-6 6.15 6.15 0 00-1.74-4.48 5.94 5.94 0 00-4.44-1.77 6.85 6.85 0 00-4.59 1.67 7.92 7.92 0 00-2.08 4.17c-.65 2.64-1.07 4.17-1.25 4.58a3.52 3.52 0 01-3.41 2.23 3.9 3.9 0 01-3.25-1.48 5.23 5.23 0 01-1.11-3.48 16.79 16.79 0 01.76-4.93 14.83 14.83 0 015.91-8.2 17.17 17.17 0 019.79-2.71 15.16 15.16 0 0110.56 3.83 13.38 13.38 0 014.38 10.3 17.9 17.9 0 01-3.13 9.6q-1.74 2.72-7.15 9.6-2.79 3.56-8.76 10.3h15q5.45.01 5.45 4.08z"/><rect class="cls-14" x="909" y="1038.74" width="425.54" height="19.24" rx="7.66"/><rect class="cls-14" x="909" y="1071.11" width="265.16" height="19.24" rx="6.04"/><path class="cls-14" d="M891 1074.24a14.9 14.9 0 01-5.19 11.86 18.24 18.24 0 01-12.42 4.26 17.41 17.41 0 01-9.94-2.77q-6.54-4.41-6.54-10.58A4.43 4.43 0 01858 1074a3.73 3.73 0 012.91-1.28q1.84 0 3.48 2.49c1.75 2.75 2.77 4.26 3.05 4.55a8 8 0 006 2.48q5 0 7.1-3.69a9.85 9.85 0 001-4.69q0-7-8.16-7.74-4.62-.42-4.62-3.91a3.72 3.72 0 012.68-3.62q5-1.85 5.08-1.91 2.68-1.79 2.68-6.18a5.57 5.57 0 00-1.56-4.16 5.72 5.72 0 00-4.17-1.52 7.66 7.66 0 00-5.1 1.56 10.34 10.34 0 00-2.62 4.61 3.23 3.23 0 01-3.25 2.49 3.36 3.36 0 01-2.8-1.49 5.4 5.4 0 01-1.09-3.27 9.15 9.15 0 011.2-4.4 13.6 13.6 0 016.11-5.75 17.88 17.88 0 018.24-1.92 14.36 14.36 0 0110 3.66 12.41 12.41 0 014 9.62 13.17 13.17 0 01-6 11.36q8.84 3.43 8.84 12.95z"/><path class="cls-13" d="M1023.55 495.49h255.55a8 8 0 018 8v6.45a8 8 0 01-8 8h-255.55a8 8 0 01-8-8v-6.45a8 8 0 018-8zM956.91 530h388.83a9.75 9.75 0 019.75 9.75v2.84a9.76 9.76 0 01-9.76 9.76H956.91a9.76 9.76 0 01-9.76-9.76v-2.84a9.75 9.75 0 019.76-9.75z"/><path class="cls-15" d="M1121.36 790.05c-84.27 0-164.24-10.58-223.86-25.69-60.23-15.27-92.67-40.23-92.67-62.37 0-20.06 26.44-38.51 76.46-53.36-47.93 14.23-73.57 35.12-73.57 53.36 0 20.25 33.23 40.28 91.17 55 59.41 15.06 138.41 23.36 222.47 23.36S1284.41 772 1343.82 757c57.94-14.69 91.17-34.72 91.17-55 0-21.43-35-48.07-91.32-69.52-64.05-24.39-143-33.43-222.31-33.43C972.45 599 911.15 616.42 858 638.2c53.42-21.88 113.95-46.67 263.39-46.67 79.63 0 158.92 13.49 223.27 38 57.52 21.91 93.25 49.67 93.25 72.47 0 22.14-33.17 42.74-93.4 58-59.65 15.12-138.89 30.05-223.15 30.05z"/><path class="cls-16" d="M1633.08 987.6s-2.77 27-5.81 32.08-16 21.41-21.53 24.61 3.37-21.49 2.24-26.29-4.54 8.76-7 9.08-1.8-11.89-1.89-16.34 11.84-15.41 16.05-24.88 17.94 1.74 17.94 1.74zm-331.43-248.82l-6.2-11.69s3.07-20.85-23-34c0 0-9.54-3.88-14.93 3.9-5 7.17 9.46 5.88 8.68 18.15s5 19.46 13.16 23.46l6.7 7.76z"/><path class="cls-17" d="M1548.49 710.82s-22.43 110.09-145.87 146.06c-38.53 11.23-126.07-115.63-126.07-115.63s3.08-11.69 22.36-9c0 0 85.24 56.42 96 62.55 9.52 5.44 72.14-69.92 100.68-82.07s52.9-1.91 52.9-1.91z"/><path class="cls-15" transform="rotate(-81.27 1275.565 709.37)" d="M1264.07 651.38h23.06v115.97h-23.06z"/><path class="cls-16" d="M1191.63 696.47l24.9 15.48 3.5-22.78-28.4 7.3zm155.19 19.91l-1.1 7.2a8.12 8.12 0 01-9.26 6.79l-5.3-.81 3.5-22.79 5.77.89a7.64 7.64 0 016.39 8.72z"/><path class="cls-18" d="M1695.86 1402.9s15.31 14 12.32 23.91-16.8 16.54-18.67 28.68-9.34 18.76-16.06 18.76h-32s-5-8.54 7-11.12 16.46-16.83 15.71-30.07 1.12-30.89 1.12-30.89l25.4-5.89zM1508 1439.05s2.75 31.8-4 35.11l-86-.18s0-9.93 13.82-12.13 38.1-10.3 42.21-28.32 33.97 5.52 33.97 5.52z"/><path class="cls-19" d="M1435.36 989.79s4.53 55.75 9.87 122.76c7.25 91 16 202.85 16.83 224 1.49 36.78 7.47 95.62 7.47 95.62s14.19 14 42.58 8.09c0 0 25.3-84 32.52-172.86.12-1.46.23-2.93.34-4.39 6.72-90.47 17.18-281 17.18-281z"/><path class="cls-18" d="M1435.36 989.79s4.53 55.75 9.87 122.76l99.4 154.88c.12-1.46.23-2.93.34-4.39 6.72-90.47 17.18-281 17.18-281z"/><path class="cls-19" d="M1456.08 996.41s81.79 201.9 135.57 296.78 70.6 121.36 70.6 121.36 30.81-12.14 33.61-20.41c0 0-20.57-183.17-56.59-227.83-20.35-25.23-44.25-101-45.37-127.43s-7.29-78.88-7.29-78.88z"/><path class="cls-16" d="M1563.7 685.27s-55.35 26.7-87.25 16.79a75.16 75.16 0 0121.6-17.28c-1.11-6.4-2-12-2.46-16.67a154.11 154.11 0 01-1.35-17l21.35-16.79 20.25-16.07c-1.6 45.15 27.86 67.02 27.86 67.02z"/><path class="cls-20" d="M1592.86 970.34c.12 3.38-7.12 7.25-10.31 8.7-23.68 10.39-45.77 17.64-70.8 20.06-29.58 3-64.55-3.63-76.57-3.38a5 5 0 01-3.32-1.33c-.86-.61-1.47-36.25-.86-81.08 0-1.81 0-3.62.13-5.44v-.6c.24-17.52.85-35.89 1.71-54.25 1.72-40.36 4.91-79.27 10.31-100.77 6.51-25.38 21.23-42.17 34.61-54.38l11-9.66c11 2.17 22.7 1.57 34.36-4.11 12.76-6.16 26.51-12.81 28.72-11.12 16.68 12.2 28 39.63 34 74.67a389.46 389.46 0 015 66.46c0 8.7-.25 17.64-.74 26.46-2.94 47.85 0 89.41 1.72 113.46.55 6.97.92 12.44 1.04 16.31z"/><path class="cls-17" d="M1591.88 968.14c-193.8-.38-35.74-210.29-35.74-210.29l31.39-10.2a608.27 608.27 0 013.64 71c0 9.3-.18 18.85-.53 28.28-2.13 51.12 0 95.52 1.24 121.21z"/><path d="M1536.21 635.48s-14 25.5-40.62 32.63a154.11 154.11 0 01-1.35-17l21.35-16.79z" fill="#ed985f"/><path class="cls-16" d="M1484.5 650.33s52.8 8.64 57.76-23.82 15.1-53.2-18.39-60.08-42 4.52-46.29 15-6.68 65.82 6.92 68.9z"/><path d="M1561.45 562.54c.48-.55 1.58-1 4-1.13a10 10 0 00-4.59-1.29c-.52-3.42-2.34-9.48-8.23-11a7.38 7.38 0 013.58 5.33c-6.82-7-21.43-12.11-61.89-8.91-53.33 4.21-35.75 38.35-28.85 42.42s24.28-7.09 37.14-6.07 15.31 19.61 19.67 22.16 2.65-2 8.56-4.63 6.46 7.12 4.76 13.48 6.4 14.75 6.4 14.75l8.2-8.83c8.2-8.83 15.92-46.22 12.2-54.19z" fill="#2c3a64"/><path class="cls-20" d="M1551.85 672.71s33.41 15.82 49.42 40.14c24.85 37.72 53.64 175.19 54.17 187.92s-21 102.61-21 102.61-21.86-1.44-27.5-12.47c0 0 4.37-92.35 1.6-98.28s-91.12-123.87-81.18-149 24.49-70.92 24.49-70.92z"/><path class="cls-16" d="M1295.33 726.53s1.82-7.17-3.16-10.4-9.55-12-11.65-10.81c-4.35 2.46 2.38 10.12 1.15 19.66-.44 3.35 7.33 12.11 13.66 1.55z"/><path class="cls-2" d="M483.65 1406.06s-78.47-200.92-133.5-168.93 133.5 168.93 133.5 168.93zm-38.8 0s-103.66-89.59-151-73 151 73 151 73zM1542.43 1435s23.89-83.06 51.91-73.26-51.91 73.26-51.91 73.26zm21.8-4.54s61-40 74.38-27.65-74.38 27.65-74.38 27.65z"/><path class="cls-14" d="M1355.84 1252.62H880.16a5.81 5.81 0 01-5.79-5.79 5.81 5.81 0 015.79-5.79h475.68a5.8 5.8 0 015.78 5.79 5.8 5.8 0 01-5.78 5.79zm0 23.17H880.16a5.81 5.81 0 01-5.79-5.79 5.81 5.81 0 015.79-5.79h475.68a5.8 5.8 0 015.78 5.79 5.8 5.8 0 01-5.78 5.79zm0 25.68H880.16a5.81 5.81 0 01-5.79-5.79 5.81 5.81 0 015.79-5.79h475.68a5.8 5.8 0 015.78 5.79 5.8 5.8 0 01-5.78 5.79z"/><rect class="cls-14" x="874.37" y="1315.56" width="424.42" height="11.58" rx="5.4"/><rect y="1473.25" width="2363.47" height="5.03" rx="2.3" fill="#1c468a"/></g></g></svg>