<svg width="138" height="137" fill="none" xmlns="http://www.w3.org/2000/svg"><path d="M34.542 22.49S55.216 38.18 86.645 8.846c27.913-26.052 50.703 15.052 50.863 34.735.207 25.499-27.912 45.9-14.266 62.648 13.646 16.748-27.063 44.403-49.002 20.469-27.292-29.773-34.686-5.582-50.242-5.582-11.165 0-34.088-27.742-18.609-48.382C18.415 55.365 11.311 49.601 7.87 43.58c-4.962-8.684 6.824-32.254 26.672-21.09z" fill="#DEE9FF"/><path d="M67.992 58.162v58.218L22.79 96.856l.215-58.007 44.986 19.313z" fill="#418DF9"/><path d="M67.992 58.197v58.217l44.981-18.849v-58.53l-44.98 19.162z" fill="#A2BDFF"/><path d="M67.992 58.162l45.2-18.932-44.845-19.879L22.79 38.757l45.2 19.405z" fill="#699CFF"/><path d="M39.83 31.499l45.028 19.599.41 14.282 12.598-5.198-.381-14.373-46.36-19.121-11.295 4.81z" fill="#418DF9"/><path d="M82.294 79.085c.714 0 1.292-1.056 1.292-2.359 0-1.302-.578-2.358-1.292-2.358-.714 0-1.292 1.056-1.292 2.358 0 1.303.578 2.359 1.292 2.359zm20.818-8.482c.713 0 1.292-1.056 1.292-2.359 0-1.302-.579-2.358-1.292-2.358-.714 0-1.293 1.056-1.293 2.358 0 1.303.579 2.359 1.293 2.359zm-13.33 20.933l-.84-.326c1.86-4.786 4.191-7.423 6.93-7.837 2.62-.396 4.827 1.409 5.628 2.418l-.705.56c-.554-.699-2.493-2.435-4.788-2.088-2.363.357-4.516 2.872-6.225 7.273z" fill="#fff"/></svg>