<svg xmlns="http://www.w3.org/2000/svg" width="166.125" height="171"><g transform="translate(-438.193 -273.489)"><path d="M592.641 425.827s-4.2 1.233-6.877.852c-1.677-.236-2.059-1.834-1.77-3.182.668-3.112 12.273-14.2 12.273-14.2l-1.278-.868-17.333 17.4s2.454 3.974 9.017 3.161 5.968-3.163 5.968-3.163z" fill="#9eaec0"/><g fill="#f5f8fa" stroke="#000546" stroke-width="2"><path d="M537.553 351.138l56.821 54.924a13.788 13.788 0 01.33 19.496 13.788 13.788 0 01-19.495.332l-56.821-54.925 19.165-19.827z" stroke="none"/><path d="M538.036 352.996l55.643 53.785a12.788 12.788 0 01.306 18.082h0a12.788 12.788 0 01-18.081.308l-55.643-53.786a.639.639 0 01-.015-.904l16.887-17.47a.639.639 0 01.903-.015z" fill="none"/></g><g transform="translate(523.074 355.372)"><rect width="4.708" height="67.93" rx="2.354" transform="rotate(-47 19.995 -4.146)" fill="#d5dee6" opacity=".431"/><path fill="none" stroke="#000546" stroke-width="2" d="M18.16 0L0 18.832m71.966 33.629l-18.16 18.832"/><path fill="none" stroke="#000546" d="M16.814 8.071l47.08 44.39M12.106 12.779l47.08 44.39M8.071 17.487l47.08 44.39"/></g><g fill="#fff" stroke="#000546" stroke-width="2"><path d="M519.391 345.675l13.057 12.621-7.012 7.254-13.057-12.621z" stroke="none"/><path fill="none" d="M519.415 347.089l11.619 11.231-5.622 5.816-11.619-11.231z"/></g><g stroke="#000546" stroke-width="2"><g transform="translate(438.193 273.489)" fill="#fff"><circle cx="45.082" cy="45.082" r="45.082" stroke="none"/><circle cx="45.082" cy="45.082" r="44.082" fill="none"/></g><g transform="translate(446.484 281.78)" fill="#f6f9fb"><circle cx="36.791" cy="36.791" r="36.791" stroke="none"/><circle cx="36.791" cy="36.791" r="35.791" fill="none"/></g></g><ellipse cx="55.964" cy="4.664" rx="55.964" ry="4.664" transform="translate(462.029 435.162)" fill="#e2e8ee"/><text transform="translate(470.211 331.325)" fill="#597a9f" font-size="33" font-family="FontAwesome5Free-Solid, 'Font Awesome 5 Free'"><tspan x="0" y="0"></tspan></text></g></svg>