<svg width="500" height="188" fill="none" xmlns="http://www.w3.org/2000/svg"><path d="M2.766 104.145c-14.987-5.883 35.206-34.139 48.215-25.874 16.26 10.33 17.25 49 51.89 34.215 34.641-14.786 39.307-23.979 52.881-21.42 13.573 2.559 30.964 21.42 49.204 21.42 18.239 0 94.308-32.888 107.74-29.002 13.432 3.886 41.286 24.547 61.505 20.661 20.219-3.886 34.783-30.328 57.829-20.661 18.438 7.734 92.329 22.557 126.97 29.002v63.217L2.766 180.915v-76.77z" fill="#FF9828" fill-opacity=".5"/><path d="M0 95.588c19.386-7.55 27.79 6.576 43.38 6.576 15.59 0 20.335-6.576 32.264-6.576 6.036 0 31.736 18.721 62.766 23.137 45.143-23.137 65.893-5.645 75.645-8.281 30.637-8.28 33.348-68.803 33.348-109.719h4.61c0 44.204 10.709 114.712 57.072 109.719 30.651-3.3 23.317-8.28 40.804-8.28 17.488 0 27.926 8.28 49.21 8.28 21.283 0 34.433-14.856 60.326-14.856h.621c25.738-.001 54.628-.002 63.907 14.856v77.084H0v-91.94z" fill="url(#paint0_linear_3822_7143)"/><defs><linearGradient id="paint0_linear_3822_7143" x1="261.976" y1=".725" x2="261.197" y2="94.954" gradientUnits="userSpaceOnUse"><stop offset=".628" stop-color="#9DE1FD" stop-opacity=".55"/><stop offset="1" stop-color="#F0F3F5"/></linearGradient></defs></svg>