<svg width="319" height="171" fill="none" xmlns="http://www.w3.org/2000/svg"><path d="M1.578 120.561c-8.552-3.559 20.091-20.652 27.515-15.652 9.279 6.249 9.843 29.641 29.612 20.697 19.768-8.944 22.43-14.505 30.177-12.957 7.745 1.548 17.67 12.957 28.078 12.957 10.409 0 53.819-19.894 61.484-17.544 7.665 2.351 23.56 14.849 35.098 12.499 11.539-2.351 19.849-18.347 33.001-12.499 10.522 4.678 52.689 13.645 72.457 17.544v38.241L1.578 167v-46.439z" fill="#FF9828" fill-opacity=".5"/><path d="M0 115.384c11.063-4.567 15.859 3.978 24.756 3.978 8.896 0 11.604-3.978 18.411-3.978 3.445 0 18.11 11.325 35.819 13.996 25.761-13.996 37.602-3.415 43.167-5.009 17.483-5.009 19.031-41.62 19.031-66.371h2.63c0 26.74 6.111 69.391 32.569 66.371 17.491-1.997 13.306-5.009 23.286-5.009 9.979 0 15.936 5.009 28.082 5.009 12.145 0 19.649-8.987 34.425-8.987h.355c14.688-.001 31.174-.001 36.469 8.987V171H0v-55.616z" fill="url(#paint0_linear_3891_6234)"/><g clip-path="url(#clip0_3891_6234)"><path d="M137.021 6.374a43.614 43.614 0 012.751-3.861A25.064 25.064 0 01142.742 0c0 2.669-.02 5.336-.06 8.001l-.796.232c-2.251.683-3.237 2.031-3.213 4.384 0 2.067 1.063 3.284 3.338 3.884 1.325 1.004.475 2.376.671 3.618a18.72 18.72 0 00-2.316.214c-8.203 1.782-12.237 11.767-6.041 19.008l.653.689.671.67c.428.541.749 1.314 1.307 1.581 1.889.909 3.861 1.64 5.803 2.435v4.325a15.68 15.68 0 00-3.623 10.508c.083 4.597.927 9.177 1.444 13.768l-1.533.096-5.376.95-5.049 1.431-1.782.594c-.386-1.188-.736-2.298-1.093-3.397-.41-1.616-.813-3.232-1.223-4.847l-1.646-15.361c.083-2.133.161-4.26.244-6.392l.433-5.298c1.105-4.855 2.214-9.706 3.327-14.553l1.621-4.384c.396-.986.792-1.976 1.188-2.97l1.141-2.423c.97-1.774 1.942-3.556 2.917-5.346l.522-.992 2.75-4.051zm-9.112 42.043V34.998l-.196-.03-1.188 14.797a5.51 5.51 0 00-.255 1.271c.202 4.057.297 8.132.707 12.166.309 3.077 1.022 6.106 1.592 9.343l3.101-.926c-1.082-6.148-2.139-12.035-3.137-17.94-.285-1.74-.416-3.504-.624-5.262z" fill="#FF9828"/><path d="M142.7 49.04v-4.324c4.651.101 8.405-1.68 10.799-5.69 1.901-3.178 2.489-6.617.594-10.098-1.889-5.412-5.4-8.732-11.393-8.81-.196-1.187.653-2.613-.671-3.617 1.942.131 3.7-.237 4.603-2.192.749-1.621.731-3.367-.594-4.62-.873-.815-2.197-1.141-3.326-1.688 0-2.665.02-5.332.059-8.001l1.533 1.152.279.268 7.223 9.99 5.15 10.414 3.22 9.462c.376 1.893.754 3.79 1.134 5.69l.933 5.745.314 3.611.042 5.797c-.131 2.377-.154 4.788-.416 7.164-.321 2.97-.843 5.905-1.277 8.857-.208 1.057-.422 2.12-.629 3.178-.434 1.52-.862 3.035-1.295 4.55v.041l-.155.41-4.354-1.307-4.342-1.051-4.722-.69c.279-2.714.35-5.47.885-8.137a21.223 21.223 0 00-2.133-14.725 6.456 6.456 0 00-1.461-1.378zm14.85-2.304c-.35 3.564-.594 7.128-1.087 10.633-.428 3.136-1.188 6.219-1.651 9.343-.178 1.153-.695 2.786 1.615 2.53.28 0 .594.5.975.808 2.079-9.177 2.079-18.413 1.342-27.71-.232-1.556-.469-3.106-.701-4.663h-.493v9.059z" fill="#D35500"/><path d="M142.7 20.12c5.994.076 9.504 3.397 11.452 8.796v2.18c.167 4.158-1.407 7.52-4.847 9.855-2.376 1.61-4.995 2.69-7.947 1.782-1.943-.594-3.832-1.355-5.738-2.044-.226-.22-.452-.445-.672-.67l-.641-.702c-6.196-7.229-2.162-17.226 6.041-19.008a18.78 18.78 0 012.352-.19zm-3.059 18.65a8.001 8.001 0 009.504-2.304c2.091-2.489 2.233-6.29.356-9.213-.231-.309-.445-.641-.695-.933a7.954 7.954 0 00-8.642-2.34 7.78 7.78 0 00-5.227 7.253c-.143 3.51 1.55 6.22 4.68 7.538h.024z" fill="#184156"/><path d="M142.7 49.041a6.481 6.481 0 011.467 1.396 21.223 21.223 0 012.133 14.725c-.535 2.667-.594 5.423-.885 8.138a528.605 528.605 0 00-.63 3.766c-.457 2.667-.903 5.346-1.39 8.007-.054.267-.41.481-.594.719a3.117 3.117 0 01-.422-.76c-.267-1.301-.493-2.608-.73-3.915l-.274-1.034-.802-6.765c-.534-4.592-1.378-9.166-1.437-13.77a15.677 15.677 0 013.564-10.507zm-19.822 3.742l1.64 15.343-.321.19-.339.101-1.693.885-8.066 3.719-1.099.487a.24.24 0 00.075-.091.223.223 0 00.02-.117V60.232l2.055-1.67 7.728-5.779z" fill="#699CFF"/><path d="M127.909 48.417c.208 1.782.339 3.523.636 5.263.998 5.904 2.055 11.791 3.136 17.939l-3.1.927c-.594-3.238-1.283-6.267-1.592-9.344-.41-4.033-.505-8.108-.707-12.165.034-.432.12-.86.255-1.271l.244.338c.035 0 .101-.065.107-.095l.368-6.938h.297v6.659h.297l.059-1.313z" fill="#E17C55"/><path d="M122.878 52.783l-7.722 5.756V52.17l4.378-3.374 2.299-1.675 1.265-.73a568.293 568.293 0 01-.22 6.391z" fill="#106D8A"/><path d="M135.631 40.7c1.907.69 3.796 1.474 5.738 2.068 2.97.897 5.578-.184 7.948-1.782 3.439-2.335 5.013-5.69 4.847-9.855v-2.18c1.877 3.493 1.289 6.932-.594 10.098-2.376 4.01-6.148 5.792-10.799 5.69-1.942-.795-3.914-1.526-5.803-2.435-.588-.29-.909-1.063-1.337-1.604z" fill="#713E39"/><path d="M142.7 8.001c1.129.546 2.453.873 3.326 1.687 1.337 1.253 1.355 3 .594 4.621-.903 1.955-2.661 2.323-4.603 2.192-2.275-.594-3.315-1.818-3.338-3.885 0-2.376.962-3.7 3.213-4.383L142.7 8zm2.703 4.324a2.895 2.895 0 00-2.703-2.518 2.542 2.542 0 00-2.376 2.714c.036 1.491 1.057 2.376 2.667 2.311a2.577 2.577 0 002.388-2.507h.024z" fill="#194257"/><path d="M127.909 48.417l-.059 1.307h-.249V43.07h-.345l-.392 6.938s-.071.065-.107.095l-.243-.339 1.188-14.796.196.03.011 13.418z" fill="#E39F82"/><path d="M134.319 39.33l.659.7-.659-.7z" fill="#713E39"/><path d="M160.906 68.162c.434-2.97.956-5.893 1.277-8.85.262-2.377.285-4.753.416-7.164l7.425 6.302c.238-.386.398-.66.594-.933l.107.992 2.305 2.044V73.52l-3.012-1.188-.707-.315-5.019-2.346-3.386-1.51z" fill="#699CFF"/><path d="M158.786 42.34c.736 9.284.736 18.533-1.343 27.71-.362-.309-.695-.838-.974-.808-2.311.256-1.782-1.378-1.616-2.53.481-3.125 1.224-6.208 1.652-9.344.481-3.528.736-7.086 1.087-10.633.202-.279.522-.54.594-.849.243-1.17.404-2.364.6-3.546z" fill="#A05444"/><path d="M170.618 57.517c-.166.273-.327.546-.594.932l-7.425-6.302c0-1.93 0-3.867-.042-5.797l7.057 5.197.303.267c.323.474.56 1.001.701 1.557.059 1.378 0 2.762 0 4.146z" fill="#106F8B"/><path d="M158.786 42.34c-.196 1.189-.357 2.377-.594 3.565-.072.309-.393.594-.594.85v-9.077h.493c.225 1.556.463 3.106.695 4.663z" fill="#C06E54"/><path d="M139.617 38.77c-3.13-1.318-4.823-4.027-4.71-7.537a7.783 7.783 0 015.227-7.253 7.96 7.96 0 018.643 2.34c.249.291.463.594.695.933-2.216 2.031-4.604 3.914-6.594 6.148-1.366 1.538-2.192 3.564-3.261 5.37z" fill="#1E9FBD"/><path d="M139.617 38.77c1.069-1.782 1.889-3.831 3.261-5.346 1.99-2.233 4.378-4.116 6.594-6.148 1.877 2.923 1.734 6.725-.357 9.213a8 8 0 01-9.498 2.281z" fill="#83C8D8"/><path d="M145.379 12.325a2.579 2.579 0 01-2.376 2.507c-1.61.065-2.631-.82-2.667-2.31a2.542 2.542 0 012.376-2.715 2.895 2.895 0 012.667 2.518z" fill="#1E9FBD"/></g><defs><linearGradient id="paint0_linear_3891_6234" x1="149.5" y1="58" x2="149" y2="115" gradientUnits="userSpaceOnUse"><stop offset=".628" stop-color="#9DE1FD" stop-opacity=".55"/><stop offset="1" stop-color="#F0F3F5"/></linearGradient><clipPath id="clip0_3891_6234"><path fill="#fff" transform="translate(113)" d="M0 0h60v103.897H0z"/></clipPath></defs></svg>