<svg width="100" height="174" fill="none" xmlns="http://www.w3.org/2000/svg"><g clip-path="url(#clip0_3822_7147)"><path d="M40.036 10.623a72.665 72.665 0 014.584-6.435A41.952 41.952 0 0149.57 0c0 4.448-.034 8.894-.1 13.335l-1.326.386c-3.752 1.139-5.396 3.386-5.356 7.307 0 3.445 1.772 5.474 5.564 6.474 2.208 1.673.792 3.96 1.119 6.03a31.278 31.278 0 00-3.861.356c-13.673 2.97-20.396 19.612-10.07 31.68l1.09 1.148 1.118 1.119c.713.9 1.247 2.188 2.178 2.633 3.148 1.515 6.435 2.733 9.672 4.06v7.206a26.126 26.126 0 00-6.039 17.514c.139 7.662 1.545 15.295 2.406 22.948l-2.554.158-8.96 1.584-8.415 2.386-2.97.99c-.643-1.98-1.227-3.831-1.821-5.663-.683-2.693-1.357-5.385-2.04-8.078l-2.742-25.601c.139-3.555.267-7.099.406-10.653l.723-8.83c1.84-8.092 3.689-16.177 5.544-24.256l2.702-7.306c.66-1.643 1.32-3.293 1.98-4.95l1.901-4.04c1.617-2.956 3.237-5.926 4.86-8.91l.872-1.652 4.584-6.752zM24.849 80.695V58.331l-.326-.05-1.98 24.661a9.136 9.136 0 00-.426 2.119c.336 6.762.495 13.553 1.178 20.275.515 5.128 1.703 10.177 2.653 15.573l5.168-1.545c-1.802-10.246-3.564-20.057-5.227-29.898-.476-2.9-.693-5.84-1.04-8.771z" fill="#FF9828"/><path d="M49.5 81.734v-7.207c7.752.169 14.009-2.801 17.998-9.484 3.168-5.296 4.148-11.029.99-16.83C65.34 39.194 59.49 33.66 49.5 33.531c-.327-1.98 1.09-4.356-1.119-6.029 3.238.218 6.168-.396 7.673-3.653 1.247-2.703 1.218-5.613-.99-7.702-1.455-1.356-3.663-1.9-5.544-2.812 0-4.441.033-8.887.099-13.335l2.554 1.92.465.446 12.039 16.652 8.583 17.355 5.366 15.77c.627 3.155 1.257 6.317 1.89 9.485l1.555 9.573.525 6.02.07 9.661c-.219 3.96-.258 7.98-.694 11.94-.534 4.95-1.406 9.841-2.128 14.761-.347 1.762-.703 3.534-1.05 5.296-.722 2.535-1.435 5.059-2.158 7.584v.069l-.257.683-7.257-2.178-7.237-1.752-7.87-1.149c.465-4.524.584-9.117 1.475-13.563a35.373 35.373 0 00-3.555-24.542 10.779 10.779 0 00-2.435-2.297zm24.75-3.84c-.584 5.94-.99 11.88-1.812 17.72-.712 5.227-1.98 10.366-2.752 15.573-.297 1.921-1.158 4.643 2.693 4.217.465 0 .99.832 1.624 1.347 3.465-15.296 3.465-30.69 2.237-46.184-.386-2.593-.782-5.177-1.168-7.771h-.822v15.097z" fill="#D35500"/><path d="M49.5 33.531c9.99.129 15.84 5.663 19.087 14.662v3.634c.278 6.93-2.346 12.533-8.078 16.424-3.96 2.682-8.326 4.484-13.246 2.97-3.238-.99-6.386-2.258-9.564-3.406a59.594 59.594 0 01-1.118-1.119l-1.07-1.168c-10.325-12.048-3.603-28.71 10.069-31.68a31.294 31.294 0 013.92-.317zm-5.098 31.086a13.335 13.335 0 0015.84-3.84c3.484-4.149 3.722-10.485.594-15.356-.386-.515-.743-1.069-1.159-1.554a13.266 13.266 0 00-14.404-3.9 12.968 12.968 0 00-8.712 12.087c-.238 5.851 2.584 10.365 7.801 12.563h.04z" fill="#184156"/><path d="M49.5 81.734a10.78 10.78 0 012.445 2.327 35.372 35.372 0 013.554 24.542c-.89 4.445-.99 9.039-1.475 13.563a890.374 890.374 0 00-1.05 6.277c-.761 4.445-1.504 8.91-2.316 13.345-.089.445-.683.802-.99 1.198a5.203 5.203 0 01-.703-1.267c-.445-2.169-.821-4.347-1.217-6.525l-.456-1.722-1.336-11.276c-.891-7.653-2.297-15.276-2.396-22.948a26.126 26.126 0 015.94-17.514zm-33.036 6.238l2.732 25.571-.535.317-.564.169-2.821 1.475-13.444 6.197-1.832.812a.385.385 0 00.158-.347v-21.78l3.426-2.782 12.88-9.632z" fill="#699CFF"/><path d="M24.849 80.695c.346 2.97.564 5.87 1.06 8.772 1.662 9.84 3.425 19.651 5.226 29.898l-5.168 1.544c-.99-5.396-2.138-10.445-2.653-15.573-.683-6.722-.841-13.513-1.178-20.275.058-.72.2-1.432.426-2.119l.406.565c.06 0 .168-.11.178-.159l.614-11.563h.495v11.098h.495l.099-2.188z" fill="#E17C55"/><path d="M16.464 87.972l-12.87 9.593V86.952l7.296-5.623 3.831-2.792 2.11-1.218a956.867 956.867 0 01-.367 10.653z" fill="#106D8A"/><path d="M37.719 67.835c3.178 1.148 6.326 2.455 9.563 3.445 4.95 1.495 9.297-.307 13.247-2.97 5.732-3.89 8.355-9.484 8.078-16.424v-3.634c3.128 5.822 2.148 11.554-.99 16.83-3.96 6.683-10.247 9.653-17.998 9.485-3.237-1.327-6.524-2.545-9.672-4.06-.98-.484-1.515-1.771-2.228-2.672z" fill="#713E39"/><path d="M49.5 13.335c1.88.911 4.089 1.456 5.544 2.812 2.227 2.089 2.257 5 .99 7.702-1.505 3.257-4.435 3.871-7.673 3.653-3.791-.99-5.524-3.029-5.563-6.474 0-3.96 1.603-6.168 5.355-7.306l1.347-.387zm4.504 7.208a4.821 4.821 0 00-4.504-4.198 4.237 4.237 0 00-3.96 4.524c.06 2.485 1.762 3.96 4.445 3.852a4.297 4.297 0 003.98-4.178h.04z" fill="#194257"/><path d="M24.849 80.695l-.099 2.178h-.416V71.785h-.574l-.653 11.563s-.12.109-.179.159l-.405-.565 1.98-24.66.326.049.02 22.364z" fill="#E39F82"/><path d="M35.531 65.548l1.099 1.168-1.099-1.168z" fill="#713E39"/><path d="M79.844 113.603c.722-4.95 1.593-9.821 2.128-14.751.436-3.96.475-7.92.693-11.94L95.04 97.416c.396-.644.663-1.099.99-1.554l.178 1.653 3.841 3.406v21.611l-5.019-1.98-1.178-.524-8.365-3.911-5.643-2.514z" fill="#699CFF"/><path d="M76.31 70.567c1.227 15.474 1.227 30.888-2.238 46.183-.604-.514-1.159-1.395-1.624-1.346-3.85.426-2.97-2.297-2.693-4.217.802-5.208 2.04-10.346 2.753-15.573.802-5.88 1.227-11.81 1.811-17.721.337-.465.871-.901.99-1.416.406-1.95.674-3.94 1-5.91z" fill="#A05444"/><path d="M96.03 95.862c-.277.455-.544.91-.99 1.554L82.665 86.912c0-3.218 0-6.445-.07-9.663l11.762 8.663.505.445c.537.79.933 1.668 1.168 2.594.099 2.297 0 4.604 0 6.91z" fill="#106F8B"/><path d="M76.31 70.567c-.327 1.98-.595 3.96-.99 5.94-.12.515-.654.99-.99 1.416V62.796h.821c.376 2.594.772 5.178 1.158 7.771z" fill="#C06E54"/><path d="M44.362 64.617c-5.217-2.198-8.039-6.712-7.85-12.563a12.969 12.969 0 018.711-12.088 13.265 13.265 0 0114.405 3.9c.416.486.772.99 1.158 1.555-3.693 3.386-7.672 6.524-10.989 10.247-2.277 2.564-3.653 5.94-5.435 8.95z" fill="#1E9FBD"/><path d="M44.362 64.617c1.782-2.97 3.148-6.386 5.435-8.91 3.317-3.722 7.297-6.86 10.99-10.247 3.128 4.871 2.89 11.207-.595 15.355a13.336 13.336 0 01-15.83 3.802z" fill="#83C8D8"/><path d="M53.965 20.542a4.297 4.297 0 01-3.96 4.178c-2.683.109-4.386-1.366-4.445-3.851a4.237 4.237 0 013.96-4.524 4.821 4.821 0 014.445 4.197z" fill="#1E9FBD"/></g><defs><clipPath id="clip0_3822_7147"><path fill="#fff" d="M0 0h100v173.161H0z"/></clipPath></defs></svg>