<svg xmlns="http://www.w3.org/2000/svg" width="31.32" height="24.469" viewBox="0 0 31.32 24.469"><path d="M422.612,200.5a.612.612,0,1,0,.612.612A.612.612,0,0,0,422.612,200.5Zm0,0" transform="translate(-396.185 -188.266)" fill="#38485f"/><path d="M275.567,236.642a.612.612,0,1,0-.224-.836A.612.612,0,0,0,275.567,236.642Zm0,0" transform="translate(-258.422 -221.125)" fill="#38485f"/><path d="M235.916,276.9a.612.612,0,1,0-.836-.224A.612.612,0,0,0,235.916,276.9Zm0,0" transform="translate(-220.623 -258.922)" fill="#38485f"/><path d="M180.612,291.723a.612.612,0,1,0-.612-.612A.612.612,0,0,0,180.612,291.723Zm0,0" transform="translate(-168.989 -272.76)" fill="#38485f"/><path d="M125.3,276.9a.612.612,0,1,0-.224-.836A.612.612,0,0,0,125.3,276.9Zm0,0" transform="translate(-117.352 -258.922)" fill="#38485f"/><path d="M84.819,236.418a.612.612,0,1,0,.224-.836.612.612,0,0,0-.224.836Zm0,0" transform="translate(-79.553 -221.125)" fill="#38485f"/><path d="M19.189.5h-.1A12.229,12.229,0,0,0,6.852,12.734H.612A.612.612,0,0,0,0,13.346,11.629,11.629,0,0,0,15.3,24.373a12.218,12.218,0,0,0,3.68.6h.1A12.234,12.234,0,0,0,19.189.5Zm-2.55,12.234c0-4.68,1.049-11.011,2.447-11.011,1.788,0,2.447,8.411,2.447,11.011Zm2.913,1.223a7.953,7.953,0,0,1-15.858,0ZM17.088,2.225c-1.318,2.7-1.672,7.49-1.672,10.509H12.357C12.357,8.788,13.847,3.894,17.088,2.225ZM14.5,2.714c-2.36,2.561-3.367,6.486-3.367,10.02H8.075A11.024,11.024,0,0,1,14.5,2.714ZM1.241,13.958H2.468a9.175,9.175,0,0,0,18.31,0H22a10.4,10.4,0,0,1-20.763,0Zm22.451,8.773a13.708,13.708,0,0,0,3.083-6.848.612.612,0,1,0-1.206-.206c-.8,4.7-3.441,8.016-6.414,8.068H19.01a4.247,4.247,0,0,1-1.567-.336,11.651,11.651,0,0,0,5.8-10.062.612.612,0,0,0-.489-.6v-.012c0-3.044-.358-7.813-1.669-10.5,2.864,1.484,4.314,5.474,4.64,8.73a.612.612,0,0,0,1.217-.122,14.1,14.1,0,0,0-3.254-8.1,11,11,0,0,1,0,19.993Zm0,0" transform="translate(0 -0.5)" fill="#38485f"/></svg>