<svg xmlns="http://www.w3.org/2000/svg" width="31.32" height="24.469"><path d="M26.427 12.234a.612.612 0 10.612.612.612.612 0 00-.612-.612zm-9.282 3.283a.612.612 0 10-.224-.836.612.612 0 00.224.836zm-1.852 2.461a.612.612 0 10-.836-.224.612.612 0 00.836.224zm-3.67.985a.612.612 0 10-.612-.612.612.612 0 00.612.612zm-3.675-.985a.612.612 0 10-.224-.836.612.612 0 00.224.836zm-2.682-2.685a.612.612 0 10.224-.836.612.612 0 00-.224.836zm0 0" fill="#38485f"/><path d="M19.189 0h-.1A12.229 12.229 0 006.852 12.234H.612a.612.612 0 00-.612.612 11.629 11.629 0 0015.3 11.027 12.218 12.218 0 003.68.6h.1A12.237 12.237 0 0019.189 0zm-2.55 12.234c0-4.68 1.049-11.011 2.447-11.011 1.788 0 2.447 8.411 2.447 11.011zm2.913 1.223a7.953 7.953 0 01-15.858 0zM17.088 1.725c-1.318 2.7-1.672 7.49-1.672 10.509h-3.059c0-3.946 1.49-8.84 4.731-10.509zm-2.588.489c-2.36 2.561-3.367 6.486-3.367 10.02H8.075A11.024 11.024 0 0114.5 2.214zM1.241 13.458h1.227a9.175 9.175 0 0018.31 0H22a10.4 10.4 0 01-20.763 0zm22.451 8.773a13.708 13.708 0 003.083-6.848.612.612 0 10-1.206-.206c-.8 4.7-3.441 8.016-6.414 8.068h-.145a4.247 4.247 0 01-1.567-.336 11.651 11.651 0 005.8-10.062.612.612 0 00-.489-.6v-.012c0-3.044-.358-7.813-1.669-10.5 2.864 1.484 4.314 5.474 4.64 8.73a.612.612 0 001.217-.122 14.1 14.1 0 00-3.254-8.1 11 11 0 010 19.993zm0 0" fill="#38485f"/></svg>