<svg xmlns="http://www.w3.org/2000/svg" viewBox="0 0 197.14 39.42"><defs><style>.cls-3{fill:#00c569}</style></defs><g id="Layer_2" data-name="Layer 2"><g id="Layer_1-2" data-name="Layer 1"><path d="M0 38.18q.51-5.32 1.11-18.48T1.75 0c1.65 0 3.09.06 4.3.06S8.55 0 9.93 0q-.48 3.95-.75 10c1.82-.36 3.28-.6 4.36-.72a29.09 29.09 0 013.22-.18 17.5 17.5 0 017.39 1.39A10.58 10.58 0 0129 15a15.41 15.41 0 011.82 7.76 21.2 21.2 0 01-.91 6.2 16.22 16.22 0 01-2.71 5.34 10.81 10.81 0 01-4.37 3.43 14.29 14.29 0 01-5.59 1.09 12.74 12.74 0 01-2.7-.27 10.28 10.28 0 01-2.29-.77 9.41 9.41 0 01-1.87-1.17A9.76 9.76 0 019 35.29a16.32 16.32 0 01-1.27-1.87l-.12 4.76c-1.53 0-2.74-.06-3.61-.06-.7 0-2 .02-4 .06zm8.66-22.52l-.22 4.78q-.09 1.54-.09 3a16.91 16.91 0 00.71 5.46 6 6 0 002.41 3.1 7 7 0 003.82 1.09 6.63 6.63 0 004-1.25 7.85 7.85 0 002.61-3.65 14.3 14.3 0 00.9-5.06 9 9 0 00-2-6.15 7.55 7.55 0 00-6-2.32 19.34 19.34 0 00-2.67.2 29.27 29.27 0 00-3.47.8zm55.81 22.52q-2.46-.06-3.78-.06-1.65 0-3.75.06l.06-4.65a21.76 21.76 0 01-1.37 1.89 7.9 7.9 0 01-1.54 1.4A8.29 8.29 0 0152 37.91a17 17 0 01-5.62.94 15.08 15.08 0 01-5.46-.91 8.15 8.15 0 01-3.67-2.76 8.76 8.76 0 01-1.36-5.28v-.59l.45-7.22.43-9.5V9.73c1.76 0 3.15.06 4.16.06s2.34 0 3.85-.06l-.88 12.76c0 1-.1 1.82-.13 2.5s0 1.17 0 1.47a8.15 8.15 0 00.6 3.34 4.09 4.09 0 002.1 2 7.55 7.55 0 003.2.7 7.8 7.8 0 003.07-.62A6.3 6.3 0 0055 30.34a8.21 8.21 0 001.58-2.71 14.38 14.38 0 00.73-3.41c.13-1 .25-2.79.36-5.29.15-3 .26-6.08.32-9.2q2.78.06 4.23.06 1.65 0 3.72-.06-.33 4-.7 10c-.24 4-.4 7.3-.5 9.9s-.21 5.45-.27 8.55zm6.18-.54L70 31.49A30.9 30.9 0 0074.67 33a15.87 15.87 0 003.5.44 8.27 8.27 0 002.68-.38A3.2 3.2 0 0082.48 32a2.64 2.64 0 00.52-1.57 3.45 3.45 0 00-.07-.67 2.78 2.78 0 00-.25-.65 6.9 6.9 0 00-.42-.63 8 8 0 00-.66-.67q-.42-.37-1.2-1l-1.51-1.2q-2.18-1.67-3.32-2.61a12.84 12.84 0 01-1.93-2 8 8 0 01-1.19-2.15 6.69 6.69 0 01.84-6.2 7.13 7.13 0 013.62-2.7 16.81 16.81 0 015.59-.85 47.85 47.85 0 018.5.83l.36 5.84a16.67 16.67 0 00-6.23-1.31 11.39 11.39 0 00-2.84.32 3.26 3.26 0 00-1.75 1 2.31 2.31 0 00-.54 1.45 2.79 2.79 0 00.17.94 3.36 3.36 0 00.58 1 7.28 7.28 0 001 .95c.36.3 1.12.89 2.28 1.76s2.17 1.67 3 2.38a13.5 13.5 0 012.14 2.14 8.51 8.51 0 011.29 2.31 7.2 7.2 0 01.45 2.49 6.5 6.5 0 01-1.33 3.8 8.26 8.26 0 01-3.89 2.8 16 16 0 01-5.81 1 37.72 37.72 0 01-4.09-.27 40.25 40.25 0 01-5.14-.89zm25.87.54l.55-7.28.64-13.9L98 5q.06-3.25.06-5c2 0 3.33.06 4.15.06s2.24 0 3.82-.06l-.58 9.09-.67 14.49-.28 10.82v3.78q-2.47-.06-3.9-.06c-1.09 0-2.45.02-4.08.06zm8.89-15.93l5.7-6.93c.49-.6 1.07-1.33 1.74-2.21s1.53-2 2.56-3.38c1.93 0 3.35.06 4.24.06 1.23 0 2.79 0 4.67-.06l-9.22 10.56-1.65 2q2 3.25 11.34 15.88c-1.68 0-3.12-.06-4.31-.06s-2.68 0-4.45.06q-1.64-2.67-2.65-4.27c-.68-1.08-1.31-2-1.89-2.82l-4.76-6.8c-.13-.17-.57-.86-1.32-2.03zM174 9.77a17.63 17.63 0 015 .72 10.65 10.65 0 014.36 2.51 11.1 11.1 0 012.84 4.57 18 18 0 011 6 20.72 20.72 0 01-1 6.54 14.4 14.4 0 01-2.94 5.24 10.35 10.35 0 01-4.46 3 16.81 16.81 0 01-5.44.87 17 17 0 01-4-.46 11.89 11.89 0 01-3.63-1.55 11.21 11.21 0 01-3-2.83 12.4 12.4 0 01-1.93-4.11 18.36 18.36 0 01-.65-4.95 20 20 0 011.69-8.32 11.15 11.15 0 015-5.49A15.1 15.1 0 01174 9.77zm0 1.56a12.3 12.3 0 00-6.2 1.67 9.58 9.58 0 00-4.19 4.95 19.15 19.15 0 00-1.35 7.29 17.59 17.59 0 00.77 5.25 10 10 0 002.48 4.15 9.41 9.41 0 003.68 2.35 12.93 12.93 0 004.15.65 13.33 13.33 0 004.67-.81 9.44 9.44 0 003.84-2.71 11.8 11.8 0 002.45-4.66 21.56 21.56 0 00.78-5.87 18.5 18.5 0 00-.76-5.4 9.05 9.05 0 00-2.4-4.06 9.16 9.16 0 00-3.69-2.13 14.81 14.81 0 00-4.23-.67zm19.34 27.27q1.28-23.33 1.5-38.18h2.3L196.43 14l-.8 24.56h-1.15z" fill="#000546"/><g id="buskool-icon"><path id="Subtraction_1" data-name="Subtraction 1" d="M141.64 39.42A14.69 14.69 0 01128.57 18a14.77 14.77 0 014.32-5.1l3.74 3.73A9.41 9.41 0 10151 26l2.57-2.53 2.76 2.7a14.71 14.71 0 01-14.64 13.29zm14.66-15.8l-2.77-2.74-2.53 2.51a9.43 9.43 0 00-4.77-7l3.77-3.78a14.62 14.62 0 016.33 11z" fill="#e41c38"/><g id="Group_24" data-name="Group 24"><path id="Rectangle_12" data-name="Rectangle 12" class="cls-3" d="M140.36 8.87l5.41 5.41-4.58 4.57-7.9-7.9 2.08-2.08a3.52 3.52 0 014.99 0z"/><path id="Rectangle_13" data-name="Rectangle 13" class="cls-3" d="M152.62 7.62L141.4 18.85l-4.16-4.16 7.9-7.9a4.71 4.71 0 016.65 0l.83.83z"/></g></g></g></g></svg>