<svg xmlns="http://www.w3.org/2000/svg" width="166.125" height="171" viewBox="0 0 166.125 171"><g transform="translate(-438.193 -273.489)"><g transform="translate(518.397 351.138)"><path d="M660.639,491.783s-4.2,1.233-6.877.852c-1.677-.236-2.059-1.834-1.77-3.182.668-3.112,12.273-14.2,12.273-14.2l-1.278-.868-17.333,17.4s2.454,3.974,9.017,3.161S660.639,491.783,660.639,491.783Z" transform="translate(-586.395 -417.094)" fill="#9eaec0"/><g transform="matrix(0.719, 0.695, -0.695, 0.719, 19.156, 0)" fill="#f5f8fa" stroke="#000546" stroke-width="2"><path d="M0,0H79.028A13.788,13.788,0,0,1,92.815,13.788v0A13.788,13.788,0,0,1,79.028,27.576H0a0,0,0,0,1,0,0V0A0,0,0,0,1,0,0Z" stroke="none"/><path d="M1.639,1H79.028A12.788,12.788,0,0,1,91.815,13.788v0A12.788,12.788,0,0,1,79.028,26.576H1.639A.639.639,0,0,1,1,25.936V1.639A.639.639,0,0,1,1.639,1Z" fill="none"/></g><g transform="translate(4.677 4.234)"><rect width="4.708" height="67.93" rx="2.354" transform="translate(9.391 13.305) rotate(-47)" fill="#d5dee6" opacity="0.431"/><line x1="18.16" y2="18.832" fill="none" stroke="#000546" stroke-width="2"/><line x1="18.16" y2="18.832" transform="translate(53.806 52.461)" fill="none" stroke="#000546" stroke-width="2"/><line x2="47.08" y2="44.39" transform="translate(16.814 8.071)" fill="none" stroke="#000546" stroke-width="1"/><line x2="47.08" y2="44.39" transform="translate(12.106 12.779)" fill="none" stroke="#000546" stroke-width="1"/><line x2="47.08" y2="44.39" transform="translate(8.071 17.487)" fill="none" stroke="#000546" stroke-width="1"/></g></g><g transform="matrix(0.719, 0.695, -0.695, 0.719, 519.391, 345.675)" fill="#fff" stroke="#000546" stroke-width="2"><rect width="18.16" height="10.089" stroke="none"/><rect x="1" y="1" width="16.16" height="8.089" fill="none"/></g><g transform="translate(438.193 273.489)"><g transform="translate(0 0)" fill="#fff" stroke="#000546" stroke-width="2"><circle cx="45.082" cy="45.082" r="45.082" stroke="none"/><circle cx="45.082" cy="45.082" r="44.082" fill="none"/></g><g transform="translate(8.291 8.291)" fill="#f6f9fb" stroke="#000546" stroke-width="2"><circle cx="36.791" cy="36.791" r="36.791" stroke="none"/><circle cx="36.791" cy="36.791" r="35.791" fill="none"/></g></g><ellipse cx="55.964" cy="4.664" rx="55.964" ry="4.664" transform="translate(462.029 435.162)" fill="#e2e8ee"/><text transform="translate(470.211 331.325)" fill="#597a9f" font-size="33" font-family="FontAwesome5Free-Solid, 'Font Awesome 5 Free'"><tspan x="0" y="0"></tspan></text></g></svg>