<svg xmlns="http://www.w3.org/2000/svg" width="27.772" height="24.734" viewBox="0 0 27.772 24.734"><path d="M.542,38.766a.542.542,0,0,0,0,1.085H27.229a.542.542,0,0,0,0-1.085H24.3V36.735a4.04,4.04,0,0,0,2.65-1.151,4.308,4.308,0,0,0,.774-3.232.541.541,0,0,0-.446-.505,4.714,4.714,0,0,0,.446-2.777.541.541,0,0,0-.448-.506,4.712,4.712,0,0,0,.448-2.779.542.542,0,0,0-.512-.514,4.926,4.926,0,0,0-.742.028V23.563a.542.542,0,1,0-1.085,0v1.969a3.2,3.2,0,0,0-1.378.866,2.6,2.6,0,0,0-.251.332,2.635,2.635,0,0,0-.251-.332,3.193,3.193,0,0,0-1.374-.865V23.563a.542.542,0,0,0-1.085,0V25.3a4.975,4.975,0,0,0-.745-.029.543.543,0,0,0-.511.51,4.715,4.715,0,0,0,.448,2.783.541.541,0,0,0-.447.5,4.716,4.716,0,0,0,.446,2.781.541.541,0,0,0-.406.327.536.536,0,0,0-.04.175,4.309,4.309,0,0,0,.774,3.236,4.04,4.04,0,0,0,2.65,1.151v2.031H14.431V36.174a4.04,4.04,0,0,0,2.65-1.151,4.307,4.307,0,0,0,.775-3.232.542.542,0,0,0-.446-.505,4.716,4.716,0,0,0,.446-2.777A.542.542,0,0,0,17.408,28a4.713,4.713,0,0,0,.448-2.779.542.542,0,0,0-.447-.505,4.713,4.713,0,0,0,.447-2.778.543.543,0,0,0-.512-.514,5,5,0,0,0-.743.029V19.738a.542.542,0,0,0-1.085,0v1.951a3.2,3.2,0,0,0-1.376.866,2.615,2.615,0,0,0-.251.332,2.634,2.634,0,0,0-.251-.332,3.2,3.2,0,0,0-1.376-.866V19.738a.542.542,0,0,0-1.085,0v1.718a4.932,4.932,0,0,0-.743-.029.542.542,0,0,0-.511.51,4.716,4.716,0,0,0,.446,2.782.541.541,0,0,0-.446.5A4.713,4.713,0,0,0,10.37,28a.541.541,0,0,0-.447.5,4.716,4.716,0,0,0,.446,2.781.541.541,0,0,0-.406.327.535.535,0,0,0-.04.175,4.309,4.309,0,0,0,.774,3.236,4.04,4.04,0,0,0,2.65,1.151v2.592H4.559V36.735a4.04,4.04,0,0,0,2.65-1.151,4.307,4.307,0,0,0,.775-3.232.542.542,0,0,0-.446-.505,4.716,4.716,0,0,0,.446-2.777.542.542,0,0,0-.448-.506,4.711,4.711,0,0,0,.448-2.779.542.542,0,0,0-.512-.514,4.939,4.939,0,0,0-.745.029V23.563a.542.542,0,1,0-1.085,0v1.971a3.193,3.193,0,0,0-1.374.865,2.615,2.615,0,0,0-.251.332,2.633,2.633,0,0,0-.251-.332,3.2,3.2,0,0,0-1.378-.866V23.563a.542.542,0,1,0-1.085,0V25.3a4.976,4.976,0,0,0-.742-.029.542.542,0,0,0-.511.51A4.713,4.713,0,0,0,.5,28.564a.542.542,0,0,0-.407.327.535.535,0,0,0-.04.175A4.716,4.716,0,0,0,.5,31.847a.541.541,0,0,0-.446.5,4.31,4.31,0,0,0,.774,3.236,4.04,4.04,0,0,0,2.65,1.151v2.031Zm21.733-6.615a2.2,2.2,0,0,1-.9-.572,2.907,2.907,0,0,1-.545-1.925,4.071,4.071,0,0,1,.982.2l.125.047a2.012,2.012,0,0,1,.762.508h0a2.85,2.85,0,0,1,.512,1.953,4.1,4.1,0,0,1-.923-.2l-.014-.005Zm2.959,0a4.089,4.089,0,0,1-.926.205,2.851,2.851,0,0,1,.512-1.953,2.015,2.015,0,0,1,.763-.508l.123-.046a4.061,4.061,0,0,1,.983-.2,2.906,2.906,0,0,1-.545,1.925,2.2,2.2,0,0,1-.9.574Zm.91,2.706a2.928,2.928,0,0,1-1.836.782,2.852,2.852,0,0,1,.512-1.954,1.99,1.99,0,0,1,.727-.493c.068-.024.136-.049.2-.077a4.1,4.1,0,0,1,.938-.183,2.9,2.9,0,0,1-.545,1.925Zm-1.324-7.739a2.882,2.882,0,0,1,1.869-.753,2.906,2.906,0,0,1-.545,1.925,2.928,2.928,0,0,1-1.836.782,2.852,2.852,0,0,1,.512-1.954Zm-3.989-.753a2.882,2.882,0,0,1,1.869.753,2.852,2.852,0,0,1,.512,1.954,2.929,2.929,0,0,1-1.836-.782,2.907,2.907,0,0,1-.545-1.925Zm2.381,9.274a2.928,2.928,0,0,1-1.836-.782,2.906,2.906,0,0,1-.545-1.925,4.107,4.107,0,0,1,.937.183c.069.028.139.054.208.078a1.986,1.986,0,0,1,.725.492,2.852,2.852,0,0,1,.512,1.954Zm-10.855-4.07a2.168,2.168,0,0,1-.853-.555,2.907,2.907,0,0,1-.545-1.925,4.064,4.064,0,0,1,.981.2l.126.047a2.013,2.013,0,0,1,.762.508,2.851,2.851,0,0,1,.512,1.954,4.082,4.082,0,0,1-.906-.2l-.077-.029Zm2.986.028a4.081,4.081,0,0,1-.907.2,2.852,2.852,0,0,1,.512-1.954,2.015,2.015,0,0,1,.763-.508l.124-.047a4.067,4.067,0,0,1,.983-.2,2.906,2.906,0,0,1-.545,1.925,2.166,2.166,0,0,1-.853.556l-.076.028Zm-2.515-5.04a2.852,2.852,0,0,1,.512,1.954,2.928,2.928,0,0,1-1.836-.782,2.905,2.905,0,0,1-.545-1.925,4.1,4.1,0,0,1,.941.184c.066.027.132.052.2.075a1.991,1.991,0,0,1,.73.494Zm3.047-.568a4.1,4.1,0,0,1,.942-.185,2.906,2.906,0,0,1-.545,1.925,2.928,2.928,0,0,1-1.836.782,2.852,2.852,0,0,1,.512-1.954,1.99,1.99,0,0,1,.73-.495q.1-.034.2-.074Zm.4,8.307a2.928,2.928,0,0,1-1.836.782,2.852,2.852,0,0,1,.512-1.954,1.984,1.984,0,0,1,.716-.488q.113-.039.226-.085a4.124,4.124,0,0,1,.928-.18,2.9,2.9,0,0,1-.545,1.925ZM14.949,23.278a2.881,2.881,0,0,1,1.869-.753,2.906,2.906,0,0,1-.545,1.925,2.928,2.928,0,0,1-1.836.782,2.852,2.852,0,0,1,.512-1.954Zm-3.989-.753a2.881,2.881,0,0,1,1.869.753,2.852,2.852,0,0,1,.512,1.954,2.929,2.929,0,0,1-1.836-.782,2.907,2.907,0,0,1-.545-1.925Zm2.381,12.557A2.928,2.928,0,0,1,11.5,34.3a2.906,2.906,0,0,1-.545-1.925,4.125,4.125,0,0,1,.927.18q.114.046.227.085a1.981,1.981,0,0,1,.715.488,2.852,2.852,0,0,1,.512,1.954ZM2.531,32.151a2.2,2.2,0,0,1-.9-.572,2.906,2.906,0,0,1-.545-1.925,4.069,4.069,0,0,1,.982.2l.125.047a2.013,2.013,0,0,1,.762.508h0a2.852,2.852,0,0,1,.512,1.953,4.1,4.1,0,0,1-.922-.2l-.015-.006Zm2.96,0a4.089,4.089,0,0,1-.926.205,2.851,2.851,0,0,1,.512-1.953A2.015,2.015,0,0,1,5.84,29.9l.123-.046a4.061,4.061,0,0,1,.983-.2A2.906,2.906,0,0,1,6.4,31.578a2.2,2.2,0,0,1-.9.574l-.007,0Zm.91,2.706a2.928,2.928,0,0,1-1.836.782,2.852,2.852,0,0,1,.512-1.954A1.99,1.99,0,0,1,5.8,33.2c.068-.024.136-.049.2-.077a4.1,4.1,0,0,1,.938-.183A2.9,2.9,0,0,1,6.4,34.861ZM5.077,27.122a2.882,2.882,0,0,1,1.869-.753A2.906,2.906,0,0,1,6.4,28.293a2.928,2.928,0,0,1-1.836.782,2.852,2.852,0,0,1,.512-1.954Zm-3.989-.753a2.882,2.882,0,0,1,1.869.753,2.852,2.852,0,0,1,.512,1.954,2.929,2.929,0,0,1-1.836-.782,2.907,2.907,0,0,1-.545-1.925Zm2.381,9.274a2.928,2.928,0,0,1-1.836-.782,2.906,2.906,0,0,1-.545-1.925,4.107,4.107,0,0,1,.937.183c.069.028.139.054.208.078a1.986,1.986,0,0,1,.725.492,2.852,2.852,0,0,1,.512,1.954Zm0,0" transform="translate(0 -18.154)" fill="#38485f"/><path d="M297.716,436H286.542a.542.542,0,1,0,0,1.085h11.174a.542.542,0,0,0,0-1.085Zm0,0" transform="translate(-270.487 -412.351)" fill="#38485f"/><path d="M.542,437.085H11.716a.542.542,0,1,0,0-1.085H.542a.542.542,0,1,0,0,1.085Zm0,0" transform="translate(0 -412.351)" fill="#38485f"/><path d="M246.593,3a.543.543,0,0,0,.542-.542V.542a.542.542,0,1,0-1.085,0V2.462A.543.543,0,0,0,246.593,3Zm0,0" transform="translate(-232.705)" fill="#38485f"/><path d="M64.558,73.52a.543.543,0,0,0,.542-.542V71.058a.542.542,0,0,0-1.085,0v1.919A.542.542,0,0,0,64.558,73.52Zm0,0" transform="translate(-60.543 -66.69)" fill="#38485f"/><path d="M428.628,73.52a.543.543,0,0,0,.542-.542V71.058a.542.542,0,0,0-1.085,0v1.919A.542.542,0,0,0,428.628,73.52Zm0,0" transform="translate(-404.866 -66.69)" fill="#38485f"/><path d="M246.338,436.159a.542.542,0,1,0,.383-.159A.545.545,0,0,0,246.338,436.159Zm0,0" transform="translate(-232.826 -412.351)" fill="#38485f"/></svg>