<svg xmlns="http://www.w3.org/2000/svg" viewBox="0 0 963.46 537.92"><defs><style>.cls-1{isolation:isolate;}.cls-2{fill:#eafcfc;}.cls-3,.cls-4{fill:#9bc1f9;}.cls-3{opacity:0.6;}.cls-4{opacity:0.3;mix-blend-mode:multiply;}.cls-5{fill:#5183bf;}.cls-6{fill:#3c8f7c;}.cls-7{fill:#96d9c9;}.cls-8{fill:#50bfa5;}.cls-9{fill:#e59f39;}.cls-10{fill:#eab054;}.cls-11{fill:#f7cc7f;}.cls-12{fill:#e0e0e0;}.cls-13,.cls-25{fill:#fff;}.cls-13{opacity:0.8;}.cls-14{fill:#8f322a;}.cls-15{fill:#ffb27d;}.cls-16{fill:#1b3766;}.cls-17{fill:#f5781b;}.cls-18{fill:#ff9231;}.cls-19{fill:#093461;}.cls-20{fill:#ed975d;}.cls-21{fill:#97c0f8;}.cls-22{fill:#7ca8e7;}.cls-23{fill:#ff912f;}.cls-24{fill:#f47458;}</style></defs><g class="cls-1"><g id="Layer_2" data-name="Layer 2"><g id="Layer_1-2" data-name="Layer 1"><path class="cls-2" d="M250.09,1C386.22-6.9,528.94,34.1,508,93.54s112.16-21.11,165.29.32c37.82,15.26,22.7,61.7,41,80.42,42,42.91,84.87-11.13,138.27,21.29S883.72,531.2,862,531.15l-823.51-1.5-9.85.32s-60.39-87.1-5.72-138S40,317.9,33.39,298.25c-7.63-22.57-25.43-62,52.13-90.91s57.53-91.87,55.62-104.9S114,8.84,250.09,1Z"/><rect class="cls-3" x="669.69" y="46.87" width="62.38" height="482.86"/><rect class="cls-3" x="582.57" y="194.16" width="62.38" height="335.57"/><rect class="cls-3" x="758.06" y="151.49" width="62.38" height="378.24"/><rect class="cls-3" x="495.45" y="136.61" width="62.38" height="393.12"/><rect class="cls-3" x="408.33" y="253.17" width="62.38" height="276.56"/><rect class="cls-4" x="669.69" y="158.16" width="62.38" height="371.57"/><rect class="cls-4" x="582.57" y="271.5" width="62.38" height="258.23"/><rect class="cls-4" x="758.06" y="238.66" width="62.38" height="291.07"/><rect class="cls-4" x="495.45" y="227.22" width="62.38" height="302.51"/><rect class="cls-4" x="408.33" y="316.91" width="62.38" height="212.82"/><polygon class="cls-5" points="850.77 50.57 801.06 88.16 820.02 89.37 701.36 298.21 635.66 199.71 542.72 416.5 482.94 331.59 408.42 436.92 413.11 455.77 482.9 357.59 546.1 447.35 638.7 231.35 702.44 326.93 833.82 95.72 846.01 108.83 850.77 50.57"/><path class="cls-6" d="M351.59,390.11c-71.33-56.8-131.27-130.27-176.65-216.54L76.83,252.38c52.47,99.75,121.77,184.7,204.25,250.38Z"/><path class="cls-7" d="M159.58,194.17l-61,49.74c4.84,9,3.08,21.18-4.12,27.36,46.12,81.56,103.93,152.42,171.25,209.92,5.5-8.26,15.88-9.86,23.33-3.81l44.47-69.95c-6.86-5.56-7.84-16.94-2.34-25.19-59.12-50.5-109.88-112.73-150.39-184.35C173.63,204.06,164,202.47,159.58,194.17Z"/><path class="cls-8" d="M241.68,380.61c15.23-19.65,15.08-48.65.72-66s-39-18.11-56.05-.62-18.62,48.48-2.43,68S226.48,400.24,241.68,380.61Z"/><path class="cls-6" d="M240.67,324.83l-5.74,6.38c4.58,8.39,3.61,17.06-1.33,22.73s-10.56,6.23-19.07,1.19c-6.18-3.49-9.15-4.52-11-2.48-1.59,1.72-2.12,4.85,1.25,9.12a23.52,23.52,0,0,0,5.29,5,5.71,5.71,0,0,1,1.52,7.26h0c-1.29,2.45-4,3.26-6.1,1.77a32.55,32.55,0,0,1-5.57-5.17q-2.47,2.75-5,5.48-2.59-3.26-5.17-6.56,2.72-2.92,5.41-5.86c-4.37-8.44-3.5-16.84,1.57-22.17,5.6-5.88,12.08-4.07,19.51.59,5.15,3.21,8.13,3.72,10.27,1.34s1.51-6.32-1.32-9.93a25.08,25.08,0,0,0-6.42-5.78c-2.19-1.37-2.78-4.74-1.31-7.26,0-.09.1-.18.16-.27,1.33-2.29,3.88-3.06,5.82-1.79a34.12,34.12,0,0,1,7.05,6.27l5.39-5.88C237.47,320.79,239.06,322.82,240.67,324.83Z"/><path class="cls-8" d="M297.88,431.19q-24.39-20.88-47-44.21L243.19,397q22.88,23.63,47.61,44.82Z"/><path class="cls-6" d="M337.05,367.21c-89.6-11.36-177.47-41.34-259-88.35L31.57,387.78c94.25,54.36,195.85,89,299.45,102.16Z"/><path class="cls-7" d="M74.82,302.46l-28.5,68.29c8.61,4.87,13,15.35,9.81,23.66C136,437.33,220.74,466.25,307.2,480.06c.73-9.15,8.93-15.33,18.35-14.05q2.18-38.26,4.34-76.53c-8.67-1.17-15.08-9.74-14.35-18.89-75.93-12.13-150.35-37.52-220.48-75.22C91.84,303.67,82.74,307,74.82,302.46Z"/><path class="cls-8" d="M237.14,411.62c3.59-22.79-10.71-45.74-31.65-52.71s-42.67,4.06-48.87,26,7.56,47.28,31.12,55.09S233.57,434.38,237.14,411.62Z"/><path class="cls-6" d="M209,367.83q-.92,3.9-1.86,7.78c8.08,4.49,11.48,11.83,10,18.66s-6.11,9.94-15.94,10c-7.06.15-10.14.73-10.78,3.24-.53,2.12.54,4.85,5.55,6.64a24.4,24.4,0,0,0,7,1.43,5.3,5.3,0,0,1,4.87,5.05h0a4,4,0,0,1-4.42,4.28,33.4,33.4,0,0,1-7.36-1.47l-1.62,6.7q-3.85-1.35-7.69-2.76c.61-2.4,1.21-4.8,1.82-7.21-7.92-4.63-11.27-11.71-9.48-18.33,2-7.32,8.48-8.95,17.19-8.76,6,.11,8.87-.89,9.56-3.79s-1.78-5.73-6-7.26a26.45,26.45,0,0,0-8.39-1.54,5,5,0,0,1-4.68-5.15V375a4.06,4.06,0,0,1,4.17-4.17,35.77,35.77,0,0,1,9.18,1.64c.6-2.4,1.2-4.81,1.79-7.21C204.24,366.14,206.62,367,209,367.83Z"/><path class="cls-6" d="M313.83,387.33c-70.5,27.85-148.28,40.58-229.24,37.52q8.05,51.67,16.12,103.36c93.61,3.54,183.54-11.18,265.05-43.39Z"/><path class="cls-7" d="M93.06,444.46q5.3,32.27,10.58,64.53c8.5.25,16.54,6.56,18,14.31,77.88.57,152.9-11.71,222.23-36.38-3.67-7.39-.52-15.53,6.93-18.39l-32-61c-6.85,2.64-15.46-1.37-19.12-8.76C238.82,420.4,173,431.19,104.55,430.69,106,438.43,100.89,444.69,93.06,444.46Z"/><path class="cls-8" d="M261.43,462.58c-7.85-19.12-28.81-31-47.26-27.87s-29.23,20.6-23.68,40.12,27.21,33.52,48,29.92S269.26,481.67,261.43,462.58Z"/><path class="cls-6" d="M220.82,440.19c.74,2.26,1.47,4.52,2.21,6.78,7.95.18,13.79,4.47,15.83,10.38s.11,10.19-7,14.23c-5.08,3-7,4.72-6.36,6.92.58,1.86,2.61,3.54,7.08,2.88a19.67,19.67,0,0,0,5.76-1.76,4.74,4.74,0,0,1,5.86,1.92h0a3.4,3.4,0,0,1-1.25,5.12,26.49,26.49,0,0,1-6,1.87l1.89,5.85q-3.44.53-6.87,1l-2-6.32c-7.9-.35-13.59-4.46-15.32-10.32-1.92-6.48,2.07-10.4,8.5-13.82,4.45-2.38,6.05-4.32,5.23-6.84s-3.93-3.71-7.71-3.17a21,21,0,0,0-6.82,2.24c-1.9,1-4.57,0-5.77-2.07l-.13-.23c-1.1-1.91-.6-4.06,1.12-4.94a28.5,28.5,0,0,1,7.44-2.47q-1-3.17-2-6.33Z"/><path class="cls-8" d="M321.16,443.06Q296,452,269.85,458.56q2,4.88,4,9.74,26.5-6.68,52-15.73Z"/><path class="cls-9" d="M197.52,501v25.24c0,4.08,45.52,7.39,101.67,7.39s101.66-3.31,101.66-7.39V501Z"/><path class="cls-10" d="M271.09,533.29V501H197.52v25.24C197.52,529.56,228.61,532.41,271.09,533.29Z"/><path class="cls-10" d="M274.52,533.36c7.9.14,16.16.22,24.67.22,12.67,0,24.81-.17,36-.48V501H274.52Z"/><path class="cls-10" d="M339.26,533c36.23-1.13,61.59-3.74,61.59-6.79V501H339.26Z"/><ellipse class="cls-9" cx="299.19" cy="500.68" rx="101.67" ry="7.39"/><path class="cls-11" d="M382.91,500.68c0,2.83-37.49,5.13-83.72,5.13s-83.72-2.3-83.72-5.13,37.48-5.12,83.72-5.12S382.91,497.85,382.91,500.68Z"/><path class="cls-9" d="M180.13,474.24v25.24c0,4.08,45.51,7.39,101.66,7.39s101.67-3.31,101.67-7.39V474.24Z"/><path class="cls-10" d="M253.7,506.58V474.24H180.13v25.24C180.13,502.85,211.21,505.7,253.7,506.58Z"/><path class="cls-10" d="M257.12,506.65c7.9.14,16.17.22,24.67.22,12.68,0,24.81-.17,36-.48V474.24H257.12Z"/><path class="cls-10" d="M321.87,506.27c36.22-1.13,61.59-3.74,61.59-6.79V474.24H321.87Z"/><ellipse class="cls-9" cx="281.79" cy="473.98" rx="101.67" ry="7.39"/><path class="cls-11" d="M365.51,474c0,2.82-37.48,5.12-83.72,5.12s-83.72-2.3-83.72-5.12,37.48-5.13,83.72-5.13S365.51,471.15,365.51,474Z"/><path class="cls-9" d="M191.71,446.83v25.24c0,4.08,45.52,7.38,101.67,7.38s101.67-3.3,101.67-7.38V446.83Z"/><path class="cls-10" d="M265.29,479.17V446.83H191.71v25.24C191.71,475.44,222.8,478.28,265.29,479.17Z"/><path class="cls-10" d="M268.71,479.23c7.9.15,16.16.22,24.67.22,12.68,0,24.81-.17,36-.47V446.83H268.71Z"/><path class="cls-10" d="M333.46,478.86c36.22-1.13,61.59-3.75,61.59-6.79V446.83H333.46Z"/><ellipse class="cls-9" cx="293.38" cy="446.56" rx="101.67" ry="7.39"/><path class="cls-11" d="M377.1,446.56c0,2.83-37.48,5.12-83.72,5.12s-83.72-2.29-83.72-5.12,37.48-5.12,83.72-5.12S377.1,443.73,377.1,446.56Z"/><path class="cls-9" d="M180.13,419.78V445c0,4.08,45.51,7.39,101.66,7.39S383.46,449.1,383.46,445V419.78Z"/><path class="cls-10" d="M253.7,452.13V419.78H180.13V445C180.13,448.4,211.21,451.24,253.7,452.13Z"/><path class="cls-10" d="M257.12,452.19c7.9.15,16.17.22,24.67.22,12.68,0,24.81-.17,36-.48V419.78H257.12Z"/><path class="cls-10" d="M321.87,451.82c36.22-1.13,61.59-3.75,61.59-6.8V419.78H321.87Z"/><ellipse class="cls-9" cx="281.79" cy="419.52" rx="101.67" ry="7.39"/><path class="cls-11" d="M365.51,419.52c0,2.83-37.48,5.12-83.72,5.12s-83.72-2.29-83.72-5.12,37.48-5.13,83.72-5.13S365.51,416.69,365.51,419.52Z"/><path class="cls-9" d="M892,498.79v24.28c0,3.92-43.78,7.1-97.77,7.1s-97.77-3.18-97.77-7.1V498.79Z"/><path class="cls-10" d="M821.19,529.9V498.79H892v24.28C892,526.31,862.05,529,821.19,529.9Z"/><path class="cls-10" d="M817.9,530c-7.59.14-15.54.21-23.72.21-12.19,0-23.86-.16-34.62-.46V498.79H817.9Z"/><path class="cls-10" d="M755.64,529.6c-34.83-1.09-59.23-3.6-59.23-6.53V498.79h59.23Z"/><ellipse class="cls-9" cx="794.18" cy="498.54" rx="97.77" ry="7.1"/><path class="cls-11" d="M713.67,498.54c0,2.72,36,4.92,80.51,4.92s80.51-2.2,80.51-4.92-36.05-4.93-80.51-4.93S713.67,495.82,713.67,498.54Z"/><path class="cls-9" d="M908.68,473.11v24.27c0,3.93-43.78,7.11-97.77,7.11s-97.77-3.18-97.77-7.11V473.11Z"/><path class="cls-10" d="M837.92,504.21v-31.1h70.76v24.27C908.68,500.63,878.78,503.36,837.92,504.21Z"/><path class="cls-10" d="M834.63,504.28c-7.6.13-15.54.21-23.72.21-12.19,0-23.86-.17-34.63-.46V473.11h58.35Z"/><path class="cls-10" d="M772.37,503.91c-34.84-1.08-59.23-3.6-59.23-6.53V473.11h59.23Z"/><ellipse class="cls-9" cx="810.91" cy="472.85" rx="97.77" ry="7.1"/><ellipse class="cls-11" cx="810.91" cy="472.85" rx="80.51" ry="4.93"/><path class="cls-9" d="M897.53,446.75V471c0,3.92-43.77,7.1-97.77,7.1S702,474.94,702,471V446.75Z"/><path class="cls-10" d="M826.78,477.85v-31.1h70.75V471C897.53,474.26,867.63,477,826.78,477.85Z"/><path class="cls-10" d="M823.48,477.91c-7.59.14-15.54.21-23.72.21-12.19,0-23.86-.16-34.62-.46V446.75h58.34Z"/><path class="cls-10" d="M761.22,477.55C726.39,476.46,702,474,702,471V446.75h59.23Z"/><ellipse class="cls-9" cx="799.76" cy="446.49" rx="97.77" ry="7.1"/><ellipse class="cls-11" cx="799.76" cy="446.49" rx="80.51" ry="4.93"/><path class="cls-9" d="M908.68,420.74V445c0,3.93-43.78,7.11-97.77,7.11s-97.77-3.18-97.77-7.11V420.74Z"/><path class="cls-10" d="M837.92,451.84v-31.1h70.76V445C908.68,448.25,878.78,451,837.92,451.84Z"/><path class="cls-10" d="M834.63,451.91c-7.6.13-15.54.21-23.72.21-12.19,0-23.86-.17-34.63-.46V420.74h58.35Z"/><path class="cls-10" d="M772.37,451.54c-34.84-1.08-59.23-3.6-59.23-6.53V420.74h59.23Z"/><ellipse class="cls-9" cx="810.91" cy="420.48" rx="97.77" ry="7.1"/><ellipse class="cls-11" cx="810.91" cy="420.48" rx="80.51" ry="4.93"/><path class="cls-9" d="M954.17,391.25l-5.88,20.5c-.95,3.32-38.7-4.59-84.31-17.66s-81.83-26.34-80.88-29.66l5.88-20.5Z"/><path class="cls-10" d="M886.87,400.4l7.52-26.27,59.78,17.12-5.88,20.5C947.51,414.49,921.59,409.57,886.87,400.4Z"/><path class="cls-10" d="M884.07,399.66c-6.45-1.72-13.18-3.59-20.09-5.57-10.3-2.95-20.12-5.91-29.14-8.76l7.48-26.12,49.29,14.12Z"/><path class="cls-10" d="M831.56,384.28c-29.16-9.34-49.16-17.37-48.46-19.85l5.88-20.5,50,14.33Z"/><path class="cls-9" d="M789,343.71c-.95,3.32,35.26,16.6,80.87,29.66s83.37,21,84.32,17.66S919,374.44,873.35,361.37,790,340.4,789,343.71Z"/><path class="cls-11" d="M803.62,347.89c-.66,2.3,29.26,12.88,66.82,23.64s68.55,17.62,69.21,15.32S910.39,374,872.83,363.21,804.28,345.59,803.62,347.89Z"/><path class="cls-9" d="M900.75,250.13,907,270.52c1,3.3-35,17.25-80.31,31.16s-83,22.52-84,19.22l-6.25-20.39Z"/><path class="cls-10" d="M849.32,294.49l-8-26.13,59.45-18.23L907,270.52C907.83,273.24,883.42,283.24,849.32,294.49Z"/><path class="cls-10" d="M846.57,295.39c-6.35,2.07-13,4.18-19.88,6.29-10.24,3.14-20.09,6-29.21,8.53l-8-26,49-15Z"/><path class="cls-10" d="M794.16,311.13c-29.54,8.06-50.69,12.23-51.44,9.77l-6.25-20.39,49.76-15.26Z"/><path class="cls-9" d="M736.4,300.29c1,3.3,38.61-5.31,84-19.22s81.32-27.86,80.31-31.16-38.61,5.31-84,19.22S735.39,297,736.4,300.29Z"/><path class="cls-11" d="M750.9,295.84c.7,2.29,31.55-5.14,68.91-16.6s67.07-22.6,66.37-24.88-31.55,5.15-68.91,16.6S750.2,293.56,750.9,295.84Z"/><rect class="cls-8" x="601.83" y="466.73" width="171.28" height="62.34" transform="translate(1374.94 995.79) rotate(180)"/><rect class="cls-7" x="601.83" y="475.81" width="171.28" height="8.02" transform="translate(1374.94 959.64) rotate(180)"/><rect class="cls-7" x="601.83" y="491.48" width="171.28" height="8.02" transform="translate(1374.94 990.97) rotate(180)"/><rect class="cls-7" x="601.83" y="507.14" width="171.28" height="8.02" transform="translate(1374.94 1022.3) rotate(180)"/><rect class="cls-7" x="601.83" y="521.05" width="171.28" height="8.02" transform="translate(1374.94 1050.11) rotate(180)"/><rect class="cls-11" x="665.59" y="466.73" width="35.62" height="62.34" transform="translate(1366.81 995.79) rotate(180)"/><rect class="cls-6" x="771.03" y="466.73" width="25.87" height="62.34" transform="translate(1567.93 995.79) rotate(180)"/><rect class="cls-12" x="16.99" y="528.49" width="946.46" height="5.4"/><path class="cls-13" d="M419,60.13A17,17,0,0,0,402.45,47a17.27,17.27,0,0,0-4.29.54A25,25,0,0,0,368,34.19a30.86,30.86,0,0,0-55.43,5.39,21.16,21.16,0,0,0-31.45,18.5,19.82,19.82,0,0,0,.1,2.05Z"/><path class="cls-13" d="M481.09,144.14a12.85,12.85,0,0,0-15.78-9.56,19,19,0,0,0-22.8-10.07,23.34,23.34,0,0,0-41.94,4.08,16,16,0,0,0-23.8,14c0,.52,0,1,.07,1.55Z"/><path class="cls-13" d="M190.8,132.33a11.22,11.22,0,0,1,10.93-8.7,11.43,11.43,0,0,1,2.83.36,16.51,16.51,0,0,1,15-9.52,16.69,16.69,0,0,1,4.92.74A20.36,20.36,0,0,1,261,118.77,14,14,0,0,1,281.77,131a12.08,12.08,0,0,1-.07,1.35Z"/><path class="cls-8" d="M383.25,203.44l1.21,14.77,8.58-9.66,27.75-22.72-23.66,7.45s-11.65,5.66-12.19,6.41A30.68,30.68,0,0,0,383.25,203.44Z"/><polygon class="cls-7" points="370.67 197.1 420.79 185.82 383.25 203.44 370.67 197.1"/><polygon class="cls-7" points="402.52 214.38 387.07 206.67 420.79 185.82 402.52 214.38"/><path class="cls-6" d="M377.4,211.64a18.28,18.28,0,0,1,4-1.06l-.11-1.07a19,19,0,0,0-4.3,1.12Z"/><path class="cls-6" d="M352.66,298.94A43.22,43.22,0,0,0,358.1,293l.86.65a44.71,44.71,0,0,1-5.57,6.09Zm9.61-12.81c.53-1.11,1-2.27,1.45-3.44a42.17,42.17,0,0,0,1.28-4.13l1.05.27a43.4,43.4,0,0,1-1.32,4.23c-.44,1.21-.94,2.39-1.48,3.54Zm4.36-23.61,1.08,0a70.39,70.39,0,0,1-.26,8.22l-1.08-.1A68.15,68.15,0,0,0,366.63,262.52Zm-1.53-16.19,1.06-.15c.46,3.16.78,5.74,1,8.12l-1.07.11C365.87,252,365.55,249.48,365.1,246.33Zm-1.21-8.13a39.45,39.45,0,0,1-.41-8.2l1.08.07a37.91,37.91,0,0,0,.4,8v.06l-1.07.15Zm1.35-16.31a19.76,19.76,0,0,1,4.69-6.89l.74.79a18.64,18.64,0,0,0-4.43,6.51Z"/><path class="cls-14" d="M337,397.28c-8,14-18.09,19.33-18.09,19.33H277S343.11,386.64,337,397.28Z"/><path class="cls-15" d="M304.8,505.18a3.89,3.89,0,0,0-.69,4.15v0c1,2.76,4.3,5.85,8.14,8.93.49.39.93.75,1.31,1.09l.29.26.23.2c3.57,3.3,2.23,4.06,8.66,10.75,7.33,7.63,12.38,7.77,13.81,7.07,1.22-.59-1.25-4.63-4-9.18-.13-.22-.26-.44-.4-.66L331.09,526c-3.21-5.47-2.38-8-1.62-16.18.61-6.62,10.29-37,10.29-37l-14.05-2.41s-4.23,24.17-8.89,27.89c-2.49,2-5.28,2-7.68,3.48l-.5.31A18.67,18.67,0,0,0,304.8,505.18Z"/><path class="cls-16" d="M304.8,505.18a3.89,3.89,0,0,0-.69,4.15v0c1.22,2.76,4.44,5.83,8.15,8.9.49.4.92.77,1.3,1.12l.29.26.23.2c3.57,3.3,2.23,4.06,8.66,10.75,7.33,7.63,12.38,7.77,13.81,7.07,1.22-.59-1.25-4.63-4-9.18a31.28,31.28,0,0,1-13.06-9.63c-4.42-5.63-7.36-12.87-10.37-17.06l-.5.31A18.67,18.67,0,0,0,304.8,505.18Z"/><path class="cls-15" d="M418.08,496.41c.86,4.33,7,3.61,13.95,1.92s5.27.32,15.09-.77,12.81-4.75,13.11-6.21c.27-1.3-4.59-1.75-9.8-2.35l-2-.24c-5.88-.74-10.19-4.53-15.53-7.65-5.06-2.95-12.61-15-12.61-15l-13.48,1.07s7.07,10.74,9.81,15.41c1.61,2.75,1.52,6.38,1.32,9.19A17.38,17.38,0,0,0,418.08,496.41Z"/><path class="cls-16" d="M432,498.33c6.91-1.68,5.27.32,15.09-.77s12.81-4.75,13.11-6.21c.27-1.3-4.59-1.75-9.8-2.35l-.05.1a27.64,27.64,0,0,1-14.07,4.37c-6.67.16-13.73-1.75-18.34-1.67a17.38,17.38,0,0,0,.11,4.61C418.94,500.74,425.12,500,432,498.33Z"/><path class="cls-17" d="M366.42,410.22l-12.6,33.91L337.37,488.4a26.67,26.67,0,0,1-8.74-.8,38,38,0,0,1-8.45-4.12s4.57-47.53,13.09-74.82c2.18-7,4.63-12.67,7.33-15.85C353.81,377.19,366.42,410.22,366.42,410.22Z"/><path class="cls-18" d="M251.52,378.59S335,350.37,353.61,356.37s74.51,117.21,74.51,117.21a10.77,10.77,0,0,1-4.7,3c-3.21,1.21-11,1.13-11,1.13S362,434.44,356,421.83s-8.4-24.62-14.41-23.42c-3.67.73-32,18.2-57.43,18.2H247.39C231.5,399.49,236,372.36,236,372.36Z"/><path class="cls-19" d="M307.67,254.35c1.54-2.64,3.41-7.4,4.81-16-.18.86-2.53,11.7-7.22,17.57-18.2,10-54.32,45.38-54.22,52.62,0,0-10.15-20.73-10.34-20.86,0,0-19.42-29.09,7.35-42.8,13.6-7,14.33-17.22,14.48-26.15s7.21-46.92,32.44-34.88c0,0,4.32-1.53,6.17-1.1a5.12,5.12,0,0,0-2.39.91c3,.06,7.32.62,10.76,2.94C318.62,192.73,323.37,242,307.67,254.35Z"/><path class="cls-15" d="M297.66,254.84c.08,0-9,3.13-15,.46-5.68-2.51-10-11.86-9.9-11.86,2.59-.12,5.42-2.38,7.61-17.2l1.1.39,18.5,6.66s-1.34,5.94-2.21,11.59C297,249.62,296.65,254.17,297.66,254.84Z"/><path class="cls-20" d="M300,233.29s-1.34,5.94-2.21,11.59c-10.63-1.92-14.8-12.5-16.29-18.25Z"/><path class="cls-19" d="M277,222s-5.65-8.94-7-16.58c-1-5.46,1.81-25.68,22.13-22.77A27.58,27.58,0,0,1,303.58,187c4.41,3,10.78,9.41,3.66,27.06l-1.85,6Z"/><path class="cls-15" d="M302.73,239.18s-25.31-3.4-23-19.13.68-26.76,16.94-25.26,18.49,8,19,13.42S309.38,239.66,302.73,239.18Z"/><path class="cls-19" d="M308.28,196.14s-9.7,17.41-20.72,18.54-15.2-2.41-15.2-2.41A30.39,30.39,0,0,0,284.87,196S304.39,186.57,308.28,196.14Z"/><path class="cls-19" d="M306.34,197.38s4.54,4.9,5.19,9.1,0,12.52,2.42,12.61c0,0,7.11-11.76,2.32-19.74C311.2,190.89,306.34,197.38,306.34,197.38Z"/><path class="cls-21" d="M231.94,379c1.38,3.83,5.61,4.81,11.27,4.15,10.79-1.26,26.82-8.51,38.38-13.52,17.61-7.64,25.62-.46,31.23-5.32s-6.41-15.67,4-65.85c3.53-17-19.05-53.61-19.05-53.61s-1.72,10.68-23.13-2c-.75-.44-9.18,12-17.29,27.41-9,17-17.51,37.46-15,48C247.16,338.42,227.94,367.92,231.94,379Z"/><path class="cls-22" d="M231.94,379c1.38,3.83,5.61,4.81,11.27,4.15,7.47-3.26,39.74-15.76,39.38-24.23-.54-12.55-6.21-12.95-2.2-28.43C283.6,318.09,253.78,295,249,290c-8.95,17-9.19,17.77-6.68,28.33C247.16,338.42,227.94,367.92,231.94,379Z"/><path class="cls-23" d="M353.82,444.13,337.37,488.4a26.67,26.67,0,0,1-8.74-.8,38,38,0,0,1-8.45-4.12s4.57-47.53,13.09-74.82Z"/><path class="cls-21" d="M297.77,244.88s22,3.73,24.61,13.21,17.8,65.22,17.8,65.22-11.2,2-16.37-3.16-18-48-18-48Z"/><path class="cls-21" d="M274.64,242.86s-20.81,1.28-28,11.33c-10.14,14.14-30.26,74.43-18.73,82.47,13,9.06,59.1,2.37,59.1,2.37s1.54-7.17-.6-10.64-36.83-9.08-38.43-10.68,20-31.23,20-36S274.64,242.86,274.64,242.86Z"/><polygon class="cls-24" points="275.5 356.86 364.38 356.86 380.41 300.99 291.66 300.99 275.5 356.86"/><rect class="cls-24" x="247.88" y="354.69" width="116.2" height="2.18" transform="translate(611.96 711.55) rotate(180)"/><path class="cls-25" d="M336.16,328a2.59,2.59,0,0,0-2.54-3.56,5.08,5.08,0,0,0-4.57,3.56,2.58,2.58,0,0,0,2.53,3.55A5.09,5.09,0,0,0,336.16,328Z"/></g></g></g></svg>