<svg xmlns="http://www.w3.org/2000/svg" width="27.763" height="25.358" viewBox="0 0 27.763 25.358"><path d="M23.29,4.751q.25-.091.488-.2A8.086,8.086,0,0,0,27.284.981a.542.542,0,0,0-.351-.753,8.086,8.086,0,0,0-4.988.391,7.339,7.339,0,0,0-2.638,2.173A10.683,10.683,0,0,0,18.488.715a.542.542,0,0,0-.97.485A8.893,8.893,0,0,1,18.4,3.7a8.684,8.684,0,0,0-7.055,4.73,8.724,8.724,0,0,0-4.74-.171.542.542,0,0,0,.258,1.053,7.592,7.592,0,1,1-5.779,7.374A7.535,7.535,0,0,1,3.36,11.264a.542.542,0,1,0-.76-.774A8.676,8.676,0,1,0,16.417,20.6,8.679,8.679,0,0,0,23.29,4.751ZM22.4,1.6A6.665,6.665,0,0,1,25.94,1.15,6.635,6.635,0,0,1,23.32,3.567a5.587,5.587,0,0,1-1.728.469,8.665,8.665,0,0,0-1.618-.322A6.463,6.463,0,0,1,22.4,1.6ZM19.087,19.936a7.581,7.581,0,0,1-2.239-.335,8.683,8.683,0,0,0-4.49-10.775A7.6,7.6,0,0,1,19.03,4.754h.057a7.591,7.591,0,1,1,0,15.183Zm0,0" transform="translate(0 0)" fill="#38485f"/><path d="M46.507,200.674A6.507,6.507,0,1,0,40,194.167,6.513,6.513,0,0,0,46.507,200.674Zm-4.2-9.937,2.728,2.728a1.559,1.559,0,0,0-.066.159H41.111a5.37,5.37,0,0,1,1.2-2.888Zm9.592,2.888H48.041a1.66,1.66,0,0,0-.066-.159l2.728-2.728A5.37,5.37,0,0,1,51.9,193.625ZM50.7,197.6l-2.728-2.729a1.559,1.559,0,0,0,.066-.159H51.9a5.371,5.371,0,0,1-1.2,2.888Zm-3.654-3.43a.542.542,0,1,1-.542-.542A.542.542,0,0,1,47.049,194.167Zm-1.244,1.468a1.61,1.61,0,0,0,.159.066v3.861a5.37,5.37,0,0,1-2.888-1.2Zm1.244.066a1.666,1.666,0,0,0,.159-.066l2.728,2.728a5.369,5.369,0,0,1-2.888,1.2Zm.159-3a1.6,1.6,0,0,0-.159-.066v-3.861a5.371,5.371,0,0,1,2.888,1.2Zm-1.244-.066a1.6,1.6,0,0,0-.159.066l-2.728-2.728a5.371,5.371,0,0,1,2.888-1.2Zm-.992,2.077a1.634,1.634,0,0,0,.066.159L42.31,197.6a5.367,5.367,0,0,1-1.2-2.887Zm0,0" transform="translate(-37.831 -177.484)" fill="#38485f"/><path d="M77.542,166.66a.542.542,0,1,0,.542.542A.542.542,0,0,0,77.542,166.66Zm0,0" transform="translate(-72.825 -157.623)" fill="#38485f"/></svg>