<svg xmlns="http://www.w3.org/2000/svg" width="75.294" height="76.826" viewBox="0 0 75.294 76.826">
  <g id="blew" transform="translate(-222.566 -106.174)">
    <g id="Path_333" data-name="Path 333" transform="translate(-5028 -13793)" fill="none" stroke-linecap="round" stroke-linejoin="round">
      <path d="M5253.566,13937.394c4.395-1.9,36.212-7.03,69.294.43-1.331,20.542-14.746,29.009-14.746,29.009h-39.672S5254.286,13958.237,5253.566,13937.394Z" stroke="none"/>
      <path d="M 5285.990234375 13933.90234375 C 5268.98583984375 13933.90234375 5256.23193359375 13936.244140625 5253.56640625 13937.3935546875 C 5254.28564453125 13958.2373046875 5268.44189453125 13966.83203125 5268.44189453125 13966.83203125 L 5308.1142578125 13966.83203125 C 5308.1142578125 13966.83203125 5321.52978515625 13958.365234375 5322.8603515625 13937.8232421875 C 5309.8427734375 13934.8876953125 5297.0224609375 13933.90234375 5285.990234375 13933.90234375 M 5285.990234375 13930.90234375 C 5299.14013671875 13930.90234375 5311.76708984375 13932.24609375 5323.5205078125 13934.896484375 C 5324.9599609375 13935.2216796875 5325.94921875 13936.544921875 5325.85400390625 13938.017578125 C 5325.53076171875 13943.0126953125 5324.4990234375 13947.7568359375 5322.78759765625 13952.1181640625 C 5321.41064453125 13955.6279296875 5319.59326171875 13958.896484375 5317.38671875 13961.8330078125 C 5313.5791015625 13966.900390625 5309.87158203125 13969.2705078125 5309.71533203125 13969.369140625 C 5309.236328125 13969.671875 5308.68115234375 13969.83203125 5308.1142578125 13969.83203125 L 5268.44189453125 13969.83203125 C 5267.89306640625 13969.83203125 5267.3544921875 13969.681640625 5266.884765625 13969.396484375 C 5266.720703125 13969.296875 5262.81640625 13966.89453125 5258.88916015625 13961.7490234375 C 5256.60791015625 13958.7607421875 5254.75830078125 13955.4326171875 5253.3916015625 13951.857421875 C 5251.69384765625 13947.4150390625 5250.74365234375 13942.5830078125 5250.568359375 13937.4970703125 C 5250.525390625 13936.2626953125 5251.244140625 13935.1279296875 5252.37841796875 13934.638671875 C 5254.23193359375 13933.8388671875 5258.5830078125 13932.943359375 5264.01708984375 13932.2412109375 C 5268.7490234375 13931.630859375 5276.40234375 13930.90234375 5285.990234375 13930.90234375 Z" stroke="none" fill="#38485f"/>
    </g>
    <path id="Path_334" data-name="Path 334" d="M5284.543,13901.162s-1.269,2.771,3.318,5.76" transform="translate(-5028 -13793)" fill="none" stroke="#38485f" stroke-linecap="round" stroke-width="3"/>
    <path id="Path_336" data-name="Path 336" d="M5284.543,13901.162s-1.269,2.771,3.318,5.76" transform="translate(13596.68 6679.688) rotate(137)" fill="none" stroke="#38485f" stroke-linecap="round" stroke-width="3"/>
    <path id="Path_335" data-name="Path 335" d="M5284.564,13901.163s-1.437,5.133,3.759,10.672" transform="matrix(-0.208, -0.978, 0.978, -0.208, -12239.746, 8181.936)" fill="none" stroke="#38485f" stroke-linecap="round" stroke-width="3"/>
    <path id="Path_337" data-name="Path 337" d="M5313.665,13930.489s8.75-16.264,8.933-16.971.7-3.183-1.27-4.51a3.925,3.925,0,0,0-4.67.441c-.591.557-17.488,19.61-17.488,19.61" transform="translate(-5028 -13793)" fill="none" stroke="#38485f" stroke-linecap="round" stroke-linejoin="round" stroke-width="3"/>
    <g id="Rectangle_182" data-name="Rectangle 182" transform="translate(241 177)" fill="none" stroke="#38485f" stroke-linecap="round" stroke-linejoin="round" stroke-width="3">
      <rect width="39" height="3" stroke="none"/>
      <rect x="-1.5" y="-1.5" width="42" height="6" fill="none"/>
    </g>
    <g id="Ellipse_45" data-name="Ellipse 45" transform="translate(276 153)" fill="#38485f" stroke="#38485f" stroke-width="1">
      <circle cx="2" cy="2" r="2" stroke="none"/>
      <circle cx="2" cy="2" r="1.5" fill="none"/>
    </g>
    <g id="Ellipse_46" data-name="Ellipse 46" transform="translate(283 157)" fill="#38485f" stroke="#38485f" stroke-width="1">
      <circle cx="2" cy="2" r="2" stroke="none"/>
      <circle cx="2" cy="2" r="1.5" fill="none"/>
    </g>
    <g id="Ellipse_47" data-name="Ellipse 47" transform="translate(277 164)" fill="#38485f" stroke="#38485f" stroke-width="1">
      <circle cx="2" cy="2" r="2" stroke="none"/>
      <circle cx="2" cy="2" r="1.5" fill="none"/>
    </g>
    <g id="Ellipse_48" data-name="Ellipse 48" transform="translate(269 158)" fill="#38485f" stroke="#38485f" stroke-width="1">
      <circle cx="2" cy="2" r="2" stroke="none"/>
      <circle cx="2" cy="2" r="1.5" fill="none"/>
    </g>
    <g id="Ellipse_49" data-name="Ellipse 49" transform="translate(266 167)" fill="#38485f" stroke="#38485f" stroke-width="1">
      <circle cx="2" cy="2" r="2" stroke="none"/>
      <circle cx="2" cy="2" r="1.5" fill="none"/>
    </g>
    <path id="Path_338" data-name="Path 338" d="M5270.989,13915.814s7.54-1.746,10.552,4.391,5.218,6.729,5.218,6.729-22.191,4.157-18.331-9.054c5.487,3.615,8.543,5.19,8.543,5.19s-9.46-6.035-11.062-8.18" transform="translate(-5028 -13793)" fill="none" stroke="#38485f" stroke-linecap="round" stroke-linejoin="round" stroke-width="3"/>
  </g>
</svg>
