<svg width="120" height="97" viewBox="0 0 120 97" fill="none" xmlns="http://www.w3.org/2000/svg">
<path d="M94.2479 93.8037C98.0695 88.0126 99.157 80.4967 97.1332 73.8596C95.8538 69.6636 93.3987 65.7654 93.0847 61.3901C92.4565 52.6419 100.371 45.569 102.013 36.9533C102.735 33.1667 101.947 28.7552 98.8539 26.4551C95.7989 24.1834 91.4379 24.6471 87.9787 26.2382C84.5198 27.8292 81.5933 30.376 78.2723 32.2378C74.9512 34.0998 70.8621 35.2507 67.355 33.7689C63.8024 32.2681 61.7876 28.4845 60.6589 24.7969C59.5305 21.1091 58.9762 17.1818 57.0499 13.8409C53.8749 8.33479 47.106 5.33265 40.798 6.10947C34.4897 6.88629 28.854 11.1419 25.8308 16.7326C22.8076 22.3234 22.279 29.0855 23.7842 35.2607C24.5479 38.3925 25.8051 41.3917 26.4908 44.5416C27.1765 47.6915 27.2393 51.1387 25.7084 53.9759C22.5071 59.9089 14.0617 60.7363 9.63907 65.8238C5.9886 70.0231 5.87441 76.4315 7.94583 81.5953C10.0175 86.7594 13.9101 90.9496 17.7919 94.9359C35.8965 95.5445 54.3252 95.5848 72.4301 96.1934C79.4664 96.4297 87.2197 94.2175 94.2479 93.8037Z" fill="#C0D4FF"/>
<g opacity="0.5">
<path d="M16.9038 18.6517C13.2787 24.6998 13.1152 32.6712 16.4894 38.863C17.5556 40.8194 18.9956 42.6423 20.94 43.7304C22.8844 44.8182 25.3927 45.0609 27.3281 43.9567C30.263 42.2825 30.9122 38.3338 30.6786 34.9628C30.4453 31.5919 29.6813 28.0579 30.9794 24.9381C31.8257 22.9046 33.4506 21.3191 34.8921 19.6542C36.3339 17.9887 37.679 16.0449 37.7535 13.8439C37.9465 8.13745 31.8882 8.56353 28.2372 9.74891C23.576 11.262 19.4311 14.4352 16.9038 18.6517Z" fill="#C0D4FF"/>
</g>
<g opacity="0.5">
<path d="M87.8514 28.0848C87.8038 33.2059 92.6715 37.6624 91.8243 42.7132C91.3713 45.4154 89.3125 48.1545 90.509 50.6195C91.5679 52.8002 94.5998 53.1784 96.9183 52.4696C102.345 50.8091 105.644 45.2618 107.221 39.8104C108.705 34.6822 109.074 28.9547 106.697 24.1741C104.783 20.323 100.364 16.9225 95.8781 17.237C91.7688 17.5253 87.8876 24.2275 87.8514 28.0848Z" fill="#C0D4FF"/>
</g>
<path d="M93.3442 94.9742L92.9552 94.6182C94.0261 93.4477 95.736 90.7639 95.1574 85.9386C94.8998 83.7903 94.2612 81.669 93.6435 79.6171C93.3675 78.7004 93.0825 77.7522 92.8334 76.8109C90.177 66.7672 91.3387 55.6884 96.0213 46.4145C96.4368 45.5912 96.8869 44.7657 97.3223 43.9672C98.6128 41.5997 99.9474 39.1518 100.521 36.5074C101.527 31.8669 99.5383 28.3888 97.2639 27.121C95.0824 25.9038 92.0026 26.0901 88.815 27.6312C87.6486 28.1952 86.5155 28.8844 85.4194 29.5511C83.9706 30.4325 82.4731 31.3439 80.8651 31.989C74.5381 34.5274 66.6277 32.3701 62.4653 26.9718C60.4645 24.3773 59.3352 21.2423 58.243 18.2101C57.8196 17.0352 57.3818 15.8201 56.9008 14.6578C55.4035 11.0429 52.6639 6.50582 48.1125 5.42061C44.1131 4.46652 40.0625 6.56306 37.3696 8.48992C32.2169 12.1766 28.5848 17.1699 27.1419 22.5489C26.1691 26.1763 26.1297 30.1244 26.0917 33.9425C26.0354 39.6284 25.9769 45.5077 22.766 50.2428C21.3055 52.3969 19.2963 54.1158 17.3534 55.7781C15.534 57.3347 13.6524 58.9444 12.2497 60.8955C9.07148 65.316 8.29233 71.5753 10.1123 78.0676C11.7477 83.9007 15.0813 89.0762 18.3051 94.0815L17.8618 94.3671C14.617 89.3291 11.2618 84.1195 9.60474 78.2098C7.74154 71.5624 8.54961 65.1394 11.8219 60.588C13.2616 58.5852 15.1675 56.9547 17.0108 55.3777C18.9272 53.7382 20.9089 52.0426 22.33 49.9473C25.4516 45.3439 25.5065 39.8034 25.5649 33.9375C25.6031 30.0864 25.6426 26.1042 26.6329 22.4122C28.1074 16.9155 31.8113 11.8191 37.0627 8.0615C39.8452 6.07097 44.0418 3.90756 48.2349 4.90749C53.0024 6.0444 55.8436 10.7275 57.3876 14.456C57.8739 15.6299 58.3137 16.8507 58.7389 18.0317C59.8174 21.0253 60.9324 24.1212 62.8823 26.6497C66.9063 31.8684 74.5527 33.9536 80.6692 31.4999C82.2365 30.8711 83.7151 29.9713 85.1455 29.1013C86.252 28.4279 87.3965 27.7317 88.5854 27.1567C91.9292 25.5402 95.1863 25.3586 97.5209 26.6605C99.9591 28.0202 102.099 31.7165 101.036 36.619C100.446 39.3376 99.0935 41.8193 97.7852 44.2195C97.3518 45.0145 96.9035 45.8363 96.4918 46.6519C91.8665 55.8123 90.719 66.7558 93.343 76.6763C93.5895 77.6091 93.8733 78.5527 94.1481 79.465C94.7722 81.5381 95.4176 83.6826 95.6808 85.8761C96.2844 90.9102 94.4761 93.7374 93.3442 94.9742Z" fill="#A1C5FF"/>
<path d="M16.8666 60.3079C17.4546 58.5883 17.3555 56.8072 16.73 55.2327C15.1685 55.6517 13.7819 56.7488 13.1174 58.5035C12.8415 59.2319 12.7193 60.0077 12.7363 60.7866C12.1283 59.3275 11.5804 57.8409 11.094 56.3298C12.4575 55.8377 13.6135 54.7783 14.3479 53.3271C15.1681 51.697 15.3157 49.9048 14.9148 48.2395C13.3097 48.4336 11.7837 49.3319 10.8823 50.9899C10.5081 51.6777 10.2795 52.4349 10.189 53.2142C9.9252 52.1994 9.68885 51.1748 9.48082 50.1419C10.1218 48.7716 10.3979 47.1684 10.1969 45.4772C9.95685 43.4792 9.09736 41.7193 7.85409 40.4419C6.67801 41.7723 6.0213 43.7935 6.2804 45.9455C6.49628 47.763 7.32246 49.3193 8.4485 50.3499C8.53036 50.7557 8.61612 51.1596 8.70639 51.5629C8.2661 50.8958 7.73722 50.2837 7.1165 49.7595C5.6283 48.5033 3.90169 47.9993 2.31721 48.3603C2.53801 50.4905 3.54898 52.5256 5.12853 53.7527C6.54108 54.8553 8.11991 55.1219 9.52201 54.7737C9.96574 56.332 10.4736 57.867 11.0431 59.375C10.5162 58.7835 9.90879 58.2584 9.22231 57.8332C7.57747 56.8143 5.79953 56.5687 4.28105 57.1479C4.79317 59.1997 6.0722 61.0524 7.80333 62.0336C9.35211 62.9162 10.9507 62.9554 12.2901 62.4141C12.9425 63.8843 13.6551 65.3249 14.4253 66.7323C13.8228 66.2229 13.15 65.7906 12.4126 65.4688C10.6457 64.6972 8.85281 64.7069 7.42995 65.4917C8.21728 67.4385 9.7368 69.0853 11.5844 69.8112C13.238 70.4651 14.8256 70.2805 16.0769 69.5581C16.9246 70.9196 17.8287 72.2455 18.7868 73.5324C18.1194 73.1115 17.3933 72.7772 16.6189 72.5613C14.7632 72.0444 12.9906 72.3051 11.6903 73.2797C12.7376 75.0941 14.4698 76.513 16.4009 76.9761C18.1294 77.3946 19.6767 76.9925 20.8155 76.1034C21.8455 77.3358 22.928 78.5268 24.0604 79.6729C23.339 79.3464 22.572 79.1147 21.7738 79.0072C19.8614 78.7498 18.1415 79.2536 16.9895 80.3994C18.2812 82.054 20.1991 83.2242 22.1815 83.4192C23.9563 83.5979 25.4359 82.9868 26.4397 81.9478C27.6389 83.0308 28.8865 84.0665 30.1803 85.0511C29.4147 84.8252 28.6182 84.6996 27.8091 84.7017C25.8704 84.7068 24.2347 85.4429 23.2542 86.7388C24.7742 88.2057 26.8521 89.1074 28.8551 89.0313C30.6489 88.9672 32.0351 88.1584 32.883 86.9886C35.0799 88.4695 37.3934 89.8103 39.8139 90.995C40.133 91.1512 40.4947 91.0619 40.6192 90.7993C40.7433 90.5363 40.5892 90.2021 40.2768 90.0491C38.4932 89.1761 36.7687 88.2168 35.1071 87.1778C35.8314 85.9223 36.0233 84.3613 35.6411 82.7724C35.2082 80.9909 34.1643 79.5224 32.7945 78.5156C31.6932 79.6986 31.0993 81.3643 31.4754 83.2114C31.6321 83.9779 31.9452 84.7049 32.3809 85.3612C31.0747 84.4356 29.8125 83.4583 28.5972 82.4332C29.4916 81.2929 29.9088 79.7803 29.764 78.1618C29.5974 76.3474 28.7821 74.7582 27.5755 73.579C26.3198 74.5975 25.4965 76.1606 25.6011 78.0332C25.645 78.8105 25.8487 79.5696 26.1821 80.2754C25.0308 79.1867 23.928 78.0524 22.8753 76.8755C23.9206 75.8718 24.5483 74.4357 24.6356 72.8187C24.7287 71.0047 24.1472 69.3241 23.119 67.9929C21.7342 68.827 20.7009 70.2592 20.5408 72.1234C20.4745 72.8975 20.5687 73.6752 20.7983 74.4175C19.8152 73.1853 18.8842 71.9134 18.0075 70.6059C19.1823 69.7571 20.0044 68.4237 20.316 66.8362C20.6614 65.0549 20.319 63.3103 19.4843 61.8474C17.9969 62.4808 16.7753 63.7566 16.3582 65.5807C16.1853 66.338 16.1705 67.1213 16.2944 67.8876C15.4926 66.5323 14.7465 65.1431 14.0585 63.7235C15.3401 63.0463 16.3388 61.8394 16.8666 60.3079Z" fill="#99B9FF"/>
<path d="M108.756 95.7729H6.38816C5.33957 95.7729 4.4895 94.9226 4.4895 93.874C4.4895 92.8254 5.33957 91.9756 6.38816 91.9756H108.756C109.804 91.9756 110.654 92.8254 110.654 93.874C110.654 94.9226 109.804 95.7729 108.756 95.7729Z" fill="#7391FF"/>
<path d="M38.6891 66.8632C36.5419 65.7293 34.9115 63.6568 34.3159 61.3027C33.7203 58.9486 34.1686 56.3503 35.5182 54.332C36.5672 52.763 38.1854 51.3883 38.3111 49.5052C38.4414 47.5538 36.9108 45.9371 36.1571 44.1326C35.2385 41.9334 35.5389 39.2689 36.9235 37.3293C37.9252 35.9262 39.4499 34.8731 40.0884 33.2716C40.4897 32.265 40.4924 31.1518 40.5672 30.0707C40.6421 28.9893 40.8182 27.8563 41.4893 27.0046C42.1601 26.1533 43.4706 25.7204 44.3632 26.3349C45.9212 24.5723 47.7523 22.438 49.8775 21.4299C52.0028 20.4216 54.5995 20.1739 56.6815 21.2688C58.3285 22.1351 59.47 23.7122 60.9345 24.8605C62.1923 25.8474 63.6724 26.505 65.0198 27.3655C66.3673 28.226 67.6381 29.3744 68.109 30.9019C68.8828 33.4132 67.3013 36.0432 67.3424 38.6706C67.3825 41.2233 68.9394 43.5066 69.3778 46.0219C69.8222 48.5735 69.0742 51.218 67.8073 53.4769C66.5401 55.7358 64.7797 57.6721 63.035 59.5865C62.4451 62.9275 60.115 65.3802 57.0671 66.8703C54.0193 68.3604 50.55 68.7502 47.1575 68.7823C44.3947 68.808 41.1325 68.1531 38.6891 66.8632Z" fill="#7F4300"/>
<path d="M42.1581 60.0628C41.411 59.1625 41.3719 57.8612 41.6146 56.7163C41.8573 55.5718 42.3409 54.4844 42.5208 53.3286C42.764 51.7664 42.4401 50.1744 42.0483 48.643C41.6565 47.1116 41.1921 45.5784 41.1493 43.9981C41.1069 42.4179 41.5485 40.7442 42.71 39.6718C46.7825 35.912 53.6968 36.8386 59.2297 37.1671C62.0259 37.3329 64.0515 39.9311 65.0548 42.5465C66.0583 45.1617 65.8943 48.134 64.9614 50.7753C64.0289 53.4169 62.3721 55.7536 60.462 57.8027C59.3226 59.025 57.167 58.1839 55.5438 58.5802C53.9527 58.9685 52.613 60.0115 51.1331 60.7132C48.7684 61.8341 45.9926 62.0606 43.4775 61.3375C42.7388 61.125 42.1116 60.8298 42.1581 60.0628Z" fill="#6B3900"/>
<path d="M71.1505 62.2855C69.1585 59.707 66.2811 57.8256 63.1203 57.0349C61.6676 56.6715 60.1612 56.5313 58.7326 56.0833C58.3282 55.9566 57.9289 55.796 57.5448 55.6062C56.9852 53.4214 56.7078 51.1644 56.7259 48.9092H52.8771H52.2012H48.3524C48.3708 51.1644 48.0931 53.4214 47.5334 55.606C47.1497 55.796 46.7501 55.9566 46.346 56.0833C44.9173 56.5313 43.4109 56.6715 41.9582 57.0349C38.7972 57.8256 35.9198 59.707 33.9281 62.2855C31.9361 64.8643 30.8423 68.1234 30.8756 71.3818V92.0733L68.2293 91.5267C71.5424 91.4783 74.2029 88.7788 74.2029 85.4651V71.3818C74.236 68.1234 73.1425 64.8643 71.1505 62.2855Z" fill="#FFC985"/>
<path d="M56.6272 90.7375C57.3404 88.8685 57.4018 86.8265 57.6602 84.8424C58.156 81.0363 59.3971 77.373 60.2777 73.6371C61.1581 69.9011 61.9389 65.8306 60.974 62.1156C55.528 62.7705 50.0022 62.7615 44.5582 62.0898C42.4978 62.9541 41.428 65.5543 41.0454 67.7556C40.6625 69.9574 40.9424 72.2112 40.9851 74.4456C41.0318 76.8889 40.7926 79.3345 40.9082 81.7758C41.0236 84.2171 41.5264 86.7153 42.9067 88.7325C43.7605 89.9801 44.9058 90.9776 46.1503 91.8502L56.1719 91.7035C56.3481 91.3913 56.5016 91.0669 56.6272 90.7375Z" fill="white"/>
<path d="M41.0451 69.704C41.4277 67.5028 42.4975 64.9025 44.5579 64.0383C50.0019 64.7099 55.5279 64.7184 60.9739 64.064C61.2087 64.9672 61.3382 65.892 61.3902 66.8274C61.4688 65.2288 61.3707 63.6418 60.9739 62.1156C55.5279 62.7702 50.0019 62.7615 44.5579 62.0898C42.4975 62.9541 41.4277 65.5543 41.0451 67.7556C40.8349 68.9642 40.8265 70.1884 40.8669 71.4163C40.8929 70.8428 40.9464 70.2718 41.0451 69.704Z" fill="#EEEEEE"/>
<path d="M40.9855 76.3934C40.984 76.3171 40.9804 76.2404 40.9787 76.1641C40.9428 77.8405 40.8469 79.5171 40.8902 81.1921C40.9249 79.5926 41.016 77.9929 40.9855 76.3934Z" fill="#EEEEEE"/>
<path d="M48.1524 52.5142C51.1594 52.4536 54.1464 51.6076 56.7418 50.0891C56.7213 49.6803 56.707 49.271 56.706 48.8618L52.8574 48.9031L52.181 48.9104L48.3327 48.9518C48.3551 50.1416 48.293 51.3326 48.1524 52.5142Z" fill="#A57951"/>
<path d="M44.4924 38.1753C44.148 37.5508 43.7318 36.9292 43.1104 36.5798C42.4887 36.2304 41.6135 36.2412 41.1445 36.7785C40.7637 37.2145 40.7443 37.853 40.7855 38.4306C40.8694 39.5988 41.1393 40.7967 41.854 41.7248C42.5685 42.6527 43.8079 43.2454 44.9369 42.9341C45.0821 41.3406 45.2656 39.5759 44.4924 38.1753Z" fill="#FFC985"/>
<path d="M44.4286 39.4182C44.4691 39.4242 44.5096 39.4303 44.5504 39.4364C44.389 39.0526 44.2265 38.6664 44.0002 38.317C43.7735 37.9676 43.4775 37.6529 43.105 37.4666C42.7325 37.2803 42.2778 37.2348 41.8979 37.4057C41.5179 37.5764 41.2395 37.9841 41.2782 38.3986C41.5001 38.1317 41.907 38.0476 42.2477 38.1141C42.5889 38.1806 42.8841 38.4432 42.9895 38.7741C42.693 38.8118 42.4793 39.1139 42.4211 39.4069C42.3629 39.7003 42.4433 40.0043 42.5631 40.2784C42.6324 40.4378 42.7172 40.5938 42.8412 40.7155C42.965 40.8375 43.1334 40.923 43.3072 40.9172C43.1534 41.1279 42.8891 41.2959 42.6288 41.3111C43.1927 41.5788 43.9224 41.5328 44.4336 41.1741C44.5036 40.5893 44.4863 40.0044 44.4286 39.4182Z" fill="#E8AB71"/>
<path d="M59.8016 38.6218C60.1325 37.9904 60.5349 37.3593 61.1487 36.9967C61.7627 36.634 62.6379 36.626 63.1184 37.1531C63.5085 37.5808 63.5416 38.2187 63.5128 38.7971C63.4541 39.9669 63.2099 41.1703 62.5153 42.1136C61.821 43.0565 60.5949 43.6761 59.4594 43.3888C59.28 41.7988 59.0583 40.0387 59.8016 38.6218Z" fill="#FFC985"/>
<path d="M59.8919 39.8628C59.8513 39.8697 59.8112 39.8767 59.7705 39.8836C59.9236 39.4965 60.0778 39.1065 60.2966 38.7524C60.5156 38.3982 60.8049 38.0775 61.173 37.8832C61.5416 37.6889 61.9952 37.6337 62.3788 37.7962C62.7623 37.9586 63.0494 38.3602 63.0197 38.7754C62.792 38.5134 62.3834 38.4381 62.044 38.5119C61.7046 38.5857 61.415 38.8549 61.3165 39.1877C61.6141 39.2193 61.8342 39.5164 61.8987 39.8084C61.9632 40.1001 61.8893 40.4061 61.7755 40.6828C61.7096 40.8435 61.6281 41.0014 61.5067 41.126C61.3856 41.2506 61.2192 41.3392 61.0452 41.3371C61.2035 41.5444 61.4714 41.707 61.732 41.7163C61.1736 41.9961 60.4431 41.966 59.9246 41.6184C59.842 41.0353 59.8467 40.4501 59.8919 39.8628Z" fill="#E8AB71"/>
<path d="M46.1168 39.3565C46.1311 40.6875 45.0639 41.7779 43.7329 41.7922C42.4021 41.8065 41.312 40.7393 41.2977 39.4083C41.2834 38.0775 42.3504 36.9874 43.6811 36.9731C45.0121 36.9588 46.1025 38.0257 46.1168 39.3565Z" fill="#009ACB"/>
<path d="M63.1755 39.1729C63.1898 40.5039 62.1226 41.5943 60.7918 41.6086C59.4605 41.6229 58.3701 40.5557 58.3558 39.2247C58.3415 37.8939 59.4087 36.8038 60.74 36.7895C62.0708 36.7752 63.1612 37.8421 63.1755 39.1729Z" fill="#009ACB"/>
<path d="M60.7716 39.7195C60.8398 46.0652 57.07 51.2506 52.3513 51.3013C47.6327 51.352 43.7517 46.2488 43.6835 39.9031C43.6153 33.5573 43.5603 28.4131 52.1044 28.3213C60.6482 28.2295 60.7034 33.3737 60.7716 39.7195Z" fill="#FFC985"/>
<path d="M44.1469 35.5834C43.8789 35.4627 44.3349 34.9954 45.0276 34.8005C46.8632 34.2841 48.8983 34.051 50.4406 35.1722C50.5042 35.4885 50.1025 35.8698 49.7828 35.912C49.4629 35.9545 49.1481 35.828 48.8433 35.7216C47.3575 35.2044 45.6725 35.1985 44.1469 35.5834Z" fill="#7F4300"/>
<path d="M60.1379 35.411C60.4032 35.2846 59.9374 34.8272 59.2406 34.6472C57.3946 34.1704 55.3547 33.9811 53.8368 35.1351C53.78 35.4528 54.1898 35.8253 54.5103 35.8606C54.8312 35.8962 55.1431 35.7631 55.4456 35.6501C56.9199 35.1011 58.6047 35.059 60.1379 35.411Z" fill="#7F4300"/>
<path d="M49.8496 42.6251C49.8532 42.9568 48.7999 43.2371 47.4969 43.2511C46.1938 43.2651 45.1348 43.0075 45.1312 42.6758C45.1276 42.3441 46.1809 42.0638 47.4839 42.0498C48.787 42.0358 49.846 42.2934 49.8496 42.6251Z" fill="#FFAE6A"/>
<path d="M59.2527 42.5235C59.2563 42.8552 58.203 43.1355 56.9 43.1495C55.597 43.1635 54.5374 42.9059 54.5338 42.5742C54.5302 42.2426 55.5841 41.9623 56.8871 41.9483C58.1901 41.9343 59.2492 42.1918 59.2527 42.5235Z" fill="#FFAE6A"/>
<path d="M51.9774 37.331C52.2195 38.8844 51.8497 40.525 50.9643 41.8244C50.7778 42.0979 50.5597 42.387 50.5746 42.7177C50.5916 43.092 50.9207 43.3956 51.2815 43.4963C51.6423 43.5971 52.0274 43.5364 52.3931 43.4552" stroke="#EAAB6A" stroke-width="0.5" stroke-linecap="round" stroke-linejoin="round"/>
<path d="M47.5381 41.6613C45.4393 41.6838 43.7138 39.9945 43.6913 37.896C43.6687 35.7972 45.3575 34.0715 47.4563 34.0489C49.5547 34.0264 51.2805 35.7154 51.303 37.8142C51.3256 39.9127 49.6365 41.6387 47.5381 41.6613ZM47.4629 34.6685C45.706 34.6874 44.2917 36.1322 44.3106 37.8893C44.3294 39.6462 45.7745 41.0603 47.5314 41.0414C49.2883 41.0225 50.7026 39.5777 50.6838 37.8209C50.6649 36.0637 49.2198 34.6496 47.4629 34.6685Z" fill="white"/>
<path d="M57.0903 41.5587C54.9918 41.5813 53.2661 39.8919 53.2435 37.7935C53.221 35.6947 54.91 33.969 57.0085 33.9464C59.1073 33.9239 60.8327 35.6129 60.8553 37.7117C60.8778 39.8101 59.1891 41.5362 57.0903 41.5587ZM57.0152 34.566C55.2583 34.5848 53.8436 36.0296 53.8625 37.7868C53.8814 39.5437 55.3268 40.9577 57.0836 40.9389C58.8408 40.92 60.2549 39.4752 60.236 37.7183C60.2171 35.9612 58.7723 34.5471 57.0152 34.566Z" fill="white"/>
<path d="M51.1754 38.0688L50.8114 37.5671C51.314 37.2031 52.57 36.728 53.7302 37.5363L53.376 38.0449C52.2829 37.2829 51.1864 38.0605 51.1754 38.0688Z" fill="white"/>
<path d="M49.832 45.1055C51.4522 46.025 53.5987 45.9216 55.1228 44.8503" stroke="#EAAB6A" stroke-width="0.5" stroke-linecap="round" stroke-linejoin="round"/>
<path d="M51.5289 46.959C52.0412 47.1257 52.5948 47.1639 53.1251 47.0688" stroke="#EAAB6A" stroke-linecap="round" stroke-linejoin="round"/>
<path d="M40.5427 40.5394C43.4036 38.4096 45.6024 35.403 46.765 32.0313C48.8102 33.8959 51.7097 34.8789 54.4731 34.7318C53.9261 34.4922 53.5173 34.0068 53.1823 33.5124C55.859 34.1148 58.1717 35.7102 59.9532 37.7971C60.6767 38.6446 61.2926 39.5896 62.1084 40.3486C62.9246 41.1074 64.0099 41.6778 65.1165 41.5468C64.3944 38.6154 63.6891 35.5847 62.5521 32.7878C61.8541 31.071 61.0332 29.3225 59.6017 28.145C57.8207 26.6802 55.352 26.3301 53.0537 26.5233C50.602 26.7298 48.1925 27.4967 46.1029 28.7951C43.2636 30.5596 41.0507 33.3104 39.9356 36.4616C39.6891 37.1583 39.4927 37.8892 39.5335 38.6271C39.5742 39.3654 39.9447 40.1049 40.5427 40.5394Z" fill="#7F4300"/>
<path d="M43.7283 42.3888C43.7329 42.8187 43.3883 43.1708 42.9588 43.1754C42.529 43.18 42.1765 42.8354 42.1719 42.4056C42.1673 41.9757 42.5122 41.6242 42.9421 41.6196C43.3716 41.6149 43.7237 41.959 43.7283 42.3888Z" fill="#FFEF21"/>
<path d="M62.3544 42.1886C62.359 42.6185 62.0141 42.9706 61.5843 42.9752C61.1548 42.9798 60.8026 42.6352 60.798 42.2054C60.7934 41.7755 61.1381 41.424 61.5676 41.4194C61.9974 41.4148 62.3498 41.7588 62.3544 42.1886Z" fill="#FFEF21"/>
<path d="M47.6651 36.7156C47.3894 36.7186 47.1512 36.9477 47.0166 37.2882L47.6782 37.9361L47.0306 38.5977C47.1726 38.9356 47.4156 39.1595 47.6914 39.1565C48.1212 39.1519 48.4634 38.6016 48.4562 37.9277C48.4489 37.2536 48.0949 36.711 47.6651 36.7156Z" fill="#4F4519"/>
<path d="M56.7544 36.618C56.4784 36.6209 56.2402 36.85 56.1058 37.1906L56.7675 37.8384L56.1199 38.5001C56.2615 38.8379 56.5046 39.0618 56.7806 39.0589C57.2104 39.0543 57.5526 38.5039 57.5454 37.8301C57.5381 37.1559 57.1842 36.6133 56.7544 36.618Z" fill="#4F4519"/>
<path d="M42.1738 35.2153C41.9913 33.9701 42.1229 32.6652 42.5087 31.4261C42.9077 30.1913 43.5682 29.0207 44.4579 28.0374C45.3366 27.0447 46.442 26.2426 47.6643 25.6899C48.8874 25.136 50.2319 24.8453 51.5767 24.8257C52.9216 24.8152 54.2717 25.077 55.507 25.6039C56.7406 26.1311 57.8647 26.9072 58.7643 27.8823C59.6748 28.8468 60.3609 30.0023 60.7861 31.2288C61.1978 32.46 61.3575 33.7617 61.2003 35.0109C60.8521 32.5228 59.6706 30.2993 57.9189 28.7457C56.1653 27.1961 53.8869 26.3459 51.5933 26.3739C49.2991 26.3929 47.0387 27.2925 45.3182 28.8794C43.5997 30.4703 42.4663 32.7204 42.1738 35.2153Z" fill="white"/>
<path d="M63.1204 57.0361C61.9166 56.7352 60.6765 56.585 59.4738 56.2881C56.942 67.975 55.1531 79.8217 54.1189 91.7346L68.2291 91.5281C71.5422 91.4798 74.2027 88.78 74.2027 85.4662V71.3829C74.2361 68.1246 73.1426 64.8657 71.1506 62.2867C69.1589 59.7082 66.2815 57.8268 63.1204 57.0361Z" fill="#00A5D4"/>
<path d="M45.8727 56.2197C44.5872 56.5642 43.2515 56.7118 41.9586 57.0353C38.7973 57.826 35.9202 59.7074 33.9282 62.2859C31.9362 64.8647 30.8424 68.1238 30.8757 71.3822V92.0737L51.2458 91.7757C50.2105 79.8257 48.4153 67.942 45.8727 56.2197Z" fill="#00A5D4"/>
<path d="M41.9586 57.036C41.5197 57.146 41.0871 57.2786 40.6609 57.4296C39.6776 60.2239 38.7761 63.0383 37.9698 65.8707C39.5094 66.7592 40.9974 67.8655 42.6727 68.568C42.0683 70.0424 41.4216 71.6747 40.8173 73.1489C43.9006 79.0728 46.5495 85.5315 48.7091 91.8072L51.2458 91.7766C49.9973 79.9116 47.8379 68.1118 44.7846 56.4707C43.8437 56.6605 42.8901 56.803 41.9586 57.036Z" fill="#00A5D4"/>
<path d="M64.5592 73.1488C63.9682 71.6746 63.3359 70.0427 62.7448 68.5682C64.3831 67.8654 65.8377 66.7592 67.3436 65.8709C66.5668 63.0803 65.7003 60.3073 64.7558 57.5535C64.2216 57.3496 63.6755 57.1751 63.1204 57.0359C62.2321 56.814 61.3241 56.6734 60.4257 56.4961C57.4473 68.1154 55.3397 79.8923 54.1191 91.7347L56.88 91.6943C58.9848 85.4542 61.5625 79.0371 64.5592 73.1488Z" fill="#00A5D4"/>
<path d="M45.8726 56.2197C44.828 56.4994 43.7506 56.651 42.6895 56.871C41.8163 59.8485 41.0222 62.8489 40.3141 65.87C41.5821 66.7585 42.8072 67.8651 44.1866 68.5675C43.6889 70.042 43.1564 71.674 42.6587 73.1482C45.1976 79.0724 47.3791 85.5308 49.1573 91.8068L51.2457 91.7759C50.2104 79.826 48.4152 67.942 45.8726 56.2197Z" fill="#00B1E4"/>
<path d="M62.9159 56.9903C61.7766 56.7213 60.6089 56.568 59.4738 56.2881C56.942 67.9747 55.153 79.8214 54.1191 91.7343L56.442 91.7004C58.2148 85.4583 60.3866 79.0392 62.9108 73.1487C62.4134 71.6745 61.8806 70.0422 61.3829 68.5677C62.7627 67.8653 63.9871 66.759 65.2549 65.8705C64.5567 62.8899 63.7753 59.9287 62.9159 56.9903Z" fill="#00B1E4"/>
<path d="M46.602 56.3673C46.4812 56.3673 46.3605 56.3178 46.2736 56.231C46.2521 56.2092 46.2335 56.1846 46.2148 56.1598C46.1995 56.1349 46.184 56.1072 46.1747 56.0792C46.1622 56.0514 46.1529 56.0203 46.1467 55.9926C46.1404 55.9615 46.1373 55.9307 46.1373 55.9024C46.1373 55.8719 46.1404 55.8408 46.1467 55.8097C46.1529 55.7819 46.1622 55.7508 46.1747 55.7231C46.184 55.6951 46.1995 55.6671 46.2148 55.6425C46.2335 55.6179 46.2521 55.593 46.2736 55.5713C46.3822 55.4658 46.5431 55.4166 46.6919 55.444C46.7227 55.4505 46.7507 55.4598 46.7787 55.4723C46.8095 55.4847 46.8344 55.4972 46.859 55.5153C46.887 55.5311 46.9085 55.5526 46.9303 55.5713C46.9521 55.593 46.9707 55.6179 46.9891 55.6425C47.0047 55.6671 47.0202 55.6951 47.0326 55.7231C47.042 55.7508 47.051 55.7819 47.0572 55.8097C47.0635 55.8408 47.0666 55.8719 47.0666 55.9024C47.0666 55.9307 47.0635 55.9615 47.0572 55.9926C47.051 56.0203 47.042 56.0514 47.0326 56.0792C47.0202 56.1072 47.0047 56.1349 46.9891 56.1598C46.9707 56.1846 46.9521 56.2092 46.9303 56.231C46.9085 56.2528 46.887 56.2715 46.859 56.2867C46.8344 56.3054 46.8095 56.3178 46.7787 56.3303C46.7507 56.3427 46.7227 56.3518 46.6919 56.358C46.6639 56.3642 46.6331 56.3673 46.602 56.3673Z" fill="#FFEF21"/>
<path d="M51.998 59.0366C51.7658 59.0275 51.5766 58.8477 51.5551 58.6215C51.4963 58.8386 51.2825 58.9902 51.0532 58.9622H51.0501C50.821 58.9345 50.6474 58.7425 50.6411 58.5163C50.5671 58.7301 50.3439 58.8632 50.1149 58.8197C49.8855 58.7764 49.7277 58.5691 49.7368 58.3395C49.644 58.5502 49.4056 58.6619 49.1794 58.5937C48.9501 58.5253 48.8138 58.2965 48.8573 58.0672C48.7334 58.2651 48.4761 58.346 48.2592 58.2408C48.0426 58.1353 47.9433 57.8811 48.027 57.6583C47.863 57.8347 47.5904 57.8596 47.3984 57.7112C47.2064 57.559 47.1628 57.2867 47.2991 57.0853C47.0949 57.2216 46.8223 57.1781 46.6705 56.983C46.5155 56.7788 46.5528 56.4872 46.757 56.3297C46.9615 56.1747 47.2527 56.2146 47.4077 56.416H47.4108C47.5316 56.5803 47.5347 56.7972 47.4261 56.9581C47.5904 56.8501 47.807 56.8529 47.9713 56.9767C48.1353 57.104 48.1882 57.3206 48.1201 57.5064C48.2564 57.3608 48.4761 57.3113 48.6622 57.4043C48.8573 57.4974 48.9563 57.7046 48.9192 57.906C49.0275 57.7295 49.241 57.6427 49.4489 57.7046C49.6565 57.7666 49.7894 57.9648 49.7769 58.1724C49.864 57.9807 50.0744 57.8658 50.2882 57.906C50.5082 57.9464 50.6598 58.1353 50.666 58.3488C50.7373 58.1475 50.9386 58.0146 51.1587 58.0395C51.3787 58.0644 51.5458 58.2408 51.5676 58.4515C51.6233 58.2468 51.8122 58.0983 52.035 58.1073C52.255 58.1167 52.4346 58.2776 52.4719 58.4854C52.509 58.2776 52.6888 58.1167 52.9086 58.1042C53.1286 58.0949 53.3175 58.2408 53.3763 58.4419C53.395 58.2312 53.5559 58.0547 53.7728 58.0236C53.9894 57.9928 54.1941 58.1167 54.2716 58.3118C54.2682 58.1011 54.4076 57.9094 54.6214 57.8565C54.8321 57.8039 55.0459 57.9029 55.1449 58.0887C55.1203 57.8811 55.2379 57.6769 55.4393 57.5995C55.6437 57.5222 55.8669 57.5932 55.9873 57.7635C55.9378 57.5621 56.0278 57.3455 56.2198 57.2431C56.4118 57.141 56.6411 57.1874 56.7803 57.3424C56.7059 57.147 56.7681 56.921 56.9446 56.7972C57.121 56.6702 57.3535 56.6858 57.5113 56.8189C57.4123 56.6363 57.4431 56.4069 57.5981 56.2585C57.7839 56.0817 58.0783 56.0876 58.2547 56.2734C58.4346 56.4595 58.4253 56.7539 58.2392 56.9304C58.0689 57.0947 57.8026 57.1006 57.623 56.9521C57.7344 57.1535 57.6787 57.4137 57.4836 57.5528C57.2916 57.6922 57.0283 57.6583 56.8702 57.4877C56.9539 57.7046 56.8671 57.9524 56.6567 58.0644C56.446 58.1755 56.1887 58.1107 56.0586 57.9216C56.1146 58.1447 55.9938 58.38 55.7738 58.4665C55.5507 58.5502 55.3061 58.454 55.1975 58.253C55.2255 58.4789 55.0798 58.6992 54.8508 58.758C54.6214 58.8169 54.3893 58.6927 54.3056 58.4789C54.3056 58.7083 54.1381 58.9099 53.906 58.9438C53.6707 58.9778 53.4538 58.8321 53.3919 58.609C53.3732 58.8386 53.1874 59.021 52.9521 59.0335C52.7166 59.0425 52.5152 58.8785 52.4719 58.6554C52.4346 58.8726 52.2429 59.0366 52.0166 59.0366H51.998Z" fill="#FFEF21"/>
<path d="M58.5335 56.3764C58.4127 56.3764 58.292 56.3266 58.2054 56.2401C58.1186 56.1532 58.0688 56.0356 58.0688 55.9115C58.0688 55.791 58.1186 55.67 58.2054 55.5831C58.3788 55.4098 58.6882 55.4098 58.8615 55.5831C58.9486 55.67 58.9981 55.791 58.9981 55.9115C58.9981 56.0325 58.9486 56.1532 58.8615 56.2401C58.7747 56.3266 58.6545 56.3764 58.5335 56.3764Z" fill="#FFEF21"/>
<path d="M49.519 47.6318C49.5139 47.6319 49.5088 47.6319 49.504 47.6317C48.6232 47.5897 47.7126 47.5463 46.825 47.3497C45.8076 47.1242 44.9721 46.7231 44.3419 46.1589C43.3579 45.278 42.9315 44.0476 42.7473 43.17C42.516 42.0687 42.5202 40.9386 42.5249 39.846C42.5254 39.7049 42.652 39.5918 42.7809 39.5919C42.9221 39.5926 43.0359 39.7071 43.0354 39.8482C43.0307 40.9144 43.0265 42.0163 43.2467 43.0648C43.4154 43.8676 43.8013 44.9902 44.6823 45.7788C45.2465 46.284 46.0047 46.645 46.9356 46.8516C47.7804 47.0388 48.6689 47.0813 49.5282 47.1221C49.6688 47.1288 49.7776 47.2484 49.7709 47.389C49.7644 47.5248 49.653 47.6304 49.519 47.6318Z" fill="#006B8D"/>
<path d="M50.2619 47.3495C50.266 47.7315 49.8392 48.0455 49.3087 48.0512C48.7782 48.0569 48.3448 47.7521 48.3407 47.3701C48.3366 46.9881 48.7634 46.6741 49.2938 46.6684C49.8243 46.6627 50.2578 46.9674 50.2619 47.3495Z" fill="#006B8D"/>
<path d="M34.5837 61.9739C31.8665 65.1038 30.0951 68.9626 28.929 72.9395C27.7629 76.917 27.1728 81.0366 26.5866 85.1396C26.4178 86.3199 26.2526 87.5477 26.6132 88.6841C27.3519 91.0133 30.0367 92.1558 32.4761 92.3003C34.9155 92.445 37.3731 91.8968 39.7969 92.209C41.0039 82.0259 39.6231 70.9047 34.5837 61.9739Z" fill="#00A5D4"/>
<path d="M44.2504 86.5732C46.0004 85.9509 47.7625 85.3257 49.5968 85.0328C51.4309 84.7397 53.3616 84.7954 55.0786 85.5037C56.7959 86.212 58.2715 87.6369 58.7552 89.4303C58.9094 90.0016 57.8053 90.2199 57.2462 90.4152C56.6877 90.6103 56.0826 90.6131 55.4909 90.6141C53.5188 90.6168 51.5464 90.6193 49.5743 90.6221C48.1658 90.6241 46.6544 91.0566 45.4334 90.3547C44.8225 90.0033 44.4352 89.347 44.2557 88.6656C44.0763 87.9838 44.2459 87.2779 44.2504 86.5732Z" fill="#FFC985"/>
<path d="M31.8636 84.2524C36.984 83.6676 42.1364 83.3659 47.2901 83.3493C47.8973 85.7328 48.679 88.3342 48.6084 90.7929C44.5517 92.1424 40.2634 92.4174 36.0604 91.6333C33.1905 91.0979 31.9945 87.1692 31.8636 84.2524Z" fill="#00A5D4"/>
<path d="M44.4455 83.46C42.6108 82.6263 40.4759 82.1897 38.4629 82.0971C38.6177 79.1436 38.5176 76.1768 38.1637 73.2402C39.0486 75.5704 39.7293 77.9751 39.8395 80.4648C41.6148 80.9987 43.3908 81.9354 44.4455 83.46Z" fill="#00A5D4"/>
<path d="M94.2318 90.3057H35.47V90.7921C35.47 91.4459 36.0002 91.9764 36.654 91.9764H93.0477C93.7015 91.9764 94.2318 91.4459 94.2318 90.7921V90.3057Z" fill="#DFE9FF"/>
<path d="M94.2318 90.3057H35.47V90.7921C35.47 91.4459 36.0002 91.9761 36.654 91.9761H93.0477C93.7015 91.9761 94.2318 91.4459 94.2318 90.7921V90.3057Z" fill="#D0DBEF"/>
<path d="M55.9412 90.7911V90.3047H35.47V90.7911C35.47 91.4452 36.0002 91.9754 36.654 91.9754H54.7572C55.411 91.9754 55.9412 91.4452 55.9412 90.7911Z" fill="#D0DBEF"/>
<path d="M94.2317 90.3057H55.9412L64.4795 66.847C64.7973 65.9735 65.7631 65.2656 66.6366 65.2656H101.764C102.637 65.2656 103.088 65.9735 102.77 66.847L94.2317 90.3057Z" fill="white"/>
<path d="M82.1026 77.7853C81.6083 79.1436 80.1064 80.2445 78.7484 80.2445C77.3902 80.2445 76.6897 79.1436 77.184 77.7853C77.6783 76.4271 79.1802 75.3262 80.5385 75.3262C81.8965 75.3262 82.5966 76.4271 82.1026 77.7853Z" fill="#C6CFE3"/>
<path d="M51.838 91.449H50.5092C50.3415 91.449 50.2054 91.3132 50.2054 91.1452C50.2054 90.9775 50.3415 90.8418 50.5092 90.8418H51.838C52.0057 90.8418 52.1417 90.9775 52.1417 91.1452C52.1417 91.3132 52.0057 91.449 51.838 91.449Z" fill="#D0DBEF"/>
<path d="M49.1424 91.449H47.8132C47.6455 91.449 47.5095 91.3132 47.5095 91.1452C47.5095 90.9775 47.6455 90.8418 47.8132 90.8418H49.1424C49.3101 90.8418 49.4461 90.9775 49.4461 91.1452C49.4461 91.3132 49.3101 91.449 49.1424 91.449Z" fill="#D0DBEF"/>
<path d="M46.4465 91.449H45.1177C44.95 91.449 44.814 91.3132 44.814 91.1452C44.814 90.9775 44.95 90.8418 45.1177 90.8418H46.4465C46.6142 90.8418 46.7502 90.9775 46.7502 91.1452C46.7502 91.3132 46.6142 91.449 46.4465 91.449Z" fill="#D0DBEF"/>
<path d="M18.1561 53.9409C18.3481 54.0061 18.5414 54.0577 18.735 54.1007L18.8095 55.0284C19.1054 55.0805 19.4017 55.1103 19.6961 55.1201L19.9594 54.2239C20.3629 54.2193 20.7604 54.17 21.1469 54.0784L21.6177 54.8839C21.9045 54.8027 22.1849 54.7016 22.4566 54.5812L22.306 53.6656C22.6643 53.4882 22.9999 53.2674 23.3123 53.0151L24.0856 53.5362C24.3077 53.3404 24.5169 53.128 24.7106 52.9002L24.1749 52.1366C24.4176 51.8254 24.631 51.4863 24.8044 51.1178L25.7237 51.2513C25.781 51.1151 25.8354 50.9768 25.8837 50.8346C25.9319 50.6924 25.973 50.5496 26.0105 50.4064L25.1998 49.953C25.2865 49.555 25.3237 49.1561 25.3207 48.7612L26.2105 48.4818C26.1955 48.1828 26.1588 47.8873 26.1019 47.5965L25.171 47.5394C25.0769 47.1488 24.945 46.7693 24.7688 46.4105L25.4456 45.776C25.3033 45.515 25.1425 45.2639 24.9644 45.0249L24.1004 45.3776C23.8496 45.0697 23.5642 44.7885 23.2469 44.5393L23.5836 43.668C23.3441 43.4963 23.0909 43.3395 22.8244 43.201L22.2005 43.8917C22.0208 43.8077 21.836 43.7312 21.644 43.666C21.4517 43.6008 21.2585 43.5489 21.0648 43.5062L20.9903 42.5784C20.6945 42.5261 20.3982 42.4963 20.104 42.4869L19.8407 43.383C19.4372 43.3876 19.0397 43.4369 18.6529 43.5284L18.1822 42.7227C17.8954 42.8039 17.6152 42.9053 17.3432 43.0256L17.4938 43.9413C17.1356 44.1186 16.8 44.3392 16.4876 44.5918L15.7143 44.0704C15.4921 44.2664 15.2833 44.4787 15.0892 44.7066L15.625 45.47C15.3822 45.7814 15.1691 46.1206 14.9957 46.4891L14.0762 46.3553C14.0188 46.4917 13.9647 46.6301 13.9164 46.7723C13.8681 46.9145 13.8269 47.0573 13.7894 47.2001L14.6003 47.654C14.5136 48.0519 14.4761 48.4507 14.4792 48.8454L13.5893 49.125C13.6047 49.4238 13.641 49.7196 13.698 50.0101L14.6288 50.0674C14.723 50.4578 14.8549 50.8373 15.0311 51.1961L14.3543 51.8309C14.4968 52.0919 14.6575 52.3426 14.8355 52.5817L15.6994 52.2292C15.9502 52.5372 16.2358 52.8184 16.5532 53.0677L16.2165 53.9389C16.4558 54.1103 16.709 54.267 16.9754 54.4059L17.5993 53.7152C17.7791 53.7989 17.9639 53.8756 18.1561 53.9409ZM16.2657 47.5698C16.9471 45.5625 19.1264 44.4877 21.1337 45.1691C23.1408 45.8504 24.2158 48.0299 23.5344 50.0372C22.8531 52.0442 20.6735 53.1189 18.6664 52.4376C16.6591 51.7562 15.5844 49.5768 16.2657 47.5698Z" fill="white"/>
<g opacity="0.112219">
<path d="M1.21657 56.9752C1.21657 57.3109 0.944241 57.5832 0.608284 57.5832C0.272328 57.5832 0 57.3109 0 56.9752C0 56.6392 0.272328 56.3672 0.608284 56.3672C0.944241 56.3672 1.21657 56.6392 1.21657 56.9752Z" fill="#BCD7FF"/>
<path d="M8.85803 26.1194C8.85803 26.327 8.68977 26.4952 8.48248 26.4952C8.27491 26.4952 8.10693 26.327 8.10693 26.1194C8.10693 25.9121 8.27491 25.7441 8.48248 25.7441C8.68977 25.7441 8.85803 25.9121 8.85803 26.1194Z" fill="#BCD7FF"/>
<path d="M84.6476 10.4048C84.6476 10.9288 84.2226 11.3536 83.6986 11.3536C83.1745 11.3536 82.7495 10.9288 82.7495 10.4048C82.7495 9.88052 83.1745 9.45605 83.6986 9.45605C84.2226 9.45605 84.6476 9.88052 84.6476 10.4048Z" fill="#BCD7FF"/>
<path d="M94.2314 12.8382C94.2314 13.1786 93.9551 13.4547 93.6146 13.4547C93.2741 13.4547 92.9984 13.1786 92.9984 12.8382C92.9984 12.4977 93.2741 12.2217 93.6146 12.2217C93.9551 12.2217 94.2314 12.4977 94.2314 12.8382Z" fill="#BCD7FF"/>
<path d="M110.089 40.95C110.089 41.5291 109.62 41.9985 109.041 41.9985C108.462 41.9985 107.992 41.5291 107.992 40.95C107.992 40.3711 108.462 39.9014 109.041 39.9014C109.62 39.9014 110.089 40.3711 110.089 40.95Z" fill="#BCD7FF"/>
<path d="M107.992 50.1103C107.992 50.5424 107.642 50.8931 107.21 50.8931C106.778 50.8931 106.428 50.5424 106.428 50.1103C106.428 49.6785 106.778 49.3281 107.21 49.3281C107.642 49.3281 107.992 49.6785 107.992 50.1103Z" fill="#BCD7FF"/>
<path d="M107.711 87.1217C107.711 87.6729 107.264 88.12 106.713 88.12C106.161 88.12 105.715 87.6729 105.715 87.1217C105.715 86.5708 106.161 86.124 106.713 86.124C107.264 86.124 107.711 86.5708 107.711 87.1217Z" fill="#BCD7FF"/>
</g>
<g opacity="0.0923722">
<path d="M116.343 33.6055C116.483 34.5967 117.262 35.3757 118.253 35.516C117.262 35.6563 116.483 36.4354 116.343 37.4265C116.203 36.4354 115.424 35.6563 114.432 35.516C115.424 35.3757 116.203 34.5967 116.343 33.6055Z" fill="#BCD7FF"/>
<path d="M117.396 73.6621C117.536 74.6533 118.315 75.4324 119.306 75.5726C118.315 75.7129 117.536 76.492 117.396 77.4832C117.255 76.492 116.476 75.7129 115.485 75.5726C116.476 75.4324 117.255 74.6533 117.396 73.6621Z" fill="#BCD7FF"/>
<path d="M64.906 2.5957C65.0194 3.39798 65.6503 4.02861 66.4529 4.14229C65.6503 4.25597 65.0194 4.8866 64.906 5.68916C64.7926 4.8866 64.1617 4.25597 63.3591 4.14229C64.1617 4.02861 64.7926 3.39798 64.906 2.5957Z" fill="#BCD7FF"/>
</g>
<path d="M85.1307 43.4453H75.2913C73.6963 43.4453 72.4037 44.7385 72.4037 46.3332V51.0357C72.4037 52.6307 73.6963 53.9233 75.2913 53.9233H75.6219L74.9528 54.8692C74.7336 55.1786 75.058 55.581 75.4069 55.4328L78.5448 54.1034C78.825 53.9847 79.1265 53.9233 79.4311 53.9233H85.1307C86.7257 53.9233 88.0183 52.6307 88.0183 51.0357V46.3332C88.0183 44.7385 86.7257 43.4453 85.1307 43.4453Z" fill="white"/>
<path d="M86.0387 46.9538H74.3831C74.1069 46.9538 73.8823 46.7295 73.8823 46.453C73.8823 46.1764 74.1069 45.9521 74.3831 45.9521H86.0387C86.3155 45.9521 86.5395 46.1764 86.5395 46.453C86.5395 46.7295 86.3155 46.9538 86.0387 46.9538Z" fill="#EEEEEE"/>
<path d="M86.0388 49.1843H74.3833C74.107 49.1843 73.8824 48.96 73.8824 48.6834C73.8824 48.4069 74.107 48.1826 74.3833 48.1826H86.0388C86.3157 48.1826 86.5396 48.4069 86.5396 48.6834C86.5396 48.96 86.3157 49.1843 86.0388 49.1843Z" fill="#EEEEEE"/>
<path d="M80.9355 51.4157H74.3829C74.1067 51.4157 73.8827 51.1915 73.8827 50.9149C73.8827 50.6383 74.1067 50.4141 74.3829 50.4141H80.9355C81.2121 50.4141 81.436 50.6383 81.436 50.9149C81.436 51.1915 81.2121 51.4157 80.9355 51.4157Z" fill="#EEEEEE"/>
<path d="M100.676 39.896H91.3089C88.1323 39.896 85.5569 37.3206 85.5569 34.144V24.7774C85.5569 21.6008 88.1323 19.0254 91.3089 19.0254H100.676C103.853 19.0254 106.428 21.6008 106.428 24.7774V34.144C106.428 37.3206 103.853 39.896 100.676 39.896Z" fill="#7391FF"/>
<path d="M90.4574 34.7802C87.7669 31.7292 88.0604 27.0583 91.1115 24.3681C94.1628 21.6777 98.8336 21.9709 101.524 25.0219C101.739 25.2657 101.716 25.6379 101.472 25.8531C101.228 26.0683 100.856 26.0448 100.641 25.801C98.3798 23.237 94.4546 22.9904 91.8906 25.2513C89.3265 27.5119 89.0799 31.4374 91.3408 34.0014C93.6017 36.5652 97.5269 36.8124 100.091 34.5512C101.777 33.0648 102.527 30.7756 102.048 28.5772C101.979 28.2593 102.181 27.9457 102.499 27.8764C102.816 27.8074 103.13 28.0088 103.199 28.3264C103.768 30.9422 102.876 33.6658 100.87 35.4343C97.8187 38.1248 93.1478 37.8316 90.4574 34.7802Z" fill="white"/>
<path d="M97.4677 26.0383C97.3862 25.9458 97.3328 25.8268 97.3226 25.6947C97.2974 25.3704 97.5398 25.087 97.8639 25.0621L100.444 24.8625L100.244 22.2828C100.22 21.9585 100.462 21.6754 100.786 21.6502C101.111 21.6251 101.394 21.8674 101.419 22.1918L101.664 25.3588C101.676 25.5146 101.626 25.6687 101.524 25.7872C101.422 25.906 101.278 25.9795 101.122 25.9914L97.9552 26.2363C97.7635 26.251 97.5859 26.1724 97.4677 26.0383Z" fill="white"/>
<path d="M92.7234 29.3079C92.7234 29.0655 92.6182 28.9445 92.4081 28.9445C92.2899 28.9445 92.2037 28.9855 92.1491 29.0684C92.0942 29.1512 92.0637 29.2799 92.0577 29.4544H91.3168C91.3346 29.0729 91.45 28.7861 91.663 28.5938C91.8759 28.4015 92.1448 28.3057 92.47 28.3057C92.8105 28.3057 93.0673 28.3916 93.2401 28.563C93.4129 28.7347 93.4997 28.9575 93.4997 29.2324C93.4997 29.5372 93.3826 29.835 93.149 30.1263C92.9154 30.4176 92.6358 30.6639 92.3106 30.8649H93.548V31.4769H91.3129V30.9096C92.2531 30.2383 92.7234 29.7041 92.7234 29.3079Z" fill="white"/>
<path d="M93.8674 30.9363V30.302L95.3001 28.3369H96.1162V30.2754H96.4934V30.9363H96.1162V31.5127H95.349V30.9363H93.8674ZM95.4112 29.215L94.6395 30.2754H95.4112V29.215Z" fill="white"/>
<path d="M98.4897 27.2988L97.2963 32.3467H96.5645L97.7576 27.2988H98.4897Z" fill="white"/>
<path d="M100.562 28.91L99.4392 31.5139H98.6541L99.7898 28.9988H98.4587V28.3467H100.562V28.91Z" fill="white"/>
<path d="M29.3929 34.9838H14.3993C11.7312 34.9838 9.56812 32.821 9.56812 30.1529V22.285C9.56812 19.6169 11.7312 17.4541 14.3993 17.4541H29.3929C32.0611 17.4541 34.2241 19.6169 34.2241 22.285V30.1529C34.2241 32.821 32.0611 34.9838 29.3929 34.9838Z" fill="#7391FF"/>
<path d="M16.752 23.0875C16.752 24.2215 15.8326 25.1409 14.6986 25.1409C13.5643 25.1409 12.6453 24.2215 12.6453 23.0875C12.6453 21.9535 13.5643 21.0342 14.6986 21.0342C15.8326 21.0342 16.752 21.9535 16.752 23.0875Z" fill="white"/>
<path d="M29.329 22.2971H18.9404C18.5914 22.2971 18.3083 22.0143 18.3083 21.6657C18.3083 21.317 18.5914 21.0342 18.9404 21.0342H29.329C29.6777 21.0342 29.9605 21.317 29.9605 21.6657C29.9605 22.0143 29.6777 22.2971 29.329 22.2971Z" fill="white"/>
<path d="M29.329 25.1682H18.9404C18.5914 25.1682 18.3083 24.8854 18.3083 24.5367C18.3083 24.1878 18.5914 23.9053 18.9404 23.9053H29.329C29.6777 23.9053 29.9605 24.1878 29.9605 24.5367C29.9605 24.8854 29.6777 25.1682 29.329 25.1682Z" fill="white"/>
<path d="M16.752 29.3219C16.752 30.4559 15.8326 31.3753 14.6986 31.3753C13.5643 31.3753 12.6453 30.4559 12.6453 29.3219C12.6453 28.1879 13.5643 27.2686 14.6986 27.2686C15.8326 27.2686 16.752 28.1879 16.752 29.3219Z" fill="white"/>
<path d="M29.329 28.5315H18.9404C18.5914 28.5315 18.3083 28.2487 18.3083 27.9C18.3083 27.5511 18.5914 27.2686 18.9404 27.2686H29.329C29.6777 27.2686 29.9605 27.5511 29.9605 27.9C29.9605 28.2487 29.6777 28.5315 29.329 28.5315Z" fill="white"/>
<path d="M29.329 31.4026H18.9404C18.5914 31.4026 18.3083 31.1198 18.3083 30.7711C18.3083 30.4224 18.5914 30.1396 18.9404 30.1396H29.329C29.6777 30.1396 29.9605 30.4224 29.9605 30.7711C29.9605 31.1198 29.6777 31.4026 29.329 31.4026Z" fill="white"/>
<path d="M17.8869 73.0733H10.5542C8.06729 73.0733 6.05127 71.0576 6.05127 68.5707V61.238C6.05127 58.7514 8.06729 56.7354 10.5542 56.7354H17.8869C20.3738 56.7354 22.3898 58.7514 22.3898 61.238V68.5707C22.3898 71.0576 20.3738 73.0733 17.8869 73.0733Z" fill="#7391FF"/>
<path d="M16.54 61.1719C17.0412 61.6057 17.2917 62.2281 17.2917 63.0395C17.2917 63.7954 17.0471 64.3881 16.5579 64.8177C16.0686 65.2475 15.414 65.4703 14.5947 65.4862V66.5481H12.6734V64.1732H13.4729C14.0458 64.1732 14.4912 64.0917 14.8094 63.9288C15.1275 63.7657 15.2867 63.4733 15.2867 63.0513C15.2867 62.781 15.2112 62.5703 15.0602 62.419C14.9089 62.268 14.7061 62.1922 14.4513 62.1922C14.1652 62.1922 13.9403 62.2779 13.7772 62.4487C13.614 62.6201 13.5326 62.8367 13.5326 63.0991H11.6113C11.5952 62.6221 11.6967 62.1863 11.9156 61.7923C12.1342 61.3987 12.4664 61.0885 12.9118 60.8617C13.3575 60.6349 13.8945 60.5215 14.5232 60.5215C15.3665 60.5215 16.0387 60.7384 16.54 61.1719ZM14.7022 69.5674H12.5779V67.5265H14.7022V69.5674Z" fill="white"/>
<path d="M58.6824 15.2147H49.3155C46.1389 15.2147 43.5632 12.6396 43.5632 9.46277V5.75198C43.5632 2.5751 46.1389 0 49.3155 0H58.6824C61.859 0 64.4344 2.5751 64.4344 5.75198V9.46277C64.4344 12.6396 61.859 15.2147 58.6824 15.2147Z" fill="#7391FF"/>
<path d="M59.7455 7.60687C59.7455 8.45015 59.062 9.13366 58.2187 9.13366C57.3754 9.13366 56.6919 8.45015 56.6919 7.60687C56.6919 6.76359 57.3754 6.08008 58.2187 6.08008C59.062 6.08008 59.7455 6.76359 59.7455 7.60687Z" fill="white"/>
<path d="M55.5257 7.60687C55.5257 8.45015 54.8422 9.13366 53.999 9.13366C53.1557 9.13366 52.4722 8.45015 52.4722 7.60687C52.4722 6.76359 53.1557 6.08008 53.999 6.08008C54.8422 6.08008 55.5257 6.76359 55.5257 7.60687Z" fill="white"/>
<path d="M51.3061 7.60687C51.3061 8.45015 50.6226 9.13366 49.7794 9.13366C48.9361 9.13366 48.2526 8.45015 48.2526 7.60687C48.2526 6.76359 48.9361 6.08008 49.7794 6.08008C50.6226 6.08008 51.3061 6.76359 51.3061 7.60687Z" fill="white"/>
</svg>
