<svg xmlns="http://www.w3.org/2000/svg" xmlns:xlink="http://www.w3.org/1999/xlink" width="28.348" height="30.287" viewBox="0 0 28.348 30.287"><defs><clipPath id="a"><rect width="28.348" height="30.287" fill="none"/></clipPath></defs><g clip-path="url(#a)"><g transform="translate(-30 -336.689)"><path d="M103.811,390.346c3.586-1.969,6.329-3.469,6.563-3.586.75-.4,1.524-1.453,0-2.274-.492-.258-3.141-1.711-6.563-3.586L99.1,385.635Z" transform="translate(-52.903 -33.848)" fill="#fefefe"/><path d="M49.949,401.1,34.9,416.266a2,2,0,0,0,1.219-.3c.984-.539,11.439-6.259,18.541-10.15L49.949,401.1Z" transform="translate(-3.751 -49.313)" fill="#eef5ff"/><path d="M49.872,351.787l4.711-4.735s-17.486-9.54-18.541-10.1a1.833,1.833,0,0,0-1.242-.234Z" transform="translate(-3.675)" fill="#ecf3fe"/><path d="M46.2,351.872,31.125,336.8c-.609.141-1.125.68-1.125,1.781v26.675c0,1.008.4,1.735,1.149,1.8Z" transform="translate(0 -0.085)" fill="#bad7fa"/></g></g></svg>