<svg width="30" height="38" viewBox="0 0 30 38" fill="none" xmlns="http://www.w3.org/2000/svg">
<path opacity="0.3" d="M22.8948 15.0006C22.8948 10.2164 18.9948 6.31641 14.2106 6.31641C9.42637 6.31641 5.52637 10.2164 5.52637 15.0006C5.52637 18.9006 7.879 21.1427 9.23689 22.1059H19.1843C20.5422 21.1427 22.8948 18.9006 22.8948 15.0006Z" fill="#FF6600"/>
<path d="M11.0529 31.5793H17.3687C17.3687 33.3161 15.9476 34.7372 14.2108 34.7372C12.4739 34.7372 11.0529 33.3161 11.0529 31.5793ZM7.89497 30.0003H20.5265V26.8424H7.89497V30.0003ZM26.0529 15.0003C26.0529 21.0319 21.8529 24.2529 20.1002 25.2635H8.32128C6.56865 24.2529 2.36865 21.0319 2.36865 15.0003C2.36865 8.46347 7.67392 3.1582 14.2108 3.1582C20.7476 3.1582 26.0529 8.46347 26.0529 15.0003ZM22.895 15.0003C22.895 10.2161 18.995 6.3161 14.2108 6.3161C9.42655 6.3161 5.52655 10.2161 5.52655 15.0003C5.52655 18.9003 7.87918 21.1424 9.23707 22.1056H19.1844C20.5423 21.1424 22.895 18.9003 22.895 15.0003Z" fill="#FF6600"/>
</svg>
