<svg width="30" height="18" viewBox="0 0 30 18" fill="none" xmlns="http://www.w3.org/2000/svg">
<path d="M8.93934 0.364389L0 9.00375L8.93934 17.6431C9.18299 17.8778 9.50989 18.0061 9.84813 17.9998C10.1864 17.9934 10.5083 17.853 10.743 17.6094C10.9777 17.3657 11.1059 17.0388 11.0996 16.7006C11.0933 16.3623 10.9529 16.0404 10.7092 15.8057L3.66723 9.00375L10.7092 2.19425C10.9529 1.95956 11.0933 1.63768 11.0996 1.29944C11.1059 0.961193 10.9777 0.634287 10.743 0.390638C10.5083 0.146988 10.1864 0.00655174 9.84813 0.00022316C9.50989 -0.00610542 9.18299 0.12219 8.93934 0.35689V0.364389Z" fill="#264653"/>
<path d="M17.9393 0.364389L9 9.00375L17.9393 17.6431C18.183 17.8778 18.5099 18.0061 18.8481 17.9998C19.1864 17.9934 19.5083 17.853 19.743 17.6094C19.9777 17.3657 20.1059 17.0388 20.0996 16.7006C20.0933 16.3623 19.9529 16.0404 19.7092 15.8057L12.6672 9.00375L19.7092 2.19425C19.9529 1.95956 20.0933 1.63768 20.0996 1.29944C20.1059 0.961193 19.9777 0.634289 19.743 0.390638C19.5083 0.146988 19.1864 0.00655174 18.8481 0.00022316C18.5099 -0.00610542 18.183 0.12219 17.9393 0.35689V0.364389Z" fill="url(#paint0_linear_2292:2899)"/>
<path d="M26.9393 0.364389L18 9.00375L26.9393 17.6431C27.183 17.8778 27.5099 18.0061 27.8481 17.9998C28.1864 17.9934 28.5083 17.853 28.743 17.6094C28.9777 17.3657 29.1059 17.0388 29.0996 16.7006C29.0933 16.3623 28.9529 16.0404 28.7092 15.8057L21.6672 9.00375L28.7092 2.19425C28.9529 1.95956 29.0933 1.63768 29.0996 1.29944C29.1059 0.961193 28.9777 0.634287 28.743 0.390638C28.5083 0.146988 28.1864 0.00655174 27.8481 0.00022316C27.5099 -0.00610542 27.183 0.12219 26.9393 0.35689V0.364389Z" fill="url(#paint1_linear_2292:2899)"/>
<defs>
<linearGradient id="paint0_linear_2292:2899" x1="9" y1="9" x2="20.0998" y2="9" gradientUnits="userSpaceOnUse">
<stop stop-color="#264653"/>
<stop offset="1" stop-color="#264653" stop-opacity="0.53"/>
</linearGradient>
<linearGradient id="paint1_linear_2292:2899" x1="18" y1="9" x2="29.0998" y2="9" gradientUnits="userSpaceOnUse">
<stop stop-color="#264653" stop-opacity="0.83"/>
<stop offset="1" stop-color="#264653" stop-opacity="0"/>
</linearGradient>
</defs>
</svg>
