<svg width="118" height="101" viewBox="0 0 118 101" fill="none" xmlns="http://www.w3.org/2000/svg">
<path d="M79.7487 4.25332C79.7487 4.25332 63.7044 24.576 38.0337 12.4537C12.3629 0.331343 -13.308 33.133 8.79747 53.0991C30.9029 73.0652 9.2711 84.0366 24.2886 96.2731C41.3571 110.181 56.2171 81.9788 69.7656 88.3965C99.6677 102.561 121.82 96.9534 116.829 80.5526C108.067 51.7632 96.8625 49.8903 105.419 34.9156C113.976 19.941 95.0911 -11.195 79.7487 4.25332Z" fill="#DEE9FF"/>
<path d="M71.0137 60.4606L69.7462 67.2657L63.7088 99.6149L52.8335 97.5843L59.8067 60.2153L60.1383 58.4346L71.0137 60.4606Z" fill="#699CFF"/>
<path d="M97.7973 44.1864L94.0473 64.2909C94.0363 64.3498 94.0138 64.406 93.9811 64.4562C93.9484 64.5065 93.9061 64.5498 93.8566 64.5836C93.8072 64.6175 93.7515 64.6413 93.6929 64.6537C93.6342 64.6661 93.5737 64.6668 93.5148 64.6557L40.8301 54.8295L47.0311 21.582L87.0378 29.0438C94.2889 30.3959 99.1051 37.1741 97.7973 44.1864Z" fill="#A2BDFF"/>
<path d="M58.2838 37.4397L54.5631 57.3882L26.9087 52.2304L30.6293 32.2819C31.9992 24.9371 39.3006 20.1375 46.937 21.5618C54.5734 22.986 59.6537 30.0948 58.2838 37.4397Z" fill="#699CFF"/>
<path d="M71.1584 46.765C69.1205 46.3849 67.7759 44.4043 68.1596 42.3475C68.5434 40.2907 70.5113 38.9275 72.5492 39.3078C73.1989 39.4298 73.8046 39.7217 74.3048 40.1538C74.805 40.5859 75.1818 41.1428 75.397 41.7678L101.139 46.569L100.444 50.2977L74.7016 45.4965C74.2756 46.002 73.7234 46.3857 73.101 46.6085C72.4786 46.8313 71.8084 46.8853 71.1584 46.765Z" fill="#418DF9"/>
<path d="M57.3665 37.8063L53.7414 57.2421L27.6899 52.3832L31.3152 32.9473C32.6498 25.7914 39.5639 21.0778 46.7577 22.4196C53.9516 23.7613 58.7011 30.6503 57.3665 37.8063Z" fill="#418DF9"/>
<path d="M71.8882 44.8809C72.9356 44.8809 73.7848 44.0318 73.7848 42.9844C73.7848 41.937 72.9356 41.0879 71.8882 41.0879C70.8408 41.0879 69.9917 41.937 69.9917 42.9844C69.9917 44.0318 70.8408 44.8809 71.8882 44.8809Z" fill="white"/>
<path d="M101.437 46.5557L99.1626 58.7475C99.1528 58.8 99.1226 58.8465 99.0785 58.8767C99.0345 58.9069 98.9802 58.9184 98.9277 58.9086L92.9502 57.7937C92.9399 57.7918 92.9307 57.7858 92.9247 57.7771C92.9188 57.7684 92.9165 57.7577 92.9184 57.7474L95.222 45.3966C95.224 45.3862 95.2299 45.3771 95.2386 45.3711C95.2473 45.3651 95.258 45.3629 95.2684 45.3648L101.405 46.5093C101.415 46.5112 101.424 46.5172 101.43 46.5259C101.436 46.5346 101.438 46.5453 101.437 46.5557Z" fill="#699CFF"/>
<path d="M36.311 45.4082C36.5627 47.2599 38.5946 49.4608 38.5946 49.4608C35.4985 49.6802 33.8217 47.9293 33.1002 46.8653C32.2082 47.1231 31.2914 47.2858 30.3651 47.3507C24.0088 47.8013 18.5369 43.6514 18.1418 38.0771C17.7466 32.5028 22.5784 27.6226 28.9348 27.1721C35.2911 26.7217 40.7626 30.8713 41.1577 36.4457C41.4147 40.0715 39.4582 43.4043 36.311 45.4082Z" fill="white"/>
<path d="M54.5902 57.4C54.3024 58.1285 49.0386 79.8332 32.0047 76.6562C13.326 73.4939 26.8368 52.2236 26.8368 52.2236L54.5902 57.4Z" fill="#A2BDFF"/>
<path d="M29.6497 39.1745C30.5226 39.1745 31.2301 38.4669 31.2301 37.5941C31.2301 36.7212 30.5226 36.0137 29.6497 36.0137C28.7769 36.0137 28.0693 36.7212 28.0693 37.5941C28.0693 38.4669 28.7769 39.1745 29.6497 39.1745Z" fill="#699CFF"/>
<path d="M22.5743 38.4845C23.4524 38.4845 24.1642 37.7727 24.1642 36.8946C24.1642 36.0165 23.4524 35.3047 22.5743 35.3047C21.6962 35.3047 20.9844 36.0165 20.9844 36.8946C20.9844 37.7727 21.6962 38.4845 22.5743 38.4845Z" fill="#699CFF"/>
<path d="M36.6568 39.8478C37.5349 39.8478 38.2467 39.136 38.2467 38.2579C38.2467 37.3798 37.5349 36.668 36.6568 36.668C35.7787 36.668 35.0669 37.3798 35.0669 38.2579C35.0669 39.136 35.7787 39.8478 36.6568 39.8478Z" fill="#699CFF"/>
<path d="M71.0137 60.4606L69.7462 67.2658L59.8066 60.2153L60.1382 58.4346L71.0137 60.4606Z" fill="#418DF9"/>
</svg>
