<svg width="126" height="108" viewBox="0 0 126 108" fill="none" xmlns="http://www.w3.org/2000/svg">
<path d="M85.0515 5.11489C85.0515 5.11489 67.9291 26.8035 40.5333 13.8666C13.1375 0.929739 -14.2584 35.9355 9.33252 57.2433C32.9234 78.5511 9.83795 90.2598 25.8646 103.318C44.08 118.161 59.9386 88.0635 74.3975 94.9125C106.309 110.028 129.95 104.044 124.623 86.5416C115.272 55.8176 103.316 53.8191 112.447 37.8379C121.579 21.8568 101.425 -11.3712 85.0515 5.11489Z" fill="#DEE9FF"/>
<path d="M62.5949 51.4739V96.9763L27.2661 81.7168L27.4346 36.3789L62.5949 51.4739Z" fill="#418DF9"/>
<path d="M62.5957 51.5004V97.0029L97.7527 82.2704V36.5234L62.5957 51.5004Z" fill="#A2BDFF"/>
<path d="M62.5949 51.4734L97.9238 36.676L62.8724 21.1387L27.2661 36.3061L62.5949 51.4734Z" fill="#0E84E5"/>
<path d="M17.6183 44.4238L53.1722 61.6813C53.2677 61.7277 53.3759 61.7414 53.48 61.7203C53.5841 61.6993 53.6784 61.6446 53.7484 61.5647L62.5949 51.474L27.266 36.3066L17.5392 43.5998C17.4727 43.6497 17.4201 43.7158 17.3865 43.7918C17.353 43.8679 17.3395 43.9513 17.3474 44.034C17.3554 44.1168 17.3845 44.1961 17.4319 44.2643C17.4793 44.3326 17.5435 44.3875 17.6183 44.4238Z" fill="#699CFF"/>
<path d="M97.9236 36.6758L107.735 45.5466C107.795 45.6007 107.841 45.6689 107.868 45.745C107.894 45.8211 107.902 45.9027 107.889 45.9824C107.877 46.0621 107.844 46.1374 107.795 46.2014C107.746 46.2654 107.682 46.3162 107.608 46.3491L72.4925 62.0211C72.3987 62.0629 72.2941 62.0739 72.1937 62.0525C72.0932 62.0311 72.0022 61.9783 71.9337 61.9018L62.5947 51.4732L97.9236 36.6758Z" fill="#699CFF"/>
<path d="M62.8721 21.1392L98.0218 36.6765L103.077 35.5049C103.176 35.4818 103.266 35.428 103.333 35.3511C103.4 35.2742 103.441 35.1781 103.45 35.0764C103.459 34.9748 103.436 34.8729 103.384 34.7851C103.332 34.6974 103.254 34.6283 103.16 34.5878L71.0642 20.6806C70.994 20.6501 70.9176 20.6368 70.8413 20.6416L62.8721 21.1392Z" fill="#699CFF"/>
<path d="M62.8725 21.1389L27.9198 36.3787L23.5014 35.6362C23.3991 35.6171 23.3056 35.5656 23.2348 35.4893C23.1641 35.413 23.1197 35.316 23.1084 35.2125C23.097 35.1091 23.1192 35.0047 23.1718 34.9149C23.2243 34.8251 23.3043 34.7545 23.4 34.7137L56.2893 20.5397C56.362 20.5088 56.4411 20.4961 56.5198 20.5027L62.8725 21.1389Z" fill="#699CFF"/>
</svg>
