<svg width="104" height="101" viewBox="0 0 104 101" fill="none" xmlns="http://www.w3.org/2000/svg">
<path d="M54.8666 9.90277C54.8666 9.90277 57.5634 27.2448 86.6331 27.7234C112.45 28.1485 104.245 58.8547 95.0807 68.51C83.2097 81.0176 59.9448 77.7457 58.7237 92.304C57.5027 106.862 24.7047 101.21 25.2633 79.2603C25.9582 51.9553 11.0019 60.2581 3.43023 52.9543C-2.00397 47.7124 -0.136096 23.4474 17.0884 20.6694C31.5825 18.3318 30.831 12.1909 31.9834 7.64489C33.6452 1.08854 50.4477 -4.85056 54.8666 9.90277Z" fill="#DEE9FF"/>
<path d="M82.214 71.6348C82.2155 72.0754 82.13 72.512 81.9625 72.9195C81.7949 73.327 81.5486 73.6974 81.2377 74.0096C80.9267 74.3217 80.5572 74.5694 80.1503 74.7385C79.7434 74.9075 79.3072 74.9946 78.8666 74.9948L25.1747 75.1039C24.7342 75.105 24.2978 75.0193 23.8905 74.8516C23.4831 74.6839 23.1128 74.4376 22.8008 74.1267C22.4887 73.8158 22.241 73.4464 22.0718 73.0397C21.9026 72.633 21.8152 72.1969 21.8147 71.7564L21.7393 34.0043L51.4586 15.3463C51.5916 15.2624 51.7454 15.2175 51.9026 15.2168C52.0598 15.2161 52.2141 15.2595 52.3479 15.3421L81.4422 33.4504L82.1385 33.8825V34.4865L82.214 71.6348Z" fill="#208AF2"/>
<path d="M77.8332 18.5957H25.725C25.6007 18.5957 25.5 18.6964 25.5 18.8207V74.5794C25.5 74.7037 25.6007 74.8044 25.725 74.8044H77.8332C77.9575 74.8044 78.0582 74.7037 78.0582 74.5794V18.8207C78.0582 18.6964 77.9575 18.5957 77.8332 18.5957Z" fill="#699CFF"/>
<path d="M78.8132 74.9414L52.1633 54.622C52.1419 54.6056 52.1246 54.5844 52.1129 54.56C52.1013 54.5357 52.0956 54.5089 52.0962 54.4819C52.0969 54.455 52.104 54.4285 52.1169 54.4048C52.1298 54.3811 52.1482 54.3608 52.1704 54.3456L81.8704 34.0463C81.896 34.0288 81.9259 34.0186 81.9569 34.0169C81.9878 34.0151 82.0187 34.0218 82.0461 34.0363C82.0735 34.0507 82.0965 34.0723 82.1125 34.0989C82.1286 34.1254 82.1371 34.1558 82.1371 34.1868L82.2121 71.6166C82.2139 72.4958 81.8705 73.3407 81.2558 73.9694C80.6411 74.598 79.8042 74.9603 78.9251 74.9783C78.8847 74.9789 78.8453 74.9659 78.8132 74.9414Z" fill="#A2BDFF"/>
<path d="M25.2199 75.0485L51.7884 54.6229C51.8098 54.6065 51.8269 54.5852 51.8385 54.5608C51.8501 54.5364 51.8557 54.5096 51.8549 54.4826C51.8541 54.4556 51.8469 54.4292 51.8339 54.4056C51.8209 54.3819 51.8025 54.3617 51.7801 54.3465L21.9996 34.166C21.9739 34.1487 21.944 34.1386 21.913 34.137C21.8821 34.1353 21.8513 34.1421 21.8239 34.1567C21.7965 34.1712 21.7737 34.1929 21.7577 34.2195C21.7418 34.2461 21.7334 34.2765 21.7334 34.3075L21.8084 71.7373C21.8102 72.6165 22.1569 73.4599 22.774 74.0861C23.3911 74.7123 24.2293 75.0713 25.1084 75.0859C25.1487 75.0863 25.188 75.0731 25.2199 75.0485Z" fill="#A2BDFF"/>
<path d="M78.8626 74.9794L25.1708 75.0868C24.3586 75.0861 23.574 74.7916 22.962 74.2576C22.3499 73.7236 21.9517 72.9862 21.8408 72.1816C21.8226 72.0444 21.8385 71.9048 21.887 71.7752C21.9356 71.6456 22.0154 71.53 22.1194 71.4386L51.4031 45.5309C51.5561 45.3956 51.7531 45.3207 51.9573 45.3203C52.1615 45.3199 52.3589 45.394 52.5124 45.5287L81.8992 71.3191C82.0035 71.41 82.0838 71.5253 82.1329 71.6547C82.182 71.7841 82.1984 71.9236 82.1807 72.0609C82.0731 72.8659 81.6779 73.6049 81.068 74.1413C80.4582 74.6777 79.6748 74.9754 78.8626 74.9794Z" fill="#418DF9"/>
<path d="M38.8383 32.4378C39.8808 32.4378 40.7259 31.311 40.7259 29.9211C40.7259 28.5311 39.8808 27.4043 38.8383 27.4043C37.7958 27.4043 36.9507 28.5311 36.9507 29.9211C36.9507 31.311 37.7958 32.4378 38.8383 32.4378Z" fill="white"/>
<path d="M65.265 32.4378C66.3075 32.4378 67.1526 31.311 67.1526 29.9211C67.1526 28.5311 66.3075 27.4043 65.265 27.4043C64.2225 27.4043 63.3774 28.5311 63.3774 29.9211C63.3774 31.311 64.2225 32.4378 65.265 32.4378Z" fill="white"/>
<path d="M59.1831 40.7834C59.1194 40.7835 59.0567 40.7673 59.001 40.7365C58.9453 40.7056 58.8984 40.6611 58.8646 40.6071C58.8449 40.5758 56.792 37.4046 52.0206 37.0071C50.0347 36.8417 48.15 37.3947 46.4212 38.6513C45.6501 39.205 44.9652 39.8697 44.3887 40.6238C44.3313 40.7046 44.2444 40.7593 44.1468 40.7762C44.0492 40.793 43.9489 40.7706 43.8678 40.7137C43.7867 40.6569 43.7314 40.5703 43.7139 40.4728C43.6964 40.3753 43.7182 40.2749 43.7745 40.1934C43.806 40.1484 44.5604 39.082 45.9579 38.0608C47.8155 36.7033 49.9337 36.0808 52.0828 36.2595C57.2444 36.6896 59.4109 40.0662 59.5003 40.2097C59.5358 40.2664 59.5554 40.3316 59.5572 40.3985C59.559 40.4654 59.5429 40.5315 59.5105 40.5901C59.478 40.6486 59.4306 40.6975 59.3729 40.7315C59.3153 40.7655 59.2496 40.7834 59.1827 40.7835L59.1831 40.7834Z" fill="white"/>
</svg>
