<svg width="124" height="138" viewBox="0 0 124 138" fill="none" xmlns="http://www.w3.org/2000/svg">
<path d="M117.297 46.2054C117.297 46.2054 98.7004 61.8803 118.501 96.8994C136.086 128 94.0641 140.27 76.2379 136.276C53.1457 131.101 40.7115 101 22.6582 110.002C4.60496 119.003 -11.6965 75.8209 14.6246 60.7189C47.3671 41.9325 27.0806 30.0568 30.404 15.7782C32.789 5.53042 62.7623 -9.67301 78.1114 8.87725C91.0274 24.4869 97.7551 19.1791 103.932 17.2878C112.842 14.5599 131.63 30.3359 117.297 46.2054Z" fill="#DEE9FF"/>
<path d="M98.4863 23.2157L58.359 16.6403C55.4159 16.158 52.6391 18.1529 52.1569 21.096L38.2774 105.797C37.7951 108.74 39.79 111.517 42.7331 111.999L82.8604 118.575C85.8035 119.057 88.5803 117.062 89.0625 114.119L102.942 29.4179C103.424 26.4748 101.429 23.698 98.4863 23.2157Z" fill="#0E84E5"/>
<path d="M97.1666 25.603L58.8474 19.3238C56.8854 19.0023 55.0342 20.3323 54.7127 22.2943L41.0819 105.478C40.7604 107.44 42.0904 109.291 44.0524 109.612L82.3716 115.891C84.3336 116.213 86.1848 114.883 86.5063 112.921L100.137 29.7377C100.459 27.7757 99.1287 25.9245 97.1666 25.603Z" fill="#699CFF"/>
<path d="M120.003 16.6057C117.088 15.3878 115.028 16.5561 114.541 17.7221C114.189 18.5643 114.739 19.2507 115.322 19.4943C116.488 19.9814 116.708 18.1202 118.91 19.0403C119.99 19.4913 120.655 20.3273 120.24 21.3207C119.752 22.4868 118.264 22.6511 117.298 22.958C116.447 23.2362 115.256 23.7789 114.481 25.6359C114.011 26.7588 114.178 27.2089 115.064 27.5788C116.121 28.0208 116.536 27.636 116.707 27.2257C117.176 26.1027 117.469 25.4639 119.044 25.0316C119.817 24.8217 122.265 24.12 123.113 22.0902C123.961 20.0604 122.767 17.7604 120.003 16.6057Z" fill="#0E84E5"/>
<path d="M114.462 29.0778C114.023 28.8999 113.53 28.9026 113.093 29.0853C112.655 29.268 112.307 29.616 112.124 30.0537C111.941 30.4914 111.938 30.9836 112.116 31.4235C112.293 31.8634 112.637 32.2154 113.073 32.4033C113.513 32.5845 114.008 32.584 114.448 32.4019C114.888 32.2198 115.238 31.8709 115.421 31.4315C115.605 30.992 115.607 30.4978 115.427 30.0568C115.248 29.6158 114.901 29.2638 114.462 29.0778Z" fill="#0E84E5"/>
<path d="M65.1777 55.3203C65.4408 53.701 64.9734 52.2777 64.1337 52.1413C63.2941 52.0049 62.4001 53.207 62.1371 54.8263C61.874 56.4456 62.3415 57.8689 63.1811 58.0053C64.0208 58.1417 64.9147 56.9395 65.1777 55.3203Z" fill="white"/>
<path d="M82.6866 58.1944C82.9523 56.559 82.487 55.1227 81.6473 54.9863C80.8076 54.8499 79.9116 56.0651 79.6459 57.7005C79.3802 59.3359 79.8456 60.7722 80.6852 60.9086C81.5249 61.045 82.4209 59.8298 82.6866 58.1944Z" fill="white"/>
<path d="M75.5395 72.2922C75.4785 72.2923 75.418 72.28 75.3619 72.2559C75.3058 72.2318 75.2552 72.1965 75.2132 72.1522L74.5799 71.4855C73.564 70.4189 72.2259 69.7157 70.7713 69.4839C69.3167 69.2522 67.8262 69.5047 66.5292 70.2027L65.7201 70.6396C65.6681 70.6676 65.611 70.6852 65.5523 70.6912C65.4935 70.6973 65.4341 70.6917 65.3774 70.6748C65.3208 70.6579 65.2681 70.63 65.2222 70.5927C65.1764 70.5554 65.1383 70.5094 65.1102 70.4574C65.0822 70.4054 65.0646 70.3484 65.0585 70.2896C65.0525 70.2308 65.0581 70.1714 65.075 70.1147C65.0919 70.0581 65.1198 70.0054 65.1571 69.9595C65.1944 69.9137 65.2404 69.8756 65.2924 69.8476L66.1015 69.4107C67.5726 68.619 69.263 68.3326 70.9128 68.5954C72.5625 68.8583 74.0802 69.6559 75.2324 70.8655L75.8657 71.5323C75.9263 71.5961 75.9668 71.6763 75.9823 71.7629C75.9978 71.8495 75.9876 71.9388 75.9529 72.0196C75.9182 72.1005 75.8605 72.1694 75.787 72.2178C75.7136 72.2663 75.6275 72.2921 75.5395 72.2921V72.2922Z" fill="white"/>
</svg>
