<svg width="119" height="123" viewBox="0 0 119 123" fill="none" xmlns="http://www.w3.org/2000/svg">
<path d="M13.2122 54.0514C13.2122 54.0514 33.9824 53.2196 38.4708 19.078C42.4567 -11.2431 77.4805 2.55793 87.6046 14.6446C100.72 30.3019 93.7284 57.2358 110.694 60.6383C127.66 64.0408 116.581 101.871 90.8279 98.2499C58.7921 93.7456 66.5429 112.466 56.926 120.389C50.0241 126.076 21.7238 120.601 20.7806 99.9585C19.9869 82.5877 12.6596 82.6428 7.46588 80.6731C-0.0245956 77.8324 -4.74442 57.2591 13.2122 54.0514Z" fill="#DEE9FF"/>
<path d="M83.8191 91.9686L63.4131 71.8047L59.3724 75.8939L79.7784 96.0578L83.8191 91.9686Z" fill="#699CFF"/>
<path d="M91.6141 97.3857L75.7382 81.6982C75.6498 81.6108 75.5073 81.6117 75.42 81.7001L69.411 87.7812C69.3237 87.8696 69.3246 88.012 69.4129 88.0994L85.2889 103.787C85.3773 103.874 85.5198 103.873 85.6071 103.785L91.616 97.7039C91.7034 97.6155 91.7025 97.4731 91.6141 97.3857Z" fill="#0E84E5"/>
<path d="M45.3271 81.9452C59.3658 81.9452 70.7464 70.5645 70.7464 56.5258C70.7464 42.4871 59.3658 31.1064 45.3271 31.1064C31.2884 31.1064 19.9077 42.4871 19.9077 56.5258C19.9077 70.5645 31.2884 81.9452 45.3271 81.9452Z" fill="#0E84E5"/>
<path d="M45.3269 77.7973C57.075 77.7973 66.5986 68.2737 66.5986 56.5256C66.5986 44.7776 57.075 35.2539 45.3269 35.2539C33.5789 35.2539 24.0552 44.7776 24.0552 56.5256C24.0552 68.2737 33.5789 77.7973 45.3269 77.7973Z" fill="#D4E5FF"/>
<path d="M88.3013 33.5469C82.3388 31.6142 75.8951 34.8829 73.9546 40.87C72.022 46.8325 75.2906 53.2761 81.2777 55.2166C87.2648 57.157 93.6917 53.8563 95.6247 47.8935C97.5578 41.9307 94.2641 35.4795 88.3013 33.5469ZM86.5022 39.0976C87.1695 39.314 87.7577 39.7237 88.1919 40.2747C88.6261 40.8258 88.8869 41.4934 88.9412 42.1928C88.9955 42.8923 88.8408 43.5922 88.4968 44.2036C88.1527 44.8151 87.6349 45.3106 87.0088 45.6273C86.3828 45.944 85.6768 46.0676 84.9804 45.9825C84.284 45.8974 83.6286 45.6074 83.0972 45.1492C82.5659 44.6911 82.1825 44.0855 81.9959 43.4092C81.8092 42.7329 81.8276 42.0164 82.0487 41.3506C82.6458 39.5084 84.6597 38.5006 86.5022 39.0976ZM82.0005 52.9866C80.0196 52.3478 78.3223 51.0402 77.1995 49.2877C79.3007 48.0937 81.4977 47.7612 83.4854 48.4054C85.473 49.0497 87.0893 50.5913 88.0586 52.8073C86.1211 53.5679 83.9795 53.6313 82.0005 52.9866Z" fill="#418DF9"/>
<path d="M38.6735 87.8798C37.6379 88.4085 36.7822 89.2323 36.2148 90.2473C35.6474 91.2622 35.3937 92.4226 35.4857 93.5817C35.5778 94.7409 36.0115 95.8467 36.7321 96.7593C37.4526 97.6719 38.4276 98.3504 39.5337 98.7089C40.6398 99.0674 41.8274 99.0899 42.9463 98.7734C44.0652 98.457 45.0651 97.8159 45.8197 96.9311C46.5742 96.0464 47.0494 94.9578 47.1852 93.803C47.321 92.6481 47.1114 91.479 46.5827 90.4433C45.8726 89.0558 44.641 88.0066 43.1583 87.526C41.6755 87.0454 40.0626 87.1727 38.6735 87.8798ZM40.0429 90.5624C40.3655 90.3978 40.7297 90.3326 41.0893 90.3752C41.4489 90.4178 41.7878 90.5663 42.063 90.8018C42.3381 91.0373 42.5371 91.3492 42.6347 91.698C42.7323 92.0468 42.7241 92.4167 42.6112 92.7608C42.4983 93.1049 42.2857 93.4077 42.0004 93.6308C41.7151 93.8539 41.37 93.9873 41.0088 94.0139C40.6477 94.0406 40.2867 93.9594 39.9717 93.7807C39.6568 93.6019 39.402 93.3336 39.2397 93.0098C39.0247 92.5782 38.9884 92.0793 39.1387 91.6211C39.2891 91.1629 39.6139 90.7825 40.0429 90.5622V90.5624ZM43.4691 97.2749C42.513 97.7648 41.4162 97.907 40.3667 97.6772C40.6979 96.4745 41.3784 95.5512 42.3392 95.0609C43.3001 94.5705 44.4524 94.5434 45.615 94.9983C45.1854 95.983 44.4268 96.7877 43.4691 97.2746V97.2749Z" fill="#418DF9"/>
</svg>
