<svg xmlns="http://www.w3.org/2000/svg" width="50" height="50" viewBox="0 0 50 50"><g transform="translate(-316 39.268)"><path d="M10.314,15.29a.83.83,0,0,1,0-1.635H19.4a.83.83,0,0,1,0,1.635ZM25.3,15.266v1.089a.191.191,0,0,1-.16.189,1.234,1.234,0,0,0-.261.046,4.161,4.161,0,0,0-.484.123,3.616,3.616,0,0,0-.847.389,3.1,3.1,0,0,0-.356.259,2.862,2.862,0,0,0-.307.3,2.831,2.831,0,0,0-.266.343,2.97,2.97,0,0,0-.484,1.693,4.92,4.92,0,0,0,.027.515,3.87,3.87,0,0,0,.085.464,2.9,2.9,0,0,0,.14.409,2.276,2.276,0,0,0,.191.356l.015.022a3.278,3.278,0,0,0,.537.612,4.129,4.129,0,0,0,.336.278,4.324,4.324,0,0,0,.375.242c.264.143.566.317.837.438l.462.218.687.3c.116.058.213.106.327.169l.143.094c.041.029.077.058.109.085a.842.842,0,0,1,.092.094l.068.087a.8.8,0,0,1,.07.126.631.631,0,0,1,.039.1h0a.916.916,0,0,1,.034.128h0a1.107,1.107,0,0,1,.019.16v.29a1.583,1.583,0,0,1-.044.213.989.989,0,0,1-.082.186.726.726,0,0,1-.143.167l-.082.06a.791.791,0,0,1-.223.087h0a1.161,1.161,0,0,1-.51.024,1.287,1.287,0,0,1-.435-.155.922.922,0,0,1-.09-.065l-.09-.08a.779.779,0,0,1-.08-.092.985.985,0,0,1-.07-.1c-.022-.039-.046-.082-.065-.123a1.179,1.179,0,0,1-.051-.128h0a1.178,1.178,0,0,1-.044-.148h0a1.612,1.612,0,0,1-.031-.174c0-.058-.015-.123-.019-.191h0v-.213a.107.107,0,0,0-.109-.106H21.826a.106.106,0,0,0-.075.031.1.1,0,0,0-.031.075,3.912,3.912,0,0,0,.022.518c.022.16.039.319.068.484a3.326,3.326,0,0,0,.114.426,3.181,3.181,0,0,0,.152.385l.015.029a3.222,3.222,0,0,0,.194.348,3.719,3.719,0,0,0,.227.314,3.119,3.119,0,0,0,.256.278,2.826,2.826,0,0,0,.276.242l.022.017a3.481,3.481,0,0,0,.3.2c.106.065.215.123.329.179s.225.1.343.145.242.08.356.114.191.048.285.068.2.041.29.056a.189.189,0,0,1,.16.186v1.04a.66.66,0,0,0,.087.281c.019.036,0,.065.022.065H26.5a.106.106,0,0,0,.109-.109V28.145a.189.189,0,0,1,.157-.186l.16-.027a4.838,4.838,0,0,0,.484-.119,4.01,4.01,0,0,0,.847-.373A2.661,2.661,0,0,0,28.6,27.2h0a2.811,2.811,0,0,0,.312-.3,2.661,2.661,0,0,0,.266-.343,2.4,2.4,0,0,0,.213-.38,3.048,3.048,0,0,0,.152-.416,3.362,3.362,0,0,0,.09-.455,3.919,3.919,0,0,0,.031-.484,4.268,4.268,0,0,0-.029-.51,3.728,3.728,0,0,0-.087-.462,2.661,2.661,0,0,0-.148-.418,2.335,2.335,0,0,0-.2-.358h0a3.309,3.309,0,0,0-.242-.324,3.443,3.443,0,0,0-.3-.3,3.846,3.846,0,0,0-.324-.264c-.116-.085-.242-.167-.368-.242h-.017c-.128-.075-.264-.152-.409-.242s-.266-.145-.426-.225-.293-.148-.44-.218c-.242-.106-.464-.21-.694-.324l-.186-.1-.157-.092a2.976,2.976,0,0,1-.242-.179,1.229,1.229,0,0,1-.174-.2.513.513,0,0,1-.058-.1h0a.987.987,0,0,1-.041-.1,1.038,1.038,0,0,1-.031-.106,1.051,1.051,0,0,1-.017-.126v-.252a1.834,1.834,0,0,1,.044-.23l.039-.111a.563.563,0,0,1,.046-.094.583.583,0,0,1,.06-.085.726.726,0,0,1,.16-.148.783.783,0,0,1,.087-.048l.1-.034a.75.75,0,0,1,.128-.024,1.361,1.361,0,0,1,.14,0,.946.946,0,0,1,.184.017.866.866,0,0,1,.16.046h.012a.818.818,0,0,1,.15.082.827.827,0,0,1,.135.111l.015.015a.757.757,0,0,1,.121.169,1.226,1.226,0,0,1,.075.2v.024a1.983,1.983,0,0,1,.053.3c0,.106.017.227.019.358a.111.111,0,0,0,.024.07h0a.106.106,0,0,0,.075.031h2.714a.107.107,0,0,0,.106-.109,4.5,4.5,0,0,0-.031-.549,4.154,4.154,0,0,0-.09-.51,3.469,3.469,0,0,0-.148-.464,3.145,3.145,0,0,0-.2-.416l-.017-.031a3.29,3.29,0,0,0-.266-.385,2.959,2.959,0,0,0-.312-.339,3.041,3.041,0,0,0-.36-.36,3.413,3.413,0,0,0-.406-.242,3.979,3.979,0,0,0-.91-.327h-.053a.189.189,0,0,1-.157-.186V15.283a.116.116,0,0,0-.024-.07h0a.106.106,0,0,0-.077-.031H25.4a.111.111,0,0,0-.077.031.106.106,0,0,0-.031.075ZM18.7,27.305a.82.82,0,1,1,0,1.64H1.909A1.909,1.909,0,0,1,0,27.037V1.909A1.909,1.909,0,0,1,1.909,0H25.346a1.909,1.909,0,0,1,1.909,1.909v9.054a.82.82,0,0,1-1.64,0V1.909a.269.269,0,0,0-.08-.189.273.273,0,0,0-.189-.08H1.909a.288.288,0,0,0-.191.077.293.293,0,0,0-.077.191V27.034a.269.269,0,0,0,.269.269H18.7Zm-8.389-6a.847.847,0,0,1,0-1.662h7.143a.844.844,0,0,1,0,1.662Zm0-12.017a.762.762,0,0,1-.687-.822.76.76,0,0,1,.687-.818H19.4a.762.762,0,0,1,.677.818.76.76,0,0,1-.677.822ZM6.374,19.352a.968.968,0,1,1-.968.968A.968.968,0,0,1,6.374,19.352Zm0-5.924a.968.968,0,1,1-.968.968A.968.968,0,0,1,6.374,13.428Zm0-5.922a.968.968,0,1,1-.968.968A.968.968,0,0,1,6.374,7.506Z" transform="translate(326.585 -28.33)" fill="#fff" fill-rule="evenodd"/><g transform="translate(316 -39.268)" fill="none" stroke="#fff" stroke-width="2"><circle cx="25" cy="25" r="25" stroke="none"/><circle cx="25" cy="25" r="24" fill="none"/></g></g></svg>