<svg xmlns="http://www.w3.org/2000/svg" width="93.992" height="96.15" viewBox="0 0 93.992 96.15">
  <g id="pistacho" transform="translate(-67.575 -2.51)">
    <g id="mini_pistacho" data-name="mini pistacho" transform="matrix(-0.07, 0.998, -0.998, -0.07, 121.411, 51.91)">
      <path id="Path_320" data-name="Path 320" d="M21.37,42.526s7.992-12.55,8.356-23.727S23.056-.154,14.947,0,.252,6.169.008,17.26,5.464,41.655,5.464,41.655L14.793,7.137Z" transform="translate(15.24 0) rotate(21)" fill="none" stroke="#38485f" stroke-linecap="round" stroke-linejoin="round" stroke-width="2.5"/>
      <path id="Path_321" data-name="Path 321" d="M1.627,7.353A20.914,20.914,0,0,0,1.281,2.53,14.7,14.7,0,0,0,0,0" transform="translate(31.991 14.633)" fill="none" stroke="#38485f" stroke-linecap="round" stroke-linejoin="round" stroke-width="2"/>
      <g id="Ellipse_42" data-name="Ellipse 42" transform="translate(32.394 24.402)" fill="#fff" stroke="#38485f" stroke-width="1">
        <circle cx="1" cy="1" r="1" stroke="none"/>
        <circle cx="1" cy="1" r="0.5" fill="none"/>
      </g>
      <g id="Ellipse_43" data-name="Ellipse 43" transform="translate(31.295 27.15)" fill="#fff" stroke="#38485f" stroke-width="1">
        <circle cx="1" cy="1" r="1" stroke="none"/>
        <circle cx="1" cy="1" r="0.5" fill="none"/>
      </g>
      <path id="Path_322" data-name="Path 322" d="M0,0S.986,6.484,4.147,7.378s6.74-2.461,6.74-2.461" transform="translate(10.047 35.304)" fill="none" stroke="#38485f" stroke-linecap="round" stroke-width="2.5"/>
    </g>
    <g id="big_pistacho" data-name="big pistacho" transform="translate(-123 2)">
      <path id="Path_320-2" data-name="Path 320" d="M39.5-24.5S54.04-1.664,54.7,18.672s-12.136,34.483-26.889,34.2S1.075,41.651.631,21.471,10.56-22.914,10.56-22.914l16.973,62.8Z" transform="translate(212.263 45.257) rotate(-21)" fill="#fff" stroke="#38485f" stroke-linecap="round" stroke-linejoin="round" stroke-width="3.5"/>
      <path id="Path_321-2" data-name="Path 321" d="M5293.227,13847.4s.188,6.512-.63,8.774a26.756,26.756,0,0,1-2.331,4.6" transform="translate(-5028 -13793)" fill="none" stroke="#38485f" stroke-linecap="round" stroke-linejoin="round" stroke-width="3"/>
      <g id="Ellipse_42-2" data-name="Ellipse 42" transform="translate(262 47)" fill="#fff" stroke="#38485f" stroke-width="3">
        <circle cx="1.5" cy="1.5" r="1.5" stroke="none"/>
        <circle cx="1.5" cy="1.5" fill="none"/>
      </g>
      <g id="Ellipse_43-2" data-name="Ellipse 43" transform="translate(260 41)" fill="#fff" stroke="#38485f" stroke-width="3">
        <circle cx="1.5" cy="1.5" r="1.5" stroke="none"/>
        <circle cx="1.5" cy="1.5" fill="none"/>
      </g>
      <path id="Path_322-2" data-name="Path 322" d="M5251.34,13825.883s1.794-11.8,7.547-13.425,12.264,4.478,12.264,4.478" transform="translate(-5029 -13795.719)" fill="none" stroke="#38485f" stroke-linecap="round" stroke-width="3.5"/>
    </g>
  </g>
</svg>
