<svg width="266" height="107" viewBox="0 0 266 107" fill="none" xmlns="http://www.w3.org/2000/svg">
<path fill-rule="evenodd" clip-rule="evenodd" d="M0.530762 107L4.93136 102.603C9.37979 98.2714 18.2288 89.5428 27.0778 85.1457C35.9269 80.7486 44.7759 80.7486 53.6249 80.7486C62.4739 80.7486 71.323 80.7486 80.172 76.4171C88.9732 72.02 97.8222 63.2914 106.671 66.5729C115.52 69.8543 124.369 85.1457 133.218 84.03C142.067 82.98 150.916 65.4572 155.365 56.7286C159.813 48 159.765 34 159.765 34V107H155.365C150.916 107 142.067 107 133.218 107C124.369 107 115.52 107 106.671 107C97.8222 107 88.9732 107 80.1241 107C71.323 107 62.4739 107 53.6249 107C44.7759 107 35.9269 107 27.0778 107C18.2288 107 9.37979 107 4.93136 107H0.530762Z" fill="#128C7E"/>
<path fill-rule="evenodd" clip-rule="evenodd" d="M319 107L314.599 102.603C310.151 98.2714 301.302 89.5428 292.453 85.1457C283.604 80.7486 274.755 80.7486 265.906 80.7486C257.057 80.7486 248.208 80.7486 239.359 76.4171C230.558 72.02 221.709 63.2914 212.86 66.5729C204.011 69.8543 195.161 85.1457 186.312 84.03C177.463 82.98 168.614 65.4572 164.166 56.7286C159.718 48 159.765 37.5 159.765 37.5V107H164.166C168.614 107 177.463 107 186.312 107C195.161 107 204.011 107 212.86 107C221.709 107 230.558 107 239.407 107C248.208 107 257.057 107 265.906 107C274.755 107 283.604 107 292.453 107C301.302 107 310.151 107 314.599 107H319Z" fill="#128C7E"/>
<path fill-rule="evenodd" clip-rule="evenodd" d="M0 107L4.42257 103.199C8.89322 99.455 17.7864 91.9099 26.6797 88.109C35.5729 84.3081 44.4661 84.3081 53.3593 84.3081C62.2525 84.3081 71.1458 84.3081 80.039 80.564C88.8841 76.7631 97.7773 69.218 106.671 72.0545C115.564 74.891 124.457 88.109 133.35 87.1446C142.243 86.2369 151.137 71.0901 155.607 63.545C160.078 56 160.03 47 160.03 47V107H155.607C151.137 107 142.243 107 133.35 107C124.457 107 115.564 107 106.671 107C97.7773 107 88.8841 107 79.9909 107C71.1458 107 62.2525 107 53.3593 107C44.4661 107 35.5729 107 26.6797 107C17.7864 107 8.89322 107 4.42257 107H0Z" fill="white"/>
<path fill-rule="evenodd" clip-rule="evenodd" d="M319 107L314.607 103.199C310.166 99.455 301.331 91.9099 292.497 88.109C283.663 84.3081 274.828 84.3081 265.994 84.3081C257.16 84.3081 248.325 84.3081 239.491 80.564C230.704 76.7631 221.87 69.218 213.036 72.0545C204.202 74.891 195.367 88.109 186.533 87.1446C177.699 86.2369 168.864 71.0901 164.423 63.545C159.982 56 160.03 47 160.03 47V107H164.423C168.864 107 177.699 107 186.533 107C195.367 107 204.202 107 213.036 107C221.87 107 230.704 107 239.539 107C248.325 107 257.16 107 265.994 107C274.828 107 283.663 107 292.497 107C301.331 107 310.166 107 314.607 107H319Z" fill="white"/>
<g clip-path="url(#clip0_3979_6263)">
<path d="M156.014 4.24908C156.578 3.35847 157.19 2.4992 157.848 1.67508C158.464 1.06648 159.125 0.506451 159.828 0C159.828 1.77936 159.815 3.5574 159.788 5.33413L159.257 5.48856C157.757 5.94397 157.099 6.84289 157.115 8.41105C157.115 9.78913 157.824 10.6009 159.341 11.0009C160.224 11.6701 159.657 12.5849 159.788 13.4125C159.271 13.4281 158.755 13.4757 158.244 13.5551C152.775 14.7431 150.086 21.3999 154.216 26.2271L154.652 26.6865L155.099 27.1339C155.385 27.4943 155.598 28.0091 155.971 28.1873C157.23 28.7932 158.545 29.2803 159.84 29.8109C159.84 30.7732 159.84 31.7315 159.84 32.6938C158.206 34.6554 157.346 37.1473 157.424 39.699C157.479 42.7641 158.042 45.8172 158.386 48.8783L157.365 48.9417L153.781 49.5753L150.415 50.5296L149.227 50.9257C148.969 50.1337 148.736 49.3931 148.498 48.6605C148.225 47.5834 147.956 46.5063 147.682 45.4292L146.585 35.1886C146.641 33.767 146.692 32.3493 146.748 30.9276L147.037 27.3953C147.773 24.1587 148.513 20.9247 149.254 17.6933L150.336 14.7708C150.6 14.1135 150.864 13.4535 151.128 12.7908L151.888 11.1751C152.535 9.99241 153.183 8.80441 153.832 7.61113L154.181 6.94981L156.014 4.24908ZM149.94 32.278V23.3323L149.809 23.3125L149.017 33.1769C148.927 33.4517 148.87 33.7361 148.847 34.0244C148.981 36.729 149.045 39.4456 149.318 42.1344C149.524 44.1857 149.999 46.2053 150.379 48.3635L152.446 47.7458C151.726 43.6472 151.021 39.7228 150.355 35.7866C150.165 34.6263 150.078 33.4502 149.94 32.278Z" fill="#FF9828"/>
<path d="M159.8 32.6938C159.8 31.7315 159.8 30.7732 159.8 29.8109C162.9 29.8782 165.403 28.6902 166.999 26.0172C168.266 23.8986 168.658 21.6058 167.395 19.2852C166.136 15.6777 163.795 13.464 159.8 13.4125C159.669 12.6205 160.235 11.6701 159.352 11.0009C160.647 11.088 161.819 10.8425 162.421 9.53965C162.92 8.45857 162.908 7.29433 162.025 6.45877C161.443 5.91625 160.56 5.69845 159.807 5.33413C159.807 3.5574 159.821 1.77936 159.847 0L160.869 0.768241L161.055 0.946441L165.87 7.60717L169.304 14.5491L171.45 20.8573C171.701 22.1193 171.953 23.3838 172.206 24.651L172.828 28.4803L173.038 30.888L173.066 34.753C172.978 36.337 172.963 37.9448 172.788 39.5288C172.575 41.5088 172.226 43.465 171.937 45.4331C171.798 46.138 171.656 46.8468 171.517 47.5517C171.228 48.5655 170.943 49.5753 170.654 50.5851V50.6128L170.551 50.8861L167.648 50.0149L164.753 49.3139L161.605 48.8546C161.791 47.0448 161.839 45.2074 162.195 43.4294C162.922 40.0927 162.417 36.606 160.774 33.6125C160.499 33.2574 160.17 32.9474 159.8 32.6938ZM169.7 31.1573C169.466 33.5333 169.304 35.9093 168.975 38.2457C168.69 40.3366 168.183 42.3918 167.874 44.4748C167.755 45.243 167.411 46.332 168.951 46.1618C169.137 46.1618 169.347 46.4944 169.601 46.7003C170.987 40.5821 170.987 34.4243 170.496 28.2269C170.341 27.1894 170.183 26.1558 170.028 25.1183H169.7V31.1573Z" fill="#D35500"/>
<path d="M159.8 13.4121C163.795 13.4636 166.136 15.6772 167.435 19.2769C167.435 19.76 167.435 20.2471 167.435 20.7302C167.546 23.5022 166.496 25.7436 164.203 27.2998C162.619 28.373 160.873 29.0937 158.905 28.4878C157.61 28.0918 156.351 27.585 155.079 27.1256C154.929 26.9791 154.778 26.8286 154.632 26.6781L154.204 26.2108C150.074 21.3915 152.763 14.7268 158.232 13.5388C158.751 13.4637 159.275 13.4214 159.8 13.4121ZM157.76 25.8465C158.838 26.3271 160.044 26.437 161.19 26.1589C162.337 25.8809 163.359 25.2307 164.096 24.31C165.49 22.6508 165.585 20.1164 164.334 18.1681C164.18 17.9622 164.037 17.7404 163.871 17.5464C163.178 16.7383 162.257 16.1575 161.23 15.8792C160.202 15.601 159.115 15.6382 158.109 15.9861C157.101 16.3361 156.226 16.9881 155.603 17.8533C154.979 18.7185 154.637 19.7549 154.624 20.8213C154.529 23.1616 155.658 24.9674 157.745 25.8465H157.76Z" fill="#184156"/>
<path d="M159.8 32.6934C160.173 32.9503 160.503 33.2643 160.778 33.624C162.421 36.6175 162.926 40.1042 162.2 43.4408C161.844 45.2189 161.804 47.0563 161.61 48.866C161.467 49.7003 161.328 50.5371 161.19 51.3767C160.885 53.1547 160.588 54.9407 160.264 56.7147C160.228 56.8929 159.99 57.0355 159.868 57.1939C159.751 57.0389 159.656 56.8683 159.586 56.687C159.408 55.8198 159.258 54.9486 159.099 54.0774L158.917 53.3883L158.383 48.8779C158.026 45.8168 157.464 42.7676 157.424 39.6986C157.336 37.1519 158.181 34.6607 159.8 32.6934Z" fill="#699CFF"/>
<path d="M146.585 35.1875L147.678 45.4162L147.465 45.5429L147.239 45.6102L146.11 46.2003L140.733 48.6792L140 49.004C140.022 48.9883 140.039 48.9673 140.05 48.943C140.061 48.9187 140.066 48.892 140.063 48.8654V40.1533L141.434 39.0406L146.585 35.1875Z" fill="#699CFF"/>
<path d="M149.94 32.2769C150.079 33.4649 150.166 34.6252 150.364 35.7855C151.029 39.7217 151.734 43.6461 152.455 47.7447L150.388 48.3624C149.992 46.2042 149.532 44.1846 149.326 42.1333C149.053 39.4445 148.99 36.7279 148.855 34.0233C148.878 33.735 148.935 33.4506 149.025 33.1758L149.188 33.4015C149.211 33.4015 149.255 33.358 149.259 33.3382L149.504 28.7129H149.702V33.1521H149.9L149.94 32.2769Z" fill="#E17C55"/>
<path d="M146.586 35.1887L141.438 39.0259V34.7808L144.356 32.5315L145.889 31.4148L146.732 30.9277C146.692 32.3494 146.641 33.7671 146.586 35.1887Z" fill="#106D8A"/>
<path d="M155.088 27.1356C156.359 27.595 157.618 28.1177 158.913 28.5137C160.893 29.1117 162.632 28.3909 164.212 27.3257C166.505 25.7694 167.554 23.532 167.443 20.7561C167.443 20.2729 167.443 19.7859 167.443 19.3027C168.694 21.6312 168.302 23.9241 167.047 26.0347C165.463 28.7077 162.948 29.8957 159.848 29.8284C158.553 29.2978 157.238 28.8107 155.979 28.2048C155.587 28.0108 155.373 27.496 155.088 27.1356Z" fill="#713E39"/>
<path d="M159.8 5.33398C160.552 5.6983 161.436 5.9161 162.018 6.45863C162.909 7.29419 162.921 8.45843 162.414 9.53951C161.812 10.8423 160.64 11.0879 159.345 11.0007C157.828 10.6047 157.135 9.78899 157.119 8.41091C157.119 6.82691 157.761 5.94382 159.262 5.48842L159.8 5.33398ZM161.602 8.21687C161.544 7.77082 161.333 7.35887 161.004 7.05227C160.675 6.74567 160.249 6.56369 159.8 6.53783C159.577 6.55191 159.359 6.60998 159.158 6.7087C158.958 6.80743 158.779 6.94485 158.631 7.11306C158.484 7.28127 158.372 7.47694 158.3 7.6888C158.229 7.90067 158.2 8.12455 158.216 8.34755C158.24 9.34151 158.921 9.93155 159.994 9.88799C160.42 9.85667 160.818 9.66826 161.112 9.3594C161.407 9.05054 161.575 8.6433 161.586 8.21687H161.602Z" fill="#194257"/>
<path d="M149.939 32.278L149.9 33.1491H149.733V28.7139H149.504L149.242 33.3392C149.242 33.3392 149.195 33.3828 149.171 33.4026L149.009 33.1769L149.801 23.3125L149.931 23.3323L149.939 32.278Z" fill="#E39F82"/>
<path d="M154.212 26.2188L154.652 26.686L154.212 26.2188Z" fill="#713E39"/>
<path d="M171.938 45.4418C172.227 43.4618 172.575 41.5135 172.789 39.5414C172.963 37.9574 172.979 36.3734 173.066 34.7656L178.016 38.9672C178.175 38.7098 178.281 38.5276 178.412 38.3455L178.483 39.0068L180.02 40.369V49.0137L178.012 48.2217L177.541 48.0118L174.195 46.4476L171.938 45.4418Z" fill="#699CFF"/>
<path d="M170.523 28.2266C171.014 34.4161 171.014 40.5818 169.628 46.7C169.387 46.4941 169.165 46.1416 168.979 46.1614C167.438 46.3317 167.791 45.2427 167.902 44.4745C168.223 42.3915 168.718 40.3363 169.003 38.2454C169.323 35.8931 169.494 33.5211 169.727 31.157C169.862 30.9708 170.076 30.7966 170.123 30.5907C170.286 29.8106 170.393 29.0146 170.523 28.2266Z" fill="#A05444"/>
<path d="M178.412 38.3452C178.301 38.5274 178.194 38.7095 178.016 38.9669L173.066 34.7654C173.066 33.4784 173.066 32.1874 173.039 30.9004L177.743 34.3654L177.945 34.5436C178.16 34.8596 178.318 35.2107 178.412 35.5811C178.452 36.4998 178.412 37.4225 178.412 38.3452Z" fill="#106F8B"/>
<path d="M170.524 28.2258C170.393 29.0178 170.286 29.8098 170.128 30.6018C170.08 30.8077 169.867 30.9978 169.732 31.1681V25.1172H170.061C170.211 26.1547 170.369 27.1883 170.524 28.2258Z" fill="#C06E54"/>
<path d="M157.745 25.8471C155.658 24.968 154.529 23.1622 154.605 20.8218C154.618 19.7554 154.96 18.719 155.583 17.8538C156.207 16.9886 157.082 16.3367 158.089 15.9867C159.096 15.6388 160.183 15.6015 161.211 15.8798C162.238 16.158 163.158 16.7389 163.851 17.5469C164.018 17.7409 164.16 17.9429 164.315 18.1686C162.837 19.523 161.246 20.7783 159.919 22.2672C159.008 23.2929 158.458 24.6432 157.745 25.8471Z" fill="#1E9FBD"/>
<path d="M157.745 25.8482C158.457 24.6602 159.004 23.294 159.919 22.2842C161.245 20.7952 162.837 19.5399 164.314 18.1855C165.566 20.1339 165.471 22.6683 164.077 24.3275C163.337 25.2446 162.315 25.8912 161.17 26.1662C160.024 26.4413 158.82 26.3295 157.745 25.8482Z" fill="#83C8D8"/>
<path d="M161.586 8.2181C161.576 8.64328 161.408 9.04947 161.116 9.35814C160.823 9.66681 160.426 9.85603 160.002 9.88922C158.929 9.93278 158.248 9.34274 158.224 8.34878C158.209 8.12579 158.237 7.90191 158.309 7.69004C158.38 7.47817 158.493 7.2825 158.64 7.11429C158.787 6.94608 158.966 6.80866 159.167 6.70994C159.367 6.61122 159.585 6.55314 159.808 6.53906C160.253 6.57025 160.673 6.75459 160.998 7.06071C161.322 7.36684 161.53 7.77584 161.586 8.2181Z" fill="#1E9FBD"/>
</g>
<defs>
<clipPath id="clip0_3979_6263">
<rect width="40" height="69.2644" fill="white" transform="translate(140)"/>
</clipPath>
</defs>
</svg>
