<svg width="251" height="86" viewBox="0 0 251 86" fill="none" xmlns="http://www.w3.org/2000/svg">
<path fill-rule="evenodd" clip-rule="evenodd" d="M1 84.21L4.44874 80.764C7.93497 77.3694 14.8699 70.5289 21.8049 67.0829C28.7399 63.6368 35.6749 63.6368 42.6098 63.6368C49.5448 63.6368 56.4798 63.6368 63.4148 60.2423C70.3122 56.7963 77.2472 49.9557 84.1822 52.5273C91.1172 55.099 98.0521 67.0828 104.987 66.2085C111.922 65.3856 118.857 51.653 122.343 44.8124C125.83 37.9718 125.792 27 125.792 27V84.21H122.343C118.857 84.21 111.922 84.21 104.987 84.21C98.0521 84.21 91.1172 84.21 84.1822 84.21C77.2472 84.21 70.3122 84.21 63.3773 84.21C56.4798 84.21 49.5448 84.21 42.6098 84.21C35.6749 84.21 28.7399 84.21 21.8049 84.21C14.8699 84.21 7.93497 84.21 4.44874 84.21H1Z" fill="#128C7E"/>
<path fill-rule="evenodd" clip-rule="evenodd" d="M251 84L247.546 80.5835C244.053 77.2181 237.107 70.4362 230.16 67.0197C223.214 63.6032 216.267 63.6032 209.321 63.6032C202.374 63.6032 195.428 63.6032 188.481 60.2378C181.572 56.8213 174.626 50.0394 167.679 52.589C160.733 55.1386 153.786 67.0197 146.84 66.1528C139.893 65.337 132.947 51.7221 129.455 44.9402C125.962 38.1583 126 30 126 30V84H129.455C132.947 84 139.893 84 146.84 84C153.786 84 160.733 84 167.679 84C174.626 84 181.572 84 188.519 84C195.428 84 202.374 84 209.321 84C216.267 84 223.214 84 230.16 84C237.107 84 244.053 84 247.546 84H251Z" fill="#128C7E"/>
<path fill-rule="evenodd" clip-rule="evenodd" d="M0.5 85L3.95449 82.0226C7.44653 79.0897 14.3931 73.1794 21.3396 70.2021C28.2861 67.2247 35.2326 67.2247 42.1792 67.2247C49.1257 67.2247 56.0722 67.2247 63.0188 64.2918C69.9277 61.3144 76.8743 55.4041 83.8208 57.626C90.7673 59.8479 97.7139 70.2021 104.66 69.4466C111.607 68.7356 118.553 56.8706 122.045 50.9603C125.538 45.05 126 38 126 38V85H122.045C118.553 85 111.607 85 104.66 85C97.7139 85 90.7673 85 83.8208 85C76.8743 85 69.9277 85 62.9812 85C56.0722 85 49.1257 85 42.1792 85C35.2326 85 28.2861 85 21.3396 85C14.3931 85 7.44653 85 3.95449 85H0.5Z" fill="white"/>
<path fill-rule="evenodd" clip-rule="evenodd" d="M251 85L247.546 82.0226C244.053 79.0897 237.107 73.1794 230.16 70.2021C223.214 67.2247 216.267 67.2247 209.321 67.2247C202.374 67.2247 195.428 67.2247 188.481 64.2918C181.572 61.3144 174.626 55.4041 167.679 57.626C160.733 59.8479 153.786 70.2021 146.84 69.4466C139.893 68.7356 132.947 56.8706 129.455 50.9603C125.962 45.05 125 38 125 38V85H129.455C132.947 85 139.893 85 146.84 85C153.786 85 160.733 85 167.679 85C174.626 85 181.572 85 188.519 85C195.428 85 202.374 85 209.321 85C216.267 85 223.214 85 230.16 85C237.107 85 244.053 85 247.546 85H251Z" fill="white"/>
<g clip-path="url(#clip0_4095_6580)">
<path d="M122.55 3.33C122.992 2.63203 123.472 1.95862 123.987 1.31276C124.47 0.835802 124.989 0.396905 125.539 0C125.539 1.39448 125.529 2.78793 125.508 4.18035L125.092 4.30138C123.916 4.65828 123.401 5.36276 123.413 6.59173C123.413 7.67173 123.969 8.30794 125.157 8.62139C125.849 9.14587 125.406 9.86277 125.508 10.5114C125.103 10.5236 124.698 10.5609 124.298 10.6231C120.012 11.5541 117.905 16.7711 121.141 20.5542L121.483 20.9142L121.834 21.2648C122.057 21.5473 122.225 21.9507 122.516 22.0904C123.503 22.5652 124.534 22.9469 125.548 23.3628C125.548 24.1169 125.548 24.868 125.548 25.6221C124.268 27.1594 123.595 29.1123 123.655 31.1121C123.699 33.5142 124.139 35.9069 124.409 38.3059L123.609 38.3556L120.8 38.8521L118.162 39.6L117.231 39.9104C117.029 39.2897 116.846 38.7093 116.66 38.1352C116.446 37.2911 116.235 36.4469 116.021 35.6028L115.161 27.5773C115.205 26.4631 115.245 25.3521 115.288 24.238L115.515 21.4697C116.092 18.9331 116.671 16.3986 117.253 13.8662L118.1 11.5759C118.307 11.0607 118.514 10.5435 118.721 10.0241L119.317 8.75794C119.824 7.83104 120.331 6.90001 120.84 5.96483L121.114 5.44656L122.55 3.33ZM117.79 25.2962V18.2855L117.687 18.27L117.067 26.0007C116.996 26.216 116.951 26.439 116.933 26.6649C117.039 28.7845 117.088 30.9135 117.303 33.0207C117.464 34.6283 117.836 36.2111 118.134 37.9024L119.754 37.4183C119.189 34.2062 118.637 31.1307 118.116 28.0459C117.967 27.1366 117.898 26.2149 117.79 25.2962Z" fill="#FF9828"/>
<path d="M125.517 25.6221C125.517 24.868 125.517 24.1169 125.517 23.3628C127.947 23.4155 129.908 22.4845 131.159 20.3897C132.152 18.7293 132.459 16.9324 131.469 15.1138C130.482 12.2866 128.648 10.5517 125.517 10.5114C125.414 9.8907 125.858 9.14587 125.166 8.62139C126.181 8.68966 127.099 8.49725 127.571 7.47621C127.962 6.62897 127.953 5.71656 127.261 5.06173C126.805 4.63656 126.113 4.46587 125.523 4.18035C125.523 2.78793 125.533 1.39448 125.554 0L126.355 0.60207L126.5 0.741725L130.274 5.96173L132.965 11.4021L134.647 16.3459C134.844 17.3348 135.041 18.3259 135.24 19.319L135.727 22.32L135.892 24.2069L135.913 27.2359C135.845 28.4773 135.833 29.7373 135.696 30.9786C135.528 32.5304 135.255 34.0635 135.029 35.6059C134.92 36.1583 134.808 36.7138 134.7 37.2662C134.473 38.0607 134.25 38.8521 134.023 39.6435V39.6652L133.943 39.8793L131.668 39.1966L129.399 38.6473L126.932 38.2873C127.078 36.869 127.115 35.429 127.394 34.0355C127.963 31.4206 127.568 28.6881 126.28 26.3421C126.065 26.0638 125.807 25.8209 125.517 25.6221V25.6221ZM133.275 24.418C133.092 26.28 132.965 28.1421 132.707 29.9731C132.484 31.6118 132.087 33.2224 131.845 34.8549C131.752 35.4569 131.482 36.3104 132.689 36.1769C132.835 36.1769 132.999 36.4376 133.198 36.599C134.284 31.8042 134.284 26.9783 133.899 22.1214C133.778 21.3083 133.654 20.4983 133.533 19.6852H133.275V24.418Z" fill="#D35500"/>
<path d="M125.517 10.5117C128.649 10.5521 130.483 12.2869 131.501 15.1079C131.501 15.4866 131.501 15.8683 131.501 16.2469C131.587 18.4193 130.765 20.1759 128.968 21.3955C127.727 22.2366 126.358 22.8014 124.816 22.3266C123.801 22.0162 122.814 21.619 121.818 21.259C121.7 21.1441 121.582 21.0262 121.467 20.9083L121.132 20.5421C117.895 16.7652 120.002 11.5421 124.288 10.611C124.695 10.5522 125.106 10.519 125.517 10.5117V10.5117ZM123.919 20.2566C124.763 20.6332 125.709 20.7193 126.607 20.5014C127.505 20.2835 128.306 19.774 128.884 19.0524C129.977 17.7521 130.051 15.7659 129.071 14.239C128.95 14.0776 128.838 13.9038 128.707 13.7517C128.164 13.1185 127.443 12.6633 126.638 12.4452C125.833 12.2271 124.98 12.2563 124.192 12.529C123.402 12.8032 122.717 13.3142 122.228 13.9923C121.739 14.6703 121.471 15.4825 121.461 16.3183C121.386 18.1524 122.271 19.5676 123.906 20.2566H123.919Z" fill="#184156"/>
<path d="M125.517 25.6211C125.81 25.8224 126.068 26.0686 126.284 26.3504C127.572 28.6964 127.967 31.429 127.398 34.0439C127.119 35.4373 127.088 36.8773 126.936 38.2956C126.824 38.9494 126.714 39.6052 126.607 40.2632C126.368 41.6566 126.135 43.0563 125.881 44.4466C125.853 44.5863 125.666 44.698 125.57 44.8221C125.478 44.7007 125.404 44.567 125.35 44.4249C125.21 43.7452 125.092 43.0625 124.968 42.3797L124.825 41.8397L124.406 38.3049C124.127 35.9059 123.686 33.5163 123.655 31.1111C123.586 29.1153 124.248 27.1629 125.517 25.6211V25.6211Z" fill="#699CFF"/>
<path d="M115.161 27.5762L116.018 35.5924L115.85 35.6917L115.673 35.7445L114.789 36.2069L110.574 38.1496L110 38.4041C110.017 38.3919 110.03 38.3754 110.039 38.3564C110.048 38.3373 110.051 38.3163 110.05 38.2955V31.4679L111.123 30.5958L115.161 27.5762Z" fill="#699CFF"/>
<path d="M117.79 25.2951C117.898 26.2261 117.967 27.1354 118.122 28.0447C118.643 31.1295 119.196 34.2051 119.76 37.4171L118.14 37.9013C117.83 36.2099 117.47 34.6271 117.309 33.0195C117.095 30.9123 117.045 28.7833 116.939 26.6637C116.958 26.4378 117.002 26.2149 117.073 25.9995L117.2 26.1764C117.219 26.1764 117.253 26.1423 117.256 26.1268L117.448 22.502H117.604V25.9809H117.759L117.79 25.2951Z" fill="#E17C55"/>
<path d="M115.161 27.5776L111.126 30.5848V27.2579L113.414 25.4952L114.615 24.62L115.276 24.2383C115.245 25.3524 115.204 26.4635 115.161 27.5776Z" fill="#106D8A"/>
<path d="M121.824 21.2656C122.82 21.6256 123.807 22.0352 124.822 22.3456C126.374 22.8142 127.736 22.2494 128.975 21.4145C130.771 20.1949 131.594 18.4414 131.507 16.2659C131.507 15.8873 131.507 15.5056 131.507 15.127C132.488 16.9518 132.18 18.7487 131.197 20.4028C129.955 22.4976 127.985 23.4287 125.555 23.3759C124.54 22.9601 123.509 22.5783 122.522 22.1035C122.215 21.9514 122.048 21.548 121.824 21.2656Z" fill="#713E39"/>
<path d="M125.517 4.17969C126.107 4.4652 126.799 4.63589 127.255 5.06107C127.953 5.7159 127.963 6.62831 127.565 7.47555C127.094 8.49659 126.175 8.689 125.16 8.62073C123.972 8.31038 123.428 7.67107 123.416 6.59107C123.416 5.34969 123.919 4.65762 125.095 4.30072L125.517 4.17969ZM126.929 6.439C126.884 6.08943 126.718 5.76659 126.46 5.5263C126.203 5.28602 125.869 5.14341 125.517 5.12314C125.342 5.13417 125.171 5.17968 125.014 5.25705C124.857 5.33442 124.717 5.44212 124.601 5.57394C124.486 5.70577 124.398 5.85912 124.342 6.02516C124.286 6.1912 124.263 6.36665 124.276 6.54141C124.294 7.32038 124.828 7.78279 125.669 7.74866C126.003 7.72411 126.315 7.57646 126.545 7.3344C126.776 7.09235 126.908 6.7732 126.917 6.439H126.929Z" fill="#194257"/>
<path d="M117.789 25.2957L117.758 25.9785H117.628V22.5026H117.448L117.243 26.1275C117.243 26.1275 117.206 26.1616 117.187 26.1771L117.06 26.0002L117.681 18.2695L117.783 18.285L117.789 25.2957Z" fill="#E39F82"/>
<path d="M121.138 20.5469L121.483 20.9131L121.138 20.5469Z" fill="#713E39"/>
<path d="M135.029 35.613C135.256 34.0613 135.529 32.5344 135.697 30.9889C135.833 29.7475 135.846 28.5061 135.914 27.2461L139.793 30.5389C139.917 30.3371 140.001 30.1944 140.103 30.0516L140.159 30.5699L141.363 31.6375V38.4123L139.79 37.7916L139.421 37.6271L136.798 36.4013L135.029 35.613Z" fill="#699CFF"/>
<path d="M133.921 22.1211C134.306 26.9718 134.306 31.8039 133.22 36.5987C133.031 36.4373 132.857 36.1611 132.711 36.1766C131.504 36.3101 131.78 35.4566 131.867 34.8546C132.118 33.2221 132.506 31.6115 132.73 29.9728C132.981 28.1294 133.114 26.2704 133.298 24.4176C133.403 24.2718 133.571 24.1352 133.608 23.9739C133.735 23.3625 133.819 22.7387 133.921 22.1211Z" fill="#A05444"/>
<path d="M140.103 30.0513C140.017 30.194 139.933 30.3368 139.793 30.5385L135.914 27.2458C135.914 26.2371 135.914 25.2254 135.892 24.2168L139.579 26.9323L139.737 27.072C139.906 27.3196 140.03 27.5948 140.103 27.8851C140.135 28.6051 140.103 29.3282 140.103 30.0513Z" fill="#106F8B"/>
<path d="M133.921 22.1198C133.819 22.7405 133.735 23.3612 133.611 23.9819C133.574 24.1433 133.406 24.2922 133.301 24.4257V19.6836H133.558C133.676 20.4967 133.8 21.3067 133.921 22.1198Z" fill="#C06E54"/>
<path d="M123.907 20.2567C122.271 19.5677 121.387 18.1526 121.446 16.3184C121.456 15.4827 121.724 14.6705 122.213 13.9924C122.701 13.3144 123.387 12.8034 124.177 12.5291C124.965 12.2565 125.817 12.2273 126.623 12.4453C127.428 12.6634 128.149 13.1186 128.692 13.7519C128.823 13.9039 128.934 14.0622 129.055 14.2391C127.898 15.3005 126.65 16.2843 125.61 17.4512C124.897 18.255 124.465 19.3133 123.907 20.2567Z" fill="#1E9FBD"/>
<path d="M123.906 20.2571C124.465 19.3261 124.893 18.2554 125.61 17.464C126.65 16.2971 127.897 15.3133 129.055 14.252C130.036 15.7789 129.961 17.7651 128.869 19.0654C128.289 19.7841 127.488 20.2908 126.59 20.5064C125.693 20.722 124.749 20.6343 123.906 20.2571V20.2571Z" fill="#83C8D8"/>
<path d="M126.917 6.44086C126.909 6.77407 126.778 7.0924 126.548 7.33431C126.319 7.57621 126.008 7.72451 125.676 7.75052C124.835 7.78466 124.301 7.32224 124.283 6.54328C124.27 6.36851 124.293 6.19306 124.349 6.02702C124.405 5.86098 124.493 5.70763 124.608 5.57581C124.723 5.44398 124.864 5.33629 125.021 5.25892C125.178 5.18155 125.349 5.13603 125.524 5.125C125.872 5.14944 126.202 5.29391 126.456 5.53382C126.71 5.77373 126.873 6.09426 126.917 6.44086Z" fill="#1E9FBD"/>
</g>
<defs>
<clipPath id="clip0_4095_6580">
<rect width="31.348" height="54.2825" fill="white" transform="translate(110)"/>
</clipPath>
</defs>
</svg>
