<svg width="138" height="137" viewBox="0 0 138 137" fill="none" xmlns="http://www.w3.org/2000/svg">
<path d="M34.5423 22.4909C34.5423 22.4909 55.216 38.179 86.6454 8.84485C114.558 -17.2066 137.348 23.8967 137.508 43.5803C137.715 69.0787 109.596 89.4803 123.242 106.228C136.888 122.976 96.1795 150.631 74.2399 126.697C46.9478 96.9239 39.5539 121.115 23.9976 121.115C12.8327 121.115 -10.0901 93.3726 5.3894 72.7332C18.4152 55.3655 11.3114 49.6014 7.87043 43.5803C2.90828 34.8964 14.6935 11.326 34.5423 22.4909Z" fill="#DEE9FF"/>
<path d="M67.9915 58.1622V116.38L22.7906 96.8559L23.0063 38.8491L67.9915 58.1622Z" fill="#418DF9"/>
<path d="M67.9922 58.1972V116.414L112.973 97.5653V39.0352L67.9922 58.1972Z" fill="#A2BDFF"/>
<path d="M67.9915 58.1623L113.192 39.23L68.3465 19.3511L22.7906 38.7567L67.9915 58.1623Z" fill="#699CFF"/>
<path d="M39.8297 31.4986L84.8582 51.0978L85.2672 65.3804L97.8657 60.182L97.4847 45.8093L51.1241 26.6875L39.8297 31.4986Z" fill="#418DF9"/>
<path d="M82.2939 79.0848C83.0076 79.0848 83.5861 78.0288 83.5861 76.7262C83.5861 75.4236 83.0076 74.3677 82.2939 74.3677C81.5803 74.3677 81.0017 75.4236 81.0017 76.7262C81.0017 78.0288 81.5803 79.0848 82.2939 79.0848Z" fill="white"/>
<path d="M103.112 70.6028C103.825 70.6028 104.404 69.5469 104.404 68.2443C104.404 66.9417 103.825 65.8857 103.112 65.8857C102.398 65.8857 101.819 66.9417 101.819 68.2443C101.819 69.5469 102.398 70.6028 103.112 70.6028Z" fill="white"/>
<path d="M89.7818 91.5357L88.9427 91.2099C90.8019 86.4236 93.1332 83.7867 95.8721 83.3727C98.4924 82.9767 100.699 84.7818 101.5 85.7915L100.795 86.3507C100.241 85.6523 98.3019 83.916 96.0069 84.2628C93.6436 84.6198 91.4911 87.1348 89.7818 91.5357Z" fill="white"/>
</svg>
