<svg width="500" height="188" viewBox="0 0 500 188" fill="none" xmlns="http://www.w3.org/2000/svg">
<path d="M2.76608 104.145C-12.2214 98.2621 37.9725 70.0064 50.9806 78.271C67.2406 88.6018 68.2303 127.271 102.871 112.486C137.512 97.7004 142.178 88.507 155.752 91.066C169.325 93.625 186.716 112.486 204.956 112.486C223.195 112.486 299.264 79.5979 312.696 83.4838C326.128 87.3697 353.982 108.031 374.201 104.145C394.42 100.259 408.984 73.8165 432.03 83.4838C450.468 91.2176 524.359 106.041 559 112.486V175.703L2.76608 180.915V104.145Z" fill="#FF9828" fill-opacity="0.5"/>
<path d="M0 95.5879C19.3856 88.0378 27.7905 102.164 43.3803 102.164C58.9701 102.164 63.7148 95.5879 75.6444 95.5879C81.6805 95.5879 107.38 114.309 138.41 118.725C183.553 95.5879 204.303 113.08 214.055 110.444C244.692 102.164 247.403 41.6415 247.403 0.725098H252.013C252.013 44.9294 262.722 115.437 309.085 110.444C339.736 107.144 332.402 102.164 349.889 102.164C367.377 102.164 377.815 110.444 399.099 110.444C420.382 110.444 433.532 95.5879 459.425 95.5879L460.046 95.5879C485.784 95.5869 514.674 95.5858 523.953 110.444V187.528H0V95.5879Z" fill="url(#paint0_linear_3822_7143)"/>
<defs>
<linearGradient id="paint0_linear_3822_7143" x1="261.976" y1="0.725098" x2="261.197" y2="94.9539" gradientUnits="userSpaceOnUse">
<stop offset="0.628222" stop-color="#9DE1FD" stop-opacity="0.55"/>
<stop offset="1" stop-color="#F0F3F5"/>
</linearGradient>
</defs>
</svg>
