<svg width="100" height="174" viewBox="0 0 100 174" fill="none" xmlns="http://www.w3.org/2000/svg">
<g clip-path="url(#clip0_3822_7147)">
<path d="M40.0358 10.6227C41.4459 8.39617 42.976 6.248 44.6195 4.1877C46.159 2.66621 47.8139 1.26613 49.5695 0C49.5695 4.4484 49.5365 8.89351 49.4705 13.3353L48.1439 13.7214C44.3918 14.8599 42.7484 17.1072 42.788 21.0276C42.788 24.4728 44.5601 26.5023 48.3518 27.5022C50.5595 29.1753 49.1438 31.4622 49.4705 33.5313C48.1774 33.5701 46.8879 33.6892 45.6095 33.8877C31.9376 36.8577 25.2155 53.4996 35.5412 65.5678L36.6302 66.7162L37.7489 67.8349C38.4617 68.7358 38.9963 70.0228 39.9269 70.4683C43.0751 71.983 46.3619 73.2007 49.5992 74.5273C49.5992 76.933 49.5992 79.3288 49.5992 81.7345C45.5146 86.6386 43.3665 92.8682 43.5602 99.2476C43.6988 106.91 45.1046 114.543 45.9659 122.196L43.4117 122.354L34.4522 123.938L26.0372 126.324L23.0672 127.314C22.4237 125.334 21.8396 123.483 21.2456 121.651C20.5625 118.958 19.8893 116.266 19.2062 113.573L16.4639 87.9715C16.6025 84.4174 16.7312 80.8732 16.8698 77.3191L17.5925 68.4883C19.4339 60.3967 21.2819 52.3116 23.1365 44.2332L25.8392 36.927C26.4992 35.2836 27.1592 33.6336 27.8192 31.977L29.72 27.9378C31.337 24.981 32.9573 22.011 34.5809 19.0278L35.4521 17.3745L40.0358 10.6227ZM24.8492 80.695V58.3308L24.5225 58.2813L22.5425 82.9423C22.3173 83.6291 22.1744 84.3403 22.1168 85.0609C22.4534 91.8226 22.6118 98.614 23.2949 105.336C23.8097 110.464 24.9977 115.513 25.9481 120.909L31.1159 119.364C29.3141 109.118 27.5519 99.307 25.8887 89.4664C25.4135 86.5657 25.1957 83.6254 24.8492 80.695Z" fill="#FF9828"/>
<path d="M49.5 81.7345C49.5 79.3288 49.5 76.933 49.5 74.5273C57.2518 74.6956 63.5086 71.7256 67.4983 65.0431C70.6663 59.7466 71.6464 54.0145 68.4883 48.213C65.3401 39.1941 59.4892 33.66 49.5 33.5313C49.1733 31.5513 50.5891 29.1753 48.3813 27.5022C51.6187 27.72 54.5491 27.1062 56.0539 23.8491C57.3013 21.1464 57.2716 18.2358 55.0639 16.1469C53.6086 14.7906 51.4009 14.2461 49.5199 13.3353C49.5199 8.89351 49.5528 4.4484 49.6188 0L52.1731 1.9206L52.6384 2.3661L64.6768 19.0179L73.2601 36.3726L78.6259 52.1433C79.2529 55.2981 79.8832 58.4596 80.5168 61.6276L82.0711 71.2009L82.5958 77.2201L82.6651 86.8825C82.4473 90.8425 82.4077 94.8619 81.9721 98.8219C81.4375 103.772 80.5663 108.663 79.8436 113.583C79.4971 115.345 79.1407 117.117 78.7942 118.879C78.0715 121.414 77.3587 123.938 76.636 126.463V126.532L76.3786 127.215L69.1219 125.037L61.885 123.285L54.0145 122.136C54.4798 117.612 54.5986 113.019 55.4896 108.573C57.3052 100.232 56.0428 91.5151 51.9355 84.0313C51.2482 83.1435 50.4265 82.3686 49.5 81.7345ZM74.2501 77.8933C73.666 83.8333 73.2601 89.7733 72.4384 95.6143C71.7256 100.841 70.4584 105.98 69.6862 111.187C69.3892 113.108 68.5279 115.83 72.379 115.404C72.8443 115.404 73.369 116.236 74.0026 116.751C77.4676 101.455 77.4676 86.0608 76.24 70.5673C75.8539 67.9735 75.4579 65.3896 75.0718 62.7958H74.2501V77.8933Z" fill="#D35500"/>
<path d="M49.5001 33.5312C59.4892 33.66 65.3401 39.1941 68.5873 48.1932C68.5873 49.401 68.5873 50.6187 68.5873 51.8265C68.8645 58.7565 66.241 64.3599 60.5089 68.2506C56.5489 70.9335 52.183 72.7353 47.2627 71.2206C44.0254 70.2306 40.8772 68.9634 37.6993 67.815C37.3231 67.4487 36.9469 67.0725 36.5806 66.6963L35.5114 65.5281C25.1857 53.4798 31.9078 36.8181 45.5797 33.848C46.8785 33.6603 48.1879 33.5545 49.5001 33.5312ZM44.4016 64.6173C47.095 65.8187 50.1106 66.0934 52.9767 65.3983C55.8429 64.7033 58.3977 63.0778 60.2416 60.7761C63.7264 56.628 63.964 50.292 60.8356 45.4212C60.4495 44.9064 60.0931 44.352 59.6773 43.8669C57.9446 41.8468 55.6444 40.3947 53.0755 39.699C50.5067 39.0034 47.788 39.0965 45.2728 39.9663C42.7542 40.8412 40.5665 42.4712 39.0076 44.6342C37.4486 46.7972 36.5943 49.3881 36.5608 52.0542C36.3232 57.9051 39.1447 62.4195 44.362 64.6173H44.4016Z" fill="#184156"/>
<path d="M49.5 81.7344C50.4322 82.3767 51.2574 83.1618 51.9453 84.0609C56.0527 91.5447 57.315 100.261 55.4994 108.603C54.6084 113.048 54.5094 117.642 54.0243 122.166C53.6679 124.252 53.3181 126.344 52.9749 128.443C52.2126 132.888 51.4701 137.353 50.6583 141.788C50.5692 142.233 49.9752 142.59 49.6683 142.986C49.3759 142.598 49.1393 142.172 48.9654 141.719C48.5199 139.55 48.1437 137.372 47.7477 135.194L47.2923 133.472L45.9558 122.196C45.0648 114.543 43.659 106.92 43.56 99.2475C43.3386 92.8808 45.451 86.6526 49.5 81.7344Z" fill="#699CFF"/>
<path d="M16.4637 87.9717L19.1961 113.543L18.6615 113.86L18.0972 114.029L15.2757 115.504L1.8315 121.701L0 122.513C0.0541125 122.474 0.097152 122.421 0.124915 122.36C0.152678 122.3 0.164215 122.233 0.1584 122.166V100.386L3.5838 97.6044L16.4637 87.9717Z" fill="#699CFF"/>
<path d="M24.8488 80.6952C25.1953 83.6652 25.4131 86.5659 25.9081 89.4666C27.5713 99.3072 29.3335 109.118 31.1353 119.365L25.9675 120.909C24.9775 115.513 23.8291 110.464 23.3143 105.336C22.6312 98.6142 22.4728 91.8228 22.1362 85.0611C22.1938 84.3405 22.3367 83.6293 22.5619 82.9425L22.9678 83.5068C23.0272 83.5068 23.1361 83.3979 23.146 83.3484L23.7598 71.7852H24.2548V82.8831H24.7498L24.8488 80.6952Z" fill="#E17C55"/>
<path d="M16.4638 87.9717L3.59375 97.5648V86.952L10.8901 81.3288L14.7214 78.537L16.8301 77.3193C16.7311 80.8734 16.6024 84.4176 16.4638 87.9717Z" fill="#106D8A"/>
<path d="M37.719 67.8347C40.8969 68.9831 44.0451 70.2899 47.2824 71.2799C52.2324 72.7748 56.5785 70.973 60.5286 68.3099C66.2607 64.4192 68.8842 58.8256 68.607 51.8857C68.607 50.6779 68.607 49.4602 68.607 48.2524C71.7354 54.0736 70.7553 59.8057 67.617 65.0825C63.657 71.765 57.3705 74.735 49.6188 74.5667C46.3815 73.2401 43.0947 72.0224 39.9465 70.5077C38.9664 70.0226 38.4318 68.7356 37.719 67.8347Z" fill="#713E39"/>
<path d="M49.4999 13.3354C51.3809 14.2463 53.5886 14.7907 55.0439 16.1471C57.2714 18.236 57.3011 21.1466 56.0339 23.8493C54.5291 27.1064 51.5987 27.7202 48.3614 27.5024C44.5697 26.5124 42.8372 24.473 42.7976 21.0278C42.7976 17.0678 44.4014 14.86 48.1535 13.7215L49.4999 13.3354ZM54.0044 20.5427C53.8608 19.4275 53.332 18.3977 52.5095 17.6312C51.6869 16.8647 50.6224 16.4097 49.4999 16.3451C48.9422 16.3803 48.3969 16.5254 47.8955 16.7722C47.3941 17.0191 46.9465 17.3626 46.5784 17.7831C46.2103 18.2037 45.9291 18.6928 45.7509 19.2225C45.5726 19.7522 45.5009 20.3119 45.5399 20.8694C45.5993 23.3543 47.3021 24.8294 49.985 24.7205C51.0486 24.6422 52.045 24.1711 52.7805 23.399C53.5161 22.6268 53.9382 21.6087 53.9648 20.5427H54.0044Z" fill="#194257"/>
<path d="M24.849 80.6949L24.75 82.8729H24.3342V71.7849H23.76L23.1066 83.3481C23.1066 83.3481 22.9878 83.457 22.9284 83.5065L22.5225 82.9422L24.5025 58.2812L24.8292 58.3307L24.849 80.6949Z" fill="#E39F82"/>
<path d="M35.531 65.5479L36.6299 66.7161L35.531 65.5479Z" fill="#713E39"/>
<path d="M79.8435 113.603C80.5662 108.653 81.4374 103.782 81.972 98.8515C82.4076 94.8915 82.4472 90.9315 82.665 86.9121L95.04 97.416C95.436 96.7725 95.7033 96.3171 96.03 95.8617L96.2082 97.515L100.049 100.921V122.532L95.0301 120.552L93.852 120.028L85.4865 116.117L79.8435 113.603Z" fill="#699CFF"/>
<path d="M76.3092 70.5669C77.5368 86.0406 77.5368 101.455 74.0718 116.75C73.4679 116.236 72.9135 115.355 72.4482 115.404C68.5971 115.83 69.4782 113.107 69.7554 111.187C70.5573 105.979 71.7948 100.841 72.5076 95.6139C73.3095 89.7333 73.7352 83.8032 74.3193 77.8929C74.6559 77.4276 75.1905 76.992 75.3093 76.4772C75.7152 74.5269 75.9825 72.537 76.3092 70.5669Z" fill="#A05444"/>
<path d="M96.03 95.8615C95.7528 96.3169 95.4855 96.7723 95.04 97.4158L82.665 86.9119C82.665 83.6944 82.665 80.467 82.5957 77.2495L94.3569 85.912L94.8618 86.3575C95.3992 87.1475 95.7946 88.0253 96.03 88.9513C96.129 91.2481 96.03 93.5548 96.03 95.8615Z" fill="#106F8B"/>
<path d="M76.3093 70.5674C75.9826 72.5474 75.7153 74.5274 75.3193 76.5074C75.2005 77.0222 74.6659 77.4974 74.3293 77.9231V62.7959H75.151C75.5272 65.3897 75.9232 67.9736 76.3093 70.5674Z" fill="#C06E54"/>
<path d="M44.362 64.6172C39.1447 62.4194 36.3232 57.905 36.5113 52.0541C36.5448 49.3881 37.3991 46.7971 38.9581 44.6341C40.517 42.4711 42.7047 40.8411 45.2233 39.9662C47.7385 39.0965 50.4572 39.0033 53.026 39.699C55.5949 40.3946 57.8951 41.8468 59.6278 43.8668C60.0436 44.3519 60.4 44.8568 60.7861 45.4211C57.0934 48.8069 53.1136 51.9452 49.7971 55.6676C47.5201 58.2317 46.144 61.6076 44.362 64.6172Z" fill="#1E9FBD"/>
<path d="M44.3621 64.617C46.1441 61.647 47.5103 58.2315 49.7972 55.707C53.1137 51.9846 57.0935 48.8463 60.7862 45.4604C63.9146 50.3313 63.677 56.6673 60.1922 60.8154C58.3437 63.1081 55.7882 64.7245 52.9246 65.4122C50.0609 66.0999 47.0501 65.8203 44.3621 64.617Z" fill="#83C8D8"/>
<path d="M53.965 20.5423C53.9388 21.6053 53.5195 22.6207 52.788 23.3924C52.0566 24.1641 51.065 24.6372 50.005 24.7201C47.3221 24.829 45.6193 23.3539 45.5599 20.869C45.5209 20.3115 45.5926 19.7518 45.7708 19.2222C45.9491 18.6925 46.2303 18.2033 46.5984 17.7828C46.9664 17.3623 47.4141 17.0187 47.9155 16.7719C48.4169 16.5251 48.9621 16.3799 49.5199 16.3447C50.6318 16.4227 51.6824 16.8835 52.4929 17.6489C53.3033 18.4142 53.8235 19.4367 53.965 20.5423Z" fill="#1E9FBD"/>
</g>
<defs>
<clipPath id="clip0_3822_7147">
<rect width="100" height="173.161" fill="white"/>
</clipPath>
</defs>
</svg>
