<svg width="319" height="171" viewBox="0 0 319 171" fill="none" xmlns="http://www.w3.org/2000/svg">
<path d="M1.57849 120.561C-6.97428 117.002 21.6695 99.9095 29.0927 104.909C38.3716 111.158 38.9364 134.55 58.7047 125.606C78.4729 116.662 81.1356 111.101 88.8815 112.649C96.6274 114.197 106.552 125.606 116.96 125.606C127.369 125.606 170.779 105.712 178.444 108.062C186.109 110.413 202.004 122.911 213.542 120.561C225.081 118.21 233.391 102.214 246.543 108.062C257.065 112.74 299.232 121.707 319 125.606V163.847L1.57849 167V120.561Z" fill="#FF9828" fill-opacity="0.5"/>
<path d="M0 115.384C11.0626 110.817 15.859 119.362 24.7555 119.362C33.652 119.362 36.3596 115.384 43.1674 115.384C46.6119 115.384 61.2777 126.709 78.9855 129.38C104.747 115.384 116.588 125.965 122.153 124.371C139.636 119.362 141.184 82.751 141.184 58H143.814C143.814 84.7399 149.925 127.391 176.383 124.371C193.874 122.374 189.689 119.362 199.669 119.362C209.648 119.362 215.605 124.371 227.751 124.371C239.896 124.371 247.4 115.384 262.176 115.384L262.531 115.384C277.219 115.383 293.705 115.383 299 124.371V171H0V115.384Z" fill="url(#paint0_linear_3891_6234)"/>
<g clip-path="url(#clip0_3891_6234)">
<path d="M137.021 6.37363C137.867 5.0377 138.786 3.7488 139.772 2.51262C140.695 1.59973 141.688 0.759677 142.742 0C142.742 2.66904 142.722 5.3361 142.682 8.00119L141.886 8.23285C139.635 8.91595 138.649 10.2643 138.673 12.6166C138.673 14.6837 139.736 15.9014 142.011 16.5013C143.336 17.5052 142.486 18.8773 142.682 20.1188C141.906 20.1421 141.133 20.2135 140.366 20.3326C132.163 22.1146 128.129 32.0998 134.325 39.3407L134.978 40.0297L135.649 40.7009C136.077 41.2415 136.398 42.0137 136.956 42.281C138.845 43.1898 140.817 43.9204 142.759 44.7164C142.759 46.1598 142.759 47.5973 142.759 49.0407C140.309 51.9831 139.02 55.7209 139.136 59.5486C139.219 64.1461 140.063 68.7259 140.58 73.3175L139.047 73.4125L133.671 74.3629L128.622 75.7945L126.84 76.3885C126.454 75.2005 126.104 74.0897 125.747 72.9908C125.337 71.3751 124.934 69.7594 124.524 68.1437L122.878 52.7829C122.961 50.6504 123.039 48.5239 123.122 46.3914L123.555 41.093C124.66 36.238 125.769 31.387 126.882 26.5399L128.503 22.1562C128.899 21.1702 129.295 20.1802 129.691 19.1862L130.832 16.7627C131.802 14.9886 132.774 13.2066 133.749 11.4167L134.271 10.4247L137.021 6.37363ZM127.909 48.417V34.9985L127.713 34.9688L126.525 49.7654C126.39 50.1775 126.305 50.6042 126.27 51.0365C126.472 55.0935 126.567 59.1684 126.977 63.2017C127.286 66.2786 127.999 69.308 128.569 72.5453L131.67 71.6186C130.588 65.4707 129.531 59.5842 128.533 53.6798C128.248 51.9394 128.117 50.1752 127.909 48.417Z" fill="#FF9828"/>
<path d="M142.7 49.0407C142.7 47.5973 142.7 46.1598 142.7 44.7164C147.351 44.8173 151.105 43.0353 153.499 39.0258C155.4 35.8479 155.988 32.4087 154.093 28.9278C152.204 23.5165 148.693 20.196 142.7 20.1188C142.504 18.9308 143.353 17.5052 142.029 16.5013C143.971 16.632 145.729 16.2637 146.632 14.3095C147.381 12.6879 147.363 10.9415 146.038 9.68815C145.165 8.87437 143.841 8.54767 142.712 8.00119C142.712 5.33611 142.732 2.66904 142.771 0L144.304 1.15236L144.583 1.41966L151.806 11.4108L156.956 21.8236L160.176 31.286C160.552 33.1789 160.93 35.0757 161.31 36.9765L162.243 42.7205L162.557 46.332L162.599 52.1295C162.468 54.5055 162.445 56.9171 162.183 59.2931C161.862 62.2631 161.34 65.1975 160.906 68.1497C160.698 69.207 160.484 70.2703 160.277 71.3276C159.843 72.8482 159.415 74.3629 158.982 75.8776V75.9192L158.827 76.3291L154.473 75.0223L150.131 73.9709L145.409 73.2819C145.688 70.5673 145.759 67.8111 146.294 65.144C147.383 60.1391 146.626 54.9091 144.161 50.4188C143.749 49.8861 143.256 49.4212 142.7 49.0407V49.0407ZM157.55 46.736C157.2 50.3 156.956 53.864 156.463 57.3686C156.035 60.5049 155.275 63.5878 154.812 66.7122C154.634 67.8646 154.117 69.4981 156.427 69.2426C156.707 69.2426 157.021 69.7416 157.402 70.0505C159.481 60.8732 159.481 51.6365 158.744 42.3404C158.512 40.7841 158.275 39.2337 158.043 37.6775H157.55V46.736Z" fill="#D35500"/>
<path d="M142.7 20.1191C148.694 20.1964 152.204 23.5168 154.152 28.9163C154.152 29.641 154.152 30.3716 154.152 31.0963C154.319 35.2543 152.745 38.6163 149.305 40.9507C146.929 42.5605 144.31 43.6416 141.358 42.7327C139.415 42.1387 137.526 41.3784 135.62 40.6894C135.394 40.4696 135.168 40.2439 134.948 40.0182L134.307 39.3172C128.111 32.0883 132.145 22.0912 140.348 20.3092C141.127 20.1966 141.913 20.1331 142.7 20.1191V20.1191ZM139.641 38.7708C141.257 39.4916 143.066 39.6564 144.786 39.2394C146.506 38.8224 148.039 37.8471 149.145 36.466C151.236 33.9772 151.378 30.1756 149.501 27.2531C149.27 26.9442 149.056 26.6116 148.806 26.3205C147.767 25.1085 146.387 24.2372 144.845 23.8198C143.304 23.4024 141.673 23.4583 140.164 23.9801C138.653 24.5051 137.34 25.4831 136.405 26.7809C135.469 28.0787 134.957 29.6333 134.937 31.2329C134.794 34.7434 136.487 37.4521 139.617 38.7708H139.641Z" fill="#184156"/>
<path d="M142.7 49.041C143.259 49.4264 143.754 49.8975 144.167 50.4369C146.632 54.9272 147.389 60.1573 146.3 65.1622C145.765 67.8293 145.706 70.5854 145.415 73.3C145.201 74.5514 144.991 75.8067 144.785 77.066C144.328 79.733 143.882 82.412 143.395 85.0731C143.341 85.3404 142.985 85.5542 142.801 85.7918C142.625 85.5594 142.484 85.3034 142.379 85.0315C142.112 83.7306 141.886 82.4238 141.649 81.117L141.375 80.0835L140.573 73.3178C140.039 68.7262 139.195 64.1524 139.136 59.5489C139.003 55.7289 140.271 51.992 142.7 49.041V49.041Z" fill="#699CFF"/>
<path d="M122.878 52.7832L124.518 68.1262L124.197 68.3163L123.858 68.4173L122.165 69.3024L114.099 73.0208L113 73.5079C113.032 73.4844 113.058 73.4529 113.075 73.4165C113.092 73.38 113.099 73.3399 113.095 73.3V60.232L115.15 58.5628L122.878 52.7832Z" fill="#699CFF"/>
<path d="M127.909 48.4173C128.117 50.1993 128.248 51.9397 128.545 53.6801C129.543 59.5845 130.6 65.471 131.681 71.6189L128.581 72.5456C127.987 69.3083 127.298 66.2789 126.989 63.202C126.579 59.1687 126.484 55.0939 126.282 51.0368C126.316 50.6045 126.402 50.1778 126.537 49.7657L126.781 50.1043C126.816 50.1043 126.882 50.0389 126.888 50.0092L127.256 43.0713H127.553V49.73H127.85L127.909 48.4173Z" fill="#E17C55"/>
<path d="M122.878 52.783L115.156 58.5389V52.1712L119.534 48.7973L121.833 47.1222L123.098 46.3916C123.039 48.5241 122.961 50.6506 122.878 52.783Z" fill="#106D8A"/>
<path d="M135.631 40.7005C137.538 41.3895 139.427 42.1736 141.369 42.7676C144.339 43.6646 146.947 42.5835 149.317 40.9856C152.756 38.6512 154.33 35.2951 154.164 31.1312C154.164 30.4065 154.164 29.6759 154.164 28.9512C156.041 32.4439 155.453 35.8832 153.57 39.0492C151.194 43.0587 147.422 44.8407 142.771 44.7397C140.829 43.9437 138.857 43.2131 136.968 42.3043C136.38 42.0132 136.059 41.241 135.631 40.7005Z" fill="#713E39"/>
<path d="M142.7 8.00098C143.829 8.54746 145.153 8.87416 146.026 9.68794C147.363 10.9413 147.381 12.6876 146.62 14.3093C145.717 16.2635 143.959 16.6318 142.017 16.5011C139.742 15.9071 138.702 14.6835 138.679 12.6164C138.679 10.2404 139.641 8.91574 141.892 8.23264L142.7 8.00098ZM145.403 12.3253C145.317 11.6562 144.999 11.0383 144.506 10.5784C144.012 10.1185 143.373 9.84554 142.7 9.80674C142.365 9.82786 142.038 9.91497 141.737 10.0631C141.436 10.2111 141.168 10.4173 140.947 10.6696C140.726 10.9219 140.557 11.2154 140.451 11.5332C140.344 11.851 140.301 12.1868 140.324 12.5213C140.36 14.0123 141.381 14.8973 142.991 14.832C143.629 14.785 144.227 14.5024 144.668 14.0391C145.11 13.5758 145.363 12.965 145.379 12.3253H145.403Z" fill="#194257"/>
<path d="M127.909 48.4169L127.85 49.7237H127.601V43.0709H127.256L126.864 50.0088C126.864 50.0088 126.793 50.0742 126.757 50.1039L126.514 49.7653L127.702 34.9688L127.898 34.9984L127.909 48.4169Z" fill="#E39F82"/>
<path d="M134.319 39.3291L134.978 40.03L134.319 39.3291Z" fill="#713E39"/>
<path d="M160.906 68.1617C161.34 65.1917 161.862 62.2692 162.183 59.3111C162.445 56.9351 162.468 54.5591 162.599 52.1475L170.024 58.4498C170.262 58.0637 170.422 57.7905 170.618 57.5172L170.725 58.5092L173.03 60.5526V73.5196L170.018 72.3316L169.311 72.0168L164.292 69.6705L160.906 68.1617Z" fill="#699CFF"/>
<path d="M158.786 42.3398C159.522 51.6241 159.522 60.8727 157.443 70.05C157.081 69.7411 156.748 69.2124 156.469 69.2421C154.158 69.4976 154.687 67.8641 154.853 66.7117C155.334 63.5872 156.077 60.5044 156.505 57.3681C156.986 53.8397 157.241 50.2816 157.592 46.7355C157.794 46.4563 158.114 46.1949 158.186 45.886C158.429 44.7158 158.59 43.5219 158.786 42.3398Z" fill="#A05444"/>
<path d="M170.618 57.5168C170.452 57.7901 170.291 58.0633 170.024 58.4494L162.599 52.1471C162.599 50.2166 162.599 48.2801 162.557 46.3496L169.614 51.5471L169.917 51.8144C170.24 52.2884 170.477 52.8151 170.618 53.3707C170.677 54.7488 170.618 56.1328 170.618 57.5168Z" fill="#106F8B"/>
<path d="M158.786 42.3406C158.59 43.5286 158.429 44.7166 158.192 45.9046C158.12 46.2135 157.799 46.4986 157.598 46.7541V37.6777H158.091C158.316 39.234 158.554 40.7844 158.786 42.3406Z" fill="#C06E54"/>
<path d="M139.617 38.7706C136.487 37.4519 134.794 34.7433 134.907 31.2327C134.927 29.6331 135.44 28.0786 136.375 26.7808C137.31 25.483 138.623 24.505 140.134 23.98C141.643 23.4582 143.274 23.4023 144.816 23.8197C146.357 24.237 147.737 25.1083 148.777 26.3204C149.026 26.6114 149.24 26.9144 149.472 27.2529C147.256 29.2844 144.868 31.1674 142.878 33.4009C141.512 34.9393 140.686 36.9649 139.617 38.7706Z" fill="#1E9FBD"/>
<path d="M139.617 38.7703C140.686 36.9883 141.506 34.939 142.878 33.4243C144.868 31.1908 147.256 29.3078 149.472 27.2764C151.349 30.1989 151.206 34.0005 149.115 36.4893C148.006 37.865 146.473 38.8348 144.755 39.2474C143.036 39.66 141.23 39.4923 139.617 38.7703V38.7703Z" fill="#83C8D8"/>
<path d="M145.379 12.3252C145.363 12.963 145.112 13.5722 144.673 14.0353C144.234 14.4983 143.639 14.7821 143.003 14.8319C141.393 14.8972 140.372 14.0122 140.336 12.5212C140.313 12.1867 140.356 11.8509 140.462 11.5331C140.569 11.2153 140.738 10.9218 140.959 10.6695C141.18 10.4172 141.448 10.211 141.749 10.063C142.05 9.91487 142.377 9.82776 142.712 9.80664C143.379 9.85342 144.009 10.1299 144.496 10.5891C144.982 11.0483 145.294 11.6618 145.379 12.3252Z" fill="#1E9FBD"/>
</g>
<defs>
<linearGradient id="paint0_linear_3891_6234" x1="149.5" y1="58" x2="149" y2="115" gradientUnits="userSpaceOnUse">
<stop offset="0.628222" stop-color="#9DE1FD" stop-opacity="0.55"/>
<stop offset="1" stop-color="#F0F3F5"/>
</linearGradient>
<clipPath id="clip0_3891_6234">
<rect width="60" height="103.897" fill="white" transform="translate(113)"/>
</clipPath>
</defs>
</svg>
